G04 #@! TF.GenerationSoftware,KiCad,Pcbnew,(5.1.10-1-10_14)*
G04 #@! TF.CreationDate,2021-07-08T16:42:05+02:00*
G04 #@! TF.ProjectId,gb-fpga,67622d66-7067-4612-9e6b-696361645f70,rev?*
G04 #@! TF.SameCoordinates,Original*
G04 #@! TF.FileFunction,Paste,Bot*
G04 #@! TF.FilePolarity,Positive*
%FSLAX46Y46*%
G04 Gerber Fmt 4.6, Leading zero omitted, Abs format (unit mm)*
G04 Created by KiCad (PCBNEW (5.1.10-1-10_14)) date 2021-07-08 16:42:05*
%MOMM*%
%LPD*%
G01*
G04 APERTURE LIST*
%ADD10R,1.800000X2.200000*%
%ADD11R,0.300000X1.300000*%
G04 APERTURE END LIST*
D10*
X26350000Y68600000D03*
X54650000Y68600000D03*
D11*
X52750000Y71850000D03*
X52250000Y71850000D03*
X51750000Y71850000D03*
X51250000Y71850000D03*
X50750000Y71850000D03*
X50250000Y71850000D03*
X49750000Y71850000D03*
X49250000Y71850000D03*
X48750000Y71850000D03*
X48250000Y71850000D03*
X47750000Y71850000D03*
X47250000Y71850000D03*
X46750000Y71850000D03*
X46250000Y71850000D03*
X45750000Y71850000D03*
X45250000Y71850000D03*
X44750000Y71850000D03*
X44250000Y71850000D03*
X43750000Y71850000D03*
X43250000Y71850000D03*
X42750000Y71850000D03*
X42250000Y71850000D03*
X41750000Y71850000D03*
X41250000Y71850000D03*
X40750000Y71850000D03*
X40250000Y71850000D03*
X39750000Y71850000D03*
X39250000Y71850000D03*
X38750000Y71850000D03*
X38250000Y71850000D03*
X37750000Y71850000D03*
X37250000Y71850000D03*
X36750000Y71850000D03*
X36250000Y71850000D03*
X35750000Y71850000D03*
X35250000Y71850000D03*
X34750000Y71850000D03*
X34250000Y71850000D03*
X33750000Y71850000D03*
X33250000Y71850000D03*
X32750000Y71850000D03*
X32250000Y71850000D03*
X31750000Y71850000D03*
X31250000Y71850000D03*
X30750000Y71850000D03*
X30250000Y71850000D03*
X29750000Y71850000D03*
X29250000Y71850000D03*
X28750000Y71850000D03*
X28250000Y71850000D03*
G36*
G01*
X46175500Y49036000D02*
X45974500Y49036000D01*
G75*
G02*
X45895000Y49115500I0J79500D01*
G01*
X45895000Y49274500D01*
G75*
G02*
X45974500Y49354000I79500J0D01*
G01*
X46175500Y49354000D01*
G75*
G02*
X46255000Y49274500I0J-79500D01*
G01*
X46255000Y49115500D01*
G75*
G02*
X46175500Y49036000I-79500J0D01*
G01*
G37*
G36*
G01*
X46175500Y48346000D02*
X45974500Y48346000D01*
G75*
G02*
X45895000Y48425500I0J79500D01*
G01*
X45895000Y48584500D01*
G75*
G02*
X45974500Y48664000I79500J0D01*
G01*
X46175500Y48664000D01*
G75*
G02*
X46255000Y48584500I0J-79500D01*
G01*
X46255000Y48425500D01*
G75*
G02*
X46175500Y48346000I-79500J0D01*
G01*
G37*
G36*
G01*
X49175500Y47321000D02*
X48974500Y47321000D01*
G75*
G02*
X48895000Y47400500I0J79500D01*
G01*
X48895000Y47559500D01*
G75*
G02*
X48974500Y47639000I79500J0D01*
G01*
X49175500Y47639000D01*
G75*
G02*
X49255000Y47559500I0J-79500D01*
G01*
X49255000Y47400500D01*
G75*
G02*
X49175500Y47321000I-79500J0D01*
G01*
G37*
G36*
G01*
X49175500Y48011000D02*
X48974500Y48011000D01*
G75*
G02*
X48895000Y48090500I0J79500D01*
G01*
X48895000Y48249500D01*
G75*
G02*
X48974500Y48329000I79500J0D01*
G01*
X49175500Y48329000D01*
G75*
G02*
X49255000Y48249500I0J-79500D01*
G01*
X49255000Y48090500D01*
G75*
G02*
X49175500Y48011000I-79500J0D01*
G01*
G37*
G36*
G01*
X55974500Y48664000D02*
X56175500Y48664000D01*
G75*
G02*
X56255000Y48584500I0J-79500D01*
G01*
X56255000Y48425500D01*
G75*
G02*
X56175500Y48346000I-79500J0D01*
G01*
X55974500Y48346000D01*
G75*
G02*
X55895000Y48425500I0J79500D01*
G01*
X55895000Y48584500D01*
G75*
G02*
X55974500Y48664000I79500J0D01*
G01*
G37*
G36*
G01*
X55974500Y49354000D02*
X56175500Y49354000D01*
G75*
G02*
X56255000Y49274500I0J-79500D01*
G01*
X56255000Y49115500D01*
G75*
G02*
X56175500Y49036000I-79500J0D01*
G01*
X55974500Y49036000D01*
G75*
G02*
X55895000Y49115500I0J79500D01*
G01*
X55895000Y49274500D01*
G75*
G02*
X55974500Y49354000I79500J0D01*
G01*
G37*
G36*
G01*
X49175500Y52346000D02*
X48974500Y52346000D01*
G75*
G02*
X48895000Y52425500I0J79500D01*
G01*
X48895000Y52584500D01*
G75*
G02*
X48974500Y52664000I79500J0D01*
G01*
X49175500Y52664000D01*
G75*
G02*
X49255000Y52584500I0J-79500D01*
G01*
X49255000Y52425500D01*
G75*
G02*
X49175500Y52346000I-79500J0D01*
G01*
G37*
G36*
G01*
X49175500Y53036000D02*
X48974500Y53036000D01*
G75*
G02*
X48895000Y53115500I0J79500D01*
G01*
X48895000Y53274500D01*
G75*
G02*
X48974500Y53354000I79500J0D01*
G01*
X49175500Y53354000D01*
G75*
G02*
X49255000Y53274500I0J-79500D01*
G01*
X49255000Y53115500D01*
G75*
G02*
X49175500Y53036000I-79500J0D01*
G01*
G37*
G36*
G01*
X50974500Y52659000D02*
X51175500Y52659000D01*
G75*
G02*
X51255000Y52579500I0J-79500D01*
G01*
X51255000Y52420500D01*
G75*
G02*
X51175500Y52341000I-79500J0D01*
G01*
X50974500Y52341000D01*
G75*
G02*
X50895000Y52420500I0J79500D01*
G01*
X50895000Y52579500D01*
G75*
G02*
X50974500Y52659000I79500J0D01*
G01*
G37*
G36*
G01*
X50974500Y53349000D02*
X51175500Y53349000D01*
G75*
G02*
X51255000Y53269500I0J-79500D01*
G01*
X51255000Y53110500D01*
G75*
G02*
X51175500Y53031000I-79500J0D01*
G01*
X50974500Y53031000D01*
G75*
G02*
X50895000Y53110500I0J79500D01*
G01*
X50895000Y53269500D01*
G75*
G02*
X50974500Y53349000I79500J0D01*
G01*
G37*
G36*
G01*
X47974500Y52664000D02*
X48175500Y52664000D01*
G75*
G02*
X48255000Y52584500I0J-79500D01*
G01*
X48255000Y52425500D01*
G75*
G02*
X48175500Y52346000I-79500J0D01*
G01*
X47974500Y52346000D01*
G75*
G02*
X47895000Y52425500I0J79500D01*
G01*
X47895000Y52584500D01*
G75*
G02*
X47974500Y52664000I79500J0D01*
G01*
G37*
G36*
G01*
X47974500Y53354000D02*
X48175500Y53354000D01*
G75*
G02*
X48255000Y53274500I0J-79500D01*
G01*
X48255000Y53115500D01*
G75*
G02*
X48175500Y53036000I-79500J0D01*
G01*
X47974500Y53036000D01*
G75*
G02*
X47895000Y53115500I0J79500D01*
G01*
X47895000Y53274500D01*
G75*
G02*
X47974500Y53354000I79500J0D01*
G01*
G37*
G36*
G01*
X51175500Y48346000D02*
X50974500Y48346000D01*
G75*
G02*
X50895000Y48425500I0J79500D01*
G01*
X50895000Y48584500D01*
G75*
G02*
X50974500Y48664000I79500J0D01*
G01*
X51175500Y48664000D01*
G75*
G02*
X51255000Y48584500I0J-79500D01*
G01*
X51255000Y48425500D01*
G75*
G02*
X51175500Y48346000I-79500J0D01*
G01*
G37*
G36*
G01*
X51175500Y49036000D02*
X50974500Y49036000D01*
G75*
G02*
X50895000Y49115500I0J79500D01*
G01*
X50895000Y49274500D01*
G75*
G02*
X50974500Y49354000I79500J0D01*
G01*
X51175500Y49354000D01*
G75*
G02*
X51255000Y49274500I0J-79500D01*
G01*
X51255000Y49115500D01*
G75*
G02*
X51175500Y49036000I-79500J0D01*
G01*
G37*
G36*
G01*
X52175500Y53036000D02*
X51974500Y53036000D01*
G75*
G02*
X51895000Y53115500I0J79500D01*
G01*
X51895000Y53274500D01*
G75*
G02*
X51974500Y53354000I79500J0D01*
G01*
X52175500Y53354000D01*
G75*
G02*
X52255000Y53274500I0J-79500D01*
G01*
X52255000Y53115500D01*
G75*
G02*
X52175500Y53036000I-79500J0D01*
G01*
G37*
G36*
G01*
X52175500Y52346000D02*
X51974500Y52346000D01*
G75*
G02*
X51895000Y52425500I0J79500D01*
G01*
X51895000Y52584500D01*
G75*
G02*
X51974500Y52664000I79500J0D01*
G01*
X52175500Y52664000D01*
G75*
G02*
X52255000Y52584500I0J-79500D01*
G01*
X52255000Y52425500D01*
G75*
G02*
X52175500Y52346000I-79500J0D01*
G01*
G37*
G36*
G01*
X46974500Y48664000D02*
X47175500Y48664000D01*
G75*
G02*
X47255000Y48584500I0J-79500D01*
G01*
X47255000Y48425500D01*
G75*
G02*
X47175500Y48346000I-79500J0D01*
G01*
X46974500Y48346000D01*
G75*
G02*
X46895000Y48425500I0J79500D01*
G01*
X46895000Y48584500D01*
G75*
G02*
X46974500Y48664000I79500J0D01*
G01*
G37*
G36*
G01*
X46974500Y49354000D02*
X47175500Y49354000D01*
G75*
G02*
X47255000Y49274500I0J-79500D01*
G01*
X47255000Y49115500D01*
G75*
G02*
X47175500Y49036000I-79500J0D01*
G01*
X46974500Y49036000D01*
G75*
G02*
X46895000Y49115500I0J79500D01*
G01*
X46895000Y49274500D01*
G75*
G02*
X46974500Y49354000I79500J0D01*
G01*
G37*
G36*
G01*
X53175500Y48351000D02*
X52974500Y48351000D01*
G75*
G02*
X52895000Y48430500I0J79500D01*
G01*
X52895000Y48589500D01*
G75*
G02*
X52974500Y48669000I79500J0D01*
G01*
X53175500Y48669000D01*
G75*
G02*
X53255000Y48589500I0J-79500D01*
G01*
X53255000Y48430500D01*
G75*
G02*
X53175500Y48351000I-79500J0D01*
G01*
G37*
G36*
G01*
X53175500Y49041000D02*
X52974500Y49041000D01*
G75*
G02*
X52895000Y49120500I0J79500D01*
G01*
X52895000Y49279500D01*
G75*
G02*
X52974500Y49359000I79500J0D01*
G01*
X53175500Y49359000D01*
G75*
G02*
X53255000Y49279500I0J-79500D01*
G01*
X53255000Y49120500D01*
G75*
G02*
X53175500Y49041000I-79500J0D01*
G01*
G37*
G36*
G01*
X59836000Y52219500D02*
X59836000Y52420500D01*
G75*
G02*
X59915500Y52500000I79500J0D01*
G01*
X60074500Y52500000D01*
G75*
G02*
X60154000Y52420500I0J-79500D01*
G01*
X60154000Y52219500D01*
G75*
G02*
X60074500Y52140000I-79500J0D01*
G01*
X59915500Y52140000D01*
G75*
G02*
X59836000Y52219500I0J79500D01*
G01*
G37*
G36*
G01*
X59146000Y52219500D02*
X59146000Y52420500D01*
G75*
G02*
X59225500Y52500000I79500J0D01*
G01*
X59384500Y52500000D01*
G75*
G02*
X59464000Y52420500I0J-79500D01*
G01*
X59464000Y52219500D01*
G75*
G02*
X59384500Y52140000I-79500J0D01*
G01*
X59225500Y52140000D01*
G75*
G02*
X59146000Y52219500I0J79500D01*
G01*
G37*
G36*
G01*
X57659500Y40704000D02*
X57860500Y40704000D01*
G75*
G02*
X57940000Y40624500I0J-79500D01*
G01*
X57940000Y40465500D01*
G75*
G02*
X57860500Y40386000I-79500J0D01*
G01*
X57659500Y40386000D01*
G75*
G02*
X57580000Y40465500I0J79500D01*
G01*
X57580000Y40624500D01*
G75*
G02*
X57659500Y40704000I79500J0D01*
G01*
G37*
G36*
G01*
X57659500Y41394000D02*
X57860500Y41394000D01*
G75*
G02*
X57940000Y41314500I0J-79500D01*
G01*
X57940000Y41155500D01*
G75*
G02*
X57860500Y41076000I-79500J0D01*
G01*
X57659500Y41076000D01*
G75*
G02*
X57580000Y41155500I0J79500D01*
G01*
X57580000Y41314500D01*
G75*
G02*
X57659500Y41394000I79500J0D01*
G01*
G37*
G36*
G01*
X43974500Y44354000D02*
X44175500Y44354000D01*
G75*
G02*
X44255000Y44274500I0J-79500D01*
G01*
X44255000Y44115500D01*
G75*
G02*
X44175500Y44036000I-79500J0D01*
G01*
X43974500Y44036000D01*
G75*
G02*
X43895000Y44115500I0J79500D01*
G01*
X43895000Y44274500D01*
G75*
G02*
X43974500Y44354000I79500J0D01*
G01*
G37*
G36*
G01*
X43974500Y43664000D02*
X44175500Y43664000D01*
G75*
G02*
X44255000Y43584500I0J-79500D01*
G01*
X44255000Y43425500D01*
G75*
G02*
X44175500Y43346000I-79500J0D01*
G01*
X43974500Y43346000D01*
G75*
G02*
X43895000Y43425500I0J79500D01*
G01*
X43895000Y43584500D01*
G75*
G02*
X43974500Y43664000I79500J0D01*
G01*
G37*
G36*
G01*
X44974500Y51354000D02*
X45175500Y51354000D01*
G75*
G02*
X45255000Y51274500I0J-79500D01*
G01*
X45255000Y51115500D01*
G75*
G02*
X45175500Y51036000I-79500J0D01*
G01*
X44974500Y51036000D01*
G75*
G02*
X44895000Y51115500I0J79500D01*
G01*
X44895000Y51274500D01*
G75*
G02*
X44974500Y51354000I79500J0D01*
G01*
G37*
G36*
G01*
X44974500Y50664000D02*
X45175500Y50664000D01*
G75*
G02*
X45255000Y50584500I0J-79500D01*
G01*
X45255000Y50425500D01*
G75*
G02*
X45175500Y50346000I-79500J0D01*
G01*
X44974500Y50346000D01*
G75*
G02*
X44895000Y50425500I0J79500D01*
G01*
X44895000Y50584500D01*
G75*
G02*
X44974500Y50664000I79500J0D01*
G01*
G37*
G36*
G01*
X43974500Y48664000D02*
X44175500Y48664000D01*
G75*
G02*
X44255000Y48584500I0J-79500D01*
G01*
X44255000Y48425500D01*
G75*
G02*
X44175500Y48346000I-79500J0D01*
G01*
X43974500Y48346000D01*
G75*
G02*
X43895000Y48425500I0J79500D01*
G01*
X43895000Y48584500D01*
G75*
G02*
X43974500Y48664000I79500J0D01*
G01*
G37*
G36*
G01*
X43974500Y49354000D02*
X44175500Y49354000D01*
G75*
G02*
X44255000Y49274500I0J-79500D01*
G01*
X44255000Y49115500D01*
G75*
G02*
X44175500Y49036000I-79500J0D01*
G01*
X43974500Y49036000D01*
G75*
G02*
X43895000Y49115500I0J79500D01*
G01*
X43895000Y49274500D01*
G75*
G02*
X43974500Y49354000I79500J0D01*
G01*
G37*
G36*
G01*
X51175500Y44346000D02*
X50974500Y44346000D01*
G75*
G02*
X50895000Y44425500I0J79500D01*
G01*
X50895000Y44584500D01*
G75*
G02*
X50974500Y44664000I79500J0D01*
G01*
X51175500Y44664000D01*
G75*
G02*
X51255000Y44584500I0J-79500D01*
G01*
X51255000Y44425500D01*
G75*
G02*
X51175500Y44346000I-79500J0D01*
G01*
G37*
G36*
G01*
X51175500Y45036000D02*
X50974500Y45036000D01*
G75*
G02*
X50895000Y45115500I0J79500D01*
G01*
X50895000Y45274500D01*
G75*
G02*
X50974500Y45354000I79500J0D01*
G01*
X51175500Y45354000D01*
G75*
G02*
X51255000Y45274500I0J-79500D01*
G01*
X51255000Y45115500D01*
G75*
G02*
X51175500Y45036000I-79500J0D01*
G01*
G37*
G36*
G01*
X58589500Y41394000D02*
X58790500Y41394000D01*
G75*
G02*
X58870000Y41314500I0J-79500D01*
G01*
X58870000Y41155500D01*
G75*
G02*
X58790500Y41076000I-79500J0D01*
G01*
X58589500Y41076000D01*
G75*
G02*
X58510000Y41155500I0J79500D01*
G01*
X58510000Y41314500D01*
G75*
G02*
X58589500Y41394000I79500J0D01*
G01*
G37*
G36*
G01*
X58589500Y40704000D02*
X58790500Y40704000D01*
G75*
G02*
X58870000Y40624500I0J-79500D01*
G01*
X58870000Y40465500D01*
G75*
G02*
X58790500Y40386000I-79500J0D01*
G01*
X58589500Y40386000D01*
G75*
G02*
X58510000Y40465500I0J79500D01*
G01*
X58510000Y40624500D01*
G75*
G02*
X58589500Y40704000I79500J0D01*
G01*
G37*
G36*
G01*
X59146000Y51379500D02*
X59146000Y51580500D01*
G75*
G02*
X59225500Y51660000I79500J0D01*
G01*
X59384500Y51660000D01*
G75*
G02*
X59464000Y51580500I0J-79500D01*
G01*
X59464000Y51379500D01*
G75*
G02*
X59384500Y51300000I-79500J0D01*
G01*
X59225500Y51300000D01*
G75*
G02*
X59146000Y51379500I0J79500D01*
G01*
G37*
G36*
G01*
X59836000Y51379500D02*
X59836000Y51580500D01*
G75*
G02*
X59915500Y51660000I79500J0D01*
G01*
X60074500Y51660000D01*
G75*
G02*
X60154000Y51580500I0J-79500D01*
G01*
X60154000Y51379500D01*
G75*
G02*
X60074500Y51300000I-79500J0D01*
G01*
X59915500Y51300000D01*
G75*
G02*
X59836000Y51379500I0J79500D01*
G01*
G37*
G36*
G01*
X44175500Y53036000D02*
X43974500Y53036000D01*
G75*
G02*
X43895000Y53115500I0J79500D01*
G01*
X43895000Y53274500D01*
G75*
G02*
X43974500Y53354000I79500J0D01*
G01*
X44175500Y53354000D01*
G75*
G02*
X44255000Y53274500I0J-79500D01*
G01*
X44255000Y53115500D01*
G75*
G02*
X44175500Y53036000I-79500J0D01*
G01*
G37*
G36*
G01*
X44175500Y52346000D02*
X43974500Y52346000D01*
G75*
G02*
X43895000Y52425500I0J79500D01*
G01*
X43895000Y52584500D01*
G75*
G02*
X43974500Y52664000I79500J0D01*
G01*
X44175500Y52664000D01*
G75*
G02*
X44255000Y52584500I0J-79500D01*
G01*
X44255000Y52425500D01*
G75*
G02*
X44175500Y52346000I-79500J0D01*
G01*
G37*
G36*
G01*
X43974500Y55664000D02*
X44175500Y55664000D01*
G75*
G02*
X44255000Y55584500I0J-79500D01*
G01*
X44255000Y55425500D01*
G75*
G02*
X44175500Y55346000I-79500J0D01*
G01*
X43974500Y55346000D01*
G75*
G02*
X43895000Y55425500I0J79500D01*
G01*
X43895000Y55584500D01*
G75*
G02*
X43974500Y55664000I79500J0D01*
G01*
G37*
G36*
G01*
X43974500Y56354000D02*
X44175500Y56354000D01*
G75*
G02*
X44255000Y56274500I0J-79500D01*
G01*
X44255000Y56115500D01*
G75*
G02*
X44175500Y56036000I-79500J0D01*
G01*
X43974500Y56036000D01*
G75*
G02*
X43895000Y56115500I0J79500D01*
G01*
X43895000Y56274500D01*
G75*
G02*
X43974500Y56354000I79500J0D01*
G01*
G37*
G36*
G01*
X47175500Y56346000D02*
X46974500Y56346000D01*
G75*
G02*
X46895000Y56425500I0J79500D01*
G01*
X46895000Y56584500D01*
G75*
G02*
X46974500Y56664000I79500J0D01*
G01*
X47175500Y56664000D01*
G75*
G02*
X47255000Y56584500I0J-79500D01*
G01*
X47255000Y56425500D01*
G75*
G02*
X47175500Y56346000I-79500J0D01*
G01*
G37*
G36*
G01*
X47175500Y57036000D02*
X46974500Y57036000D01*
G75*
G02*
X46895000Y57115500I0J79500D01*
G01*
X46895000Y57274500D01*
G75*
G02*
X46974500Y57354000I79500J0D01*
G01*
X47175500Y57354000D01*
G75*
G02*
X47255000Y57274500I0J-79500D01*
G01*
X47255000Y57115500D01*
G75*
G02*
X47175500Y57036000I-79500J0D01*
G01*
G37*
G36*
G01*
X59519500Y40704000D02*
X59720500Y40704000D01*
G75*
G02*
X59800000Y40624500I0J-79500D01*
G01*
X59800000Y40465500D01*
G75*
G02*
X59720500Y40386000I-79500J0D01*
G01*
X59519500Y40386000D01*
G75*
G02*
X59440000Y40465500I0J79500D01*
G01*
X59440000Y40624500D01*
G75*
G02*
X59519500Y40704000I79500J0D01*
G01*
G37*
G36*
G01*
X59519500Y41394000D02*
X59720500Y41394000D01*
G75*
G02*
X59800000Y41314500I0J-79500D01*
G01*
X59800000Y41155500D01*
G75*
G02*
X59720500Y41076000I-79500J0D01*
G01*
X59519500Y41076000D01*
G75*
G02*
X59440000Y41155500I0J79500D01*
G01*
X59440000Y41314500D01*
G75*
G02*
X59519500Y41394000I79500J0D01*
G01*
G37*
G36*
G01*
X38204000Y56810500D02*
X38204000Y56609500D01*
G75*
G02*
X38124500Y56530000I-79500J0D01*
G01*
X37965500Y56530000D01*
G75*
G02*
X37886000Y56609500I0J79500D01*
G01*
X37886000Y56810500D01*
G75*
G02*
X37965500Y56890000I79500J0D01*
G01*
X38124500Y56890000D01*
G75*
G02*
X38204000Y56810500I0J-79500D01*
G01*
G37*
G36*
G01*
X37514000Y56810500D02*
X37514000Y56609500D01*
G75*
G02*
X37434500Y56530000I-79500J0D01*
G01*
X37275500Y56530000D01*
G75*
G02*
X37196000Y56609500I0J79500D01*
G01*
X37196000Y56810500D01*
G75*
G02*
X37275500Y56890000I79500J0D01*
G01*
X37434500Y56890000D01*
G75*
G02*
X37514000Y56810500I0J-79500D01*
G01*
G37*
G36*
G01*
X38304000Y58870500D02*
X38304000Y58669500D01*
G75*
G02*
X38224500Y58590000I-79500J0D01*
G01*
X38065500Y58590000D01*
G75*
G02*
X37986000Y58669500I0J79500D01*
G01*
X37986000Y58870500D01*
G75*
G02*
X38065500Y58950000I79500J0D01*
G01*
X38224500Y58950000D01*
G75*
G02*
X38304000Y58870500I0J-79500D01*
G01*
G37*
G36*
G01*
X38994000Y58870500D02*
X38994000Y58669500D01*
G75*
G02*
X38914500Y58590000I-79500J0D01*
G01*
X38755500Y58590000D01*
G75*
G02*
X38676000Y58669500I0J79500D01*
G01*
X38676000Y58870500D01*
G75*
G02*
X38755500Y58950000I79500J0D01*
G01*
X38914500Y58950000D01*
G75*
G02*
X38994000Y58870500I0J-79500D01*
G01*
G37*
G36*
G01*
X59836000Y50539500D02*
X59836000Y50740500D01*
G75*
G02*
X59915500Y50820000I79500J0D01*
G01*
X60074500Y50820000D01*
G75*
G02*
X60154000Y50740500I0J-79500D01*
G01*
X60154000Y50539500D01*
G75*
G02*
X60074500Y50460000I-79500J0D01*
G01*
X59915500Y50460000D01*
G75*
G02*
X59836000Y50539500I0J79500D01*
G01*
G37*
G36*
G01*
X59146000Y50539500D02*
X59146000Y50740500D01*
G75*
G02*
X59225500Y50820000I79500J0D01*
G01*
X59384500Y50820000D01*
G75*
G02*
X59464000Y50740500I0J-79500D01*
G01*
X59464000Y50539500D01*
G75*
G02*
X59384500Y50460000I-79500J0D01*
G01*
X59225500Y50460000D01*
G75*
G02*
X59146000Y50539500I0J79500D01*
G01*
G37*
G36*
G01*
X50974500Y55664000D02*
X51175500Y55664000D01*
G75*
G02*
X51255000Y55584500I0J-79500D01*
G01*
X51255000Y55425500D01*
G75*
G02*
X51175500Y55346000I-79500J0D01*
G01*
X50974500Y55346000D01*
G75*
G02*
X50895000Y55425500I0J79500D01*
G01*
X50895000Y55584500D01*
G75*
G02*
X50974500Y55664000I79500J0D01*
G01*
G37*
G36*
G01*
X50974500Y56354000D02*
X51175500Y56354000D01*
G75*
G02*
X51255000Y56274500I0J-79500D01*
G01*
X51255000Y56115500D01*
G75*
G02*
X51175500Y56036000I-79500J0D01*
G01*
X50974500Y56036000D01*
G75*
G02*
X50895000Y56115500I0J79500D01*
G01*
X50895000Y56274500D01*
G75*
G02*
X50974500Y56354000I79500J0D01*
G01*
G37*
G36*
G01*
X38184000Y55910500D02*
X38184000Y55709500D01*
G75*
G02*
X38104500Y55630000I-79500J0D01*
G01*
X37945500Y55630000D01*
G75*
G02*
X37866000Y55709500I0J79500D01*
G01*
X37866000Y55910500D01*
G75*
G02*
X37945500Y55990000I79500J0D01*
G01*
X38104500Y55990000D01*
G75*
G02*
X38184000Y55910500I0J-79500D01*
G01*
G37*
G36*
G01*
X37494000Y55910500D02*
X37494000Y55709500D01*
G75*
G02*
X37414500Y55630000I-79500J0D01*
G01*
X37255500Y55630000D01*
G75*
G02*
X37176000Y55709500I0J79500D01*
G01*
X37176000Y55910500D01*
G75*
G02*
X37255500Y55990000I79500J0D01*
G01*
X37414500Y55990000D01*
G75*
G02*
X37494000Y55910500I0J-79500D01*
G01*
G37*
G36*
G01*
X46974500Y44354000D02*
X47175500Y44354000D01*
G75*
G02*
X47255000Y44274500I0J-79500D01*
G01*
X47255000Y44115500D01*
G75*
G02*
X47175500Y44036000I-79500J0D01*
G01*
X46974500Y44036000D01*
G75*
G02*
X46895000Y44115500I0J79500D01*
G01*
X46895000Y44274500D01*
G75*
G02*
X46974500Y44354000I79500J0D01*
G01*
G37*
G36*
G01*
X46974500Y43664000D02*
X47175500Y43664000D01*
G75*
G02*
X47255000Y43584500I0J-79500D01*
G01*
X47255000Y43425500D01*
G75*
G02*
X47175500Y43346000I-79500J0D01*
G01*
X46974500Y43346000D01*
G75*
G02*
X46895000Y43425500I0J79500D01*
G01*
X46895000Y43584500D01*
G75*
G02*
X46974500Y43664000I79500J0D01*
G01*
G37*
G36*
G01*
X40665000Y42620000D02*
X40665000Y42120000D01*
G75*
G02*
X40440000Y41895000I-225000J0D01*
G01*
X39990000Y41895000D01*
G75*
G02*
X39765000Y42120000I0J225000D01*
G01*
X39765000Y42620000D01*
G75*
G02*
X39990000Y42845000I225000J0D01*
G01*
X40440000Y42845000D01*
G75*
G02*
X40665000Y42620000I0J-225000D01*
G01*
G37*
G36*
G01*
X39115000Y42620000D02*
X39115000Y42120000D01*
G75*
G02*
X38890000Y41895000I-225000J0D01*
G01*
X38440000Y41895000D01*
G75*
G02*
X38215000Y42120000I0J225000D01*
G01*
X38215000Y42620000D01*
G75*
G02*
X38440000Y42845000I225000J0D01*
G01*
X38890000Y42845000D01*
G75*
G02*
X39115000Y42620000I0J-225000D01*
G01*
G37*
G36*
G01*
X31585000Y64430000D02*
X31585000Y63930000D01*
G75*
G02*
X31360000Y63705000I-225000J0D01*
G01*
X30910000Y63705000D01*
G75*
G02*
X30685000Y63930000I0J225000D01*
G01*
X30685000Y64430000D01*
G75*
G02*
X30910000Y64655000I225000J0D01*
G01*
X31360000Y64655000D01*
G75*
G02*
X31585000Y64430000I0J-225000D01*
G01*
G37*
G36*
G01*
X33135000Y64430000D02*
X33135000Y63930000D01*
G75*
G02*
X32910000Y63705000I-225000J0D01*
G01*
X32460000Y63705000D01*
G75*
G02*
X32235000Y63930000I0J225000D01*
G01*
X32235000Y64430000D01*
G75*
G02*
X32460000Y64655000I225000J0D01*
G01*
X32910000Y64655000D01*
G75*
G02*
X33135000Y64430000I0J-225000D01*
G01*
G37*
G36*
G01*
X63219999Y57680000D02*
X64520001Y57680000D01*
G75*
G02*
X64770000Y57430001I0J-249999D01*
G01*
X64770000Y56779999D01*
G75*
G02*
X64520001Y56530000I-249999J0D01*
G01*
X63219999Y56530000D01*
G75*
G02*
X62970000Y56779999I0J249999D01*
G01*
X62970000Y57430001D01*
G75*
G02*
X63219999Y57680000I249999J0D01*
G01*
G37*
G36*
G01*
X63219999Y60630000D02*
X64520001Y60630000D01*
G75*
G02*
X64770000Y60380001I0J-249999D01*
G01*
X64770000Y59729999D01*
G75*
G02*
X64520001Y59480000I-249999J0D01*
G01*
X63219999Y59480000D01*
G75*
G02*
X62970000Y59729999I0J249999D01*
G01*
X62970000Y60380001D01*
G75*
G02*
X63219999Y60630000I249999J0D01*
G01*
G37*
G36*
G01*
X40665000Y45260001D02*
X40665000Y43959999D01*
G75*
G02*
X40415001Y43710000I-249999J0D01*
G01*
X39764999Y43710000D01*
G75*
G02*
X39515000Y43959999I0J249999D01*
G01*
X39515000Y45260001D01*
G75*
G02*
X39764999Y45510000I249999J0D01*
G01*
X40415001Y45510000D01*
G75*
G02*
X40665000Y45260001I0J-249999D01*
G01*
G37*
G36*
G01*
X37715000Y45260001D02*
X37715000Y43959999D01*
G75*
G02*
X37465001Y43710000I-249999J0D01*
G01*
X36814999Y43710000D01*
G75*
G02*
X36565000Y43959999I0J249999D01*
G01*
X36565000Y45260001D01*
G75*
G02*
X36814999Y45510000I249999J0D01*
G01*
X37465001Y45510000D01*
G75*
G02*
X37715000Y45260001I0J-249999D01*
G01*
G37*
G36*
G01*
X50630000Y40640001D02*
X50630000Y39339999D01*
G75*
G02*
X50380001Y39090000I-249999J0D01*
G01*
X49729999Y39090000D01*
G75*
G02*
X49480000Y39339999I0J249999D01*
G01*
X49480000Y40640001D01*
G75*
G02*
X49729999Y40890000I249999J0D01*
G01*
X50380001Y40890000D01*
G75*
G02*
X50630000Y40640001I0J-249999D01*
G01*
G37*
G36*
G01*
X53580000Y40640001D02*
X53580000Y39339999D01*
G75*
G02*
X53330001Y39090000I-249999J0D01*
G01*
X52679999Y39090000D01*
G75*
G02*
X52430000Y39339999I0J249999D01*
G01*
X52430000Y40640001D01*
G75*
G02*
X52679999Y40890000I249999J0D01*
G01*
X53330001Y40890000D01*
G75*
G02*
X53580000Y40640001I0J-249999D01*
G01*
G37*
G36*
G01*
X60780001Y54470000D02*
X59479999Y54470000D01*
G75*
G02*
X59230000Y54719999I0J249999D01*
G01*
X59230000Y55370001D01*
G75*
G02*
X59479999Y55620000I249999J0D01*
G01*
X60780001Y55620000D01*
G75*
G02*
X61030000Y55370001I0J-249999D01*
G01*
X61030000Y54719999D01*
G75*
G02*
X60780001Y54470000I-249999J0D01*
G01*
G37*
G36*
G01*
X60780001Y57420000D02*
X59479999Y57420000D01*
G75*
G02*
X59230000Y57669999I0J249999D01*
G01*
X59230000Y58320001D01*
G75*
G02*
X59479999Y58570000I249999J0D01*
G01*
X60780001Y58570000D01*
G75*
G02*
X61030000Y58320001I0J-249999D01*
G01*
X61030000Y57669999D01*
G75*
G02*
X60780001Y57420000I-249999J0D01*
G01*
G37*
M02*
