G04 #@! TF.GenerationSoftware,KiCad,Pcbnew,(5.1.10-1-10_14)*
G04 #@! TF.CreationDate,2021-07-07T16:40:42+02:00*
G04 #@! TF.ProjectId,gb-fpga,67622d66-7067-4612-9e6b-696361645f70,rev?*
G04 #@! TF.SameCoordinates,Original*
G04 #@! TF.FileFunction,Legend,Bot*
G04 #@! TF.FilePolarity,Positive*
%FSLAX46Y46*%
G04 Gerber Fmt 4.6, Leading zero omitted, Abs format (unit mm)*
G04 Created by KiCad (PCBNEW (5.1.10-1-10_14)) date 2021-07-07 16:40:42*
%MOMM*%
%LPD*%
G01*
G04 APERTURE LIST*
%ADD10C,0.150000*%
%ADD11C,0.010000*%
%ADD12C,0.120000*%
G04 APERTURE END LIST*
D10*
X33267976Y17921428D02*
X33125119Y17873809D01*
X33077500Y17826190D01*
X33029880Y17730952D01*
X33029880Y17588095D01*
X33077500Y17492857D01*
X33125119Y17445238D01*
X33220357Y17397619D01*
X33601309Y17397619D01*
X33601309Y18397619D01*
X33267976Y18397619D01*
X33172738Y18350000D01*
X33125119Y18302380D01*
X33077500Y18207142D01*
X33077500Y18111904D01*
X33125119Y18016666D01*
X33172738Y17969047D01*
X33267976Y17921428D01*
X33601309Y17921428D01*
X32410833Y18397619D02*
X32220357Y18397619D01*
X32125119Y18350000D01*
X32029880Y18254761D01*
X31982261Y18064285D01*
X31982261Y17730952D01*
X32029880Y17540476D01*
X32125119Y17445238D01*
X32220357Y17397619D01*
X32410833Y17397619D01*
X32506071Y17445238D01*
X32601309Y17540476D01*
X32648928Y17730952D01*
X32648928Y18064285D01*
X32601309Y18254761D01*
X32506071Y18350000D01*
X32410833Y18397619D01*
X31601309Y17683333D02*
X31125119Y17683333D01*
X31696547Y17397619D02*
X31363214Y18397619D01*
X31029880Y17397619D01*
X30125119Y17397619D02*
X30458452Y17873809D01*
X30696547Y17397619D02*
X30696547Y18397619D01*
X30315595Y18397619D01*
X30220357Y18350000D01*
X30172738Y18302380D01*
X30125119Y18207142D01*
X30125119Y18064285D01*
X30172738Y17969047D01*
X30220357Y17921428D01*
X30315595Y17873809D01*
X30696547Y17873809D01*
X29696547Y17397619D02*
X29696547Y18397619D01*
X29458452Y18397619D01*
X29315595Y18350000D01*
X29220357Y18254761D01*
X29172738Y18159523D01*
X29125119Y17969047D01*
X29125119Y17826190D01*
X29172738Y17635714D01*
X29220357Y17540476D01*
X29315595Y17445238D01*
X29458452Y17397619D01*
X29696547Y17397619D01*
X27982261Y17683333D02*
X27506071Y17683333D01*
X28077500Y17397619D02*
X27744166Y18397619D01*
X27410833Y17397619D01*
X26315595Y17778571D02*
X25553690Y17778571D01*
X23744166Y17397619D02*
X24077500Y17873809D01*
X24315595Y17397619D02*
X24315595Y18397619D01*
X23934642Y18397619D01*
X23839404Y18350000D01*
X23791785Y18302380D01*
X23744166Y18207142D01*
X23744166Y18064285D01*
X23791785Y17969047D01*
X23839404Y17921428D01*
X23934642Y17873809D01*
X24315595Y17873809D01*
X23315595Y17921428D02*
X22982261Y17921428D01*
X22839404Y17397619D02*
X23315595Y17397619D01*
X23315595Y18397619D01*
X22839404Y18397619D01*
X22553690Y18397619D02*
X22220357Y17397619D01*
X21887023Y18397619D01*
X20267976Y17397619D02*
X20839404Y17397619D01*
X20553690Y17397619D02*
X20553690Y18397619D01*
X20648928Y18254761D01*
X20744166Y18159523D01*
X20839404Y18111904D01*
D11*
G36*
X20153333Y18952000D02*
G01*
X59946666Y18952000D01*
X59946666Y24455333D01*
X59438666Y24455333D01*
X59438666Y19460000D01*
X57999333Y19460000D01*
X57999333Y21576667D01*
X55205333Y21576667D01*
X55205333Y22254000D01*
X57999333Y22254000D01*
X57999333Y23778000D01*
X54528000Y23778000D01*
X54528000Y24455333D01*
X53766000Y24455333D01*
X53766000Y19460000D01*
X52326666Y19460000D01*
X52326666Y20899333D01*
X49532666Y20899333D01*
X49532666Y21576667D01*
X48855333Y21576667D01*
X48855333Y23016000D01*
X48178000Y23016000D01*
X48178000Y20899333D01*
X47500666Y20899333D01*
X47500666Y20137333D01*
X46738666Y20137333D01*
X46738666Y19460000D01*
X43267333Y19460000D01*
X43267333Y22254000D01*
X45384000Y22254000D01*
X45384000Y21576667D01*
X44622000Y21576667D01*
X44622000Y20137333D01*
X46061333Y20137333D01*
X46061333Y20899333D01*
X46738666Y20899333D01*
X46738666Y23016000D01*
X46061333Y23016000D01*
X42505333Y23016000D01*
X42505333Y19460000D01*
X41066000Y19460000D01*
X41066000Y20899333D01*
X38949333Y20899333D01*
X38949333Y19460000D01*
X37594666Y19460000D01*
X37594666Y23016000D01*
X38272000Y23016000D01*
X38272000Y23778000D01*
X38949333Y23778000D01*
X38949333Y24455333D01*
X36832666Y24455333D01*
X36832666Y19460000D01*
X35393333Y19460000D01*
X35393333Y22254000D01*
X34716000Y22254000D01*
X34716000Y20899333D01*
X34038666Y20899333D01*
X34038666Y22254000D01*
X33276666Y22254000D01*
X33276666Y19460000D01*
X31922000Y19460000D01*
X31922000Y24455333D01*
X31244666Y24455333D01*
X31244666Y19460000D01*
X27011333Y19460000D01*
X27011333Y20137333D01*
X26334000Y20137333D01*
X26334000Y21576667D01*
X27011333Y21576667D01*
X27011333Y22254000D01*
X26334000Y22254000D01*
X26334000Y23016000D01*
X25572000Y23016000D01*
X25572000Y20899333D01*
X24894666Y20899333D01*
X24894666Y20137333D01*
X24132666Y20137333D01*
X24132666Y19460000D01*
X22016000Y19460000D01*
X22016000Y20137333D01*
X21338666Y20137333D01*
X21338666Y20899333D01*
X20661333Y20899333D01*
X20661333Y23016000D01*
X21338666Y23016000D01*
X21338666Y23693333D01*
X22016000Y23693333D01*
X22016000Y24455333D01*
X24132666Y24455333D01*
X24132666Y23778000D01*
X24894666Y23778000D01*
X24894666Y23016000D01*
X25572000Y23016000D01*
X26334000Y23016000D01*
X26334000Y23693333D01*
X27011333Y23693333D01*
X27011333Y24455333D01*
X31244666Y24455333D01*
X31922000Y24455333D01*
X33276666Y24455333D01*
X33276666Y23693333D01*
X34038666Y23693333D01*
X34038666Y23016000D01*
X34716000Y23016000D01*
X34716000Y23693333D01*
X35393333Y23693333D01*
X35393333Y24455333D01*
X36832666Y24455333D01*
X38949333Y24455333D01*
X41066000Y24455333D01*
X41066000Y23778000D01*
X41828000Y23778000D01*
X41828000Y23016000D01*
X42505333Y23016000D01*
X46061333Y23016000D01*
X46061333Y23778000D01*
X43267333Y23778000D01*
X43267333Y24455333D01*
X46738666Y24455333D01*
X46738666Y23693333D01*
X47500666Y23693333D01*
X47500666Y23016000D01*
X48178000Y23016000D01*
X48855333Y23016000D01*
X48855333Y23693333D01*
X49532666Y23693333D01*
X49532666Y24455333D01*
X53766000Y24455333D01*
X54528000Y24455333D01*
X59438666Y24455333D01*
X59946666Y24455333D01*
X59946666Y24963333D01*
X20153333Y24963333D01*
X20153333Y18952000D01*
G37*
X20153333Y18952000D02*
X59946666Y18952000D01*
X59946666Y24455333D01*
X59438666Y24455333D01*
X59438666Y19460000D01*
X57999333Y19460000D01*
X57999333Y21576667D01*
X55205333Y21576667D01*
X55205333Y22254000D01*
X57999333Y22254000D01*
X57999333Y23778000D01*
X54528000Y23778000D01*
X54528000Y24455333D01*
X53766000Y24455333D01*
X53766000Y19460000D01*
X52326666Y19460000D01*
X52326666Y20899333D01*
X49532666Y20899333D01*
X49532666Y21576667D01*
X48855333Y21576667D01*
X48855333Y23016000D01*
X48178000Y23016000D01*
X48178000Y20899333D01*
X47500666Y20899333D01*
X47500666Y20137333D01*
X46738666Y20137333D01*
X46738666Y19460000D01*
X43267333Y19460000D01*
X43267333Y22254000D01*
X45384000Y22254000D01*
X45384000Y21576667D01*
X44622000Y21576667D01*
X44622000Y20137333D01*
X46061333Y20137333D01*
X46061333Y20899333D01*
X46738666Y20899333D01*
X46738666Y23016000D01*
X46061333Y23016000D01*
X42505333Y23016000D01*
X42505333Y19460000D01*
X41066000Y19460000D01*
X41066000Y20899333D01*
X38949333Y20899333D01*
X38949333Y19460000D01*
X37594666Y19460000D01*
X37594666Y23016000D01*
X38272000Y23016000D01*
X38272000Y23778000D01*
X38949333Y23778000D01*
X38949333Y24455333D01*
X36832666Y24455333D01*
X36832666Y19460000D01*
X35393333Y19460000D01*
X35393333Y22254000D01*
X34716000Y22254000D01*
X34716000Y20899333D01*
X34038666Y20899333D01*
X34038666Y22254000D01*
X33276666Y22254000D01*
X33276666Y19460000D01*
X31922000Y19460000D01*
X31922000Y24455333D01*
X31244666Y24455333D01*
X31244666Y19460000D01*
X27011333Y19460000D01*
X27011333Y20137333D01*
X26334000Y20137333D01*
X26334000Y21576667D01*
X27011333Y21576667D01*
X27011333Y22254000D01*
X26334000Y22254000D01*
X26334000Y23016000D01*
X25572000Y23016000D01*
X25572000Y20899333D01*
X24894666Y20899333D01*
X24894666Y20137333D01*
X24132666Y20137333D01*
X24132666Y19460000D01*
X22016000Y19460000D01*
X22016000Y20137333D01*
X21338666Y20137333D01*
X21338666Y20899333D01*
X20661333Y20899333D01*
X20661333Y23016000D01*
X21338666Y23016000D01*
X21338666Y23693333D01*
X22016000Y23693333D01*
X22016000Y24455333D01*
X24132666Y24455333D01*
X24132666Y23778000D01*
X24894666Y23778000D01*
X24894666Y23016000D01*
X25572000Y23016000D01*
X26334000Y23016000D01*
X26334000Y23693333D01*
X27011333Y23693333D01*
X27011333Y24455333D01*
X31244666Y24455333D01*
X31922000Y24455333D01*
X33276666Y24455333D01*
X33276666Y23693333D01*
X34038666Y23693333D01*
X34038666Y23016000D01*
X34716000Y23016000D01*
X34716000Y23693333D01*
X35393333Y23693333D01*
X35393333Y24455333D01*
X36832666Y24455333D01*
X38949333Y24455333D01*
X41066000Y24455333D01*
X41066000Y23778000D01*
X41828000Y23778000D01*
X41828000Y23016000D01*
X42505333Y23016000D01*
X46061333Y23016000D01*
X46061333Y23778000D01*
X43267333Y23778000D01*
X43267333Y24455333D01*
X46738666Y24455333D01*
X46738666Y23693333D01*
X47500666Y23693333D01*
X47500666Y23016000D01*
X48178000Y23016000D01*
X48855333Y23016000D01*
X48855333Y23693333D01*
X49532666Y23693333D01*
X49532666Y24455333D01*
X53766000Y24455333D01*
X54528000Y24455333D01*
X59438666Y24455333D01*
X59946666Y24455333D01*
X59946666Y24963333D01*
X20153333Y24963333D01*
X20153333Y18952000D01*
G36*
X50210000Y21576667D02*
G01*
X52326666Y21576667D01*
X52326666Y23778000D01*
X50210000Y23778000D01*
X50210000Y21576667D01*
G37*
X50210000Y21576667D02*
X52326666Y21576667D01*
X52326666Y23778000D01*
X50210000Y23778000D01*
X50210000Y21576667D01*
G36*
X39711333Y23016000D02*
G01*
X38949333Y23016000D01*
X38949333Y21576667D01*
X41066000Y21576667D01*
X41066000Y23016000D01*
X40388666Y23016000D01*
X40388666Y23778000D01*
X39711333Y23778000D01*
X39711333Y23016000D01*
G37*
X39711333Y23016000D02*
X38949333Y23016000D01*
X38949333Y21576667D01*
X41066000Y21576667D01*
X41066000Y23016000D01*
X40388666Y23016000D01*
X40388666Y23778000D01*
X39711333Y23778000D01*
X39711333Y23016000D01*
G36*
X27688666Y20137333D02*
G01*
X29805333Y20137333D01*
X29805333Y21576667D01*
X27688666Y21576667D01*
X27688666Y20137333D01*
G37*
X27688666Y20137333D02*
X29805333Y20137333D01*
X29805333Y21576667D01*
X27688666Y21576667D01*
X27688666Y20137333D01*
G36*
X27688666Y22254000D02*
G01*
X29805333Y22254000D01*
X29805333Y23778000D01*
X27688666Y23778000D01*
X27688666Y22254000D01*
G37*
X27688666Y22254000D02*
X29805333Y22254000D01*
X29805333Y23778000D01*
X27688666Y23778000D01*
X27688666Y22254000D01*
G36*
X22778000Y23016000D02*
G01*
X22016000Y23016000D01*
X22016000Y20137333D01*
X23455333Y20137333D01*
X23455333Y20899333D01*
X24132666Y20899333D01*
X24132666Y22254000D01*
X23370666Y22254000D01*
X23370666Y21576667D01*
X22693333Y21576667D01*
X22693333Y22254000D01*
X23370666Y22254000D01*
X24132666Y22254000D01*
X24132666Y23778000D01*
X22778000Y23778000D01*
X22778000Y23016000D01*
G37*
X22778000Y23016000D02*
X22016000Y23016000D01*
X22016000Y20137333D01*
X23455333Y20137333D01*
X23455333Y20899333D01*
X24132666Y20899333D01*
X24132666Y22254000D01*
X23370666Y22254000D01*
X23370666Y21576667D01*
X22693333Y21576667D01*
X22693333Y22254000D01*
X23370666Y22254000D01*
X24132666Y22254000D01*
X24132666Y23778000D01*
X22778000Y23778000D01*
X22778000Y23016000D01*
D12*
X53160000Y71300000D02*
X53160000Y72500000D01*
X26350000Y65500000D02*
X26350000Y67240000D01*
X54650000Y65500000D02*
X26350000Y65500000D01*
X54650000Y67240000D02*
X54650000Y65500000D01*
X26350000Y71300000D02*
X26350000Y69960000D01*
X27840000Y71300000D02*
X26350000Y71300000D01*
X54650000Y71300000D02*
X54650000Y69960000D01*
X53160000Y71300000D02*
X54650000Y71300000D01*
M02*
