G04 #@! TF.GenerationSoftware,KiCad,Pcbnew,(5.1.10-1-10_14)*
G04 #@! TF.CreationDate,2021-10-14T11:19:08+02:00*
G04 #@! TF.ProjectId,hi-board,68692d62-6f61-4726-942e-6b696361645f,rev?*
G04 #@! TF.SameCoordinates,Original*
G04 #@! TF.FileFunction,Copper,L3,Inr*
G04 #@! TF.FilePolarity,Positive*
%FSLAX46Y46*%
G04 Gerber Fmt 4.6, Leading zero omitted, Abs format (unit mm)*
G04 Created by KiCad (PCBNEW (5.1.10-1-10_14)) date 2021-10-14 11:19:08*
%MOMM*%
%LPD*%
G01*
G04 APERTURE LIST*
G04 #@! TA.AperFunction,ComponentPad*
%ADD10R,1.700000X1.700000*%
G04 #@! TD*
G04 #@! TA.AperFunction,ComponentPad*
%ADD11O,1.700000X1.700000*%
G04 #@! TD*
G04 #@! TA.AperFunction,ComponentPad*
%ADD12C,1.524000*%
G04 #@! TD*
G04 #@! TA.AperFunction,ComponentPad*
%ADD13C,2.000000*%
G04 #@! TD*
G04 #@! TA.AperFunction,ComponentPad*
%ADD14R,1.500000X1.500000*%
G04 #@! TD*
G04 #@! TA.AperFunction,ComponentPad*
%ADD15R,1.000000X1.000000*%
G04 #@! TD*
G04 #@! TA.AperFunction,ViaPad*
%ADD16C,0.800000*%
G04 #@! TD*
G04 #@! TA.AperFunction,Conductor*
%ADD17C,0.250000*%
G04 #@! TD*
G04 #@! TA.AperFunction,Conductor*
%ADD18C,0.150000*%
G04 #@! TD*
G04 APERTURE END LIST*
D10*
X74930000Y14340000D03*
D11*
X77470000Y14340000D03*
D12*
X12100000Y84500000D03*
X12100000Y82500000D03*
X12100000Y80500000D03*
X12100000Y78500000D03*
X12100000Y76500000D03*
D13*
X2100000Y85500000D03*
X2100000Y75500000D03*
D14*
X17380000Y93900000D03*
X6460000Y49440000D03*
X54670000Y71510000D03*
D15*
X14550000Y44780000D03*
X14240000Y63220000D03*
X14330000Y57580000D03*
X72470000Y59940000D03*
D16*
X21610000Y78380000D03*
X25990000Y79080000D03*
X26750000Y83720000D03*
X27250000Y80210000D03*
X32250000Y83630000D03*
X32750000Y80000000D03*
X33250000Y83620000D03*
X36260000Y83600000D03*
X36525000Y79980000D03*
X40260000Y83530000D03*
X40750000Y80060000D03*
X41260000Y83530000D03*
X44230000Y83550000D03*
X46750000Y83590000D03*
X47750000Y83600000D03*
X48750000Y83630000D03*
X49750000Y83620000D03*
X47260000Y80060000D03*
X48250000Y79540000D03*
X49260000Y80080000D03*
X50250000Y79520000D03*
X53750000Y83600000D03*
X54760000Y83610000D03*
X54250000Y79910000D03*
X57230000Y52090000D03*
X57200000Y50190000D03*
X27420000Y49505000D03*
X29250000Y45840000D03*
X32250000Y45870000D03*
X40750000Y45800000D03*
X43250000Y45920000D03*
X44500152Y49435000D03*
X48245836Y49435000D03*
X49760000Y49450000D03*
X50250000Y45860000D03*
X63300000Y23590000D03*
X70260000Y27310000D03*
X78090000Y33320000D03*
X78090000Y31520000D03*
X73290000Y77640000D03*
X67540000Y74280000D03*
X67560000Y82000000D03*
X68730000Y72940000D03*
X25550000Y54950000D03*
X25610000Y64320000D03*
X34940000Y64370000D03*
X34960000Y54860000D03*
X44340000Y55010000D03*
X44310000Y64220000D03*
X53720000Y64260000D03*
X53720000Y55010000D03*
X52060000Y54890000D03*
X42750000Y54890000D03*
X33370000Y54860000D03*
X24000000Y54940000D03*
X5540000Y63200000D03*
X5350000Y61190000D03*
X4740000Y57300000D03*
X18680000Y27440000D03*
X10260000Y18470000D03*
X1930000Y27530000D03*
X10220000Y35950000D03*
X67920000Y33210000D03*
X53860000Y24960000D03*
X21590000Y3950000D03*
X28640000Y1970000D03*
X34040000Y4250000D03*
X27480000Y9540000D03*
X36650000Y5000000D03*
X44220000Y1940000D03*
X49030000Y3690000D03*
X42580000Y9250000D03*
X68380000Y29340000D03*
X28540000Y83570000D03*
X68900000Y75310000D03*
X66060000Y80160000D03*
X65510000Y79360000D03*
X52250000Y53460000D03*
X50750000Y51160000D03*
X53730000Y51180000D03*
X9650000Y57300000D03*
X8760000Y55720000D03*
X65320000Y77800000D03*
X65330000Y76410000D03*
X12640000Y72480000D03*
X13650000Y73490000D03*
X67600000Y31790000D03*
X67600000Y30280000D03*
X10550000Y63210000D03*
X9700000Y64840000D03*
X21530000Y79920000D03*
X24170000Y81300000D03*
X27060000Y60650000D03*
X36460000Y60570000D03*
X45800000Y60550000D03*
X55380000Y61280000D03*
X21540000Y81850000D03*
X55440000Y58130000D03*
X45880000Y58420000D03*
X36400000Y58520000D03*
X26910000Y58540000D03*
X52070000Y64310000D03*
X42530000Y64230000D03*
X33040000Y64350000D03*
X23750000Y64360000D03*
X55560000Y47840000D03*
X54520000Y47850000D03*
X22300000Y40070000D03*
X14300000Y30270000D03*
X33460000Y29110000D03*
X25690000Y20820000D03*
X39560000Y14000000D03*
X48540000Y15400000D03*
X55470000Y30090000D03*
X54190000Y39540000D03*
X42820000Y24320000D03*
X40010000Y24320000D03*
X10770000Y27520000D03*
X19770000Y20790000D03*
X31870000Y30620000D03*
X30030000Y31640000D03*
X18850000Y37360000D03*
X49780459Y41420459D03*
X45840000Y37480000D03*
X27660000Y27520000D03*
X49980658Y40194954D03*
X42380000Y22900000D03*
X33130000Y10020000D03*
X50120153Y39030153D03*
X45550000Y25920000D03*
X46820000Y11080000D03*
X50800000Y37280000D03*
X54100000Y33810000D03*
X71320000Y36760000D03*
X50150000Y34890000D03*
X52450000Y32600000D03*
X61560000Y30950000D03*
D17*
X80275001Y29475000D02*
X79917718Y29475000D01*
X79671643Y29450764D01*
X79355904Y29354985D01*
X79064918Y29199450D01*
X78809866Y28990134D01*
X78600550Y28735082D01*
X78445015Y28444096D01*
X78349236Y28128357D01*
X78316896Y27800000D01*
X78349236Y27471643D01*
X78445015Y27155904D01*
X78600550Y26864918D01*
X78809866Y26609866D01*
X79064918Y26400550D01*
X79355904Y26245015D01*
X79671643Y26149236D01*
X79917718Y26125000D01*
X80275001Y26125000D01*
X80275001Y12725000D01*
X62964393Y12725000D01*
X62951153Y12723696D01*
X62094576Y12692287D01*
X62071892Y12690143D01*
X62049135Y12689189D01*
X62026510Y12686571D01*
X60656792Y12506245D01*
X60626954Y12500553D01*
X60596977Y12495805D01*
X60574803Y12490604D01*
X59234889Y12154041D01*
X59205919Y12144962D01*
X59176670Y12136796D01*
X59155241Y12129081D01*
X57862890Y11640742D01*
X57835138Y11628386D01*
X57807039Y11616919D01*
X57786639Y11606792D01*
X56558982Y10973151D01*
X56532848Y10957695D01*
X56506239Y10943067D01*
X56487138Y10930663D01*
X55340446Y10160118D01*
X55316251Y10141753D01*
X55291511Y10124171D01*
X55273962Y10109654D01*
X54223432Y9212417D01*
X54201512Y9191397D01*
X54178953Y9171084D01*
X54163189Y9154646D01*
X53222747Y8142611D01*
X53203386Y8119207D01*
X53183313Y8096439D01*
X53169552Y8078309D01*
X53169543Y8078298D01*
X53169537Y8078289D01*
X52351655Y6964877D01*
X52335117Y6939411D01*
X52317789Y6914479D01*
X52306195Y6894875D01*
X51621701Y5694829D01*
X51608197Y5667624D01*
X51593853Y5640873D01*
X51584589Y5620067D01*
X51042560Y4349299D01*
X51032273Y4320726D01*
X51021098Y4292500D01*
X51014287Y4270766D01*
X50621909Y2946121D01*
X50614974Y2916552D01*
X50607117Y2887231D01*
X50602849Y2864859D01*
X50365323Y1503894D01*
X50361833Y1473729D01*
X50357398Y1443695D01*
X50355729Y1420980D01*
X50315599Y725000D01*
X20725000Y725000D01*
X20725000Y10101255D01*
X32305000Y10101255D01*
X32305000Y9938745D01*
X32336704Y9779356D01*
X32398894Y9629216D01*
X32489181Y9494093D01*
X32604093Y9379181D01*
X32739216Y9288894D01*
X32889356Y9226704D01*
X33048745Y9195000D01*
X33211255Y9195000D01*
X33370644Y9226704D01*
X33520784Y9288894D01*
X33655907Y9379181D01*
X33770819Y9494093D01*
X33861106Y9629216D01*
X33875917Y9664973D01*
X36325000Y9664973D01*
X36325000Y9335027D01*
X36389369Y9011420D01*
X36515634Y8706590D01*
X36698942Y8432249D01*
X36932249Y8198942D01*
X37206590Y8015634D01*
X37511420Y7889369D01*
X37835027Y7825000D01*
X38164973Y7825000D01*
X38488580Y7889369D01*
X38793410Y8015634D01*
X39067751Y8198942D01*
X39301058Y8432249D01*
X39484366Y8706590D01*
X39610631Y9011420D01*
X39675000Y9335027D01*
X39675000Y9664973D01*
X39610631Y9988580D01*
X39484366Y10293410D01*
X39301058Y10567751D01*
X39067751Y10801058D01*
X38793410Y10984366D01*
X38488580Y11110631D01*
X38234075Y11161255D01*
X45995000Y11161255D01*
X45995000Y10998745D01*
X46026704Y10839356D01*
X46088894Y10689216D01*
X46179181Y10554093D01*
X46294093Y10439181D01*
X46429216Y10348894D01*
X46579356Y10286704D01*
X46738745Y10255000D01*
X46901255Y10255000D01*
X47060644Y10286704D01*
X47210784Y10348894D01*
X47345907Y10439181D01*
X47460819Y10554093D01*
X47551106Y10689216D01*
X47613296Y10839356D01*
X47645000Y10998745D01*
X47645000Y11161255D01*
X47613296Y11320644D01*
X47551106Y11470784D01*
X47460819Y11605907D01*
X47345907Y11720819D01*
X47210784Y11811106D01*
X47060644Y11873296D01*
X46901255Y11905000D01*
X46738745Y11905000D01*
X46579356Y11873296D01*
X46429216Y11811106D01*
X46294093Y11720819D01*
X46179181Y11605907D01*
X46088894Y11470784D01*
X46026704Y11320644D01*
X45995000Y11161255D01*
X38234075Y11161255D01*
X38164973Y11175000D01*
X37835027Y11175000D01*
X37511420Y11110631D01*
X37206590Y10984366D01*
X36932249Y10801058D01*
X36698942Y10567751D01*
X36515634Y10293410D01*
X36389369Y9988580D01*
X36325000Y9664973D01*
X33875917Y9664973D01*
X33923296Y9779356D01*
X33955000Y9938745D01*
X33955000Y10101255D01*
X33923296Y10260644D01*
X33861106Y10410784D01*
X33770819Y10545907D01*
X33655907Y10660819D01*
X33520784Y10751106D01*
X33370644Y10813296D01*
X33211255Y10845000D01*
X33048745Y10845000D01*
X32889356Y10813296D01*
X32739216Y10751106D01*
X32604093Y10660819D01*
X32489181Y10545907D01*
X32398894Y10410784D01*
X32336704Y10260644D01*
X32305000Y10101255D01*
X20725000Y10101255D01*
X20725000Y11964393D01*
X20728507Y12000000D01*
X20714509Y12142125D01*
X20673053Y12278788D01*
X20605731Y12404737D01*
X20515132Y12515132D01*
X20404737Y12605731D01*
X20278788Y12673053D01*
X20142125Y12714509D01*
X20035607Y12725000D01*
X20000000Y12728507D01*
X19964393Y12725000D01*
X725000Y12725000D01*
X725000Y14164973D01*
X28325000Y14164973D01*
X28325000Y13835027D01*
X28389369Y13511420D01*
X28515634Y13206590D01*
X28698942Y12932249D01*
X28932249Y12698942D01*
X29206590Y12515634D01*
X29511420Y12389369D01*
X29835027Y12325000D01*
X30164973Y12325000D01*
X30488580Y12389369D01*
X30793410Y12515634D01*
X31067751Y12698942D01*
X31301058Y12932249D01*
X31484366Y13206590D01*
X31610631Y13511420D01*
X31675000Y13835027D01*
X31675000Y14081255D01*
X38735000Y14081255D01*
X38735000Y13918745D01*
X38766704Y13759356D01*
X38828894Y13609216D01*
X38919181Y13474093D01*
X39034093Y13359181D01*
X39169216Y13268894D01*
X39319356Y13206704D01*
X39478745Y13175000D01*
X39641255Y13175000D01*
X39800644Y13206704D01*
X39950784Y13268894D01*
X40085907Y13359181D01*
X40200819Y13474093D01*
X40291106Y13609216D01*
X40353296Y13759356D01*
X40385000Y13918745D01*
X40385000Y14081255D01*
X40353296Y14240644D01*
X40291106Y14390784D01*
X40200819Y14525907D01*
X40085907Y14640819D01*
X39950784Y14731106D01*
X39800644Y14793296D01*
X39641255Y14825000D01*
X39478745Y14825000D01*
X39319356Y14793296D01*
X39169216Y14731106D01*
X39034093Y14640819D01*
X38919181Y14525907D01*
X38828894Y14390784D01*
X38766704Y14240644D01*
X38735000Y14081255D01*
X31675000Y14081255D01*
X31675000Y14164973D01*
X31610631Y14488580D01*
X31484366Y14793410D01*
X31301058Y15067751D01*
X31067751Y15301058D01*
X30798066Y15481255D01*
X47715000Y15481255D01*
X47715000Y15318745D01*
X47746704Y15159356D01*
X47808894Y15009216D01*
X47899181Y14874093D01*
X48014093Y14759181D01*
X48149216Y14668894D01*
X48299356Y14606704D01*
X48458745Y14575000D01*
X48621255Y14575000D01*
X48780644Y14606704D01*
X48930784Y14668894D01*
X49065907Y14759181D01*
X49180819Y14874093D01*
X49271106Y15009216D01*
X49333296Y15159356D01*
X49365000Y15318745D01*
X49365000Y15481255D01*
X49333296Y15640644D01*
X49271106Y15790784D01*
X49180819Y15925907D01*
X49065907Y16040819D01*
X48930784Y16131106D01*
X48780644Y16193296D01*
X48621255Y16225000D01*
X48458745Y16225000D01*
X48299356Y16193296D01*
X48149216Y16131106D01*
X48014093Y16040819D01*
X47899181Y15925907D01*
X47808894Y15790784D01*
X47746704Y15640644D01*
X47715000Y15481255D01*
X30798066Y15481255D01*
X30793410Y15484366D01*
X30488580Y15610631D01*
X30164973Y15675000D01*
X29835027Y15675000D01*
X29511420Y15610631D01*
X29206590Y15484366D01*
X28932249Y15301058D01*
X28698942Y15067751D01*
X28515634Y14793410D01*
X28389369Y14488580D01*
X28325000Y14164973D01*
X725000Y14164973D01*
X725000Y16664973D01*
X23325000Y16664973D01*
X23325000Y16335027D01*
X23389369Y16011420D01*
X23515634Y15706590D01*
X23698942Y15432249D01*
X23932249Y15198942D01*
X24206590Y15015634D01*
X24511420Y14889369D01*
X24835027Y14825000D01*
X25164973Y14825000D01*
X25488580Y14889369D01*
X25793410Y15015634D01*
X26067751Y15198942D01*
X26301058Y15432249D01*
X26484366Y15706590D01*
X26610631Y16011420D01*
X26665663Y16288087D01*
X64775000Y16288087D01*
X64775000Y15711913D01*
X64887406Y15146809D01*
X65107898Y14614493D01*
X65428004Y14135421D01*
X65835421Y13728004D01*
X66314493Y13407898D01*
X66846809Y13187406D01*
X67411913Y13075000D01*
X67988087Y13075000D01*
X68553191Y13187406D01*
X69085507Y13407898D01*
X69564579Y13728004D01*
X69971996Y14135421D01*
X70292102Y14614493D01*
X70512594Y15146809D01*
X70521185Y15190000D01*
X73652944Y15190000D01*
X73652944Y13490000D01*
X73661150Y13406686D01*
X73685452Y13326573D01*
X73724916Y13252740D01*
X73778026Y13188026D01*
X73842740Y13134916D01*
X73916573Y13095452D01*
X73996686Y13071150D01*
X74080000Y13062944D01*
X75780000Y13062944D01*
X75863314Y13071150D01*
X75943427Y13095452D01*
X76017260Y13134916D01*
X76081974Y13188026D01*
X76135084Y13252740D01*
X76174548Y13326573D01*
X76198850Y13406686D01*
X76207056Y13490000D01*
X76207056Y13576320D01*
X76277725Y13458078D01*
X76472689Y13242423D01*
X76705979Y13068947D01*
X76968630Y12944317D01*
X77111475Y12900990D01*
X77341000Y13021546D01*
X77341000Y14211000D01*
X77599000Y14211000D01*
X77599000Y13021546D01*
X77828525Y12900990D01*
X77971370Y12944317D01*
X78234021Y13068947D01*
X78467311Y13242423D01*
X78662275Y13458078D01*
X78811420Y13707625D01*
X78909015Y13981474D01*
X78789134Y14211000D01*
X77599000Y14211000D01*
X77341000Y14211000D01*
X77321000Y14211000D01*
X77321000Y14469000D01*
X77341000Y14469000D01*
X77341000Y15658454D01*
X77599000Y15658454D01*
X77599000Y14469000D01*
X78789134Y14469000D01*
X78909015Y14698526D01*
X78811420Y14972375D01*
X78662275Y15221922D01*
X78467311Y15437577D01*
X78234021Y15611053D01*
X77971370Y15735683D01*
X77828525Y15779010D01*
X77599000Y15658454D01*
X77341000Y15658454D01*
X77111475Y15779010D01*
X76968630Y15735683D01*
X76705979Y15611053D01*
X76472689Y15437577D01*
X76277725Y15221922D01*
X76207056Y15103680D01*
X76207056Y15190000D01*
X76198850Y15273314D01*
X76174548Y15353427D01*
X76135084Y15427260D01*
X76081974Y15491974D01*
X76017260Y15545084D01*
X75943427Y15584548D01*
X75863314Y15608850D01*
X75780000Y15617056D01*
X74080000Y15617056D01*
X73996686Y15608850D01*
X73916573Y15584548D01*
X73842740Y15545084D01*
X73778026Y15491974D01*
X73724916Y15427260D01*
X73685452Y15353427D01*
X73661150Y15273314D01*
X73652944Y15190000D01*
X70521185Y15190000D01*
X70625000Y15711913D01*
X70625000Y16288087D01*
X70512594Y16853191D01*
X70292102Y17385507D01*
X69971996Y17864579D01*
X69564579Y18271996D01*
X69085507Y18592102D01*
X68553191Y18812594D01*
X67988087Y18925000D01*
X67411913Y18925000D01*
X66846809Y18812594D01*
X66314493Y18592102D01*
X65835421Y18271996D01*
X65428004Y17864579D01*
X65107898Y17385507D01*
X64887406Y16853191D01*
X64775000Y16288087D01*
X26665663Y16288087D01*
X26675000Y16335027D01*
X26675000Y16664973D01*
X26610631Y16988580D01*
X26484366Y17293410D01*
X26301058Y17567751D01*
X26067751Y17801058D01*
X25793410Y17984366D01*
X25488580Y18110631D01*
X25164973Y18175000D01*
X24835027Y18175000D01*
X24511420Y18110631D01*
X24206590Y17984366D01*
X23932249Y17801058D01*
X23698942Y17567751D01*
X23515634Y17293410D01*
X23389369Y16988580D01*
X23325000Y16664973D01*
X725000Y16664973D01*
X725000Y19664973D01*
X76825000Y19664973D01*
X76825000Y19335027D01*
X76889369Y19011420D01*
X77015634Y18706590D01*
X77198942Y18432249D01*
X77432249Y18198942D01*
X77706590Y18015634D01*
X78011420Y17889369D01*
X78335027Y17825000D01*
X78664973Y17825000D01*
X78988580Y17889369D01*
X79293410Y18015634D01*
X79567751Y18198942D01*
X79801058Y18432249D01*
X79984366Y18706590D01*
X80110631Y19011420D01*
X80175000Y19335027D01*
X80175000Y19664973D01*
X80110631Y19988580D01*
X79984366Y20293410D01*
X79801058Y20567751D01*
X79567751Y20801058D01*
X79293410Y20984366D01*
X78988580Y21110631D01*
X78664973Y21175000D01*
X78335027Y21175000D01*
X78011420Y21110631D01*
X77706590Y20984366D01*
X77432249Y20801058D01*
X77198942Y20567751D01*
X77015634Y20293410D01*
X76889369Y19988580D01*
X76825000Y19664973D01*
X725000Y19664973D01*
X725000Y20871255D01*
X18945000Y20871255D01*
X18945000Y20708745D01*
X18976704Y20549356D01*
X19038894Y20399216D01*
X19129181Y20264093D01*
X19244093Y20149181D01*
X19379216Y20058894D01*
X19529356Y19996704D01*
X19688745Y19965000D01*
X19851255Y19965000D01*
X20010644Y19996704D01*
X20160784Y20058894D01*
X20295907Y20149181D01*
X20410819Y20264093D01*
X20501106Y20399216D01*
X20563296Y20549356D01*
X20595000Y20708745D01*
X20595000Y20871255D01*
X20589033Y20901255D01*
X24865000Y20901255D01*
X24865000Y20738745D01*
X24896704Y20579356D01*
X24958894Y20429216D01*
X25049181Y20294093D01*
X25164093Y20179181D01*
X25299216Y20088894D01*
X25449356Y20026704D01*
X25608745Y19995000D01*
X25771255Y19995000D01*
X25930644Y20026704D01*
X26080784Y20088894D01*
X26215907Y20179181D01*
X26330819Y20294093D01*
X26421106Y20429216D01*
X26483296Y20579356D01*
X26515000Y20738745D01*
X26515000Y20901255D01*
X26483296Y21060644D01*
X26421106Y21210784D01*
X26330819Y21345907D01*
X26215907Y21460819D01*
X26080784Y21551106D01*
X25930644Y21613296D01*
X25771255Y21645000D01*
X25608745Y21645000D01*
X25449356Y21613296D01*
X25299216Y21551106D01*
X25164093Y21460819D01*
X25049181Y21345907D01*
X24958894Y21210784D01*
X24896704Y21060644D01*
X24865000Y20901255D01*
X20589033Y20901255D01*
X20563296Y21030644D01*
X20501106Y21180784D01*
X20410819Y21315907D01*
X20295907Y21430819D01*
X20160784Y21521106D01*
X20010644Y21583296D01*
X19851255Y21615000D01*
X19688745Y21615000D01*
X19529356Y21583296D01*
X19379216Y21521106D01*
X19244093Y21430819D01*
X19129181Y21315907D01*
X19038894Y21180784D01*
X18976704Y21030644D01*
X18945000Y20871255D01*
X725000Y20871255D01*
X725000Y22981255D01*
X41555000Y22981255D01*
X41555000Y22818745D01*
X41586704Y22659356D01*
X41648894Y22509216D01*
X41739181Y22374093D01*
X41854093Y22259181D01*
X41989216Y22168894D01*
X42139356Y22106704D01*
X42298745Y22075000D01*
X42461255Y22075000D01*
X42620644Y22106704D01*
X42770784Y22168894D01*
X42905907Y22259181D01*
X43020819Y22374093D01*
X43111106Y22509216D01*
X43173296Y22659356D01*
X43205000Y22818745D01*
X43205000Y22981255D01*
X43173296Y23140644D01*
X43111106Y23290784D01*
X43020819Y23425907D01*
X42943352Y23503374D01*
X43060644Y23526704D01*
X43210784Y23588894D01*
X43345907Y23679181D01*
X43460819Y23794093D01*
X43551106Y23929216D01*
X43613296Y24079356D01*
X43645000Y24238745D01*
X43645000Y24401255D01*
X43613296Y24560644D01*
X43551106Y24710784D01*
X43460819Y24845907D01*
X43345907Y24960819D01*
X43210784Y25051106D01*
X43060644Y25113296D01*
X42901255Y25145000D01*
X42738745Y25145000D01*
X42579356Y25113296D01*
X42429216Y25051106D01*
X42294093Y24960819D01*
X42179181Y24845907D01*
X42088894Y24710784D01*
X42026704Y24560644D01*
X41995000Y24401255D01*
X41995000Y24238745D01*
X42026704Y24079356D01*
X42088894Y23929216D01*
X42179181Y23794093D01*
X42256648Y23716626D01*
X42139356Y23693296D01*
X41989216Y23631106D01*
X41854093Y23540819D01*
X41739181Y23425907D01*
X41648894Y23290784D01*
X41586704Y23140644D01*
X41555000Y22981255D01*
X725000Y22981255D01*
X725000Y24401255D01*
X39185000Y24401255D01*
X39185000Y24238745D01*
X39216704Y24079356D01*
X39278894Y23929216D01*
X39369181Y23794093D01*
X39484093Y23679181D01*
X39619216Y23588894D01*
X39769356Y23526704D01*
X39928745Y23495000D01*
X40091255Y23495000D01*
X40250644Y23526704D01*
X40400784Y23588894D01*
X40535907Y23679181D01*
X40650819Y23794093D01*
X40741106Y23929216D01*
X40803296Y24079356D01*
X40835000Y24238745D01*
X40835000Y24401255D01*
X40803296Y24560644D01*
X40741106Y24710784D01*
X40650819Y24845907D01*
X40535907Y24960819D01*
X40400784Y25051106D01*
X40250644Y25113296D01*
X40091255Y25145000D01*
X39928745Y25145000D01*
X39769356Y25113296D01*
X39619216Y25051106D01*
X39484093Y24960819D01*
X39369181Y24845907D01*
X39278894Y24710784D01*
X39216704Y24560644D01*
X39185000Y24401255D01*
X725000Y24401255D01*
X725000Y26001255D01*
X44725000Y26001255D01*
X44725000Y25838745D01*
X44756704Y25679356D01*
X44818894Y25529216D01*
X44909181Y25394093D01*
X45024093Y25279181D01*
X45159216Y25188894D01*
X45309356Y25126704D01*
X45468745Y25095000D01*
X45631255Y25095000D01*
X45790644Y25126704D01*
X45940784Y25188894D01*
X46075907Y25279181D01*
X46190819Y25394093D01*
X46281106Y25529216D01*
X46343296Y25679356D01*
X46375000Y25838745D01*
X46375000Y26001255D01*
X46343296Y26160644D01*
X46281106Y26310784D01*
X46190819Y26445907D01*
X46075907Y26560819D01*
X45940784Y26651106D01*
X45790644Y26713296D01*
X45631255Y26745000D01*
X45468745Y26745000D01*
X45309356Y26713296D01*
X45159216Y26651106D01*
X45024093Y26560819D01*
X44909181Y26445907D01*
X44818894Y26310784D01*
X44756704Y26160644D01*
X44725000Y26001255D01*
X725000Y26001255D01*
X725000Y27601255D01*
X9945000Y27601255D01*
X9945000Y27438745D01*
X9976704Y27279356D01*
X10038894Y27129216D01*
X10129181Y26994093D01*
X10244093Y26879181D01*
X10379216Y26788894D01*
X10529356Y26726704D01*
X10688745Y26695000D01*
X10851255Y26695000D01*
X11010644Y26726704D01*
X11160784Y26788894D01*
X11295907Y26879181D01*
X11410819Y26994093D01*
X11501106Y27129216D01*
X11563296Y27279356D01*
X11595000Y27438745D01*
X11595000Y27601255D01*
X26835000Y27601255D01*
X26835000Y27438745D01*
X26866704Y27279356D01*
X26928894Y27129216D01*
X27019181Y26994093D01*
X27134093Y26879181D01*
X27269216Y26788894D01*
X27419356Y26726704D01*
X27578745Y26695000D01*
X27741255Y26695000D01*
X27900644Y26726704D01*
X28050784Y26788894D01*
X28185907Y26879181D01*
X28300819Y26994093D01*
X28391106Y27129216D01*
X28453296Y27279356D01*
X28485000Y27438745D01*
X28485000Y27601255D01*
X28453296Y27760644D01*
X28391106Y27910784D01*
X28300819Y28045907D01*
X28185907Y28160819D01*
X28050784Y28251106D01*
X27900644Y28313296D01*
X27741255Y28345000D01*
X27578745Y28345000D01*
X27419356Y28313296D01*
X27269216Y28251106D01*
X27134093Y28160819D01*
X27019181Y28045907D01*
X26928894Y27910784D01*
X26866704Y27760644D01*
X26835000Y27601255D01*
X11595000Y27601255D01*
X11563296Y27760644D01*
X11501106Y27910784D01*
X11410819Y28045907D01*
X11295907Y28160819D01*
X11160784Y28251106D01*
X11010644Y28313296D01*
X10851255Y28345000D01*
X10688745Y28345000D01*
X10529356Y28313296D01*
X10379216Y28251106D01*
X10244093Y28160819D01*
X10129181Y28045907D01*
X10038894Y27910784D01*
X9976704Y27760644D01*
X9945000Y27601255D01*
X725000Y27601255D01*
X725000Y29191255D01*
X32635000Y29191255D01*
X32635000Y29028745D01*
X32666704Y28869356D01*
X32728894Y28719216D01*
X32819181Y28584093D01*
X32934093Y28469181D01*
X33069216Y28378894D01*
X33219356Y28316704D01*
X33378745Y28285000D01*
X33541255Y28285000D01*
X33700644Y28316704D01*
X33850784Y28378894D01*
X33985907Y28469181D01*
X34100819Y28584093D01*
X34154861Y28664973D01*
X49825000Y28664973D01*
X49825000Y28335027D01*
X49889369Y28011420D01*
X50015634Y27706590D01*
X50198942Y27432249D01*
X50432249Y27198942D01*
X50706590Y27015634D01*
X51011420Y26889369D01*
X51335027Y26825000D01*
X51664973Y26825000D01*
X51988580Y26889369D01*
X52293410Y27015634D01*
X52567751Y27198942D01*
X52801058Y27432249D01*
X52984366Y27706590D01*
X53110631Y28011420D01*
X53175000Y28335027D01*
X53175000Y28664973D01*
X53110631Y28988580D01*
X52984366Y29293410D01*
X52801058Y29567751D01*
X52567751Y29801058D01*
X52293410Y29984366D01*
X51988580Y30110631D01*
X51683801Y30171255D01*
X54645000Y30171255D01*
X54645000Y30008745D01*
X54676704Y29849356D01*
X54738894Y29699216D01*
X54829181Y29564093D01*
X54944093Y29449181D01*
X55079216Y29358894D01*
X55229356Y29296704D01*
X55388745Y29265000D01*
X55551255Y29265000D01*
X55710644Y29296704D01*
X55860784Y29358894D01*
X55995907Y29449181D01*
X56110819Y29564093D01*
X56201106Y29699216D01*
X56263296Y29849356D01*
X56295000Y30008745D01*
X56295000Y30171255D01*
X56263296Y30330644D01*
X56201106Y30480784D01*
X56110819Y30615907D01*
X55995907Y30730819D01*
X55860784Y30821106D01*
X55710644Y30883296D01*
X55551255Y30915000D01*
X55388745Y30915000D01*
X55229356Y30883296D01*
X55079216Y30821106D01*
X54944093Y30730819D01*
X54829181Y30615907D01*
X54738894Y30480784D01*
X54676704Y30330644D01*
X54645000Y30171255D01*
X51683801Y30171255D01*
X51664973Y30175000D01*
X51335027Y30175000D01*
X51011420Y30110631D01*
X50706590Y29984366D01*
X50432249Y29801058D01*
X50198942Y29567751D01*
X50015634Y29293410D01*
X49889369Y28988580D01*
X49825000Y28664973D01*
X34154861Y28664973D01*
X34191106Y28719216D01*
X34253296Y28869356D01*
X34285000Y29028745D01*
X34285000Y29191255D01*
X34253296Y29350644D01*
X34191106Y29500784D01*
X34100819Y29635907D01*
X33985907Y29750819D01*
X33850784Y29841106D01*
X33700644Y29903296D01*
X33541255Y29935000D01*
X33378745Y29935000D01*
X33219356Y29903296D01*
X33069216Y29841106D01*
X32934093Y29750819D01*
X32819181Y29635907D01*
X32728894Y29500784D01*
X32666704Y29350644D01*
X32635000Y29191255D01*
X725000Y29191255D01*
X725000Y30351255D01*
X13475000Y30351255D01*
X13475000Y30188745D01*
X13506704Y30029356D01*
X13568894Y29879216D01*
X13659181Y29744093D01*
X13774093Y29629181D01*
X13909216Y29538894D01*
X14059356Y29476704D01*
X14218745Y29445000D01*
X14381255Y29445000D01*
X14540644Y29476704D01*
X14690784Y29538894D01*
X14825907Y29629181D01*
X14940819Y29744093D01*
X15031106Y29879216D01*
X15093296Y30029356D01*
X15125000Y30188745D01*
X15125000Y30351255D01*
X15093296Y30510644D01*
X15031106Y30660784D01*
X15004064Y30701255D01*
X31045000Y30701255D01*
X31045000Y30538745D01*
X31076704Y30379356D01*
X31138894Y30229216D01*
X31229181Y30094093D01*
X31344093Y29979181D01*
X31479216Y29888894D01*
X31629356Y29826704D01*
X31788745Y29795000D01*
X31951255Y29795000D01*
X32110644Y29826704D01*
X32260784Y29888894D01*
X32395907Y29979181D01*
X32510819Y30094093D01*
X32601106Y30229216D01*
X32663296Y30379356D01*
X32695000Y30538745D01*
X32695000Y30701255D01*
X32663296Y30860644D01*
X32601106Y31010784D01*
X32587428Y31031255D01*
X60735000Y31031255D01*
X60735000Y30868745D01*
X60766704Y30709356D01*
X60828894Y30559216D01*
X60919181Y30424093D01*
X61034093Y30309181D01*
X61169216Y30218894D01*
X61319356Y30156704D01*
X61478745Y30125000D01*
X61641255Y30125000D01*
X61800644Y30156704D01*
X61950784Y30218894D01*
X62085907Y30309181D01*
X62200819Y30424093D01*
X62291106Y30559216D01*
X62353296Y30709356D01*
X62385000Y30868745D01*
X62385000Y31031255D01*
X62353296Y31190644D01*
X62291106Y31340784D01*
X62200819Y31475907D01*
X62085907Y31590819D01*
X61950784Y31681106D01*
X61800644Y31743296D01*
X61641255Y31775000D01*
X61478745Y31775000D01*
X61319356Y31743296D01*
X61169216Y31681106D01*
X61034093Y31590819D01*
X60919181Y31475907D01*
X60828894Y31340784D01*
X60766704Y31190644D01*
X60735000Y31031255D01*
X32587428Y31031255D01*
X32510819Y31145907D01*
X32395907Y31260819D01*
X32260784Y31351106D01*
X32110644Y31413296D01*
X31951255Y31445000D01*
X31788745Y31445000D01*
X31629356Y31413296D01*
X31479216Y31351106D01*
X31344093Y31260819D01*
X31229181Y31145907D01*
X31138894Y31010784D01*
X31076704Y30860644D01*
X31045000Y30701255D01*
X15004064Y30701255D01*
X14940819Y30795907D01*
X14825907Y30910819D01*
X14690784Y31001106D01*
X14540644Y31063296D01*
X14381255Y31095000D01*
X14218745Y31095000D01*
X14059356Y31063296D01*
X13909216Y31001106D01*
X13774093Y30910819D01*
X13659181Y30795907D01*
X13568894Y30660784D01*
X13506704Y30510644D01*
X13475000Y30351255D01*
X725000Y30351255D01*
X725000Y31721255D01*
X29205000Y31721255D01*
X29205000Y31558745D01*
X29236704Y31399356D01*
X29298894Y31249216D01*
X29389181Y31114093D01*
X29504093Y30999181D01*
X29639216Y30908894D01*
X29789356Y30846704D01*
X29948745Y30815000D01*
X30111255Y30815000D01*
X30270644Y30846704D01*
X30420784Y30908894D01*
X30555907Y30999181D01*
X30670819Y31114093D01*
X30761106Y31249216D01*
X30823296Y31399356D01*
X30855000Y31558745D01*
X30855000Y31721255D01*
X30823296Y31880644D01*
X30761106Y32030784D01*
X30670819Y32165907D01*
X30555907Y32280819D01*
X30420784Y32371106D01*
X30270644Y32433296D01*
X30111255Y32465000D01*
X29948745Y32465000D01*
X29789356Y32433296D01*
X29639216Y32371106D01*
X29504093Y32280819D01*
X29389181Y32165907D01*
X29298894Y32030784D01*
X29236704Y31880644D01*
X29205000Y31721255D01*
X725000Y31721255D01*
X725000Y32681255D01*
X51625000Y32681255D01*
X51625000Y32518745D01*
X51656704Y32359356D01*
X51718894Y32209216D01*
X51809181Y32074093D01*
X51924093Y31959181D01*
X52059216Y31868894D01*
X52209356Y31806704D01*
X52368745Y31775000D01*
X52531255Y31775000D01*
X52690644Y31806704D01*
X52840784Y31868894D01*
X52844317Y31871255D01*
X66775000Y31871255D01*
X66775000Y31708745D01*
X66806704Y31549356D01*
X66868894Y31399216D01*
X66959181Y31264093D01*
X67074093Y31149181D01*
X67209216Y31058894D01*
X67266901Y31035000D01*
X67209216Y31011106D01*
X67074093Y30920819D01*
X66959181Y30805907D01*
X66868894Y30670784D01*
X66806704Y30520644D01*
X66775000Y30361255D01*
X66775000Y30198745D01*
X66806704Y30039356D01*
X66868894Y29889216D01*
X66959181Y29754093D01*
X67074093Y29639181D01*
X67209216Y29548894D01*
X67359356Y29486704D01*
X67518745Y29455000D01*
X67681255Y29455000D01*
X67840644Y29486704D01*
X67990784Y29548894D01*
X68125907Y29639181D01*
X68240819Y29754093D01*
X68331106Y29889216D01*
X68393296Y30039356D01*
X68425000Y30198745D01*
X68425000Y30361255D01*
X68393296Y30520644D01*
X68331106Y30670784D01*
X68240819Y30805907D01*
X68125907Y30920819D01*
X67990784Y31011106D01*
X67933099Y31035000D01*
X67990784Y31058894D01*
X68125907Y31149181D01*
X68240819Y31264093D01*
X68331106Y31399216D01*
X68393296Y31549356D01*
X68425000Y31708745D01*
X68425000Y31871255D01*
X68393296Y32030644D01*
X68331106Y32180784D01*
X68240819Y32315907D01*
X68125907Y32430819D01*
X67990784Y32521106D01*
X67840644Y32583296D01*
X67681255Y32615000D01*
X67518745Y32615000D01*
X67359356Y32583296D01*
X67209216Y32521106D01*
X67074093Y32430819D01*
X66959181Y32315907D01*
X66868894Y32180784D01*
X66806704Y32030644D01*
X66775000Y31871255D01*
X52844317Y31871255D01*
X52975907Y31959181D01*
X53090819Y32074093D01*
X53181106Y32209216D01*
X53243296Y32359356D01*
X53275000Y32518745D01*
X53275000Y32681255D01*
X53243296Y32840644D01*
X53181106Y32990784D01*
X53090819Y33125907D01*
X52975907Y33240819D01*
X52840784Y33331106D01*
X52690644Y33393296D01*
X52531255Y33425000D01*
X52368745Y33425000D01*
X52209356Y33393296D01*
X52059216Y33331106D01*
X51924093Y33240819D01*
X51809181Y33125907D01*
X51718894Y32990784D01*
X51656704Y32840644D01*
X51625000Y32681255D01*
X725000Y32681255D01*
X725000Y33891255D01*
X53275000Y33891255D01*
X53275000Y33728745D01*
X53306704Y33569356D01*
X53368894Y33419216D01*
X53459181Y33284093D01*
X53574093Y33169181D01*
X53709216Y33078894D01*
X53859356Y33016704D01*
X54018745Y32985000D01*
X54181255Y32985000D01*
X54340644Y33016704D01*
X54490784Y33078894D01*
X54625907Y33169181D01*
X54740819Y33284093D01*
X54831106Y33419216D01*
X54893296Y33569356D01*
X54925000Y33728745D01*
X54925000Y33891255D01*
X54893296Y34050644D01*
X54831106Y34200784D01*
X54740819Y34335907D01*
X54625907Y34450819D01*
X54490784Y34541106D01*
X54340644Y34603296D01*
X54181255Y34635000D01*
X54018745Y34635000D01*
X53859356Y34603296D01*
X53709216Y34541106D01*
X53574093Y34450819D01*
X53459181Y34335907D01*
X53368894Y34200784D01*
X53306704Y34050644D01*
X53275000Y33891255D01*
X725000Y33891255D01*
X725000Y38164973D01*
X2325000Y38164973D01*
X2325000Y37835027D01*
X2389369Y37511420D01*
X2515634Y37206590D01*
X2698942Y36932249D01*
X2932249Y36698942D01*
X3206590Y36515634D01*
X3511420Y36389369D01*
X3835027Y36325000D01*
X4164973Y36325000D01*
X4488580Y36389369D01*
X4793410Y36515634D01*
X5067751Y36698942D01*
X5301058Y36932249D01*
X5484366Y37206590D01*
X5581567Y37441255D01*
X18025000Y37441255D01*
X18025000Y37278745D01*
X18056704Y37119356D01*
X18118894Y36969216D01*
X18209181Y36834093D01*
X18324093Y36719181D01*
X18459216Y36628894D01*
X18609356Y36566704D01*
X18768745Y36535000D01*
X18931255Y36535000D01*
X19090644Y36566704D01*
X19240784Y36628894D01*
X19294779Y36664973D01*
X28825000Y36664973D01*
X28825000Y36335027D01*
X28889369Y36011420D01*
X29015634Y35706590D01*
X29198942Y35432249D01*
X29432249Y35198942D01*
X29706590Y35015634D01*
X30011420Y34889369D01*
X30335027Y34825000D01*
X30664973Y34825000D01*
X30988580Y34889369D01*
X31186269Y34971255D01*
X49325000Y34971255D01*
X49325000Y34808745D01*
X49356704Y34649356D01*
X49418894Y34499216D01*
X49509181Y34364093D01*
X49624093Y34249181D01*
X49759216Y34158894D01*
X49909356Y34096704D01*
X50068745Y34065000D01*
X50231255Y34065000D01*
X50390644Y34096704D01*
X50540784Y34158894D01*
X50675907Y34249181D01*
X50790819Y34364093D01*
X50881106Y34499216D01*
X50943296Y34649356D01*
X50975000Y34808745D01*
X50975000Y34971255D01*
X50943296Y35130644D01*
X50881106Y35280784D01*
X50790819Y35415907D01*
X50675907Y35530819D01*
X50540784Y35621106D01*
X50390644Y35683296D01*
X50231255Y35715000D01*
X50068745Y35715000D01*
X49909356Y35683296D01*
X49759216Y35621106D01*
X49624093Y35530819D01*
X49509181Y35415907D01*
X49418894Y35280784D01*
X49356704Y35130644D01*
X49325000Y34971255D01*
X31186269Y34971255D01*
X31293410Y35015634D01*
X31567751Y35198942D01*
X31801058Y35432249D01*
X31984366Y35706590D01*
X32110631Y36011420D01*
X32175000Y36335027D01*
X32175000Y36664973D01*
X32110631Y36988580D01*
X31984366Y37293410D01*
X31805399Y37561255D01*
X45015000Y37561255D01*
X45015000Y37398745D01*
X45046704Y37239356D01*
X45108894Y37089216D01*
X45199181Y36954093D01*
X45314093Y36839181D01*
X45449216Y36748894D01*
X45599356Y36686704D01*
X45758745Y36655000D01*
X45921255Y36655000D01*
X46080644Y36686704D01*
X46230784Y36748894D01*
X46365907Y36839181D01*
X46480819Y36954093D01*
X46571106Y37089216D01*
X46633296Y37239356D01*
X46657542Y37361255D01*
X49975000Y37361255D01*
X49975000Y37198745D01*
X50006704Y37039356D01*
X50068894Y36889216D01*
X50159181Y36754093D01*
X50274093Y36639181D01*
X50409216Y36548894D01*
X50559356Y36486704D01*
X50718745Y36455000D01*
X50881255Y36455000D01*
X51040644Y36486704D01*
X51190784Y36548894D01*
X51325907Y36639181D01*
X51351699Y36664973D01*
X54825000Y36664973D01*
X54825000Y36335027D01*
X54889369Y36011420D01*
X55015634Y35706590D01*
X55198942Y35432249D01*
X55432249Y35198942D01*
X55706590Y35015634D01*
X56011420Y34889369D01*
X56335027Y34825000D01*
X56664973Y34825000D01*
X56988580Y34889369D01*
X57293410Y35015634D01*
X57567751Y35198942D01*
X57801058Y35432249D01*
X57984366Y35706590D01*
X58110631Y36011420D01*
X58175000Y36335027D01*
X58175000Y36664973D01*
X58139936Y36841255D01*
X70495000Y36841255D01*
X70495000Y36678745D01*
X70526704Y36519356D01*
X70588894Y36369216D01*
X70679181Y36234093D01*
X70794093Y36119181D01*
X70929216Y36028894D01*
X71079356Y35966704D01*
X71238745Y35935000D01*
X71401255Y35935000D01*
X71560644Y35966704D01*
X71710784Y36028894D01*
X71845907Y36119181D01*
X71960819Y36234093D01*
X72051106Y36369216D01*
X72113296Y36519356D01*
X72145000Y36678745D01*
X72145000Y36841255D01*
X72113296Y37000644D01*
X72051106Y37150784D01*
X71960819Y37285907D01*
X71845907Y37400819D01*
X71710784Y37491106D01*
X71560644Y37553296D01*
X71401255Y37585000D01*
X71238745Y37585000D01*
X71079356Y37553296D01*
X70929216Y37491106D01*
X70794093Y37400819D01*
X70679181Y37285907D01*
X70588894Y37150784D01*
X70526704Y37000644D01*
X70495000Y36841255D01*
X58139936Y36841255D01*
X58110631Y36988580D01*
X57984366Y37293410D01*
X57801058Y37567751D01*
X57567751Y37801058D01*
X57293410Y37984366D01*
X56988580Y38110631D01*
X56664973Y38175000D01*
X56335027Y38175000D01*
X56011420Y38110631D01*
X55706590Y37984366D01*
X55432249Y37801058D01*
X55198942Y37567751D01*
X55015634Y37293410D01*
X54889369Y36988580D01*
X54825000Y36664973D01*
X51351699Y36664973D01*
X51440819Y36754093D01*
X51531106Y36889216D01*
X51593296Y37039356D01*
X51625000Y37198745D01*
X51625000Y37361255D01*
X51593296Y37520644D01*
X51531106Y37670784D01*
X51440819Y37805907D01*
X51325907Y37920819D01*
X51190784Y38011106D01*
X51040644Y38073296D01*
X50881255Y38105000D01*
X50718745Y38105000D01*
X50559356Y38073296D01*
X50409216Y38011106D01*
X50274093Y37920819D01*
X50159181Y37805907D01*
X50068894Y37670784D01*
X50006704Y37520644D01*
X49975000Y37361255D01*
X46657542Y37361255D01*
X46665000Y37398745D01*
X46665000Y37561255D01*
X46633296Y37720644D01*
X46571106Y37870784D01*
X46480819Y38005907D01*
X46365907Y38120819D01*
X46230784Y38211106D01*
X46080644Y38273296D01*
X45921255Y38305000D01*
X45758745Y38305000D01*
X45599356Y38273296D01*
X45449216Y38211106D01*
X45314093Y38120819D01*
X45199181Y38005907D01*
X45108894Y37870784D01*
X45046704Y37720644D01*
X45015000Y37561255D01*
X31805399Y37561255D01*
X31801058Y37567751D01*
X31567751Y37801058D01*
X31293410Y37984366D01*
X30988580Y38110631D01*
X30664973Y38175000D01*
X30335027Y38175000D01*
X30011420Y38110631D01*
X29706590Y37984366D01*
X29432249Y37801058D01*
X29198942Y37567751D01*
X29015634Y37293410D01*
X28889369Y36988580D01*
X28825000Y36664973D01*
X19294779Y36664973D01*
X19375907Y36719181D01*
X19490819Y36834093D01*
X19581106Y36969216D01*
X19643296Y37119356D01*
X19675000Y37278745D01*
X19675000Y37441255D01*
X19643296Y37600644D01*
X19581106Y37750784D01*
X19490819Y37885907D01*
X19375907Y38000819D01*
X19240784Y38091106D01*
X19090644Y38153296D01*
X18931255Y38185000D01*
X18768745Y38185000D01*
X18609356Y38153296D01*
X18459216Y38091106D01*
X18324093Y38000819D01*
X18209181Y37885907D01*
X18118894Y37750784D01*
X18056704Y37600644D01*
X18025000Y37441255D01*
X5581567Y37441255D01*
X5610631Y37511420D01*
X5675000Y37835027D01*
X5675000Y38164973D01*
X5610631Y38488580D01*
X5484366Y38793410D01*
X5301058Y39067751D01*
X5067751Y39301058D01*
X4793410Y39484366D01*
X4488580Y39610631D01*
X4164973Y39675000D01*
X3835027Y39675000D01*
X3511420Y39610631D01*
X3206590Y39484366D01*
X2932249Y39301058D01*
X2698942Y39067751D01*
X2515634Y38793410D01*
X2389369Y38488580D01*
X2325000Y38164973D01*
X725000Y38164973D01*
X725000Y40151255D01*
X21475000Y40151255D01*
X21475000Y39988745D01*
X21506704Y39829356D01*
X21568894Y39679216D01*
X21659181Y39544093D01*
X21774093Y39429181D01*
X21909216Y39338894D01*
X22059356Y39276704D01*
X22218745Y39245000D01*
X22381255Y39245000D01*
X22540644Y39276704D01*
X22690784Y39338894D01*
X22825907Y39429181D01*
X22940819Y39544093D01*
X23031106Y39679216D01*
X23093296Y39829356D01*
X23125000Y39988745D01*
X23125000Y40151255D01*
X23093296Y40310644D01*
X23031106Y40460784D01*
X22940819Y40595907D01*
X22825907Y40710819D01*
X22690784Y40801106D01*
X22540644Y40863296D01*
X22381255Y40895000D01*
X22218745Y40895000D01*
X22059356Y40863296D01*
X21909216Y40801106D01*
X21774093Y40710819D01*
X21659181Y40595907D01*
X21568894Y40460784D01*
X21506704Y40310644D01*
X21475000Y40151255D01*
X725000Y40151255D01*
X725000Y43164973D01*
X825000Y43164973D01*
X825000Y42835027D01*
X889369Y42511420D01*
X1015634Y42206590D01*
X1198942Y41932249D01*
X1432249Y41698942D01*
X1706590Y41515634D01*
X2011420Y41389369D01*
X2335027Y41325000D01*
X2664973Y41325000D01*
X2988580Y41389369D01*
X3259804Y41501714D01*
X48955459Y41501714D01*
X48955459Y41339204D01*
X48987163Y41179815D01*
X49049353Y41029675D01*
X49139640Y40894552D01*
X49254552Y40779640D01*
X49340913Y40721935D01*
X49339839Y40720861D01*
X49249552Y40585738D01*
X49187362Y40435598D01*
X49155658Y40276209D01*
X49155658Y40113699D01*
X49187362Y39954310D01*
X49249552Y39804170D01*
X49339839Y39669047D01*
X49454751Y39554135D01*
X49470857Y39543373D01*
X49389047Y39420937D01*
X49326857Y39270797D01*
X49295153Y39111408D01*
X49295153Y38948898D01*
X49326857Y38789509D01*
X49389047Y38639369D01*
X49479334Y38504246D01*
X49594246Y38389334D01*
X49729369Y38299047D01*
X49879509Y38236857D01*
X50038898Y38205153D01*
X50201408Y38205153D01*
X50360797Y38236857D01*
X50510937Y38299047D01*
X50646060Y38389334D01*
X50760972Y38504246D01*
X50851259Y38639369D01*
X50913449Y38789509D01*
X50945153Y38948898D01*
X50945153Y39111408D01*
X50913449Y39270797D01*
X50851259Y39420937D01*
X50760972Y39556060D01*
X50695777Y39621255D01*
X53365000Y39621255D01*
X53365000Y39458745D01*
X53396704Y39299356D01*
X53458894Y39149216D01*
X53549181Y39014093D01*
X53664093Y38899181D01*
X53799216Y38808894D01*
X53949356Y38746704D01*
X54108745Y38715000D01*
X54271255Y38715000D01*
X54430644Y38746704D01*
X54580784Y38808894D01*
X54715907Y38899181D01*
X54830819Y39014093D01*
X54921106Y39149216D01*
X54983296Y39299356D01*
X55015000Y39458745D01*
X55015000Y39621255D01*
X54983296Y39780644D01*
X54921106Y39930784D01*
X54830819Y40065907D01*
X54715907Y40180819D01*
X54580784Y40271106D01*
X54430644Y40333296D01*
X54271255Y40365000D01*
X54108745Y40365000D01*
X53949356Y40333296D01*
X53799216Y40271106D01*
X53664093Y40180819D01*
X53549181Y40065907D01*
X53458894Y39930784D01*
X53396704Y39780644D01*
X53365000Y39621255D01*
X50695777Y39621255D01*
X50646060Y39670972D01*
X50629954Y39681734D01*
X50711764Y39804170D01*
X50773954Y39954310D01*
X50805658Y40113699D01*
X50805658Y40276209D01*
X50773954Y40435598D01*
X50711764Y40585738D01*
X50621477Y40720861D01*
X50506565Y40835773D01*
X50420204Y40893478D01*
X50421278Y40894552D01*
X50511565Y41029675D01*
X50573755Y41179815D01*
X50605459Y41339204D01*
X50605459Y41501714D01*
X50573755Y41661103D01*
X50511565Y41811243D01*
X50421278Y41946366D01*
X50306366Y42061278D01*
X50171243Y42151565D01*
X50138874Y42164973D01*
X76825000Y42164973D01*
X76825000Y41835027D01*
X76889369Y41511420D01*
X77015634Y41206590D01*
X77198942Y40932249D01*
X77432249Y40698942D01*
X77706590Y40515634D01*
X78011420Y40389369D01*
X78335027Y40325000D01*
X78664973Y40325000D01*
X78988580Y40389369D01*
X79293410Y40515634D01*
X79567751Y40698942D01*
X79801058Y40932249D01*
X79984366Y41206590D01*
X80110631Y41511420D01*
X80175000Y41835027D01*
X80175000Y42164973D01*
X80110631Y42488580D01*
X79984366Y42793410D01*
X79801058Y43067751D01*
X79567751Y43301058D01*
X79293410Y43484366D01*
X78988580Y43610631D01*
X78664973Y43675000D01*
X78335027Y43675000D01*
X78011420Y43610631D01*
X77706590Y43484366D01*
X77432249Y43301058D01*
X77198942Y43067751D01*
X77015634Y42793410D01*
X76889369Y42488580D01*
X76825000Y42164973D01*
X50138874Y42164973D01*
X50021103Y42213755D01*
X49861714Y42245459D01*
X49699204Y42245459D01*
X49539815Y42213755D01*
X49389675Y42151565D01*
X49254552Y42061278D01*
X49139640Y41946366D01*
X49049353Y41811243D01*
X48987163Y41661103D01*
X48955459Y41501714D01*
X3259804Y41501714D01*
X3293410Y41515634D01*
X3567751Y41698942D01*
X3801058Y41932249D01*
X3984366Y42206590D01*
X4110631Y42511420D01*
X4175000Y42835027D01*
X4175000Y43164973D01*
X4110631Y43488580D01*
X3984366Y43793410D01*
X3801058Y44067751D01*
X3567751Y44301058D01*
X3293410Y44484366D01*
X2988580Y44610631D01*
X2664973Y44675000D01*
X2335027Y44675000D01*
X2011420Y44610631D01*
X1706590Y44484366D01*
X1432249Y44301058D01*
X1198942Y44067751D01*
X1015634Y43793410D01*
X889369Y43488580D01*
X825000Y43164973D01*
X725000Y43164973D01*
X725000Y45280000D01*
X13622944Y45280000D01*
X13622944Y44280000D01*
X13631150Y44196686D01*
X13655452Y44116573D01*
X13694916Y44042740D01*
X13748026Y43978026D01*
X13812740Y43924916D01*
X13886573Y43885452D01*
X13966686Y43861150D01*
X14050000Y43852944D01*
X15050000Y43852944D01*
X15133314Y43861150D01*
X15213427Y43885452D01*
X15287260Y43924916D01*
X15351974Y43978026D01*
X15405084Y44042740D01*
X15444548Y44116573D01*
X15468850Y44196686D01*
X15477056Y44280000D01*
X15477056Y45280000D01*
X15468850Y45363314D01*
X15444548Y45443427D01*
X15405084Y45517260D01*
X15351974Y45581974D01*
X15287260Y45635084D01*
X15213427Y45674548D01*
X15133314Y45698850D01*
X15050000Y45707056D01*
X14050000Y45707056D01*
X13966686Y45698850D01*
X13886573Y45674548D01*
X13812740Y45635084D01*
X13748026Y45581974D01*
X13694916Y45517260D01*
X13655452Y45443427D01*
X13631150Y45363314D01*
X13622944Y45280000D01*
X725000Y45280000D01*
X725000Y47931255D01*
X53695000Y47931255D01*
X53695000Y47768745D01*
X53726704Y47609356D01*
X53788894Y47459216D01*
X53879181Y47324093D01*
X53994093Y47209181D01*
X54129216Y47118894D01*
X54279356Y47056704D01*
X54438745Y47025000D01*
X54601255Y47025000D01*
X54760644Y47056704D01*
X54910784Y47118894D01*
X55032831Y47200443D01*
X55034093Y47199181D01*
X55169216Y47108894D01*
X55319356Y47046704D01*
X55478745Y47015000D01*
X55641255Y47015000D01*
X55800644Y47046704D01*
X55950784Y47108894D01*
X56085907Y47199181D01*
X56200819Y47314093D01*
X56291106Y47449216D01*
X56353296Y47599356D01*
X56385000Y47758745D01*
X56385000Y47921255D01*
X56353296Y48080644D01*
X56291106Y48230784D01*
X56200819Y48365907D01*
X56085907Y48480819D01*
X55950784Y48571106D01*
X55800644Y48633296D01*
X55641255Y48665000D01*
X55478745Y48665000D01*
X55319356Y48633296D01*
X55169216Y48571106D01*
X55047169Y48489557D01*
X55045907Y48490819D01*
X54910784Y48581106D01*
X54760644Y48643296D01*
X54601255Y48675000D01*
X54438745Y48675000D01*
X54279356Y48643296D01*
X54129216Y48581106D01*
X53994093Y48490819D01*
X53879181Y48375907D01*
X53788894Y48240784D01*
X53726704Y48090644D01*
X53695000Y47931255D01*
X725000Y47931255D01*
X725000Y48690000D01*
X5073937Y48690000D01*
X5086159Y48565910D01*
X5122354Y48446589D01*
X5181133Y48336622D01*
X5260236Y48240236D01*
X5356622Y48161133D01*
X5466589Y48102354D01*
X5585910Y48066159D01*
X5710000Y48053937D01*
X6172750Y48057000D01*
X6331000Y48215250D01*
X6331000Y49311000D01*
X6589000Y49311000D01*
X6589000Y48215250D01*
X6747250Y48057000D01*
X7210000Y48053937D01*
X7334090Y48066159D01*
X7453411Y48102354D01*
X7563378Y48161133D01*
X7659764Y48240236D01*
X7738867Y48336622D01*
X7797646Y48446589D01*
X7833841Y48565910D01*
X7846063Y48690000D01*
X7843000Y49152750D01*
X7684750Y49311000D01*
X6589000Y49311000D01*
X6331000Y49311000D01*
X5235250Y49311000D01*
X5077000Y49152750D01*
X5073937Y48690000D01*
X725000Y48690000D01*
X725000Y50190000D01*
X5073937Y50190000D01*
X5077000Y49727250D01*
X5235250Y49569000D01*
X6331000Y49569000D01*
X6331000Y50664750D01*
X6589000Y50664750D01*
X6589000Y49569000D01*
X7684750Y49569000D01*
X7843000Y49727250D01*
X7846063Y50190000D01*
X7833841Y50314090D01*
X7797646Y50433411D01*
X7738867Y50543378D01*
X7659764Y50639764D01*
X7563378Y50718867D01*
X7453411Y50777646D01*
X7334090Y50813841D01*
X7210000Y50826063D01*
X6747250Y50823000D01*
X6589000Y50664750D01*
X6331000Y50664750D01*
X6172750Y50823000D01*
X5710000Y50826063D01*
X5585910Y50813841D01*
X5466589Y50777646D01*
X5356622Y50718867D01*
X5260236Y50639764D01*
X5181133Y50543378D01*
X5122354Y50433411D01*
X5086159Y50314090D01*
X5073937Y50190000D01*
X725000Y50190000D01*
X725000Y51241255D01*
X49925000Y51241255D01*
X49925000Y51078745D01*
X49956704Y50919356D01*
X50018894Y50769216D01*
X50109181Y50634093D01*
X50224093Y50519181D01*
X50359216Y50428894D01*
X50509356Y50366704D01*
X50668745Y50335000D01*
X50831255Y50335000D01*
X50990644Y50366704D01*
X51140784Y50428894D01*
X51275907Y50519181D01*
X51390819Y50634093D01*
X51481106Y50769216D01*
X51543296Y50919356D01*
X51575000Y51078745D01*
X51575000Y51241255D01*
X51571022Y51261255D01*
X52905000Y51261255D01*
X52905000Y51098745D01*
X52936704Y50939356D01*
X52998894Y50789216D01*
X53089181Y50654093D01*
X53204093Y50539181D01*
X53339216Y50448894D01*
X53489356Y50386704D01*
X53648745Y50355000D01*
X53811255Y50355000D01*
X53970644Y50386704D01*
X54120784Y50448894D01*
X54255907Y50539181D01*
X54370819Y50654093D01*
X54461106Y50789216D01*
X54523296Y50939356D01*
X54555000Y51098745D01*
X54555000Y51261255D01*
X54523296Y51420644D01*
X54461106Y51570784D01*
X54370819Y51705907D01*
X54255907Y51820819D01*
X54120784Y51911106D01*
X53970644Y51973296D01*
X53811255Y52005000D01*
X53648745Y52005000D01*
X53489356Y51973296D01*
X53339216Y51911106D01*
X53204093Y51820819D01*
X53089181Y51705907D01*
X52998894Y51570784D01*
X52936704Y51420644D01*
X52905000Y51261255D01*
X51571022Y51261255D01*
X51543296Y51400644D01*
X51481106Y51550784D01*
X51390819Y51685907D01*
X51275907Y51800819D01*
X51140784Y51891106D01*
X50990644Y51953296D01*
X50831255Y51985000D01*
X50668745Y51985000D01*
X50509356Y51953296D01*
X50359216Y51891106D01*
X50224093Y51800819D01*
X50109181Y51685907D01*
X50018894Y51550784D01*
X49956704Y51400644D01*
X49925000Y51241255D01*
X725000Y51241255D01*
X725000Y53541255D01*
X51425000Y53541255D01*
X51425000Y53378745D01*
X51456704Y53219356D01*
X51518894Y53069216D01*
X51609181Y52934093D01*
X51724093Y52819181D01*
X51859216Y52728894D01*
X52009356Y52666704D01*
X52168745Y52635000D01*
X52331255Y52635000D01*
X52490644Y52666704D01*
X52640784Y52728894D01*
X52775907Y52819181D01*
X52890819Y52934093D01*
X52981106Y53069216D01*
X53043296Y53219356D01*
X53075000Y53378745D01*
X53075000Y53541255D01*
X53043296Y53700644D01*
X52981106Y53850784D01*
X52890819Y53985907D01*
X52775907Y54100819D01*
X52640784Y54191106D01*
X52490644Y54253296D01*
X52331255Y54285000D01*
X52168745Y54285000D01*
X52009356Y54253296D01*
X51859216Y54191106D01*
X51724093Y54100819D01*
X51609181Y53985907D01*
X51518894Y53850784D01*
X51456704Y53700644D01*
X51425000Y53541255D01*
X725000Y53541255D01*
X725000Y55801255D01*
X7935000Y55801255D01*
X7935000Y55638745D01*
X7966704Y55479356D01*
X8028894Y55329216D01*
X8119181Y55194093D01*
X8234093Y55079181D01*
X8369216Y54988894D01*
X8519356Y54926704D01*
X8678745Y54895000D01*
X8841255Y54895000D01*
X9000644Y54926704D01*
X9150784Y54988894D01*
X9285907Y55079181D01*
X9400819Y55194093D01*
X9491106Y55329216D01*
X9553296Y55479356D01*
X9585000Y55638745D01*
X9585000Y55801255D01*
X9553296Y55960644D01*
X9491106Y56110784D01*
X9400819Y56245907D01*
X9285907Y56360819D01*
X9150784Y56451106D01*
X9000644Y56513296D01*
X8841255Y56545000D01*
X8678745Y56545000D01*
X8519356Y56513296D01*
X8369216Y56451106D01*
X8234093Y56360819D01*
X8119181Y56245907D01*
X8028894Y56110784D01*
X7966704Y55960644D01*
X7935000Y55801255D01*
X725000Y55801255D01*
X725000Y57381255D01*
X8825000Y57381255D01*
X8825000Y57218745D01*
X8856704Y57059356D01*
X8918894Y56909216D01*
X9009181Y56774093D01*
X9124093Y56659181D01*
X9259216Y56568894D01*
X9409356Y56506704D01*
X9568745Y56475000D01*
X9731255Y56475000D01*
X9890644Y56506704D01*
X10040784Y56568894D01*
X10175907Y56659181D01*
X10290819Y56774093D01*
X10381106Y56909216D01*
X10443296Y57059356D01*
X10475000Y57218745D01*
X10475000Y57381255D01*
X10443296Y57540644D01*
X10381106Y57690784D01*
X10290819Y57825907D01*
X10175907Y57940819D01*
X10040784Y58031106D01*
X9922744Y58080000D01*
X13402944Y58080000D01*
X13402944Y57080000D01*
X13411150Y56996686D01*
X13435452Y56916573D01*
X13474916Y56842740D01*
X13528026Y56778026D01*
X13592740Y56724916D01*
X13666573Y56685452D01*
X13746686Y56661150D01*
X13830000Y56652944D01*
X14830000Y56652944D01*
X14913314Y56661150D01*
X14993427Y56685452D01*
X15067260Y56724916D01*
X15131974Y56778026D01*
X15185084Y56842740D01*
X15224548Y56916573D01*
X15248850Y56996686D01*
X15257056Y57080000D01*
X15257056Y58080000D01*
X15248850Y58163314D01*
X15224548Y58243427D01*
X15185084Y58317260D01*
X15131974Y58381974D01*
X15067260Y58435084D01*
X14993427Y58474548D01*
X14913314Y58498850D01*
X14830000Y58507056D01*
X13830000Y58507056D01*
X13746686Y58498850D01*
X13666573Y58474548D01*
X13592740Y58435084D01*
X13528026Y58381974D01*
X13474916Y58317260D01*
X13435452Y58243427D01*
X13411150Y58163314D01*
X13402944Y58080000D01*
X9922744Y58080000D01*
X9890644Y58093296D01*
X9731255Y58125000D01*
X9568745Y58125000D01*
X9409356Y58093296D01*
X9259216Y58031106D01*
X9124093Y57940819D01*
X9009181Y57825907D01*
X8918894Y57690784D01*
X8856704Y57540644D01*
X8825000Y57381255D01*
X725000Y57381255D01*
X725000Y58621255D01*
X26085000Y58621255D01*
X26085000Y58458745D01*
X26116704Y58299356D01*
X26178894Y58149216D01*
X26269181Y58014093D01*
X26384093Y57899181D01*
X26519216Y57808894D01*
X26669356Y57746704D01*
X26828745Y57715000D01*
X26991255Y57715000D01*
X27150644Y57746704D01*
X27300784Y57808894D01*
X27435907Y57899181D01*
X27550819Y58014093D01*
X27641106Y58149216D01*
X27703296Y58299356D01*
X27735000Y58458745D01*
X27735000Y58601255D01*
X35575000Y58601255D01*
X35575000Y58438745D01*
X35606704Y58279356D01*
X35668894Y58129216D01*
X35759181Y57994093D01*
X35874093Y57879181D01*
X36009216Y57788894D01*
X36159356Y57726704D01*
X36318745Y57695000D01*
X36481255Y57695000D01*
X36640644Y57726704D01*
X36790784Y57788894D01*
X36925907Y57879181D01*
X37040819Y57994093D01*
X37131106Y58129216D01*
X37193296Y58279356D01*
X37225000Y58438745D01*
X37225000Y58501255D01*
X45055000Y58501255D01*
X45055000Y58338745D01*
X45086704Y58179356D01*
X45148894Y58029216D01*
X45239181Y57894093D01*
X45354093Y57779181D01*
X45489216Y57688894D01*
X45639356Y57626704D01*
X45798745Y57595000D01*
X45961255Y57595000D01*
X46120644Y57626704D01*
X46270784Y57688894D01*
X46405907Y57779181D01*
X46520819Y57894093D01*
X46611106Y58029216D01*
X46673296Y58179356D01*
X46679641Y58211255D01*
X54615000Y58211255D01*
X54615000Y58048745D01*
X54646704Y57889356D01*
X54708894Y57739216D01*
X54799181Y57604093D01*
X54914093Y57489181D01*
X55049216Y57398894D01*
X55199356Y57336704D01*
X55358745Y57305000D01*
X55521255Y57305000D01*
X55680644Y57336704D01*
X55830784Y57398894D01*
X55965907Y57489181D01*
X56080819Y57604093D01*
X56171106Y57739216D01*
X56233296Y57889356D01*
X56265000Y58048745D01*
X56265000Y58211255D01*
X56233296Y58370644D01*
X56171106Y58520784D01*
X56080819Y58655907D01*
X55965907Y58770819D01*
X55830784Y58861106D01*
X55680644Y58923296D01*
X55521255Y58955000D01*
X55358745Y58955000D01*
X55199356Y58923296D01*
X55049216Y58861106D01*
X54914093Y58770819D01*
X54799181Y58655907D01*
X54708894Y58520784D01*
X54646704Y58370644D01*
X54615000Y58211255D01*
X46679641Y58211255D01*
X46705000Y58338745D01*
X46705000Y58501255D01*
X46673296Y58660644D01*
X46611106Y58810784D01*
X46520819Y58945907D01*
X46405907Y59060819D01*
X46270784Y59151106D01*
X46120644Y59213296D01*
X45961255Y59245000D01*
X45798745Y59245000D01*
X45639356Y59213296D01*
X45489216Y59151106D01*
X45354093Y59060819D01*
X45239181Y58945907D01*
X45148894Y58810784D01*
X45086704Y58660644D01*
X45055000Y58501255D01*
X37225000Y58501255D01*
X37225000Y58601255D01*
X37193296Y58760644D01*
X37131106Y58910784D01*
X37040819Y59045907D01*
X36925907Y59160819D01*
X36790784Y59251106D01*
X36640644Y59313296D01*
X36481255Y59345000D01*
X36318745Y59345000D01*
X36159356Y59313296D01*
X36009216Y59251106D01*
X35874093Y59160819D01*
X35759181Y59045907D01*
X35668894Y58910784D01*
X35606704Y58760644D01*
X35575000Y58601255D01*
X27735000Y58601255D01*
X27735000Y58621255D01*
X27703296Y58780644D01*
X27641106Y58930784D01*
X27550819Y59065907D01*
X27435907Y59180819D01*
X27300784Y59271106D01*
X27150644Y59333296D01*
X26991255Y59365000D01*
X26828745Y59365000D01*
X26669356Y59333296D01*
X26519216Y59271106D01*
X26384093Y59180819D01*
X26269181Y59065907D01*
X26178894Y58930784D01*
X26116704Y58780644D01*
X26085000Y58621255D01*
X725000Y58621255D01*
X725000Y60731255D01*
X26235000Y60731255D01*
X26235000Y60568745D01*
X26266704Y60409356D01*
X26328894Y60259216D01*
X26419181Y60124093D01*
X26534093Y60009181D01*
X26669216Y59918894D01*
X26819356Y59856704D01*
X26978745Y59825000D01*
X27141255Y59825000D01*
X27300644Y59856704D01*
X27450784Y59918894D01*
X27585907Y60009181D01*
X27700819Y60124093D01*
X27791106Y60259216D01*
X27853296Y60409356D01*
X27885000Y60568745D01*
X27885000Y60651255D01*
X35635000Y60651255D01*
X35635000Y60488745D01*
X35666704Y60329356D01*
X35728894Y60179216D01*
X35819181Y60044093D01*
X35934093Y59929181D01*
X36069216Y59838894D01*
X36219356Y59776704D01*
X36378745Y59745000D01*
X36541255Y59745000D01*
X36700644Y59776704D01*
X36850784Y59838894D01*
X36985907Y59929181D01*
X37100819Y60044093D01*
X37191106Y60179216D01*
X37253296Y60329356D01*
X37285000Y60488745D01*
X37285000Y60631255D01*
X44975000Y60631255D01*
X44975000Y60468745D01*
X45006704Y60309356D01*
X45068894Y60159216D01*
X45159181Y60024093D01*
X45274093Y59909181D01*
X45409216Y59818894D01*
X45559356Y59756704D01*
X45718745Y59725000D01*
X45881255Y59725000D01*
X46040644Y59756704D01*
X46190784Y59818894D01*
X46325907Y59909181D01*
X46440819Y60024093D01*
X46531106Y60159216D01*
X46593296Y60309356D01*
X46619282Y60440000D01*
X71542944Y60440000D01*
X71542944Y59440000D01*
X71551150Y59356686D01*
X71575452Y59276573D01*
X71614916Y59202740D01*
X71668026Y59138026D01*
X71732740Y59084916D01*
X71806573Y59045452D01*
X71886686Y59021150D01*
X71970000Y59012944D01*
X72970000Y59012944D01*
X73053314Y59021150D01*
X73133427Y59045452D01*
X73207260Y59084916D01*
X73271974Y59138026D01*
X73325084Y59202740D01*
X73364548Y59276573D01*
X73388850Y59356686D01*
X73397056Y59440000D01*
X73397056Y60440000D01*
X73388850Y60523314D01*
X73364548Y60603427D01*
X73325084Y60677260D01*
X73271974Y60741974D01*
X73207260Y60795084D01*
X73133427Y60834548D01*
X73053314Y60858850D01*
X72970000Y60867056D01*
X71970000Y60867056D01*
X71886686Y60858850D01*
X71806573Y60834548D01*
X71732740Y60795084D01*
X71668026Y60741974D01*
X71614916Y60677260D01*
X71575452Y60603427D01*
X71551150Y60523314D01*
X71542944Y60440000D01*
X46619282Y60440000D01*
X46625000Y60468745D01*
X46625000Y60631255D01*
X46593296Y60790644D01*
X46531106Y60940784D01*
X46440819Y61075907D01*
X46325907Y61190819D01*
X46190784Y61281106D01*
X46040644Y61343296D01*
X45950357Y61361255D01*
X54555000Y61361255D01*
X54555000Y61198745D01*
X54586704Y61039356D01*
X54648894Y60889216D01*
X54739181Y60754093D01*
X54854093Y60639181D01*
X54989216Y60548894D01*
X55139356Y60486704D01*
X55298745Y60455000D01*
X55461255Y60455000D01*
X55620644Y60486704D01*
X55770784Y60548894D01*
X55905907Y60639181D01*
X56020819Y60754093D01*
X56111106Y60889216D01*
X56173296Y61039356D01*
X56205000Y61198745D01*
X56205000Y61361255D01*
X56173296Y61520644D01*
X56111106Y61670784D01*
X56020819Y61805907D01*
X55905907Y61920819D01*
X55770784Y62011106D01*
X55620644Y62073296D01*
X55461255Y62105000D01*
X55298745Y62105000D01*
X55139356Y62073296D01*
X54989216Y62011106D01*
X54854093Y61920819D01*
X54739181Y61805907D01*
X54648894Y61670784D01*
X54586704Y61520644D01*
X54555000Y61361255D01*
X45950357Y61361255D01*
X45881255Y61375000D01*
X45718745Y61375000D01*
X45559356Y61343296D01*
X45409216Y61281106D01*
X45274093Y61190819D01*
X45159181Y61075907D01*
X45068894Y60940784D01*
X45006704Y60790644D01*
X44975000Y60631255D01*
X37285000Y60631255D01*
X37285000Y60651255D01*
X37253296Y60810644D01*
X37191106Y60960784D01*
X37100819Y61095907D01*
X36985907Y61210819D01*
X36850784Y61301106D01*
X36700644Y61363296D01*
X36541255Y61395000D01*
X36378745Y61395000D01*
X36219356Y61363296D01*
X36069216Y61301106D01*
X35934093Y61210819D01*
X35819181Y61095907D01*
X35728894Y60960784D01*
X35666704Y60810644D01*
X35635000Y60651255D01*
X27885000Y60651255D01*
X27885000Y60731255D01*
X27853296Y60890644D01*
X27791106Y61040784D01*
X27700819Y61175907D01*
X27585907Y61290819D01*
X27450784Y61381106D01*
X27300644Y61443296D01*
X27141255Y61475000D01*
X26978745Y61475000D01*
X26819356Y61443296D01*
X26669216Y61381106D01*
X26534093Y61290819D01*
X26419181Y61175907D01*
X26328894Y61040784D01*
X26266704Y60890644D01*
X26235000Y60731255D01*
X725000Y60731255D01*
X725000Y63291255D01*
X9725000Y63291255D01*
X9725000Y63128745D01*
X9756704Y62969356D01*
X9818894Y62819216D01*
X9909181Y62684093D01*
X10024093Y62569181D01*
X10159216Y62478894D01*
X10309356Y62416704D01*
X10468745Y62385000D01*
X10631255Y62385000D01*
X10790644Y62416704D01*
X10940784Y62478894D01*
X11075907Y62569181D01*
X11190819Y62684093D01*
X11281106Y62819216D01*
X11343296Y62969356D01*
X11375000Y63128745D01*
X11375000Y63291255D01*
X11343296Y63450644D01*
X11281106Y63600784D01*
X11201448Y63720000D01*
X13312944Y63720000D01*
X13312944Y62720000D01*
X13321150Y62636686D01*
X13345452Y62556573D01*
X13384916Y62482740D01*
X13438026Y62418026D01*
X13502740Y62364916D01*
X13576573Y62325452D01*
X13656686Y62301150D01*
X13740000Y62292944D01*
X14740000Y62292944D01*
X14823314Y62301150D01*
X14903427Y62325452D01*
X14977260Y62364916D01*
X15041974Y62418026D01*
X15095084Y62482740D01*
X15134548Y62556573D01*
X15158850Y62636686D01*
X15167056Y62720000D01*
X15167056Y63720000D01*
X15158850Y63803314D01*
X15134548Y63883427D01*
X15095084Y63957260D01*
X15041974Y64021974D01*
X14977260Y64075084D01*
X14903427Y64114548D01*
X14823314Y64138850D01*
X14740000Y64147056D01*
X13740000Y64147056D01*
X13656686Y64138850D01*
X13576573Y64114548D01*
X13502740Y64075084D01*
X13438026Y64021974D01*
X13384916Y63957260D01*
X13345452Y63883427D01*
X13321150Y63803314D01*
X13312944Y63720000D01*
X11201448Y63720000D01*
X11190819Y63735907D01*
X11075907Y63850819D01*
X10940784Y63941106D01*
X10790644Y64003296D01*
X10631255Y64035000D01*
X10468745Y64035000D01*
X10309356Y64003296D01*
X10159216Y63941106D01*
X10024093Y63850819D01*
X9909181Y63735907D01*
X9818894Y63600784D01*
X9756704Y63450644D01*
X9725000Y63291255D01*
X725000Y63291255D01*
X725000Y64921255D01*
X8875000Y64921255D01*
X8875000Y64758745D01*
X8906704Y64599356D01*
X8968894Y64449216D01*
X9059181Y64314093D01*
X9174093Y64199181D01*
X9309216Y64108894D01*
X9459356Y64046704D01*
X9618745Y64015000D01*
X9781255Y64015000D01*
X9940644Y64046704D01*
X10090784Y64108894D01*
X10225907Y64199181D01*
X10340819Y64314093D01*
X10425786Y64441255D01*
X22925000Y64441255D01*
X22925000Y64278745D01*
X22956704Y64119356D01*
X23018894Y63969216D01*
X23109181Y63834093D01*
X23224093Y63719181D01*
X23359216Y63628894D01*
X23509356Y63566704D01*
X23668745Y63535000D01*
X23831255Y63535000D01*
X23990644Y63566704D01*
X24140784Y63628894D01*
X24275907Y63719181D01*
X24390819Y63834093D01*
X24481106Y63969216D01*
X24543296Y64119356D01*
X24575000Y64278745D01*
X24575000Y64431255D01*
X32215000Y64431255D01*
X32215000Y64268745D01*
X32246704Y64109356D01*
X32308894Y63959216D01*
X32399181Y63824093D01*
X32514093Y63709181D01*
X32649216Y63618894D01*
X32799356Y63556704D01*
X32958745Y63525000D01*
X33121255Y63525000D01*
X33280644Y63556704D01*
X33430784Y63618894D01*
X33565907Y63709181D01*
X33680819Y63824093D01*
X33771106Y63959216D01*
X33833296Y64109356D01*
X33865000Y64268745D01*
X33865000Y64311255D01*
X41705000Y64311255D01*
X41705000Y64148745D01*
X41736704Y63989356D01*
X41798894Y63839216D01*
X41889181Y63704093D01*
X42004093Y63589181D01*
X42139216Y63498894D01*
X42289356Y63436704D01*
X42448745Y63405000D01*
X42611255Y63405000D01*
X42770644Y63436704D01*
X42920784Y63498894D01*
X43055907Y63589181D01*
X43170819Y63704093D01*
X43261106Y63839216D01*
X43323296Y63989356D01*
X43355000Y64148745D01*
X43355000Y64311255D01*
X43339088Y64391255D01*
X51245000Y64391255D01*
X51245000Y64228745D01*
X51276704Y64069356D01*
X51338894Y63919216D01*
X51429181Y63784093D01*
X51544093Y63669181D01*
X51679216Y63578894D01*
X51829356Y63516704D01*
X51988745Y63485000D01*
X52151255Y63485000D01*
X52310644Y63516704D01*
X52460784Y63578894D01*
X52595907Y63669181D01*
X52710819Y63784093D01*
X52801106Y63919216D01*
X52863296Y64069356D01*
X52895000Y64228745D01*
X52895000Y64391255D01*
X52863296Y64550644D01*
X52801106Y64700784D01*
X52710819Y64835907D01*
X52595907Y64950819D01*
X52460784Y65041106D01*
X52310644Y65103296D01*
X52151255Y65135000D01*
X51988745Y65135000D01*
X51829356Y65103296D01*
X51679216Y65041106D01*
X51544093Y64950819D01*
X51429181Y64835907D01*
X51338894Y64700784D01*
X51276704Y64550644D01*
X51245000Y64391255D01*
X43339088Y64391255D01*
X43323296Y64470644D01*
X43261106Y64620784D01*
X43170819Y64755907D01*
X43055907Y64870819D01*
X42920784Y64961106D01*
X42770644Y65023296D01*
X42611255Y65055000D01*
X42448745Y65055000D01*
X42289356Y65023296D01*
X42139216Y64961106D01*
X42004093Y64870819D01*
X41889181Y64755907D01*
X41798894Y64620784D01*
X41736704Y64470644D01*
X41705000Y64311255D01*
X33865000Y64311255D01*
X33865000Y64431255D01*
X33833296Y64590644D01*
X33771106Y64740784D01*
X33680819Y64875907D01*
X33565907Y64990819D01*
X33430784Y65081106D01*
X33280644Y65143296D01*
X33121255Y65175000D01*
X32958745Y65175000D01*
X32799356Y65143296D01*
X32649216Y65081106D01*
X32514093Y64990819D01*
X32399181Y64875907D01*
X32308894Y64740784D01*
X32246704Y64590644D01*
X32215000Y64431255D01*
X24575000Y64431255D01*
X24575000Y64441255D01*
X24543296Y64600644D01*
X24481106Y64750784D01*
X24390819Y64885907D01*
X24275907Y65000819D01*
X24140784Y65091106D01*
X23990644Y65153296D01*
X23831255Y65185000D01*
X23668745Y65185000D01*
X23509356Y65153296D01*
X23359216Y65091106D01*
X23224093Y65000819D01*
X23109181Y64885907D01*
X23018894Y64750784D01*
X22956704Y64600644D01*
X22925000Y64441255D01*
X10425786Y64441255D01*
X10431106Y64449216D01*
X10493296Y64599356D01*
X10525000Y64758745D01*
X10525000Y64921255D01*
X10493296Y65080644D01*
X10431106Y65230784D01*
X10340819Y65365907D01*
X10225907Y65480819D01*
X10090784Y65571106D01*
X9940644Y65633296D01*
X9781255Y65665000D01*
X9618745Y65665000D01*
X9459356Y65633296D01*
X9309216Y65571106D01*
X9174093Y65480819D01*
X9059181Y65365907D01*
X8968894Y65230784D01*
X8906704Y65080644D01*
X8875000Y64921255D01*
X725000Y64921255D01*
X725000Y70760000D01*
X53283937Y70760000D01*
X53296159Y70635910D01*
X53332354Y70516589D01*
X53391133Y70406622D01*
X53470236Y70310236D01*
X53566622Y70231133D01*
X53676589Y70172354D01*
X53795910Y70136159D01*
X53920000Y70123937D01*
X54382750Y70127000D01*
X54541000Y70285250D01*
X54541000Y71381000D01*
X54799000Y71381000D01*
X54799000Y70285250D01*
X54957250Y70127000D01*
X55420000Y70123937D01*
X55544090Y70136159D01*
X55663411Y70172354D01*
X55773378Y70231133D01*
X55869764Y70310236D01*
X55948867Y70406622D01*
X56007646Y70516589D01*
X56043841Y70635910D01*
X56056063Y70760000D01*
X56053000Y71222750D01*
X55894750Y71381000D01*
X54799000Y71381000D01*
X54541000Y71381000D01*
X53445250Y71381000D01*
X53287000Y71222750D01*
X53283937Y70760000D01*
X725000Y70760000D01*
X725000Y72561255D01*
X11815000Y72561255D01*
X11815000Y72398745D01*
X11846704Y72239356D01*
X11908894Y72089216D01*
X11999181Y71954093D01*
X12114093Y71839181D01*
X12249216Y71748894D01*
X12399356Y71686704D01*
X12558745Y71655000D01*
X12721255Y71655000D01*
X12880644Y71686704D01*
X13030784Y71748894D01*
X13165907Y71839181D01*
X13280819Y71954093D01*
X13371106Y72089216D01*
X13433296Y72239356D01*
X13437402Y72260000D01*
X53283937Y72260000D01*
X53287000Y71797250D01*
X53445250Y71639000D01*
X54541000Y71639000D01*
X54541000Y72734750D01*
X54799000Y72734750D01*
X54799000Y71639000D01*
X55894750Y71639000D01*
X56053000Y71797250D01*
X56056063Y72260000D01*
X56043841Y72384090D01*
X56007646Y72503411D01*
X55948867Y72613378D01*
X55869764Y72709764D01*
X55773378Y72788867D01*
X55663411Y72847646D01*
X55544090Y72883841D01*
X55420000Y72896063D01*
X54957250Y72893000D01*
X54799000Y72734750D01*
X54541000Y72734750D01*
X54382750Y72893000D01*
X53920000Y72896063D01*
X53795910Y72883841D01*
X53676589Y72847646D01*
X53566622Y72788867D01*
X53470236Y72709764D01*
X53391133Y72613378D01*
X53332354Y72503411D01*
X53296159Y72384090D01*
X53283937Y72260000D01*
X13437402Y72260000D01*
X13465000Y72398745D01*
X13465000Y72561255D01*
X13439240Y72690760D01*
X13568745Y72665000D01*
X13731255Y72665000D01*
X13890644Y72696704D01*
X14040784Y72758894D01*
X14175907Y72849181D01*
X14290819Y72964093D01*
X14381106Y73099216D01*
X14443296Y73249356D01*
X14475000Y73408745D01*
X14475000Y73571255D01*
X14443296Y73730644D01*
X14381106Y73880784D01*
X14290819Y74015907D01*
X14175907Y74130819D01*
X14040784Y74221106D01*
X13890644Y74283296D01*
X13731255Y74315000D01*
X13568745Y74315000D01*
X13409356Y74283296D01*
X13259216Y74221106D01*
X13124093Y74130819D01*
X13009181Y74015907D01*
X12918894Y73880784D01*
X12856704Y73730644D01*
X12825000Y73571255D01*
X12825000Y73408745D01*
X12850760Y73279240D01*
X12721255Y73305000D01*
X12558745Y73305000D01*
X12399356Y73273296D01*
X12249216Y73211106D01*
X12114093Y73120819D01*
X11999181Y73005907D01*
X11908894Y72870784D01*
X11846704Y72720644D01*
X11815000Y72561255D01*
X725000Y72561255D01*
X725000Y74364367D01*
X1146800Y74364367D01*
X1242852Y74100768D01*
X1532298Y73960432D01*
X1843561Y73879261D01*
X2164680Y73860374D01*
X2483312Y73904498D01*
X2787214Y74009936D01*
X2957148Y74100768D01*
X3053200Y74364367D01*
X2100000Y75317566D01*
X1146800Y74364367D01*
X725000Y74364367D01*
X725000Y74634022D01*
X964367Y74546800D01*
X1917566Y75500000D01*
X2282434Y75500000D01*
X3235633Y74546800D01*
X3499232Y74642852D01*
X3639568Y74932298D01*
X3720739Y75243561D01*
X3739626Y75564680D01*
X3695502Y75883312D01*
X3590064Y76187214D01*
X3499232Y76357148D01*
X3235633Y76453200D01*
X2282434Y75500000D01*
X1917566Y75500000D01*
X964367Y76453200D01*
X725000Y76365978D01*
X725000Y76635633D01*
X1146800Y76635633D01*
X2100000Y75682434D01*
X3053200Y76635633D01*
X2957148Y76899232D01*
X2667702Y77039568D01*
X2356439Y77120739D01*
X2035320Y77139626D01*
X1716688Y77095502D01*
X1412786Y76990064D01*
X1242852Y76899232D01*
X1146800Y76635633D01*
X725000Y76635633D01*
X725000Y82616909D01*
X10913000Y82616909D01*
X10913000Y82383091D01*
X10958616Y82153765D01*
X11048095Y81937745D01*
X11177997Y81743332D01*
X11343332Y81577997D01*
X11460063Y81500000D01*
X11343332Y81422003D01*
X11177997Y81256668D01*
X11048095Y81062255D01*
X10958616Y80846235D01*
X10913000Y80616909D01*
X10913000Y80383091D01*
X10958616Y80153765D01*
X11048095Y79937745D01*
X11177997Y79743332D01*
X11343332Y79577997D01*
X11460063Y79500000D01*
X11343332Y79422003D01*
X11177997Y79256668D01*
X11048095Y79062255D01*
X10958616Y78846235D01*
X10913000Y78616909D01*
X10913000Y78383091D01*
X10958616Y78153765D01*
X11048095Y77937745D01*
X11177997Y77743332D01*
X11343332Y77577997D01*
X11460063Y77500000D01*
X11343332Y77422003D01*
X11177997Y77256668D01*
X11048095Y77062255D01*
X10958616Y76846235D01*
X10913000Y76616909D01*
X10913000Y76383091D01*
X10958616Y76153765D01*
X11048095Y75937745D01*
X11177997Y75743332D01*
X11343332Y75577997D01*
X11537745Y75448095D01*
X11753765Y75358616D01*
X11983091Y75313000D01*
X12216909Y75313000D01*
X12446235Y75358616D01*
X12525032Y75391255D01*
X68075000Y75391255D01*
X68075000Y75228745D01*
X68106704Y75069356D01*
X68168894Y74919216D01*
X68259181Y74784093D01*
X68374093Y74669181D01*
X68509216Y74578894D01*
X68659356Y74516704D01*
X68818745Y74485000D01*
X68981255Y74485000D01*
X69140644Y74516704D01*
X69290784Y74578894D01*
X69425907Y74669181D01*
X69540819Y74784093D01*
X69631106Y74919216D01*
X69693296Y75069356D01*
X69725000Y75228745D01*
X69725000Y75391255D01*
X69693296Y75550644D01*
X69631106Y75700784D01*
X69540819Y75835907D01*
X69425907Y75950819D01*
X69290784Y76041106D01*
X69140644Y76103296D01*
X68981255Y76135000D01*
X68818745Y76135000D01*
X68659356Y76103296D01*
X68509216Y76041106D01*
X68374093Y75950819D01*
X68259181Y75835907D01*
X68168894Y75700784D01*
X68106704Y75550644D01*
X68075000Y75391255D01*
X12525032Y75391255D01*
X12662255Y75448095D01*
X12856668Y75577997D01*
X13022003Y75743332D01*
X13151905Y75937745D01*
X13241384Y76153765D01*
X13287000Y76383091D01*
X13287000Y76616909D01*
X13241384Y76846235D01*
X13151905Y77062255D01*
X13022003Y77256668D01*
X12856668Y77422003D01*
X12739937Y77500000D01*
X12856668Y77577997D01*
X13022003Y77743332D01*
X13114159Y77881255D01*
X64495000Y77881255D01*
X64495000Y77718745D01*
X64526704Y77559356D01*
X64588894Y77409216D01*
X64679181Y77274093D01*
X64794093Y77159181D01*
X64880180Y77101659D01*
X64804093Y77050819D01*
X64689181Y76935907D01*
X64598894Y76800784D01*
X64536704Y76650644D01*
X64505000Y76491255D01*
X64505000Y76328745D01*
X64536704Y76169356D01*
X64598894Y76019216D01*
X64689181Y75884093D01*
X64804093Y75769181D01*
X64939216Y75678894D01*
X65089356Y75616704D01*
X65248745Y75585000D01*
X65411255Y75585000D01*
X65570644Y75616704D01*
X65720784Y75678894D01*
X65855907Y75769181D01*
X65970819Y75884093D01*
X66061106Y76019216D01*
X66123296Y76169356D01*
X66155000Y76328745D01*
X66155000Y76491255D01*
X66123296Y76650644D01*
X66061106Y76800784D01*
X65970819Y76935907D01*
X65855907Y77050819D01*
X65769820Y77108341D01*
X65845907Y77159181D01*
X65960819Y77274093D01*
X66051106Y77409216D01*
X66113296Y77559356D01*
X66145000Y77718745D01*
X66145000Y77881255D01*
X66113296Y78040644D01*
X66051106Y78190784D01*
X65960819Y78325907D01*
X65845907Y78440819D01*
X65710784Y78531106D01*
X65665655Y78549799D01*
X65750644Y78566704D01*
X65900784Y78628894D01*
X66035907Y78719181D01*
X66150819Y78834093D01*
X66241106Y78969216D01*
X66303296Y79119356D01*
X66335000Y79278745D01*
X66335000Y79380935D01*
X66450784Y79428894D01*
X66585907Y79519181D01*
X66700819Y79634093D01*
X66791106Y79769216D01*
X66853296Y79919356D01*
X66885000Y80078745D01*
X66885000Y80241255D01*
X66853296Y80400644D01*
X66791106Y80550784D01*
X66700819Y80685907D01*
X66585907Y80800819D01*
X66450784Y80891106D01*
X66300644Y80953296D01*
X66141255Y80985000D01*
X65978745Y80985000D01*
X65819356Y80953296D01*
X65669216Y80891106D01*
X65534093Y80800819D01*
X65419181Y80685907D01*
X65328894Y80550784D01*
X65266704Y80400644D01*
X65235000Y80241255D01*
X65235000Y80139065D01*
X65119216Y80091106D01*
X64984093Y80000819D01*
X64869181Y79885907D01*
X64778894Y79750784D01*
X64716704Y79600644D01*
X64685000Y79441255D01*
X64685000Y79278745D01*
X64716704Y79119356D01*
X64778894Y78969216D01*
X64869181Y78834093D01*
X64984093Y78719181D01*
X65119216Y78628894D01*
X65164345Y78610201D01*
X65079356Y78593296D01*
X64929216Y78531106D01*
X64794093Y78440819D01*
X64679181Y78325907D01*
X64588894Y78190784D01*
X64526704Y78040644D01*
X64495000Y77881255D01*
X13114159Y77881255D01*
X13151905Y77937745D01*
X13241384Y78153765D01*
X13287000Y78383091D01*
X13287000Y78616909D01*
X13241384Y78846235D01*
X13151905Y79062255D01*
X13022003Y79256668D01*
X12856668Y79422003D01*
X12739937Y79500000D01*
X12856668Y79577997D01*
X13022003Y79743332D01*
X13151905Y79937745D01*
X13178211Y80001255D01*
X20705000Y80001255D01*
X20705000Y79838745D01*
X20736704Y79679356D01*
X20798894Y79529216D01*
X20889181Y79394093D01*
X21004093Y79279181D01*
X21139216Y79188894D01*
X21289356Y79126704D01*
X21448745Y79095000D01*
X21611255Y79095000D01*
X21770644Y79126704D01*
X21920784Y79188894D01*
X22055907Y79279181D01*
X22170819Y79394093D01*
X22261106Y79529216D01*
X22323296Y79679356D01*
X22355000Y79838745D01*
X22355000Y80001255D01*
X22323296Y80160644D01*
X22261106Y80310784D01*
X22170819Y80445907D01*
X22055907Y80560819D01*
X21920784Y80651106D01*
X21770644Y80713296D01*
X21611255Y80745000D01*
X21448745Y80745000D01*
X21289356Y80713296D01*
X21139216Y80651106D01*
X21004093Y80560819D01*
X20889181Y80445907D01*
X20798894Y80310784D01*
X20736704Y80160644D01*
X20705000Y80001255D01*
X13178211Y80001255D01*
X13241384Y80153765D01*
X13287000Y80383091D01*
X13287000Y80616909D01*
X13241384Y80846235D01*
X13151905Y81062255D01*
X13022003Y81256668D01*
X12856668Y81422003D01*
X12739937Y81500000D01*
X12856668Y81577997D01*
X13022003Y81743332D01*
X13147568Y81931255D01*
X20715000Y81931255D01*
X20715000Y81768745D01*
X20746704Y81609356D01*
X20808894Y81459216D01*
X20899181Y81324093D01*
X21014093Y81209181D01*
X21149216Y81118894D01*
X21299356Y81056704D01*
X21458745Y81025000D01*
X21621255Y81025000D01*
X21780644Y81056704D01*
X21930784Y81118894D01*
X22065907Y81209181D01*
X22180819Y81324093D01*
X22219013Y81381255D01*
X23345000Y81381255D01*
X23345000Y81218745D01*
X23376704Y81059356D01*
X23438894Y80909216D01*
X23529181Y80774093D01*
X23644093Y80659181D01*
X23779216Y80568894D01*
X23929356Y80506704D01*
X24088745Y80475000D01*
X24251255Y80475000D01*
X24410644Y80506704D01*
X24560784Y80568894D01*
X24695907Y80659181D01*
X24810819Y80774093D01*
X24901106Y80909216D01*
X24963296Y81059356D01*
X24995000Y81218745D01*
X24995000Y81381255D01*
X24963296Y81540644D01*
X24901106Y81690784D01*
X24810819Y81825907D01*
X24695907Y81940819D01*
X24560784Y82031106D01*
X24410644Y82093296D01*
X24251255Y82125000D01*
X24088745Y82125000D01*
X23929356Y82093296D01*
X23779216Y82031106D01*
X23644093Y81940819D01*
X23529181Y81825907D01*
X23438894Y81690784D01*
X23376704Y81540644D01*
X23345000Y81381255D01*
X22219013Y81381255D01*
X22271106Y81459216D01*
X22333296Y81609356D01*
X22365000Y81768745D01*
X22365000Y81931255D01*
X22333296Y82090644D01*
X22271106Y82240784D01*
X22180819Y82375907D01*
X22065907Y82490819D01*
X21930784Y82581106D01*
X21780644Y82643296D01*
X21621255Y82675000D01*
X21458745Y82675000D01*
X21299356Y82643296D01*
X21149216Y82581106D01*
X21014093Y82490819D01*
X20899181Y82375907D01*
X20808894Y82240784D01*
X20746704Y82090644D01*
X20715000Y81931255D01*
X13147568Y81931255D01*
X13151905Y81937745D01*
X13241384Y82153765D01*
X13287000Y82383091D01*
X13287000Y82616909D01*
X13241384Y82846235D01*
X13151905Y83062255D01*
X13022003Y83256668D01*
X12856668Y83422003D01*
X12852553Y83424752D01*
X12883327Y83534240D01*
X12100000Y84317566D01*
X11316673Y83534240D01*
X11347447Y83424752D01*
X11343332Y83422003D01*
X11177997Y83256668D01*
X11048095Y83062255D01*
X10958616Y82846235D01*
X10913000Y82616909D01*
X725000Y82616909D01*
X725000Y84364367D01*
X1146800Y84364367D01*
X1242852Y84100768D01*
X1532298Y83960432D01*
X1843561Y83879261D01*
X2164680Y83860374D01*
X2483312Y83904498D01*
X2787214Y84009936D01*
X2957148Y84100768D01*
X3053200Y84364367D01*
X2991669Y84425898D01*
X10700210Y84425898D01*
X10741563Y84154236D01*
X10835120Y83895862D01*
X10894949Y83783931D01*
X11134240Y83716673D01*
X11917566Y84500000D01*
X12282434Y84500000D01*
X13065760Y83716673D01*
X13305051Y83783931D01*
X13421595Y84032784D01*
X13487350Y84299593D01*
X13499790Y84574102D01*
X13458437Y84845764D01*
X13364880Y85104138D01*
X13305051Y85216069D01*
X13065760Y85283327D01*
X12282434Y84500000D01*
X11917566Y84500000D01*
X11134240Y85283327D01*
X10894949Y85216069D01*
X10778405Y84967216D01*
X10712650Y84700407D01*
X10700210Y84425898D01*
X2991669Y84425898D01*
X2100000Y85317566D01*
X1146800Y84364367D01*
X725000Y84364367D01*
X725000Y84634022D01*
X964367Y84546800D01*
X1917566Y85500000D01*
X2282434Y85500000D01*
X3235633Y84546800D01*
X3499232Y84642852D01*
X3639568Y84932298D01*
X3720739Y85243561D01*
X3733807Y85465760D01*
X11316673Y85465760D01*
X12100000Y84682434D01*
X12883327Y85465760D01*
X12816069Y85705051D01*
X12567216Y85821595D01*
X12300407Y85887350D01*
X12025898Y85899790D01*
X11754236Y85858437D01*
X11495862Y85764880D01*
X11383931Y85705051D01*
X11316673Y85465760D01*
X3733807Y85465760D01*
X3739626Y85564680D01*
X3695502Y85883312D01*
X3590064Y86187214D01*
X3499232Y86357148D01*
X3235633Y86453200D01*
X2282434Y85500000D01*
X1917566Y85500000D01*
X964367Y86453200D01*
X725000Y86365978D01*
X725000Y86635633D01*
X1146800Y86635633D01*
X2100000Y85682434D01*
X3053200Y86635633D01*
X2957148Y86899232D01*
X2667702Y87039568D01*
X2356439Y87120739D01*
X2035320Y87139626D01*
X1716688Y87095502D01*
X1412786Y86990064D01*
X1242852Y86899232D01*
X1146800Y86635633D01*
X725000Y86635633D01*
X725000Y93150000D01*
X15993937Y93150000D01*
X16006159Y93025910D01*
X16042354Y92906589D01*
X16101133Y92796622D01*
X16180236Y92700236D01*
X16276622Y92621133D01*
X16386589Y92562354D01*
X16505910Y92526159D01*
X16630000Y92513937D01*
X17092750Y92517000D01*
X17251000Y92675250D01*
X17251000Y93771000D01*
X17509000Y93771000D01*
X17509000Y92675250D01*
X17667250Y92517000D01*
X18130000Y92513937D01*
X18254090Y92526159D01*
X18373411Y92562354D01*
X18483378Y92621133D01*
X18579764Y92700236D01*
X18658867Y92796622D01*
X18717646Y92906589D01*
X18753841Y93025910D01*
X18766063Y93150000D01*
X18763000Y93612750D01*
X18604750Y93771000D01*
X17509000Y93771000D01*
X17251000Y93771000D01*
X16155250Y93771000D01*
X15997000Y93612750D01*
X15993937Y93150000D01*
X725000Y93150000D01*
X725000Y94650000D01*
X15993937Y94650000D01*
X15997000Y94187250D01*
X16155250Y94029000D01*
X17251000Y94029000D01*
X17251000Y95124750D01*
X17509000Y95124750D01*
X17509000Y94029000D01*
X18604750Y94029000D01*
X18763000Y94187250D01*
X18766063Y94650000D01*
X18753841Y94774090D01*
X18717646Y94893411D01*
X18658867Y95003378D01*
X18579764Y95099764D01*
X18483378Y95178867D01*
X18373411Y95237646D01*
X18254090Y95273841D01*
X18130000Y95286063D01*
X17667250Y95283000D01*
X17509000Y95124750D01*
X17251000Y95124750D01*
X17092750Y95283000D01*
X16630000Y95286063D01*
X16505910Y95273841D01*
X16386589Y95237646D01*
X16276622Y95178867D01*
X16180236Y95099764D01*
X16101133Y95003378D01*
X16042354Y94893411D01*
X16006159Y94774090D01*
X15993937Y94650000D01*
X725000Y94650000D01*
X725000Y116275000D01*
X80275000Y116275000D01*
X80275001Y29475000D01*
G04 #@! TA.AperFunction,Conductor*
D18*
G36*
X80275001Y29475000D02*
G01*
X79917718Y29475000D01*
X79671643Y29450764D01*
X79355904Y29354985D01*
X79064918Y29199450D01*
X78809866Y28990134D01*
X78600550Y28735082D01*
X78445015Y28444096D01*
X78349236Y28128357D01*
X78316896Y27800000D01*
X78349236Y27471643D01*
X78445015Y27155904D01*
X78600550Y26864918D01*
X78809866Y26609866D01*
X79064918Y26400550D01*
X79355904Y26245015D01*
X79671643Y26149236D01*
X79917718Y26125000D01*
X80275001Y26125000D01*
X80275001Y12725000D01*
X62964393Y12725000D01*
X62951153Y12723696D01*
X62094576Y12692287D01*
X62071892Y12690143D01*
X62049135Y12689189D01*
X62026510Y12686571D01*
X60656792Y12506245D01*
X60626954Y12500553D01*
X60596977Y12495805D01*
X60574803Y12490604D01*
X59234889Y12154041D01*
X59205919Y12144962D01*
X59176670Y12136796D01*
X59155241Y12129081D01*
X57862890Y11640742D01*
X57835138Y11628386D01*
X57807039Y11616919D01*
X57786639Y11606792D01*
X56558982Y10973151D01*
X56532848Y10957695D01*
X56506239Y10943067D01*
X56487138Y10930663D01*
X55340446Y10160118D01*
X55316251Y10141753D01*
X55291511Y10124171D01*
X55273962Y10109654D01*
X54223432Y9212417D01*
X54201512Y9191397D01*
X54178953Y9171084D01*
X54163189Y9154646D01*
X53222747Y8142611D01*
X53203386Y8119207D01*
X53183313Y8096439D01*
X53169552Y8078309D01*
X53169543Y8078298D01*
X53169537Y8078289D01*
X52351655Y6964877D01*
X52335117Y6939411D01*
X52317789Y6914479D01*
X52306195Y6894875D01*
X51621701Y5694829D01*
X51608197Y5667624D01*
X51593853Y5640873D01*
X51584589Y5620067D01*
X51042560Y4349299D01*
X51032273Y4320726D01*
X51021098Y4292500D01*
X51014287Y4270766D01*
X50621909Y2946121D01*
X50614974Y2916552D01*
X50607117Y2887231D01*
X50602849Y2864859D01*
X50365323Y1503894D01*
X50361833Y1473729D01*
X50357398Y1443695D01*
X50355729Y1420980D01*
X50315599Y725000D01*
X20725000Y725000D01*
X20725000Y10101255D01*
X32305000Y10101255D01*
X32305000Y9938745D01*
X32336704Y9779356D01*
X32398894Y9629216D01*
X32489181Y9494093D01*
X32604093Y9379181D01*
X32739216Y9288894D01*
X32889356Y9226704D01*
X33048745Y9195000D01*
X33211255Y9195000D01*
X33370644Y9226704D01*
X33520784Y9288894D01*
X33655907Y9379181D01*
X33770819Y9494093D01*
X33861106Y9629216D01*
X33875917Y9664973D01*
X36325000Y9664973D01*
X36325000Y9335027D01*
X36389369Y9011420D01*
X36515634Y8706590D01*
X36698942Y8432249D01*
X36932249Y8198942D01*
X37206590Y8015634D01*
X37511420Y7889369D01*
X37835027Y7825000D01*
X38164973Y7825000D01*
X38488580Y7889369D01*
X38793410Y8015634D01*
X39067751Y8198942D01*
X39301058Y8432249D01*
X39484366Y8706590D01*
X39610631Y9011420D01*
X39675000Y9335027D01*
X39675000Y9664973D01*
X39610631Y9988580D01*
X39484366Y10293410D01*
X39301058Y10567751D01*
X39067751Y10801058D01*
X38793410Y10984366D01*
X38488580Y11110631D01*
X38234075Y11161255D01*
X45995000Y11161255D01*
X45995000Y10998745D01*
X46026704Y10839356D01*
X46088894Y10689216D01*
X46179181Y10554093D01*
X46294093Y10439181D01*
X46429216Y10348894D01*
X46579356Y10286704D01*
X46738745Y10255000D01*
X46901255Y10255000D01*
X47060644Y10286704D01*
X47210784Y10348894D01*
X47345907Y10439181D01*
X47460819Y10554093D01*
X47551106Y10689216D01*
X47613296Y10839356D01*
X47645000Y10998745D01*
X47645000Y11161255D01*
X47613296Y11320644D01*
X47551106Y11470784D01*
X47460819Y11605907D01*
X47345907Y11720819D01*
X47210784Y11811106D01*
X47060644Y11873296D01*
X46901255Y11905000D01*
X46738745Y11905000D01*
X46579356Y11873296D01*
X46429216Y11811106D01*
X46294093Y11720819D01*
X46179181Y11605907D01*
X46088894Y11470784D01*
X46026704Y11320644D01*
X45995000Y11161255D01*
X38234075Y11161255D01*
X38164973Y11175000D01*
X37835027Y11175000D01*
X37511420Y11110631D01*
X37206590Y10984366D01*
X36932249Y10801058D01*
X36698942Y10567751D01*
X36515634Y10293410D01*
X36389369Y9988580D01*
X36325000Y9664973D01*
X33875917Y9664973D01*
X33923296Y9779356D01*
X33955000Y9938745D01*
X33955000Y10101255D01*
X33923296Y10260644D01*
X33861106Y10410784D01*
X33770819Y10545907D01*
X33655907Y10660819D01*
X33520784Y10751106D01*
X33370644Y10813296D01*
X33211255Y10845000D01*
X33048745Y10845000D01*
X32889356Y10813296D01*
X32739216Y10751106D01*
X32604093Y10660819D01*
X32489181Y10545907D01*
X32398894Y10410784D01*
X32336704Y10260644D01*
X32305000Y10101255D01*
X20725000Y10101255D01*
X20725000Y11964393D01*
X20728507Y12000000D01*
X20714509Y12142125D01*
X20673053Y12278788D01*
X20605731Y12404737D01*
X20515132Y12515132D01*
X20404737Y12605731D01*
X20278788Y12673053D01*
X20142125Y12714509D01*
X20035607Y12725000D01*
X20000000Y12728507D01*
X19964393Y12725000D01*
X725000Y12725000D01*
X725000Y14164973D01*
X28325000Y14164973D01*
X28325000Y13835027D01*
X28389369Y13511420D01*
X28515634Y13206590D01*
X28698942Y12932249D01*
X28932249Y12698942D01*
X29206590Y12515634D01*
X29511420Y12389369D01*
X29835027Y12325000D01*
X30164973Y12325000D01*
X30488580Y12389369D01*
X30793410Y12515634D01*
X31067751Y12698942D01*
X31301058Y12932249D01*
X31484366Y13206590D01*
X31610631Y13511420D01*
X31675000Y13835027D01*
X31675000Y14081255D01*
X38735000Y14081255D01*
X38735000Y13918745D01*
X38766704Y13759356D01*
X38828894Y13609216D01*
X38919181Y13474093D01*
X39034093Y13359181D01*
X39169216Y13268894D01*
X39319356Y13206704D01*
X39478745Y13175000D01*
X39641255Y13175000D01*
X39800644Y13206704D01*
X39950784Y13268894D01*
X40085907Y13359181D01*
X40200819Y13474093D01*
X40291106Y13609216D01*
X40353296Y13759356D01*
X40385000Y13918745D01*
X40385000Y14081255D01*
X40353296Y14240644D01*
X40291106Y14390784D01*
X40200819Y14525907D01*
X40085907Y14640819D01*
X39950784Y14731106D01*
X39800644Y14793296D01*
X39641255Y14825000D01*
X39478745Y14825000D01*
X39319356Y14793296D01*
X39169216Y14731106D01*
X39034093Y14640819D01*
X38919181Y14525907D01*
X38828894Y14390784D01*
X38766704Y14240644D01*
X38735000Y14081255D01*
X31675000Y14081255D01*
X31675000Y14164973D01*
X31610631Y14488580D01*
X31484366Y14793410D01*
X31301058Y15067751D01*
X31067751Y15301058D01*
X30798066Y15481255D01*
X47715000Y15481255D01*
X47715000Y15318745D01*
X47746704Y15159356D01*
X47808894Y15009216D01*
X47899181Y14874093D01*
X48014093Y14759181D01*
X48149216Y14668894D01*
X48299356Y14606704D01*
X48458745Y14575000D01*
X48621255Y14575000D01*
X48780644Y14606704D01*
X48930784Y14668894D01*
X49065907Y14759181D01*
X49180819Y14874093D01*
X49271106Y15009216D01*
X49333296Y15159356D01*
X49365000Y15318745D01*
X49365000Y15481255D01*
X49333296Y15640644D01*
X49271106Y15790784D01*
X49180819Y15925907D01*
X49065907Y16040819D01*
X48930784Y16131106D01*
X48780644Y16193296D01*
X48621255Y16225000D01*
X48458745Y16225000D01*
X48299356Y16193296D01*
X48149216Y16131106D01*
X48014093Y16040819D01*
X47899181Y15925907D01*
X47808894Y15790784D01*
X47746704Y15640644D01*
X47715000Y15481255D01*
X30798066Y15481255D01*
X30793410Y15484366D01*
X30488580Y15610631D01*
X30164973Y15675000D01*
X29835027Y15675000D01*
X29511420Y15610631D01*
X29206590Y15484366D01*
X28932249Y15301058D01*
X28698942Y15067751D01*
X28515634Y14793410D01*
X28389369Y14488580D01*
X28325000Y14164973D01*
X725000Y14164973D01*
X725000Y16664973D01*
X23325000Y16664973D01*
X23325000Y16335027D01*
X23389369Y16011420D01*
X23515634Y15706590D01*
X23698942Y15432249D01*
X23932249Y15198942D01*
X24206590Y15015634D01*
X24511420Y14889369D01*
X24835027Y14825000D01*
X25164973Y14825000D01*
X25488580Y14889369D01*
X25793410Y15015634D01*
X26067751Y15198942D01*
X26301058Y15432249D01*
X26484366Y15706590D01*
X26610631Y16011420D01*
X26665663Y16288087D01*
X64775000Y16288087D01*
X64775000Y15711913D01*
X64887406Y15146809D01*
X65107898Y14614493D01*
X65428004Y14135421D01*
X65835421Y13728004D01*
X66314493Y13407898D01*
X66846809Y13187406D01*
X67411913Y13075000D01*
X67988087Y13075000D01*
X68553191Y13187406D01*
X69085507Y13407898D01*
X69564579Y13728004D01*
X69971996Y14135421D01*
X70292102Y14614493D01*
X70512594Y15146809D01*
X70521185Y15190000D01*
X73652944Y15190000D01*
X73652944Y13490000D01*
X73661150Y13406686D01*
X73685452Y13326573D01*
X73724916Y13252740D01*
X73778026Y13188026D01*
X73842740Y13134916D01*
X73916573Y13095452D01*
X73996686Y13071150D01*
X74080000Y13062944D01*
X75780000Y13062944D01*
X75863314Y13071150D01*
X75943427Y13095452D01*
X76017260Y13134916D01*
X76081974Y13188026D01*
X76135084Y13252740D01*
X76174548Y13326573D01*
X76198850Y13406686D01*
X76207056Y13490000D01*
X76207056Y13576320D01*
X76277725Y13458078D01*
X76472689Y13242423D01*
X76705979Y13068947D01*
X76968630Y12944317D01*
X77111475Y12900990D01*
X77341000Y13021546D01*
X77341000Y14211000D01*
X77599000Y14211000D01*
X77599000Y13021546D01*
X77828525Y12900990D01*
X77971370Y12944317D01*
X78234021Y13068947D01*
X78467311Y13242423D01*
X78662275Y13458078D01*
X78811420Y13707625D01*
X78909015Y13981474D01*
X78789134Y14211000D01*
X77599000Y14211000D01*
X77341000Y14211000D01*
X77321000Y14211000D01*
X77321000Y14469000D01*
X77341000Y14469000D01*
X77341000Y15658454D01*
X77599000Y15658454D01*
X77599000Y14469000D01*
X78789134Y14469000D01*
X78909015Y14698526D01*
X78811420Y14972375D01*
X78662275Y15221922D01*
X78467311Y15437577D01*
X78234021Y15611053D01*
X77971370Y15735683D01*
X77828525Y15779010D01*
X77599000Y15658454D01*
X77341000Y15658454D01*
X77111475Y15779010D01*
X76968630Y15735683D01*
X76705979Y15611053D01*
X76472689Y15437577D01*
X76277725Y15221922D01*
X76207056Y15103680D01*
X76207056Y15190000D01*
X76198850Y15273314D01*
X76174548Y15353427D01*
X76135084Y15427260D01*
X76081974Y15491974D01*
X76017260Y15545084D01*
X75943427Y15584548D01*
X75863314Y15608850D01*
X75780000Y15617056D01*
X74080000Y15617056D01*
X73996686Y15608850D01*
X73916573Y15584548D01*
X73842740Y15545084D01*
X73778026Y15491974D01*
X73724916Y15427260D01*
X73685452Y15353427D01*
X73661150Y15273314D01*
X73652944Y15190000D01*
X70521185Y15190000D01*
X70625000Y15711913D01*
X70625000Y16288087D01*
X70512594Y16853191D01*
X70292102Y17385507D01*
X69971996Y17864579D01*
X69564579Y18271996D01*
X69085507Y18592102D01*
X68553191Y18812594D01*
X67988087Y18925000D01*
X67411913Y18925000D01*
X66846809Y18812594D01*
X66314493Y18592102D01*
X65835421Y18271996D01*
X65428004Y17864579D01*
X65107898Y17385507D01*
X64887406Y16853191D01*
X64775000Y16288087D01*
X26665663Y16288087D01*
X26675000Y16335027D01*
X26675000Y16664973D01*
X26610631Y16988580D01*
X26484366Y17293410D01*
X26301058Y17567751D01*
X26067751Y17801058D01*
X25793410Y17984366D01*
X25488580Y18110631D01*
X25164973Y18175000D01*
X24835027Y18175000D01*
X24511420Y18110631D01*
X24206590Y17984366D01*
X23932249Y17801058D01*
X23698942Y17567751D01*
X23515634Y17293410D01*
X23389369Y16988580D01*
X23325000Y16664973D01*
X725000Y16664973D01*
X725000Y19664973D01*
X76825000Y19664973D01*
X76825000Y19335027D01*
X76889369Y19011420D01*
X77015634Y18706590D01*
X77198942Y18432249D01*
X77432249Y18198942D01*
X77706590Y18015634D01*
X78011420Y17889369D01*
X78335027Y17825000D01*
X78664973Y17825000D01*
X78988580Y17889369D01*
X79293410Y18015634D01*
X79567751Y18198942D01*
X79801058Y18432249D01*
X79984366Y18706590D01*
X80110631Y19011420D01*
X80175000Y19335027D01*
X80175000Y19664973D01*
X80110631Y19988580D01*
X79984366Y20293410D01*
X79801058Y20567751D01*
X79567751Y20801058D01*
X79293410Y20984366D01*
X78988580Y21110631D01*
X78664973Y21175000D01*
X78335027Y21175000D01*
X78011420Y21110631D01*
X77706590Y20984366D01*
X77432249Y20801058D01*
X77198942Y20567751D01*
X77015634Y20293410D01*
X76889369Y19988580D01*
X76825000Y19664973D01*
X725000Y19664973D01*
X725000Y20871255D01*
X18945000Y20871255D01*
X18945000Y20708745D01*
X18976704Y20549356D01*
X19038894Y20399216D01*
X19129181Y20264093D01*
X19244093Y20149181D01*
X19379216Y20058894D01*
X19529356Y19996704D01*
X19688745Y19965000D01*
X19851255Y19965000D01*
X20010644Y19996704D01*
X20160784Y20058894D01*
X20295907Y20149181D01*
X20410819Y20264093D01*
X20501106Y20399216D01*
X20563296Y20549356D01*
X20595000Y20708745D01*
X20595000Y20871255D01*
X20589033Y20901255D01*
X24865000Y20901255D01*
X24865000Y20738745D01*
X24896704Y20579356D01*
X24958894Y20429216D01*
X25049181Y20294093D01*
X25164093Y20179181D01*
X25299216Y20088894D01*
X25449356Y20026704D01*
X25608745Y19995000D01*
X25771255Y19995000D01*
X25930644Y20026704D01*
X26080784Y20088894D01*
X26215907Y20179181D01*
X26330819Y20294093D01*
X26421106Y20429216D01*
X26483296Y20579356D01*
X26515000Y20738745D01*
X26515000Y20901255D01*
X26483296Y21060644D01*
X26421106Y21210784D01*
X26330819Y21345907D01*
X26215907Y21460819D01*
X26080784Y21551106D01*
X25930644Y21613296D01*
X25771255Y21645000D01*
X25608745Y21645000D01*
X25449356Y21613296D01*
X25299216Y21551106D01*
X25164093Y21460819D01*
X25049181Y21345907D01*
X24958894Y21210784D01*
X24896704Y21060644D01*
X24865000Y20901255D01*
X20589033Y20901255D01*
X20563296Y21030644D01*
X20501106Y21180784D01*
X20410819Y21315907D01*
X20295907Y21430819D01*
X20160784Y21521106D01*
X20010644Y21583296D01*
X19851255Y21615000D01*
X19688745Y21615000D01*
X19529356Y21583296D01*
X19379216Y21521106D01*
X19244093Y21430819D01*
X19129181Y21315907D01*
X19038894Y21180784D01*
X18976704Y21030644D01*
X18945000Y20871255D01*
X725000Y20871255D01*
X725000Y22981255D01*
X41555000Y22981255D01*
X41555000Y22818745D01*
X41586704Y22659356D01*
X41648894Y22509216D01*
X41739181Y22374093D01*
X41854093Y22259181D01*
X41989216Y22168894D01*
X42139356Y22106704D01*
X42298745Y22075000D01*
X42461255Y22075000D01*
X42620644Y22106704D01*
X42770784Y22168894D01*
X42905907Y22259181D01*
X43020819Y22374093D01*
X43111106Y22509216D01*
X43173296Y22659356D01*
X43205000Y22818745D01*
X43205000Y22981255D01*
X43173296Y23140644D01*
X43111106Y23290784D01*
X43020819Y23425907D01*
X42943352Y23503374D01*
X43060644Y23526704D01*
X43210784Y23588894D01*
X43345907Y23679181D01*
X43460819Y23794093D01*
X43551106Y23929216D01*
X43613296Y24079356D01*
X43645000Y24238745D01*
X43645000Y24401255D01*
X43613296Y24560644D01*
X43551106Y24710784D01*
X43460819Y24845907D01*
X43345907Y24960819D01*
X43210784Y25051106D01*
X43060644Y25113296D01*
X42901255Y25145000D01*
X42738745Y25145000D01*
X42579356Y25113296D01*
X42429216Y25051106D01*
X42294093Y24960819D01*
X42179181Y24845907D01*
X42088894Y24710784D01*
X42026704Y24560644D01*
X41995000Y24401255D01*
X41995000Y24238745D01*
X42026704Y24079356D01*
X42088894Y23929216D01*
X42179181Y23794093D01*
X42256648Y23716626D01*
X42139356Y23693296D01*
X41989216Y23631106D01*
X41854093Y23540819D01*
X41739181Y23425907D01*
X41648894Y23290784D01*
X41586704Y23140644D01*
X41555000Y22981255D01*
X725000Y22981255D01*
X725000Y24401255D01*
X39185000Y24401255D01*
X39185000Y24238745D01*
X39216704Y24079356D01*
X39278894Y23929216D01*
X39369181Y23794093D01*
X39484093Y23679181D01*
X39619216Y23588894D01*
X39769356Y23526704D01*
X39928745Y23495000D01*
X40091255Y23495000D01*
X40250644Y23526704D01*
X40400784Y23588894D01*
X40535907Y23679181D01*
X40650819Y23794093D01*
X40741106Y23929216D01*
X40803296Y24079356D01*
X40835000Y24238745D01*
X40835000Y24401255D01*
X40803296Y24560644D01*
X40741106Y24710784D01*
X40650819Y24845907D01*
X40535907Y24960819D01*
X40400784Y25051106D01*
X40250644Y25113296D01*
X40091255Y25145000D01*
X39928745Y25145000D01*
X39769356Y25113296D01*
X39619216Y25051106D01*
X39484093Y24960819D01*
X39369181Y24845907D01*
X39278894Y24710784D01*
X39216704Y24560644D01*
X39185000Y24401255D01*
X725000Y24401255D01*
X725000Y26001255D01*
X44725000Y26001255D01*
X44725000Y25838745D01*
X44756704Y25679356D01*
X44818894Y25529216D01*
X44909181Y25394093D01*
X45024093Y25279181D01*
X45159216Y25188894D01*
X45309356Y25126704D01*
X45468745Y25095000D01*
X45631255Y25095000D01*
X45790644Y25126704D01*
X45940784Y25188894D01*
X46075907Y25279181D01*
X46190819Y25394093D01*
X46281106Y25529216D01*
X46343296Y25679356D01*
X46375000Y25838745D01*
X46375000Y26001255D01*
X46343296Y26160644D01*
X46281106Y26310784D01*
X46190819Y26445907D01*
X46075907Y26560819D01*
X45940784Y26651106D01*
X45790644Y26713296D01*
X45631255Y26745000D01*
X45468745Y26745000D01*
X45309356Y26713296D01*
X45159216Y26651106D01*
X45024093Y26560819D01*
X44909181Y26445907D01*
X44818894Y26310784D01*
X44756704Y26160644D01*
X44725000Y26001255D01*
X725000Y26001255D01*
X725000Y27601255D01*
X9945000Y27601255D01*
X9945000Y27438745D01*
X9976704Y27279356D01*
X10038894Y27129216D01*
X10129181Y26994093D01*
X10244093Y26879181D01*
X10379216Y26788894D01*
X10529356Y26726704D01*
X10688745Y26695000D01*
X10851255Y26695000D01*
X11010644Y26726704D01*
X11160784Y26788894D01*
X11295907Y26879181D01*
X11410819Y26994093D01*
X11501106Y27129216D01*
X11563296Y27279356D01*
X11595000Y27438745D01*
X11595000Y27601255D01*
X26835000Y27601255D01*
X26835000Y27438745D01*
X26866704Y27279356D01*
X26928894Y27129216D01*
X27019181Y26994093D01*
X27134093Y26879181D01*
X27269216Y26788894D01*
X27419356Y26726704D01*
X27578745Y26695000D01*
X27741255Y26695000D01*
X27900644Y26726704D01*
X28050784Y26788894D01*
X28185907Y26879181D01*
X28300819Y26994093D01*
X28391106Y27129216D01*
X28453296Y27279356D01*
X28485000Y27438745D01*
X28485000Y27601255D01*
X28453296Y27760644D01*
X28391106Y27910784D01*
X28300819Y28045907D01*
X28185907Y28160819D01*
X28050784Y28251106D01*
X27900644Y28313296D01*
X27741255Y28345000D01*
X27578745Y28345000D01*
X27419356Y28313296D01*
X27269216Y28251106D01*
X27134093Y28160819D01*
X27019181Y28045907D01*
X26928894Y27910784D01*
X26866704Y27760644D01*
X26835000Y27601255D01*
X11595000Y27601255D01*
X11563296Y27760644D01*
X11501106Y27910784D01*
X11410819Y28045907D01*
X11295907Y28160819D01*
X11160784Y28251106D01*
X11010644Y28313296D01*
X10851255Y28345000D01*
X10688745Y28345000D01*
X10529356Y28313296D01*
X10379216Y28251106D01*
X10244093Y28160819D01*
X10129181Y28045907D01*
X10038894Y27910784D01*
X9976704Y27760644D01*
X9945000Y27601255D01*
X725000Y27601255D01*
X725000Y29191255D01*
X32635000Y29191255D01*
X32635000Y29028745D01*
X32666704Y28869356D01*
X32728894Y28719216D01*
X32819181Y28584093D01*
X32934093Y28469181D01*
X33069216Y28378894D01*
X33219356Y28316704D01*
X33378745Y28285000D01*
X33541255Y28285000D01*
X33700644Y28316704D01*
X33850784Y28378894D01*
X33985907Y28469181D01*
X34100819Y28584093D01*
X34154861Y28664973D01*
X49825000Y28664973D01*
X49825000Y28335027D01*
X49889369Y28011420D01*
X50015634Y27706590D01*
X50198942Y27432249D01*
X50432249Y27198942D01*
X50706590Y27015634D01*
X51011420Y26889369D01*
X51335027Y26825000D01*
X51664973Y26825000D01*
X51988580Y26889369D01*
X52293410Y27015634D01*
X52567751Y27198942D01*
X52801058Y27432249D01*
X52984366Y27706590D01*
X53110631Y28011420D01*
X53175000Y28335027D01*
X53175000Y28664973D01*
X53110631Y28988580D01*
X52984366Y29293410D01*
X52801058Y29567751D01*
X52567751Y29801058D01*
X52293410Y29984366D01*
X51988580Y30110631D01*
X51683801Y30171255D01*
X54645000Y30171255D01*
X54645000Y30008745D01*
X54676704Y29849356D01*
X54738894Y29699216D01*
X54829181Y29564093D01*
X54944093Y29449181D01*
X55079216Y29358894D01*
X55229356Y29296704D01*
X55388745Y29265000D01*
X55551255Y29265000D01*
X55710644Y29296704D01*
X55860784Y29358894D01*
X55995907Y29449181D01*
X56110819Y29564093D01*
X56201106Y29699216D01*
X56263296Y29849356D01*
X56295000Y30008745D01*
X56295000Y30171255D01*
X56263296Y30330644D01*
X56201106Y30480784D01*
X56110819Y30615907D01*
X55995907Y30730819D01*
X55860784Y30821106D01*
X55710644Y30883296D01*
X55551255Y30915000D01*
X55388745Y30915000D01*
X55229356Y30883296D01*
X55079216Y30821106D01*
X54944093Y30730819D01*
X54829181Y30615907D01*
X54738894Y30480784D01*
X54676704Y30330644D01*
X54645000Y30171255D01*
X51683801Y30171255D01*
X51664973Y30175000D01*
X51335027Y30175000D01*
X51011420Y30110631D01*
X50706590Y29984366D01*
X50432249Y29801058D01*
X50198942Y29567751D01*
X50015634Y29293410D01*
X49889369Y28988580D01*
X49825000Y28664973D01*
X34154861Y28664973D01*
X34191106Y28719216D01*
X34253296Y28869356D01*
X34285000Y29028745D01*
X34285000Y29191255D01*
X34253296Y29350644D01*
X34191106Y29500784D01*
X34100819Y29635907D01*
X33985907Y29750819D01*
X33850784Y29841106D01*
X33700644Y29903296D01*
X33541255Y29935000D01*
X33378745Y29935000D01*
X33219356Y29903296D01*
X33069216Y29841106D01*
X32934093Y29750819D01*
X32819181Y29635907D01*
X32728894Y29500784D01*
X32666704Y29350644D01*
X32635000Y29191255D01*
X725000Y29191255D01*
X725000Y30351255D01*
X13475000Y30351255D01*
X13475000Y30188745D01*
X13506704Y30029356D01*
X13568894Y29879216D01*
X13659181Y29744093D01*
X13774093Y29629181D01*
X13909216Y29538894D01*
X14059356Y29476704D01*
X14218745Y29445000D01*
X14381255Y29445000D01*
X14540644Y29476704D01*
X14690784Y29538894D01*
X14825907Y29629181D01*
X14940819Y29744093D01*
X15031106Y29879216D01*
X15093296Y30029356D01*
X15125000Y30188745D01*
X15125000Y30351255D01*
X15093296Y30510644D01*
X15031106Y30660784D01*
X15004064Y30701255D01*
X31045000Y30701255D01*
X31045000Y30538745D01*
X31076704Y30379356D01*
X31138894Y30229216D01*
X31229181Y30094093D01*
X31344093Y29979181D01*
X31479216Y29888894D01*
X31629356Y29826704D01*
X31788745Y29795000D01*
X31951255Y29795000D01*
X32110644Y29826704D01*
X32260784Y29888894D01*
X32395907Y29979181D01*
X32510819Y30094093D01*
X32601106Y30229216D01*
X32663296Y30379356D01*
X32695000Y30538745D01*
X32695000Y30701255D01*
X32663296Y30860644D01*
X32601106Y31010784D01*
X32587428Y31031255D01*
X60735000Y31031255D01*
X60735000Y30868745D01*
X60766704Y30709356D01*
X60828894Y30559216D01*
X60919181Y30424093D01*
X61034093Y30309181D01*
X61169216Y30218894D01*
X61319356Y30156704D01*
X61478745Y30125000D01*
X61641255Y30125000D01*
X61800644Y30156704D01*
X61950784Y30218894D01*
X62085907Y30309181D01*
X62200819Y30424093D01*
X62291106Y30559216D01*
X62353296Y30709356D01*
X62385000Y30868745D01*
X62385000Y31031255D01*
X62353296Y31190644D01*
X62291106Y31340784D01*
X62200819Y31475907D01*
X62085907Y31590819D01*
X61950784Y31681106D01*
X61800644Y31743296D01*
X61641255Y31775000D01*
X61478745Y31775000D01*
X61319356Y31743296D01*
X61169216Y31681106D01*
X61034093Y31590819D01*
X60919181Y31475907D01*
X60828894Y31340784D01*
X60766704Y31190644D01*
X60735000Y31031255D01*
X32587428Y31031255D01*
X32510819Y31145907D01*
X32395907Y31260819D01*
X32260784Y31351106D01*
X32110644Y31413296D01*
X31951255Y31445000D01*
X31788745Y31445000D01*
X31629356Y31413296D01*
X31479216Y31351106D01*
X31344093Y31260819D01*
X31229181Y31145907D01*
X31138894Y31010784D01*
X31076704Y30860644D01*
X31045000Y30701255D01*
X15004064Y30701255D01*
X14940819Y30795907D01*
X14825907Y30910819D01*
X14690784Y31001106D01*
X14540644Y31063296D01*
X14381255Y31095000D01*
X14218745Y31095000D01*
X14059356Y31063296D01*
X13909216Y31001106D01*
X13774093Y30910819D01*
X13659181Y30795907D01*
X13568894Y30660784D01*
X13506704Y30510644D01*
X13475000Y30351255D01*
X725000Y30351255D01*
X725000Y31721255D01*
X29205000Y31721255D01*
X29205000Y31558745D01*
X29236704Y31399356D01*
X29298894Y31249216D01*
X29389181Y31114093D01*
X29504093Y30999181D01*
X29639216Y30908894D01*
X29789356Y30846704D01*
X29948745Y30815000D01*
X30111255Y30815000D01*
X30270644Y30846704D01*
X30420784Y30908894D01*
X30555907Y30999181D01*
X30670819Y31114093D01*
X30761106Y31249216D01*
X30823296Y31399356D01*
X30855000Y31558745D01*
X30855000Y31721255D01*
X30823296Y31880644D01*
X30761106Y32030784D01*
X30670819Y32165907D01*
X30555907Y32280819D01*
X30420784Y32371106D01*
X30270644Y32433296D01*
X30111255Y32465000D01*
X29948745Y32465000D01*
X29789356Y32433296D01*
X29639216Y32371106D01*
X29504093Y32280819D01*
X29389181Y32165907D01*
X29298894Y32030784D01*
X29236704Y31880644D01*
X29205000Y31721255D01*
X725000Y31721255D01*
X725000Y32681255D01*
X51625000Y32681255D01*
X51625000Y32518745D01*
X51656704Y32359356D01*
X51718894Y32209216D01*
X51809181Y32074093D01*
X51924093Y31959181D01*
X52059216Y31868894D01*
X52209356Y31806704D01*
X52368745Y31775000D01*
X52531255Y31775000D01*
X52690644Y31806704D01*
X52840784Y31868894D01*
X52844317Y31871255D01*
X66775000Y31871255D01*
X66775000Y31708745D01*
X66806704Y31549356D01*
X66868894Y31399216D01*
X66959181Y31264093D01*
X67074093Y31149181D01*
X67209216Y31058894D01*
X67266901Y31035000D01*
X67209216Y31011106D01*
X67074093Y30920819D01*
X66959181Y30805907D01*
X66868894Y30670784D01*
X66806704Y30520644D01*
X66775000Y30361255D01*
X66775000Y30198745D01*
X66806704Y30039356D01*
X66868894Y29889216D01*
X66959181Y29754093D01*
X67074093Y29639181D01*
X67209216Y29548894D01*
X67359356Y29486704D01*
X67518745Y29455000D01*
X67681255Y29455000D01*
X67840644Y29486704D01*
X67990784Y29548894D01*
X68125907Y29639181D01*
X68240819Y29754093D01*
X68331106Y29889216D01*
X68393296Y30039356D01*
X68425000Y30198745D01*
X68425000Y30361255D01*
X68393296Y30520644D01*
X68331106Y30670784D01*
X68240819Y30805907D01*
X68125907Y30920819D01*
X67990784Y31011106D01*
X67933099Y31035000D01*
X67990784Y31058894D01*
X68125907Y31149181D01*
X68240819Y31264093D01*
X68331106Y31399216D01*
X68393296Y31549356D01*
X68425000Y31708745D01*
X68425000Y31871255D01*
X68393296Y32030644D01*
X68331106Y32180784D01*
X68240819Y32315907D01*
X68125907Y32430819D01*
X67990784Y32521106D01*
X67840644Y32583296D01*
X67681255Y32615000D01*
X67518745Y32615000D01*
X67359356Y32583296D01*
X67209216Y32521106D01*
X67074093Y32430819D01*
X66959181Y32315907D01*
X66868894Y32180784D01*
X66806704Y32030644D01*
X66775000Y31871255D01*
X52844317Y31871255D01*
X52975907Y31959181D01*
X53090819Y32074093D01*
X53181106Y32209216D01*
X53243296Y32359356D01*
X53275000Y32518745D01*
X53275000Y32681255D01*
X53243296Y32840644D01*
X53181106Y32990784D01*
X53090819Y33125907D01*
X52975907Y33240819D01*
X52840784Y33331106D01*
X52690644Y33393296D01*
X52531255Y33425000D01*
X52368745Y33425000D01*
X52209356Y33393296D01*
X52059216Y33331106D01*
X51924093Y33240819D01*
X51809181Y33125907D01*
X51718894Y32990784D01*
X51656704Y32840644D01*
X51625000Y32681255D01*
X725000Y32681255D01*
X725000Y33891255D01*
X53275000Y33891255D01*
X53275000Y33728745D01*
X53306704Y33569356D01*
X53368894Y33419216D01*
X53459181Y33284093D01*
X53574093Y33169181D01*
X53709216Y33078894D01*
X53859356Y33016704D01*
X54018745Y32985000D01*
X54181255Y32985000D01*
X54340644Y33016704D01*
X54490784Y33078894D01*
X54625907Y33169181D01*
X54740819Y33284093D01*
X54831106Y33419216D01*
X54893296Y33569356D01*
X54925000Y33728745D01*
X54925000Y33891255D01*
X54893296Y34050644D01*
X54831106Y34200784D01*
X54740819Y34335907D01*
X54625907Y34450819D01*
X54490784Y34541106D01*
X54340644Y34603296D01*
X54181255Y34635000D01*
X54018745Y34635000D01*
X53859356Y34603296D01*
X53709216Y34541106D01*
X53574093Y34450819D01*
X53459181Y34335907D01*
X53368894Y34200784D01*
X53306704Y34050644D01*
X53275000Y33891255D01*
X725000Y33891255D01*
X725000Y38164973D01*
X2325000Y38164973D01*
X2325000Y37835027D01*
X2389369Y37511420D01*
X2515634Y37206590D01*
X2698942Y36932249D01*
X2932249Y36698942D01*
X3206590Y36515634D01*
X3511420Y36389369D01*
X3835027Y36325000D01*
X4164973Y36325000D01*
X4488580Y36389369D01*
X4793410Y36515634D01*
X5067751Y36698942D01*
X5301058Y36932249D01*
X5484366Y37206590D01*
X5581567Y37441255D01*
X18025000Y37441255D01*
X18025000Y37278745D01*
X18056704Y37119356D01*
X18118894Y36969216D01*
X18209181Y36834093D01*
X18324093Y36719181D01*
X18459216Y36628894D01*
X18609356Y36566704D01*
X18768745Y36535000D01*
X18931255Y36535000D01*
X19090644Y36566704D01*
X19240784Y36628894D01*
X19294779Y36664973D01*
X28825000Y36664973D01*
X28825000Y36335027D01*
X28889369Y36011420D01*
X29015634Y35706590D01*
X29198942Y35432249D01*
X29432249Y35198942D01*
X29706590Y35015634D01*
X30011420Y34889369D01*
X30335027Y34825000D01*
X30664973Y34825000D01*
X30988580Y34889369D01*
X31186269Y34971255D01*
X49325000Y34971255D01*
X49325000Y34808745D01*
X49356704Y34649356D01*
X49418894Y34499216D01*
X49509181Y34364093D01*
X49624093Y34249181D01*
X49759216Y34158894D01*
X49909356Y34096704D01*
X50068745Y34065000D01*
X50231255Y34065000D01*
X50390644Y34096704D01*
X50540784Y34158894D01*
X50675907Y34249181D01*
X50790819Y34364093D01*
X50881106Y34499216D01*
X50943296Y34649356D01*
X50975000Y34808745D01*
X50975000Y34971255D01*
X50943296Y35130644D01*
X50881106Y35280784D01*
X50790819Y35415907D01*
X50675907Y35530819D01*
X50540784Y35621106D01*
X50390644Y35683296D01*
X50231255Y35715000D01*
X50068745Y35715000D01*
X49909356Y35683296D01*
X49759216Y35621106D01*
X49624093Y35530819D01*
X49509181Y35415907D01*
X49418894Y35280784D01*
X49356704Y35130644D01*
X49325000Y34971255D01*
X31186269Y34971255D01*
X31293410Y35015634D01*
X31567751Y35198942D01*
X31801058Y35432249D01*
X31984366Y35706590D01*
X32110631Y36011420D01*
X32175000Y36335027D01*
X32175000Y36664973D01*
X32110631Y36988580D01*
X31984366Y37293410D01*
X31805399Y37561255D01*
X45015000Y37561255D01*
X45015000Y37398745D01*
X45046704Y37239356D01*
X45108894Y37089216D01*
X45199181Y36954093D01*
X45314093Y36839181D01*
X45449216Y36748894D01*
X45599356Y36686704D01*
X45758745Y36655000D01*
X45921255Y36655000D01*
X46080644Y36686704D01*
X46230784Y36748894D01*
X46365907Y36839181D01*
X46480819Y36954093D01*
X46571106Y37089216D01*
X46633296Y37239356D01*
X46657542Y37361255D01*
X49975000Y37361255D01*
X49975000Y37198745D01*
X50006704Y37039356D01*
X50068894Y36889216D01*
X50159181Y36754093D01*
X50274093Y36639181D01*
X50409216Y36548894D01*
X50559356Y36486704D01*
X50718745Y36455000D01*
X50881255Y36455000D01*
X51040644Y36486704D01*
X51190784Y36548894D01*
X51325907Y36639181D01*
X51351699Y36664973D01*
X54825000Y36664973D01*
X54825000Y36335027D01*
X54889369Y36011420D01*
X55015634Y35706590D01*
X55198942Y35432249D01*
X55432249Y35198942D01*
X55706590Y35015634D01*
X56011420Y34889369D01*
X56335027Y34825000D01*
X56664973Y34825000D01*
X56988580Y34889369D01*
X57293410Y35015634D01*
X57567751Y35198942D01*
X57801058Y35432249D01*
X57984366Y35706590D01*
X58110631Y36011420D01*
X58175000Y36335027D01*
X58175000Y36664973D01*
X58139936Y36841255D01*
X70495000Y36841255D01*
X70495000Y36678745D01*
X70526704Y36519356D01*
X70588894Y36369216D01*
X70679181Y36234093D01*
X70794093Y36119181D01*
X70929216Y36028894D01*
X71079356Y35966704D01*
X71238745Y35935000D01*
X71401255Y35935000D01*
X71560644Y35966704D01*
X71710784Y36028894D01*
X71845907Y36119181D01*
X71960819Y36234093D01*
X72051106Y36369216D01*
X72113296Y36519356D01*
X72145000Y36678745D01*
X72145000Y36841255D01*
X72113296Y37000644D01*
X72051106Y37150784D01*
X71960819Y37285907D01*
X71845907Y37400819D01*
X71710784Y37491106D01*
X71560644Y37553296D01*
X71401255Y37585000D01*
X71238745Y37585000D01*
X71079356Y37553296D01*
X70929216Y37491106D01*
X70794093Y37400819D01*
X70679181Y37285907D01*
X70588894Y37150784D01*
X70526704Y37000644D01*
X70495000Y36841255D01*
X58139936Y36841255D01*
X58110631Y36988580D01*
X57984366Y37293410D01*
X57801058Y37567751D01*
X57567751Y37801058D01*
X57293410Y37984366D01*
X56988580Y38110631D01*
X56664973Y38175000D01*
X56335027Y38175000D01*
X56011420Y38110631D01*
X55706590Y37984366D01*
X55432249Y37801058D01*
X55198942Y37567751D01*
X55015634Y37293410D01*
X54889369Y36988580D01*
X54825000Y36664973D01*
X51351699Y36664973D01*
X51440819Y36754093D01*
X51531106Y36889216D01*
X51593296Y37039356D01*
X51625000Y37198745D01*
X51625000Y37361255D01*
X51593296Y37520644D01*
X51531106Y37670784D01*
X51440819Y37805907D01*
X51325907Y37920819D01*
X51190784Y38011106D01*
X51040644Y38073296D01*
X50881255Y38105000D01*
X50718745Y38105000D01*
X50559356Y38073296D01*
X50409216Y38011106D01*
X50274093Y37920819D01*
X50159181Y37805907D01*
X50068894Y37670784D01*
X50006704Y37520644D01*
X49975000Y37361255D01*
X46657542Y37361255D01*
X46665000Y37398745D01*
X46665000Y37561255D01*
X46633296Y37720644D01*
X46571106Y37870784D01*
X46480819Y38005907D01*
X46365907Y38120819D01*
X46230784Y38211106D01*
X46080644Y38273296D01*
X45921255Y38305000D01*
X45758745Y38305000D01*
X45599356Y38273296D01*
X45449216Y38211106D01*
X45314093Y38120819D01*
X45199181Y38005907D01*
X45108894Y37870784D01*
X45046704Y37720644D01*
X45015000Y37561255D01*
X31805399Y37561255D01*
X31801058Y37567751D01*
X31567751Y37801058D01*
X31293410Y37984366D01*
X30988580Y38110631D01*
X30664973Y38175000D01*
X30335027Y38175000D01*
X30011420Y38110631D01*
X29706590Y37984366D01*
X29432249Y37801058D01*
X29198942Y37567751D01*
X29015634Y37293410D01*
X28889369Y36988580D01*
X28825000Y36664973D01*
X19294779Y36664973D01*
X19375907Y36719181D01*
X19490819Y36834093D01*
X19581106Y36969216D01*
X19643296Y37119356D01*
X19675000Y37278745D01*
X19675000Y37441255D01*
X19643296Y37600644D01*
X19581106Y37750784D01*
X19490819Y37885907D01*
X19375907Y38000819D01*
X19240784Y38091106D01*
X19090644Y38153296D01*
X18931255Y38185000D01*
X18768745Y38185000D01*
X18609356Y38153296D01*
X18459216Y38091106D01*
X18324093Y38000819D01*
X18209181Y37885907D01*
X18118894Y37750784D01*
X18056704Y37600644D01*
X18025000Y37441255D01*
X5581567Y37441255D01*
X5610631Y37511420D01*
X5675000Y37835027D01*
X5675000Y38164973D01*
X5610631Y38488580D01*
X5484366Y38793410D01*
X5301058Y39067751D01*
X5067751Y39301058D01*
X4793410Y39484366D01*
X4488580Y39610631D01*
X4164973Y39675000D01*
X3835027Y39675000D01*
X3511420Y39610631D01*
X3206590Y39484366D01*
X2932249Y39301058D01*
X2698942Y39067751D01*
X2515634Y38793410D01*
X2389369Y38488580D01*
X2325000Y38164973D01*
X725000Y38164973D01*
X725000Y40151255D01*
X21475000Y40151255D01*
X21475000Y39988745D01*
X21506704Y39829356D01*
X21568894Y39679216D01*
X21659181Y39544093D01*
X21774093Y39429181D01*
X21909216Y39338894D01*
X22059356Y39276704D01*
X22218745Y39245000D01*
X22381255Y39245000D01*
X22540644Y39276704D01*
X22690784Y39338894D01*
X22825907Y39429181D01*
X22940819Y39544093D01*
X23031106Y39679216D01*
X23093296Y39829356D01*
X23125000Y39988745D01*
X23125000Y40151255D01*
X23093296Y40310644D01*
X23031106Y40460784D01*
X22940819Y40595907D01*
X22825907Y40710819D01*
X22690784Y40801106D01*
X22540644Y40863296D01*
X22381255Y40895000D01*
X22218745Y40895000D01*
X22059356Y40863296D01*
X21909216Y40801106D01*
X21774093Y40710819D01*
X21659181Y40595907D01*
X21568894Y40460784D01*
X21506704Y40310644D01*
X21475000Y40151255D01*
X725000Y40151255D01*
X725000Y43164973D01*
X825000Y43164973D01*
X825000Y42835027D01*
X889369Y42511420D01*
X1015634Y42206590D01*
X1198942Y41932249D01*
X1432249Y41698942D01*
X1706590Y41515634D01*
X2011420Y41389369D01*
X2335027Y41325000D01*
X2664973Y41325000D01*
X2988580Y41389369D01*
X3259804Y41501714D01*
X48955459Y41501714D01*
X48955459Y41339204D01*
X48987163Y41179815D01*
X49049353Y41029675D01*
X49139640Y40894552D01*
X49254552Y40779640D01*
X49340913Y40721935D01*
X49339839Y40720861D01*
X49249552Y40585738D01*
X49187362Y40435598D01*
X49155658Y40276209D01*
X49155658Y40113699D01*
X49187362Y39954310D01*
X49249552Y39804170D01*
X49339839Y39669047D01*
X49454751Y39554135D01*
X49470857Y39543373D01*
X49389047Y39420937D01*
X49326857Y39270797D01*
X49295153Y39111408D01*
X49295153Y38948898D01*
X49326857Y38789509D01*
X49389047Y38639369D01*
X49479334Y38504246D01*
X49594246Y38389334D01*
X49729369Y38299047D01*
X49879509Y38236857D01*
X50038898Y38205153D01*
X50201408Y38205153D01*
X50360797Y38236857D01*
X50510937Y38299047D01*
X50646060Y38389334D01*
X50760972Y38504246D01*
X50851259Y38639369D01*
X50913449Y38789509D01*
X50945153Y38948898D01*
X50945153Y39111408D01*
X50913449Y39270797D01*
X50851259Y39420937D01*
X50760972Y39556060D01*
X50695777Y39621255D01*
X53365000Y39621255D01*
X53365000Y39458745D01*
X53396704Y39299356D01*
X53458894Y39149216D01*
X53549181Y39014093D01*
X53664093Y38899181D01*
X53799216Y38808894D01*
X53949356Y38746704D01*
X54108745Y38715000D01*
X54271255Y38715000D01*
X54430644Y38746704D01*
X54580784Y38808894D01*
X54715907Y38899181D01*
X54830819Y39014093D01*
X54921106Y39149216D01*
X54983296Y39299356D01*
X55015000Y39458745D01*
X55015000Y39621255D01*
X54983296Y39780644D01*
X54921106Y39930784D01*
X54830819Y40065907D01*
X54715907Y40180819D01*
X54580784Y40271106D01*
X54430644Y40333296D01*
X54271255Y40365000D01*
X54108745Y40365000D01*
X53949356Y40333296D01*
X53799216Y40271106D01*
X53664093Y40180819D01*
X53549181Y40065907D01*
X53458894Y39930784D01*
X53396704Y39780644D01*
X53365000Y39621255D01*
X50695777Y39621255D01*
X50646060Y39670972D01*
X50629954Y39681734D01*
X50711764Y39804170D01*
X50773954Y39954310D01*
X50805658Y40113699D01*
X50805658Y40276209D01*
X50773954Y40435598D01*
X50711764Y40585738D01*
X50621477Y40720861D01*
X50506565Y40835773D01*
X50420204Y40893478D01*
X50421278Y40894552D01*
X50511565Y41029675D01*
X50573755Y41179815D01*
X50605459Y41339204D01*
X50605459Y41501714D01*
X50573755Y41661103D01*
X50511565Y41811243D01*
X50421278Y41946366D01*
X50306366Y42061278D01*
X50171243Y42151565D01*
X50138874Y42164973D01*
X76825000Y42164973D01*
X76825000Y41835027D01*
X76889369Y41511420D01*
X77015634Y41206590D01*
X77198942Y40932249D01*
X77432249Y40698942D01*
X77706590Y40515634D01*
X78011420Y40389369D01*
X78335027Y40325000D01*
X78664973Y40325000D01*
X78988580Y40389369D01*
X79293410Y40515634D01*
X79567751Y40698942D01*
X79801058Y40932249D01*
X79984366Y41206590D01*
X80110631Y41511420D01*
X80175000Y41835027D01*
X80175000Y42164973D01*
X80110631Y42488580D01*
X79984366Y42793410D01*
X79801058Y43067751D01*
X79567751Y43301058D01*
X79293410Y43484366D01*
X78988580Y43610631D01*
X78664973Y43675000D01*
X78335027Y43675000D01*
X78011420Y43610631D01*
X77706590Y43484366D01*
X77432249Y43301058D01*
X77198942Y43067751D01*
X77015634Y42793410D01*
X76889369Y42488580D01*
X76825000Y42164973D01*
X50138874Y42164973D01*
X50021103Y42213755D01*
X49861714Y42245459D01*
X49699204Y42245459D01*
X49539815Y42213755D01*
X49389675Y42151565D01*
X49254552Y42061278D01*
X49139640Y41946366D01*
X49049353Y41811243D01*
X48987163Y41661103D01*
X48955459Y41501714D01*
X3259804Y41501714D01*
X3293410Y41515634D01*
X3567751Y41698942D01*
X3801058Y41932249D01*
X3984366Y42206590D01*
X4110631Y42511420D01*
X4175000Y42835027D01*
X4175000Y43164973D01*
X4110631Y43488580D01*
X3984366Y43793410D01*
X3801058Y44067751D01*
X3567751Y44301058D01*
X3293410Y44484366D01*
X2988580Y44610631D01*
X2664973Y44675000D01*
X2335027Y44675000D01*
X2011420Y44610631D01*
X1706590Y44484366D01*
X1432249Y44301058D01*
X1198942Y44067751D01*
X1015634Y43793410D01*
X889369Y43488580D01*
X825000Y43164973D01*
X725000Y43164973D01*
X725000Y45280000D01*
X13622944Y45280000D01*
X13622944Y44280000D01*
X13631150Y44196686D01*
X13655452Y44116573D01*
X13694916Y44042740D01*
X13748026Y43978026D01*
X13812740Y43924916D01*
X13886573Y43885452D01*
X13966686Y43861150D01*
X14050000Y43852944D01*
X15050000Y43852944D01*
X15133314Y43861150D01*
X15213427Y43885452D01*
X15287260Y43924916D01*
X15351974Y43978026D01*
X15405084Y44042740D01*
X15444548Y44116573D01*
X15468850Y44196686D01*
X15477056Y44280000D01*
X15477056Y45280000D01*
X15468850Y45363314D01*
X15444548Y45443427D01*
X15405084Y45517260D01*
X15351974Y45581974D01*
X15287260Y45635084D01*
X15213427Y45674548D01*
X15133314Y45698850D01*
X15050000Y45707056D01*
X14050000Y45707056D01*
X13966686Y45698850D01*
X13886573Y45674548D01*
X13812740Y45635084D01*
X13748026Y45581974D01*
X13694916Y45517260D01*
X13655452Y45443427D01*
X13631150Y45363314D01*
X13622944Y45280000D01*
X725000Y45280000D01*
X725000Y47931255D01*
X53695000Y47931255D01*
X53695000Y47768745D01*
X53726704Y47609356D01*
X53788894Y47459216D01*
X53879181Y47324093D01*
X53994093Y47209181D01*
X54129216Y47118894D01*
X54279356Y47056704D01*
X54438745Y47025000D01*
X54601255Y47025000D01*
X54760644Y47056704D01*
X54910784Y47118894D01*
X55032831Y47200443D01*
X55034093Y47199181D01*
X55169216Y47108894D01*
X55319356Y47046704D01*
X55478745Y47015000D01*
X55641255Y47015000D01*
X55800644Y47046704D01*
X55950784Y47108894D01*
X56085907Y47199181D01*
X56200819Y47314093D01*
X56291106Y47449216D01*
X56353296Y47599356D01*
X56385000Y47758745D01*
X56385000Y47921255D01*
X56353296Y48080644D01*
X56291106Y48230784D01*
X56200819Y48365907D01*
X56085907Y48480819D01*
X55950784Y48571106D01*
X55800644Y48633296D01*
X55641255Y48665000D01*
X55478745Y48665000D01*
X55319356Y48633296D01*
X55169216Y48571106D01*
X55047169Y48489557D01*
X55045907Y48490819D01*
X54910784Y48581106D01*
X54760644Y48643296D01*
X54601255Y48675000D01*
X54438745Y48675000D01*
X54279356Y48643296D01*
X54129216Y48581106D01*
X53994093Y48490819D01*
X53879181Y48375907D01*
X53788894Y48240784D01*
X53726704Y48090644D01*
X53695000Y47931255D01*
X725000Y47931255D01*
X725000Y48690000D01*
X5073937Y48690000D01*
X5086159Y48565910D01*
X5122354Y48446589D01*
X5181133Y48336622D01*
X5260236Y48240236D01*
X5356622Y48161133D01*
X5466589Y48102354D01*
X5585910Y48066159D01*
X5710000Y48053937D01*
X6172750Y48057000D01*
X6331000Y48215250D01*
X6331000Y49311000D01*
X6589000Y49311000D01*
X6589000Y48215250D01*
X6747250Y48057000D01*
X7210000Y48053937D01*
X7334090Y48066159D01*
X7453411Y48102354D01*
X7563378Y48161133D01*
X7659764Y48240236D01*
X7738867Y48336622D01*
X7797646Y48446589D01*
X7833841Y48565910D01*
X7846063Y48690000D01*
X7843000Y49152750D01*
X7684750Y49311000D01*
X6589000Y49311000D01*
X6331000Y49311000D01*
X5235250Y49311000D01*
X5077000Y49152750D01*
X5073937Y48690000D01*
X725000Y48690000D01*
X725000Y50190000D01*
X5073937Y50190000D01*
X5077000Y49727250D01*
X5235250Y49569000D01*
X6331000Y49569000D01*
X6331000Y50664750D01*
X6589000Y50664750D01*
X6589000Y49569000D01*
X7684750Y49569000D01*
X7843000Y49727250D01*
X7846063Y50190000D01*
X7833841Y50314090D01*
X7797646Y50433411D01*
X7738867Y50543378D01*
X7659764Y50639764D01*
X7563378Y50718867D01*
X7453411Y50777646D01*
X7334090Y50813841D01*
X7210000Y50826063D01*
X6747250Y50823000D01*
X6589000Y50664750D01*
X6331000Y50664750D01*
X6172750Y50823000D01*
X5710000Y50826063D01*
X5585910Y50813841D01*
X5466589Y50777646D01*
X5356622Y50718867D01*
X5260236Y50639764D01*
X5181133Y50543378D01*
X5122354Y50433411D01*
X5086159Y50314090D01*
X5073937Y50190000D01*
X725000Y50190000D01*
X725000Y51241255D01*
X49925000Y51241255D01*
X49925000Y51078745D01*
X49956704Y50919356D01*
X50018894Y50769216D01*
X50109181Y50634093D01*
X50224093Y50519181D01*
X50359216Y50428894D01*
X50509356Y50366704D01*
X50668745Y50335000D01*
X50831255Y50335000D01*
X50990644Y50366704D01*
X51140784Y50428894D01*
X51275907Y50519181D01*
X51390819Y50634093D01*
X51481106Y50769216D01*
X51543296Y50919356D01*
X51575000Y51078745D01*
X51575000Y51241255D01*
X51571022Y51261255D01*
X52905000Y51261255D01*
X52905000Y51098745D01*
X52936704Y50939356D01*
X52998894Y50789216D01*
X53089181Y50654093D01*
X53204093Y50539181D01*
X53339216Y50448894D01*
X53489356Y50386704D01*
X53648745Y50355000D01*
X53811255Y50355000D01*
X53970644Y50386704D01*
X54120784Y50448894D01*
X54255907Y50539181D01*
X54370819Y50654093D01*
X54461106Y50789216D01*
X54523296Y50939356D01*
X54555000Y51098745D01*
X54555000Y51261255D01*
X54523296Y51420644D01*
X54461106Y51570784D01*
X54370819Y51705907D01*
X54255907Y51820819D01*
X54120784Y51911106D01*
X53970644Y51973296D01*
X53811255Y52005000D01*
X53648745Y52005000D01*
X53489356Y51973296D01*
X53339216Y51911106D01*
X53204093Y51820819D01*
X53089181Y51705907D01*
X52998894Y51570784D01*
X52936704Y51420644D01*
X52905000Y51261255D01*
X51571022Y51261255D01*
X51543296Y51400644D01*
X51481106Y51550784D01*
X51390819Y51685907D01*
X51275907Y51800819D01*
X51140784Y51891106D01*
X50990644Y51953296D01*
X50831255Y51985000D01*
X50668745Y51985000D01*
X50509356Y51953296D01*
X50359216Y51891106D01*
X50224093Y51800819D01*
X50109181Y51685907D01*
X50018894Y51550784D01*
X49956704Y51400644D01*
X49925000Y51241255D01*
X725000Y51241255D01*
X725000Y53541255D01*
X51425000Y53541255D01*
X51425000Y53378745D01*
X51456704Y53219356D01*
X51518894Y53069216D01*
X51609181Y52934093D01*
X51724093Y52819181D01*
X51859216Y52728894D01*
X52009356Y52666704D01*
X52168745Y52635000D01*
X52331255Y52635000D01*
X52490644Y52666704D01*
X52640784Y52728894D01*
X52775907Y52819181D01*
X52890819Y52934093D01*
X52981106Y53069216D01*
X53043296Y53219356D01*
X53075000Y53378745D01*
X53075000Y53541255D01*
X53043296Y53700644D01*
X52981106Y53850784D01*
X52890819Y53985907D01*
X52775907Y54100819D01*
X52640784Y54191106D01*
X52490644Y54253296D01*
X52331255Y54285000D01*
X52168745Y54285000D01*
X52009356Y54253296D01*
X51859216Y54191106D01*
X51724093Y54100819D01*
X51609181Y53985907D01*
X51518894Y53850784D01*
X51456704Y53700644D01*
X51425000Y53541255D01*
X725000Y53541255D01*
X725000Y55801255D01*
X7935000Y55801255D01*
X7935000Y55638745D01*
X7966704Y55479356D01*
X8028894Y55329216D01*
X8119181Y55194093D01*
X8234093Y55079181D01*
X8369216Y54988894D01*
X8519356Y54926704D01*
X8678745Y54895000D01*
X8841255Y54895000D01*
X9000644Y54926704D01*
X9150784Y54988894D01*
X9285907Y55079181D01*
X9400819Y55194093D01*
X9491106Y55329216D01*
X9553296Y55479356D01*
X9585000Y55638745D01*
X9585000Y55801255D01*
X9553296Y55960644D01*
X9491106Y56110784D01*
X9400819Y56245907D01*
X9285907Y56360819D01*
X9150784Y56451106D01*
X9000644Y56513296D01*
X8841255Y56545000D01*
X8678745Y56545000D01*
X8519356Y56513296D01*
X8369216Y56451106D01*
X8234093Y56360819D01*
X8119181Y56245907D01*
X8028894Y56110784D01*
X7966704Y55960644D01*
X7935000Y55801255D01*
X725000Y55801255D01*
X725000Y57381255D01*
X8825000Y57381255D01*
X8825000Y57218745D01*
X8856704Y57059356D01*
X8918894Y56909216D01*
X9009181Y56774093D01*
X9124093Y56659181D01*
X9259216Y56568894D01*
X9409356Y56506704D01*
X9568745Y56475000D01*
X9731255Y56475000D01*
X9890644Y56506704D01*
X10040784Y56568894D01*
X10175907Y56659181D01*
X10290819Y56774093D01*
X10381106Y56909216D01*
X10443296Y57059356D01*
X10475000Y57218745D01*
X10475000Y57381255D01*
X10443296Y57540644D01*
X10381106Y57690784D01*
X10290819Y57825907D01*
X10175907Y57940819D01*
X10040784Y58031106D01*
X9922744Y58080000D01*
X13402944Y58080000D01*
X13402944Y57080000D01*
X13411150Y56996686D01*
X13435452Y56916573D01*
X13474916Y56842740D01*
X13528026Y56778026D01*
X13592740Y56724916D01*
X13666573Y56685452D01*
X13746686Y56661150D01*
X13830000Y56652944D01*
X14830000Y56652944D01*
X14913314Y56661150D01*
X14993427Y56685452D01*
X15067260Y56724916D01*
X15131974Y56778026D01*
X15185084Y56842740D01*
X15224548Y56916573D01*
X15248850Y56996686D01*
X15257056Y57080000D01*
X15257056Y58080000D01*
X15248850Y58163314D01*
X15224548Y58243427D01*
X15185084Y58317260D01*
X15131974Y58381974D01*
X15067260Y58435084D01*
X14993427Y58474548D01*
X14913314Y58498850D01*
X14830000Y58507056D01*
X13830000Y58507056D01*
X13746686Y58498850D01*
X13666573Y58474548D01*
X13592740Y58435084D01*
X13528026Y58381974D01*
X13474916Y58317260D01*
X13435452Y58243427D01*
X13411150Y58163314D01*
X13402944Y58080000D01*
X9922744Y58080000D01*
X9890644Y58093296D01*
X9731255Y58125000D01*
X9568745Y58125000D01*
X9409356Y58093296D01*
X9259216Y58031106D01*
X9124093Y57940819D01*
X9009181Y57825907D01*
X8918894Y57690784D01*
X8856704Y57540644D01*
X8825000Y57381255D01*
X725000Y57381255D01*
X725000Y58621255D01*
X26085000Y58621255D01*
X26085000Y58458745D01*
X26116704Y58299356D01*
X26178894Y58149216D01*
X26269181Y58014093D01*
X26384093Y57899181D01*
X26519216Y57808894D01*
X26669356Y57746704D01*
X26828745Y57715000D01*
X26991255Y57715000D01*
X27150644Y57746704D01*
X27300784Y57808894D01*
X27435907Y57899181D01*
X27550819Y58014093D01*
X27641106Y58149216D01*
X27703296Y58299356D01*
X27735000Y58458745D01*
X27735000Y58601255D01*
X35575000Y58601255D01*
X35575000Y58438745D01*
X35606704Y58279356D01*
X35668894Y58129216D01*
X35759181Y57994093D01*
X35874093Y57879181D01*
X36009216Y57788894D01*
X36159356Y57726704D01*
X36318745Y57695000D01*
X36481255Y57695000D01*
X36640644Y57726704D01*
X36790784Y57788894D01*
X36925907Y57879181D01*
X37040819Y57994093D01*
X37131106Y58129216D01*
X37193296Y58279356D01*
X37225000Y58438745D01*
X37225000Y58501255D01*
X45055000Y58501255D01*
X45055000Y58338745D01*
X45086704Y58179356D01*
X45148894Y58029216D01*
X45239181Y57894093D01*
X45354093Y57779181D01*
X45489216Y57688894D01*
X45639356Y57626704D01*
X45798745Y57595000D01*
X45961255Y57595000D01*
X46120644Y57626704D01*
X46270784Y57688894D01*
X46405907Y57779181D01*
X46520819Y57894093D01*
X46611106Y58029216D01*
X46673296Y58179356D01*
X46679641Y58211255D01*
X54615000Y58211255D01*
X54615000Y58048745D01*
X54646704Y57889356D01*
X54708894Y57739216D01*
X54799181Y57604093D01*
X54914093Y57489181D01*
X55049216Y57398894D01*
X55199356Y57336704D01*
X55358745Y57305000D01*
X55521255Y57305000D01*
X55680644Y57336704D01*
X55830784Y57398894D01*
X55965907Y57489181D01*
X56080819Y57604093D01*
X56171106Y57739216D01*
X56233296Y57889356D01*
X56265000Y58048745D01*
X56265000Y58211255D01*
X56233296Y58370644D01*
X56171106Y58520784D01*
X56080819Y58655907D01*
X55965907Y58770819D01*
X55830784Y58861106D01*
X55680644Y58923296D01*
X55521255Y58955000D01*
X55358745Y58955000D01*
X55199356Y58923296D01*
X55049216Y58861106D01*
X54914093Y58770819D01*
X54799181Y58655907D01*
X54708894Y58520784D01*
X54646704Y58370644D01*
X54615000Y58211255D01*
X46679641Y58211255D01*
X46705000Y58338745D01*
X46705000Y58501255D01*
X46673296Y58660644D01*
X46611106Y58810784D01*
X46520819Y58945907D01*
X46405907Y59060819D01*
X46270784Y59151106D01*
X46120644Y59213296D01*
X45961255Y59245000D01*
X45798745Y59245000D01*
X45639356Y59213296D01*
X45489216Y59151106D01*
X45354093Y59060819D01*
X45239181Y58945907D01*
X45148894Y58810784D01*
X45086704Y58660644D01*
X45055000Y58501255D01*
X37225000Y58501255D01*
X37225000Y58601255D01*
X37193296Y58760644D01*
X37131106Y58910784D01*
X37040819Y59045907D01*
X36925907Y59160819D01*
X36790784Y59251106D01*
X36640644Y59313296D01*
X36481255Y59345000D01*
X36318745Y59345000D01*
X36159356Y59313296D01*
X36009216Y59251106D01*
X35874093Y59160819D01*
X35759181Y59045907D01*
X35668894Y58910784D01*
X35606704Y58760644D01*
X35575000Y58601255D01*
X27735000Y58601255D01*
X27735000Y58621255D01*
X27703296Y58780644D01*
X27641106Y58930784D01*
X27550819Y59065907D01*
X27435907Y59180819D01*
X27300784Y59271106D01*
X27150644Y59333296D01*
X26991255Y59365000D01*
X26828745Y59365000D01*
X26669356Y59333296D01*
X26519216Y59271106D01*
X26384093Y59180819D01*
X26269181Y59065907D01*
X26178894Y58930784D01*
X26116704Y58780644D01*
X26085000Y58621255D01*
X725000Y58621255D01*
X725000Y60731255D01*
X26235000Y60731255D01*
X26235000Y60568745D01*
X26266704Y60409356D01*
X26328894Y60259216D01*
X26419181Y60124093D01*
X26534093Y60009181D01*
X26669216Y59918894D01*
X26819356Y59856704D01*
X26978745Y59825000D01*
X27141255Y59825000D01*
X27300644Y59856704D01*
X27450784Y59918894D01*
X27585907Y60009181D01*
X27700819Y60124093D01*
X27791106Y60259216D01*
X27853296Y60409356D01*
X27885000Y60568745D01*
X27885000Y60651255D01*
X35635000Y60651255D01*
X35635000Y60488745D01*
X35666704Y60329356D01*
X35728894Y60179216D01*
X35819181Y60044093D01*
X35934093Y59929181D01*
X36069216Y59838894D01*
X36219356Y59776704D01*
X36378745Y59745000D01*
X36541255Y59745000D01*
X36700644Y59776704D01*
X36850784Y59838894D01*
X36985907Y59929181D01*
X37100819Y60044093D01*
X37191106Y60179216D01*
X37253296Y60329356D01*
X37285000Y60488745D01*
X37285000Y60631255D01*
X44975000Y60631255D01*
X44975000Y60468745D01*
X45006704Y60309356D01*
X45068894Y60159216D01*
X45159181Y60024093D01*
X45274093Y59909181D01*
X45409216Y59818894D01*
X45559356Y59756704D01*
X45718745Y59725000D01*
X45881255Y59725000D01*
X46040644Y59756704D01*
X46190784Y59818894D01*
X46325907Y59909181D01*
X46440819Y60024093D01*
X46531106Y60159216D01*
X46593296Y60309356D01*
X46619282Y60440000D01*
X71542944Y60440000D01*
X71542944Y59440000D01*
X71551150Y59356686D01*
X71575452Y59276573D01*
X71614916Y59202740D01*
X71668026Y59138026D01*
X71732740Y59084916D01*
X71806573Y59045452D01*
X71886686Y59021150D01*
X71970000Y59012944D01*
X72970000Y59012944D01*
X73053314Y59021150D01*
X73133427Y59045452D01*
X73207260Y59084916D01*
X73271974Y59138026D01*
X73325084Y59202740D01*
X73364548Y59276573D01*
X73388850Y59356686D01*
X73397056Y59440000D01*
X73397056Y60440000D01*
X73388850Y60523314D01*
X73364548Y60603427D01*
X73325084Y60677260D01*
X73271974Y60741974D01*
X73207260Y60795084D01*
X73133427Y60834548D01*
X73053314Y60858850D01*
X72970000Y60867056D01*
X71970000Y60867056D01*
X71886686Y60858850D01*
X71806573Y60834548D01*
X71732740Y60795084D01*
X71668026Y60741974D01*
X71614916Y60677260D01*
X71575452Y60603427D01*
X71551150Y60523314D01*
X71542944Y60440000D01*
X46619282Y60440000D01*
X46625000Y60468745D01*
X46625000Y60631255D01*
X46593296Y60790644D01*
X46531106Y60940784D01*
X46440819Y61075907D01*
X46325907Y61190819D01*
X46190784Y61281106D01*
X46040644Y61343296D01*
X45950357Y61361255D01*
X54555000Y61361255D01*
X54555000Y61198745D01*
X54586704Y61039356D01*
X54648894Y60889216D01*
X54739181Y60754093D01*
X54854093Y60639181D01*
X54989216Y60548894D01*
X55139356Y60486704D01*
X55298745Y60455000D01*
X55461255Y60455000D01*
X55620644Y60486704D01*
X55770784Y60548894D01*
X55905907Y60639181D01*
X56020819Y60754093D01*
X56111106Y60889216D01*
X56173296Y61039356D01*
X56205000Y61198745D01*
X56205000Y61361255D01*
X56173296Y61520644D01*
X56111106Y61670784D01*
X56020819Y61805907D01*
X55905907Y61920819D01*
X55770784Y62011106D01*
X55620644Y62073296D01*
X55461255Y62105000D01*
X55298745Y62105000D01*
X55139356Y62073296D01*
X54989216Y62011106D01*
X54854093Y61920819D01*
X54739181Y61805907D01*
X54648894Y61670784D01*
X54586704Y61520644D01*
X54555000Y61361255D01*
X45950357Y61361255D01*
X45881255Y61375000D01*
X45718745Y61375000D01*
X45559356Y61343296D01*
X45409216Y61281106D01*
X45274093Y61190819D01*
X45159181Y61075907D01*
X45068894Y60940784D01*
X45006704Y60790644D01*
X44975000Y60631255D01*
X37285000Y60631255D01*
X37285000Y60651255D01*
X37253296Y60810644D01*
X37191106Y60960784D01*
X37100819Y61095907D01*
X36985907Y61210819D01*
X36850784Y61301106D01*
X36700644Y61363296D01*
X36541255Y61395000D01*
X36378745Y61395000D01*
X36219356Y61363296D01*
X36069216Y61301106D01*
X35934093Y61210819D01*
X35819181Y61095907D01*
X35728894Y60960784D01*
X35666704Y60810644D01*
X35635000Y60651255D01*
X27885000Y60651255D01*
X27885000Y60731255D01*
X27853296Y60890644D01*
X27791106Y61040784D01*
X27700819Y61175907D01*
X27585907Y61290819D01*
X27450784Y61381106D01*
X27300644Y61443296D01*
X27141255Y61475000D01*
X26978745Y61475000D01*
X26819356Y61443296D01*
X26669216Y61381106D01*
X26534093Y61290819D01*
X26419181Y61175907D01*
X26328894Y61040784D01*
X26266704Y60890644D01*
X26235000Y60731255D01*
X725000Y60731255D01*
X725000Y63291255D01*
X9725000Y63291255D01*
X9725000Y63128745D01*
X9756704Y62969356D01*
X9818894Y62819216D01*
X9909181Y62684093D01*
X10024093Y62569181D01*
X10159216Y62478894D01*
X10309356Y62416704D01*
X10468745Y62385000D01*
X10631255Y62385000D01*
X10790644Y62416704D01*
X10940784Y62478894D01*
X11075907Y62569181D01*
X11190819Y62684093D01*
X11281106Y62819216D01*
X11343296Y62969356D01*
X11375000Y63128745D01*
X11375000Y63291255D01*
X11343296Y63450644D01*
X11281106Y63600784D01*
X11201448Y63720000D01*
X13312944Y63720000D01*
X13312944Y62720000D01*
X13321150Y62636686D01*
X13345452Y62556573D01*
X13384916Y62482740D01*
X13438026Y62418026D01*
X13502740Y62364916D01*
X13576573Y62325452D01*
X13656686Y62301150D01*
X13740000Y62292944D01*
X14740000Y62292944D01*
X14823314Y62301150D01*
X14903427Y62325452D01*
X14977260Y62364916D01*
X15041974Y62418026D01*
X15095084Y62482740D01*
X15134548Y62556573D01*
X15158850Y62636686D01*
X15167056Y62720000D01*
X15167056Y63720000D01*
X15158850Y63803314D01*
X15134548Y63883427D01*
X15095084Y63957260D01*
X15041974Y64021974D01*
X14977260Y64075084D01*
X14903427Y64114548D01*
X14823314Y64138850D01*
X14740000Y64147056D01*
X13740000Y64147056D01*
X13656686Y64138850D01*
X13576573Y64114548D01*
X13502740Y64075084D01*
X13438026Y64021974D01*
X13384916Y63957260D01*
X13345452Y63883427D01*
X13321150Y63803314D01*
X13312944Y63720000D01*
X11201448Y63720000D01*
X11190819Y63735907D01*
X11075907Y63850819D01*
X10940784Y63941106D01*
X10790644Y64003296D01*
X10631255Y64035000D01*
X10468745Y64035000D01*
X10309356Y64003296D01*
X10159216Y63941106D01*
X10024093Y63850819D01*
X9909181Y63735907D01*
X9818894Y63600784D01*
X9756704Y63450644D01*
X9725000Y63291255D01*
X725000Y63291255D01*
X725000Y64921255D01*
X8875000Y64921255D01*
X8875000Y64758745D01*
X8906704Y64599356D01*
X8968894Y64449216D01*
X9059181Y64314093D01*
X9174093Y64199181D01*
X9309216Y64108894D01*
X9459356Y64046704D01*
X9618745Y64015000D01*
X9781255Y64015000D01*
X9940644Y64046704D01*
X10090784Y64108894D01*
X10225907Y64199181D01*
X10340819Y64314093D01*
X10425786Y64441255D01*
X22925000Y64441255D01*
X22925000Y64278745D01*
X22956704Y64119356D01*
X23018894Y63969216D01*
X23109181Y63834093D01*
X23224093Y63719181D01*
X23359216Y63628894D01*
X23509356Y63566704D01*
X23668745Y63535000D01*
X23831255Y63535000D01*
X23990644Y63566704D01*
X24140784Y63628894D01*
X24275907Y63719181D01*
X24390819Y63834093D01*
X24481106Y63969216D01*
X24543296Y64119356D01*
X24575000Y64278745D01*
X24575000Y64431255D01*
X32215000Y64431255D01*
X32215000Y64268745D01*
X32246704Y64109356D01*
X32308894Y63959216D01*
X32399181Y63824093D01*
X32514093Y63709181D01*
X32649216Y63618894D01*
X32799356Y63556704D01*
X32958745Y63525000D01*
X33121255Y63525000D01*
X33280644Y63556704D01*
X33430784Y63618894D01*
X33565907Y63709181D01*
X33680819Y63824093D01*
X33771106Y63959216D01*
X33833296Y64109356D01*
X33865000Y64268745D01*
X33865000Y64311255D01*
X41705000Y64311255D01*
X41705000Y64148745D01*
X41736704Y63989356D01*
X41798894Y63839216D01*
X41889181Y63704093D01*
X42004093Y63589181D01*
X42139216Y63498894D01*
X42289356Y63436704D01*
X42448745Y63405000D01*
X42611255Y63405000D01*
X42770644Y63436704D01*
X42920784Y63498894D01*
X43055907Y63589181D01*
X43170819Y63704093D01*
X43261106Y63839216D01*
X43323296Y63989356D01*
X43355000Y64148745D01*
X43355000Y64311255D01*
X43339088Y64391255D01*
X51245000Y64391255D01*
X51245000Y64228745D01*
X51276704Y64069356D01*
X51338894Y63919216D01*
X51429181Y63784093D01*
X51544093Y63669181D01*
X51679216Y63578894D01*
X51829356Y63516704D01*
X51988745Y63485000D01*
X52151255Y63485000D01*
X52310644Y63516704D01*
X52460784Y63578894D01*
X52595907Y63669181D01*
X52710819Y63784093D01*
X52801106Y63919216D01*
X52863296Y64069356D01*
X52895000Y64228745D01*
X52895000Y64391255D01*
X52863296Y64550644D01*
X52801106Y64700784D01*
X52710819Y64835907D01*
X52595907Y64950819D01*
X52460784Y65041106D01*
X52310644Y65103296D01*
X52151255Y65135000D01*
X51988745Y65135000D01*
X51829356Y65103296D01*
X51679216Y65041106D01*
X51544093Y64950819D01*
X51429181Y64835907D01*
X51338894Y64700784D01*
X51276704Y64550644D01*
X51245000Y64391255D01*
X43339088Y64391255D01*
X43323296Y64470644D01*
X43261106Y64620784D01*
X43170819Y64755907D01*
X43055907Y64870819D01*
X42920784Y64961106D01*
X42770644Y65023296D01*
X42611255Y65055000D01*
X42448745Y65055000D01*
X42289356Y65023296D01*
X42139216Y64961106D01*
X42004093Y64870819D01*
X41889181Y64755907D01*
X41798894Y64620784D01*
X41736704Y64470644D01*
X41705000Y64311255D01*
X33865000Y64311255D01*
X33865000Y64431255D01*
X33833296Y64590644D01*
X33771106Y64740784D01*
X33680819Y64875907D01*
X33565907Y64990819D01*
X33430784Y65081106D01*
X33280644Y65143296D01*
X33121255Y65175000D01*
X32958745Y65175000D01*
X32799356Y65143296D01*
X32649216Y65081106D01*
X32514093Y64990819D01*
X32399181Y64875907D01*
X32308894Y64740784D01*
X32246704Y64590644D01*
X32215000Y64431255D01*
X24575000Y64431255D01*
X24575000Y64441255D01*
X24543296Y64600644D01*
X24481106Y64750784D01*
X24390819Y64885907D01*
X24275907Y65000819D01*
X24140784Y65091106D01*
X23990644Y65153296D01*
X23831255Y65185000D01*
X23668745Y65185000D01*
X23509356Y65153296D01*
X23359216Y65091106D01*
X23224093Y65000819D01*
X23109181Y64885907D01*
X23018894Y64750784D01*
X22956704Y64600644D01*
X22925000Y64441255D01*
X10425786Y64441255D01*
X10431106Y64449216D01*
X10493296Y64599356D01*
X10525000Y64758745D01*
X10525000Y64921255D01*
X10493296Y65080644D01*
X10431106Y65230784D01*
X10340819Y65365907D01*
X10225907Y65480819D01*
X10090784Y65571106D01*
X9940644Y65633296D01*
X9781255Y65665000D01*
X9618745Y65665000D01*
X9459356Y65633296D01*
X9309216Y65571106D01*
X9174093Y65480819D01*
X9059181Y65365907D01*
X8968894Y65230784D01*
X8906704Y65080644D01*
X8875000Y64921255D01*
X725000Y64921255D01*
X725000Y70760000D01*
X53283937Y70760000D01*
X53296159Y70635910D01*
X53332354Y70516589D01*
X53391133Y70406622D01*
X53470236Y70310236D01*
X53566622Y70231133D01*
X53676589Y70172354D01*
X53795910Y70136159D01*
X53920000Y70123937D01*
X54382750Y70127000D01*
X54541000Y70285250D01*
X54541000Y71381000D01*
X54799000Y71381000D01*
X54799000Y70285250D01*
X54957250Y70127000D01*
X55420000Y70123937D01*
X55544090Y70136159D01*
X55663411Y70172354D01*
X55773378Y70231133D01*
X55869764Y70310236D01*
X55948867Y70406622D01*
X56007646Y70516589D01*
X56043841Y70635910D01*
X56056063Y70760000D01*
X56053000Y71222750D01*
X55894750Y71381000D01*
X54799000Y71381000D01*
X54541000Y71381000D01*
X53445250Y71381000D01*
X53287000Y71222750D01*
X53283937Y70760000D01*
X725000Y70760000D01*
X725000Y72561255D01*
X11815000Y72561255D01*
X11815000Y72398745D01*
X11846704Y72239356D01*
X11908894Y72089216D01*
X11999181Y71954093D01*
X12114093Y71839181D01*
X12249216Y71748894D01*
X12399356Y71686704D01*
X12558745Y71655000D01*
X12721255Y71655000D01*
X12880644Y71686704D01*
X13030784Y71748894D01*
X13165907Y71839181D01*
X13280819Y71954093D01*
X13371106Y72089216D01*
X13433296Y72239356D01*
X13437402Y72260000D01*
X53283937Y72260000D01*
X53287000Y71797250D01*
X53445250Y71639000D01*
X54541000Y71639000D01*
X54541000Y72734750D01*
X54799000Y72734750D01*
X54799000Y71639000D01*
X55894750Y71639000D01*
X56053000Y71797250D01*
X56056063Y72260000D01*
X56043841Y72384090D01*
X56007646Y72503411D01*
X55948867Y72613378D01*
X55869764Y72709764D01*
X55773378Y72788867D01*
X55663411Y72847646D01*
X55544090Y72883841D01*
X55420000Y72896063D01*
X54957250Y72893000D01*
X54799000Y72734750D01*
X54541000Y72734750D01*
X54382750Y72893000D01*
X53920000Y72896063D01*
X53795910Y72883841D01*
X53676589Y72847646D01*
X53566622Y72788867D01*
X53470236Y72709764D01*
X53391133Y72613378D01*
X53332354Y72503411D01*
X53296159Y72384090D01*
X53283937Y72260000D01*
X13437402Y72260000D01*
X13465000Y72398745D01*
X13465000Y72561255D01*
X13439240Y72690760D01*
X13568745Y72665000D01*
X13731255Y72665000D01*
X13890644Y72696704D01*
X14040784Y72758894D01*
X14175907Y72849181D01*
X14290819Y72964093D01*
X14381106Y73099216D01*
X14443296Y73249356D01*
X14475000Y73408745D01*
X14475000Y73571255D01*
X14443296Y73730644D01*
X14381106Y73880784D01*
X14290819Y74015907D01*
X14175907Y74130819D01*
X14040784Y74221106D01*
X13890644Y74283296D01*
X13731255Y74315000D01*
X13568745Y74315000D01*
X13409356Y74283296D01*
X13259216Y74221106D01*
X13124093Y74130819D01*
X13009181Y74015907D01*
X12918894Y73880784D01*
X12856704Y73730644D01*
X12825000Y73571255D01*
X12825000Y73408745D01*
X12850760Y73279240D01*
X12721255Y73305000D01*
X12558745Y73305000D01*
X12399356Y73273296D01*
X12249216Y73211106D01*
X12114093Y73120819D01*
X11999181Y73005907D01*
X11908894Y72870784D01*
X11846704Y72720644D01*
X11815000Y72561255D01*
X725000Y72561255D01*
X725000Y74364367D01*
X1146800Y74364367D01*
X1242852Y74100768D01*
X1532298Y73960432D01*
X1843561Y73879261D01*
X2164680Y73860374D01*
X2483312Y73904498D01*
X2787214Y74009936D01*
X2957148Y74100768D01*
X3053200Y74364367D01*
X2100000Y75317566D01*
X1146800Y74364367D01*
X725000Y74364367D01*
X725000Y74634022D01*
X964367Y74546800D01*
X1917566Y75500000D01*
X2282434Y75500000D01*
X3235633Y74546800D01*
X3499232Y74642852D01*
X3639568Y74932298D01*
X3720739Y75243561D01*
X3739626Y75564680D01*
X3695502Y75883312D01*
X3590064Y76187214D01*
X3499232Y76357148D01*
X3235633Y76453200D01*
X2282434Y75500000D01*
X1917566Y75500000D01*
X964367Y76453200D01*
X725000Y76365978D01*
X725000Y76635633D01*
X1146800Y76635633D01*
X2100000Y75682434D01*
X3053200Y76635633D01*
X2957148Y76899232D01*
X2667702Y77039568D01*
X2356439Y77120739D01*
X2035320Y77139626D01*
X1716688Y77095502D01*
X1412786Y76990064D01*
X1242852Y76899232D01*
X1146800Y76635633D01*
X725000Y76635633D01*
X725000Y82616909D01*
X10913000Y82616909D01*
X10913000Y82383091D01*
X10958616Y82153765D01*
X11048095Y81937745D01*
X11177997Y81743332D01*
X11343332Y81577997D01*
X11460063Y81500000D01*
X11343332Y81422003D01*
X11177997Y81256668D01*
X11048095Y81062255D01*
X10958616Y80846235D01*
X10913000Y80616909D01*
X10913000Y80383091D01*
X10958616Y80153765D01*
X11048095Y79937745D01*
X11177997Y79743332D01*
X11343332Y79577997D01*
X11460063Y79500000D01*
X11343332Y79422003D01*
X11177997Y79256668D01*
X11048095Y79062255D01*
X10958616Y78846235D01*
X10913000Y78616909D01*
X10913000Y78383091D01*
X10958616Y78153765D01*
X11048095Y77937745D01*
X11177997Y77743332D01*
X11343332Y77577997D01*
X11460063Y77500000D01*
X11343332Y77422003D01*
X11177997Y77256668D01*
X11048095Y77062255D01*
X10958616Y76846235D01*
X10913000Y76616909D01*
X10913000Y76383091D01*
X10958616Y76153765D01*
X11048095Y75937745D01*
X11177997Y75743332D01*
X11343332Y75577997D01*
X11537745Y75448095D01*
X11753765Y75358616D01*
X11983091Y75313000D01*
X12216909Y75313000D01*
X12446235Y75358616D01*
X12525032Y75391255D01*
X68075000Y75391255D01*
X68075000Y75228745D01*
X68106704Y75069356D01*
X68168894Y74919216D01*
X68259181Y74784093D01*
X68374093Y74669181D01*
X68509216Y74578894D01*
X68659356Y74516704D01*
X68818745Y74485000D01*
X68981255Y74485000D01*
X69140644Y74516704D01*
X69290784Y74578894D01*
X69425907Y74669181D01*
X69540819Y74784093D01*
X69631106Y74919216D01*
X69693296Y75069356D01*
X69725000Y75228745D01*
X69725000Y75391255D01*
X69693296Y75550644D01*
X69631106Y75700784D01*
X69540819Y75835907D01*
X69425907Y75950819D01*
X69290784Y76041106D01*
X69140644Y76103296D01*
X68981255Y76135000D01*
X68818745Y76135000D01*
X68659356Y76103296D01*
X68509216Y76041106D01*
X68374093Y75950819D01*
X68259181Y75835907D01*
X68168894Y75700784D01*
X68106704Y75550644D01*
X68075000Y75391255D01*
X12525032Y75391255D01*
X12662255Y75448095D01*
X12856668Y75577997D01*
X13022003Y75743332D01*
X13151905Y75937745D01*
X13241384Y76153765D01*
X13287000Y76383091D01*
X13287000Y76616909D01*
X13241384Y76846235D01*
X13151905Y77062255D01*
X13022003Y77256668D01*
X12856668Y77422003D01*
X12739937Y77500000D01*
X12856668Y77577997D01*
X13022003Y77743332D01*
X13114159Y77881255D01*
X64495000Y77881255D01*
X64495000Y77718745D01*
X64526704Y77559356D01*
X64588894Y77409216D01*
X64679181Y77274093D01*
X64794093Y77159181D01*
X64880180Y77101659D01*
X64804093Y77050819D01*
X64689181Y76935907D01*
X64598894Y76800784D01*
X64536704Y76650644D01*
X64505000Y76491255D01*
X64505000Y76328745D01*
X64536704Y76169356D01*
X64598894Y76019216D01*
X64689181Y75884093D01*
X64804093Y75769181D01*
X64939216Y75678894D01*
X65089356Y75616704D01*
X65248745Y75585000D01*
X65411255Y75585000D01*
X65570644Y75616704D01*
X65720784Y75678894D01*
X65855907Y75769181D01*
X65970819Y75884093D01*
X66061106Y76019216D01*
X66123296Y76169356D01*
X66155000Y76328745D01*
X66155000Y76491255D01*
X66123296Y76650644D01*
X66061106Y76800784D01*
X65970819Y76935907D01*
X65855907Y77050819D01*
X65769820Y77108341D01*
X65845907Y77159181D01*
X65960819Y77274093D01*
X66051106Y77409216D01*
X66113296Y77559356D01*
X66145000Y77718745D01*
X66145000Y77881255D01*
X66113296Y78040644D01*
X66051106Y78190784D01*
X65960819Y78325907D01*
X65845907Y78440819D01*
X65710784Y78531106D01*
X65665655Y78549799D01*
X65750644Y78566704D01*
X65900784Y78628894D01*
X66035907Y78719181D01*
X66150819Y78834093D01*
X66241106Y78969216D01*
X66303296Y79119356D01*
X66335000Y79278745D01*
X66335000Y79380935D01*
X66450784Y79428894D01*
X66585907Y79519181D01*
X66700819Y79634093D01*
X66791106Y79769216D01*
X66853296Y79919356D01*
X66885000Y80078745D01*
X66885000Y80241255D01*
X66853296Y80400644D01*
X66791106Y80550784D01*
X66700819Y80685907D01*
X66585907Y80800819D01*
X66450784Y80891106D01*
X66300644Y80953296D01*
X66141255Y80985000D01*
X65978745Y80985000D01*
X65819356Y80953296D01*
X65669216Y80891106D01*
X65534093Y80800819D01*
X65419181Y80685907D01*
X65328894Y80550784D01*
X65266704Y80400644D01*
X65235000Y80241255D01*
X65235000Y80139065D01*
X65119216Y80091106D01*
X64984093Y80000819D01*
X64869181Y79885907D01*
X64778894Y79750784D01*
X64716704Y79600644D01*
X64685000Y79441255D01*
X64685000Y79278745D01*
X64716704Y79119356D01*
X64778894Y78969216D01*
X64869181Y78834093D01*
X64984093Y78719181D01*
X65119216Y78628894D01*
X65164345Y78610201D01*
X65079356Y78593296D01*
X64929216Y78531106D01*
X64794093Y78440819D01*
X64679181Y78325907D01*
X64588894Y78190784D01*
X64526704Y78040644D01*
X64495000Y77881255D01*
X13114159Y77881255D01*
X13151905Y77937745D01*
X13241384Y78153765D01*
X13287000Y78383091D01*
X13287000Y78616909D01*
X13241384Y78846235D01*
X13151905Y79062255D01*
X13022003Y79256668D01*
X12856668Y79422003D01*
X12739937Y79500000D01*
X12856668Y79577997D01*
X13022003Y79743332D01*
X13151905Y79937745D01*
X13178211Y80001255D01*
X20705000Y80001255D01*
X20705000Y79838745D01*
X20736704Y79679356D01*
X20798894Y79529216D01*
X20889181Y79394093D01*
X21004093Y79279181D01*
X21139216Y79188894D01*
X21289356Y79126704D01*
X21448745Y79095000D01*
X21611255Y79095000D01*
X21770644Y79126704D01*
X21920784Y79188894D01*
X22055907Y79279181D01*
X22170819Y79394093D01*
X22261106Y79529216D01*
X22323296Y79679356D01*
X22355000Y79838745D01*
X22355000Y80001255D01*
X22323296Y80160644D01*
X22261106Y80310784D01*
X22170819Y80445907D01*
X22055907Y80560819D01*
X21920784Y80651106D01*
X21770644Y80713296D01*
X21611255Y80745000D01*
X21448745Y80745000D01*
X21289356Y80713296D01*
X21139216Y80651106D01*
X21004093Y80560819D01*
X20889181Y80445907D01*
X20798894Y80310784D01*
X20736704Y80160644D01*
X20705000Y80001255D01*
X13178211Y80001255D01*
X13241384Y80153765D01*
X13287000Y80383091D01*
X13287000Y80616909D01*
X13241384Y80846235D01*
X13151905Y81062255D01*
X13022003Y81256668D01*
X12856668Y81422003D01*
X12739937Y81500000D01*
X12856668Y81577997D01*
X13022003Y81743332D01*
X13147568Y81931255D01*
X20715000Y81931255D01*
X20715000Y81768745D01*
X20746704Y81609356D01*
X20808894Y81459216D01*
X20899181Y81324093D01*
X21014093Y81209181D01*
X21149216Y81118894D01*
X21299356Y81056704D01*
X21458745Y81025000D01*
X21621255Y81025000D01*
X21780644Y81056704D01*
X21930784Y81118894D01*
X22065907Y81209181D01*
X22180819Y81324093D01*
X22219013Y81381255D01*
X23345000Y81381255D01*
X23345000Y81218745D01*
X23376704Y81059356D01*
X23438894Y80909216D01*
X23529181Y80774093D01*
X23644093Y80659181D01*
X23779216Y80568894D01*
X23929356Y80506704D01*
X24088745Y80475000D01*
X24251255Y80475000D01*
X24410644Y80506704D01*
X24560784Y80568894D01*
X24695907Y80659181D01*
X24810819Y80774093D01*
X24901106Y80909216D01*
X24963296Y81059356D01*
X24995000Y81218745D01*
X24995000Y81381255D01*
X24963296Y81540644D01*
X24901106Y81690784D01*
X24810819Y81825907D01*
X24695907Y81940819D01*
X24560784Y82031106D01*
X24410644Y82093296D01*
X24251255Y82125000D01*
X24088745Y82125000D01*
X23929356Y82093296D01*
X23779216Y82031106D01*
X23644093Y81940819D01*
X23529181Y81825907D01*
X23438894Y81690784D01*
X23376704Y81540644D01*
X23345000Y81381255D01*
X22219013Y81381255D01*
X22271106Y81459216D01*
X22333296Y81609356D01*
X22365000Y81768745D01*
X22365000Y81931255D01*
X22333296Y82090644D01*
X22271106Y82240784D01*
X22180819Y82375907D01*
X22065907Y82490819D01*
X21930784Y82581106D01*
X21780644Y82643296D01*
X21621255Y82675000D01*
X21458745Y82675000D01*
X21299356Y82643296D01*
X21149216Y82581106D01*
X21014093Y82490819D01*
X20899181Y82375907D01*
X20808894Y82240784D01*
X20746704Y82090644D01*
X20715000Y81931255D01*
X13147568Y81931255D01*
X13151905Y81937745D01*
X13241384Y82153765D01*
X13287000Y82383091D01*
X13287000Y82616909D01*
X13241384Y82846235D01*
X13151905Y83062255D01*
X13022003Y83256668D01*
X12856668Y83422003D01*
X12852553Y83424752D01*
X12883327Y83534240D01*
X12100000Y84317566D01*
X11316673Y83534240D01*
X11347447Y83424752D01*
X11343332Y83422003D01*
X11177997Y83256668D01*
X11048095Y83062255D01*
X10958616Y82846235D01*
X10913000Y82616909D01*
X725000Y82616909D01*
X725000Y84364367D01*
X1146800Y84364367D01*
X1242852Y84100768D01*
X1532298Y83960432D01*
X1843561Y83879261D01*
X2164680Y83860374D01*
X2483312Y83904498D01*
X2787214Y84009936D01*
X2957148Y84100768D01*
X3053200Y84364367D01*
X2991669Y84425898D01*
X10700210Y84425898D01*
X10741563Y84154236D01*
X10835120Y83895862D01*
X10894949Y83783931D01*
X11134240Y83716673D01*
X11917566Y84500000D01*
X12282434Y84500000D01*
X13065760Y83716673D01*
X13305051Y83783931D01*
X13421595Y84032784D01*
X13487350Y84299593D01*
X13499790Y84574102D01*
X13458437Y84845764D01*
X13364880Y85104138D01*
X13305051Y85216069D01*
X13065760Y85283327D01*
X12282434Y84500000D01*
X11917566Y84500000D01*
X11134240Y85283327D01*
X10894949Y85216069D01*
X10778405Y84967216D01*
X10712650Y84700407D01*
X10700210Y84425898D01*
X2991669Y84425898D01*
X2100000Y85317566D01*
X1146800Y84364367D01*
X725000Y84364367D01*
X725000Y84634022D01*
X964367Y84546800D01*
X1917566Y85500000D01*
X2282434Y85500000D01*
X3235633Y84546800D01*
X3499232Y84642852D01*
X3639568Y84932298D01*
X3720739Y85243561D01*
X3733807Y85465760D01*
X11316673Y85465760D01*
X12100000Y84682434D01*
X12883327Y85465760D01*
X12816069Y85705051D01*
X12567216Y85821595D01*
X12300407Y85887350D01*
X12025898Y85899790D01*
X11754236Y85858437D01*
X11495862Y85764880D01*
X11383931Y85705051D01*
X11316673Y85465760D01*
X3733807Y85465760D01*
X3739626Y85564680D01*
X3695502Y85883312D01*
X3590064Y86187214D01*
X3499232Y86357148D01*
X3235633Y86453200D01*
X2282434Y85500000D01*
X1917566Y85500000D01*
X964367Y86453200D01*
X725000Y86365978D01*
X725000Y86635633D01*
X1146800Y86635633D01*
X2100000Y85682434D01*
X3053200Y86635633D01*
X2957148Y86899232D01*
X2667702Y87039568D01*
X2356439Y87120739D01*
X2035320Y87139626D01*
X1716688Y87095502D01*
X1412786Y86990064D01*
X1242852Y86899232D01*
X1146800Y86635633D01*
X725000Y86635633D01*
X725000Y93150000D01*
X15993937Y93150000D01*
X16006159Y93025910D01*
X16042354Y92906589D01*
X16101133Y92796622D01*
X16180236Y92700236D01*
X16276622Y92621133D01*
X16386589Y92562354D01*
X16505910Y92526159D01*
X16630000Y92513937D01*
X17092750Y92517000D01*
X17251000Y92675250D01*
X17251000Y93771000D01*
X17509000Y93771000D01*
X17509000Y92675250D01*
X17667250Y92517000D01*
X18130000Y92513937D01*
X18254090Y92526159D01*
X18373411Y92562354D01*
X18483378Y92621133D01*
X18579764Y92700236D01*
X18658867Y92796622D01*
X18717646Y92906589D01*
X18753841Y93025910D01*
X18766063Y93150000D01*
X18763000Y93612750D01*
X18604750Y93771000D01*
X17509000Y93771000D01*
X17251000Y93771000D01*
X16155250Y93771000D01*
X15997000Y93612750D01*
X15993937Y93150000D01*
X725000Y93150000D01*
X725000Y94650000D01*
X15993937Y94650000D01*
X15997000Y94187250D01*
X16155250Y94029000D01*
X17251000Y94029000D01*
X17251000Y95124750D01*
X17509000Y95124750D01*
X17509000Y94029000D01*
X18604750Y94029000D01*
X18763000Y94187250D01*
X18766063Y94650000D01*
X18753841Y94774090D01*
X18717646Y94893411D01*
X18658867Y95003378D01*
X18579764Y95099764D01*
X18483378Y95178867D01*
X18373411Y95237646D01*
X18254090Y95273841D01*
X18130000Y95286063D01*
X17667250Y95283000D01*
X17509000Y95124750D01*
X17251000Y95124750D01*
X17092750Y95283000D01*
X16630000Y95286063D01*
X16505910Y95273841D01*
X16386589Y95237646D01*
X16276622Y95178867D01*
X16180236Y95099764D01*
X16101133Y95003378D01*
X16042354Y94893411D01*
X16006159Y94774090D01*
X15993937Y94650000D01*
X725000Y94650000D01*
X725000Y116275000D01*
X80275000Y116275000D01*
X80275001Y29475000D01*
G37*
G04 #@! TD.AperFunction*
M02*
