G04 #@! TF.GenerationSoftware,KiCad,Pcbnew,(5.1.10-1-10_14)*
G04 #@! TF.CreationDate,2021-10-14T15:08:09+02:00*
G04 #@! TF.ProjectId,hi-board,68692d62-6f61-4726-942e-6b696361645f,rev?*
G04 #@! TF.SameCoordinates,Original*
G04 #@! TF.FileFunction,Legend,Bot*
G04 #@! TF.FilePolarity,Positive*
%FSLAX46Y46*%
G04 Gerber Fmt 4.6, Leading zero omitted, Abs format (unit mm)*
G04 Created by KiCad (PCBNEW (5.1.10-1-10_14)) date 2021-10-14 15:08:09*
%MOMM*%
%LPD*%
G01*
G04 APERTURE LIST*
%ADD10C,0.150000*%
%ADD11C,0.010000*%
%ADD12C,0.120000*%
%ADD13C,0.200000*%
%ADD14C,0.127000*%
G04 APERTURE END LIST*
D10*
X33840833Y99907142D02*
X33697976Y99869047D01*
X33650357Y99830952D01*
X33602738Y99754761D01*
X33602738Y99640476D01*
X33650357Y99564285D01*
X33697976Y99526190D01*
X33793214Y99488095D01*
X34174166Y99488095D01*
X34174166Y100288095D01*
X33840833Y100288095D01*
X33745595Y100250000D01*
X33697976Y100211904D01*
X33650357Y100135714D01*
X33650357Y100059523D01*
X33697976Y99983333D01*
X33745595Y99945238D01*
X33840833Y99907142D01*
X34174166Y99907142D01*
X32983690Y100288095D02*
X32793214Y100288095D01*
X32697976Y100250000D01*
X32602738Y100173809D01*
X32555119Y100021428D01*
X32555119Y99754761D01*
X32602738Y99602380D01*
X32697976Y99526190D01*
X32793214Y99488095D01*
X32983690Y99488095D01*
X33078928Y99526190D01*
X33174166Y99602380D01*
X33221785Y99754761D01*
X33221785Y100021428D01*
X33174166Y100173809D01*
X33078928Y100250000D01*
X32983690Y100288095D01*
X32174166Y99716666D02*
X31697976Y99716666D01*
X32269404Y99488095D02*
X31936071Y100288095D01*
X31602738Y99488095D01*
X30697976Y99488095D02*
X31031309Y99869047D01*
X31269404Y99488095D02*
X31269404Y100288095D01*
X30888452Y100288095D01*
X30793214Y100250000D01*
X30745595Y100211904D01*
X30697976Y100135714D01*
X30697976Y100021428D01*
X30745595Y99945238D01*
X30793214Y99907142D01*
X30888452Y99869047D01*
X31269404Y99869047D01*
X30269404Y99488095D02*
X30269404Y100288095D01*
X30031309Y100288095D01*
X29888452Y100250000D01*
X29793214Y100173809D01*
X29745595Y100097619D01*
X29697976Y99945238D01*
X29697976Y99830952D01*
X29745595Y99678571D01*
X29793214Y99602380D01*
X29888452Y99526190D01*
X30031309Y99488095D01*
X30269404Y99488095D01*
X28174166Y99907142D02*
X28031309Y99869047D01*
X27983690Y99830952D01*
X27936071Y99754761D01*
X27936071Y99640476D01*
X27983690Y99564285D01*
X28031309Y99526190D01*
X28126547Y99488095D01*
X28507500Y99488095D01*
X28507500Y100288095D01*
X28174166Y100288095D01*
X28078928Y100250000D01*
X28031309Y100211904D01*
X27983690Y100135714D01*
X27983690Y100059523D01*
X28031309Y99983333D01*
X28078928Y99945238D01*
X28174166Y99907142D01*
X28507500Y99907142D01*
X26745595Y99792857D02*
X25983690Y99792857D01*
X24174166Y99488095D02*
X24507500Y99869047D01*
X24745595Y99488095D02*
X24745595Y100288095D01*
X24364642Y100288095D01*
X24269404Y100250000D01*
X24221785Y100211904D01*
X24174166Y100135714D01*
X24174166Y100021428D01*
X24221785Y99945238D01*
X24269404Y99907142D01*
X24364642Y99869047D01*
X24745595Y99869047D01*
X23745595Y99907142D02*
X23412261Y99907142D01*
X23269404Y99488095D02*
X23745595Y99488095D01*
X23745595Y100288095D01*
X23269404Y100288095D01*
X22983690Y100288095D02*
X22650357Y99488095D01*
X22317023Y100288095D01*
X20697976Y99488095D02*
X21269404Y99488095D01*
X20983690Y99488095D02*
X20983690Y100288095D01*
X21078928Y100173809D01*
X21174166Y100097619D01*
X21269404Y100059523D01*
D11*
G36*
X23228000Y105016000D02*
G01*
X22466000Y105016000D01*
X22466000Y102137333D01*
X23905333Y102137333D01*
X23905333Y102899333D01*
X24582666Y102899333D01*
X24582666Y104254000D01*
X23820666Y104254000D01*
X23820666Y103576667D01*
X23143333Y103576667D01*
X23143333Y104254000D01*
X23820666Y104254000D01*
X24582666Y104254000D01*
X24582666Y105778000D01*
X23228000Y105778000D01*
X23228000Y105016000D01*
G37*
X23228000Y105016000D02*
X22466000Y105016000D01*
X22466000Y102137333D01*
X23905333Y102137333D01*
X23905333Y102899333D01*
X24582666Y102899333D01*
X24582666Y104254000D01*
X23820666Y104254000D01*
X23820666Y103576667D01*
X23143333Y103576667D01*
X23143333Y104254000D01*
X23820666Y104254000D01*
X24582666Y104254000D01*
X24582666Y105778000D01*
X23228000Y105778000D01*
X23228000Y105016000D01*
G36*
X28138666Y104254000D02*
G01*
X30255333Y104254000D01*
X30255333Y105778000D01*
X28138666Y105778000D01*
X28138666Y104254000D01*
G37*
X28138666Y104254000D02*
X30255333Y104254000D01*
X30255333Y105778000D01*
X28138666Y105778000D01*
X28138666Y104254000D01*
G36*
X28138666Y102137333D02*
G01*
X30255333Y102137333D01*
X30255333Y103576667D01*
X28138666Y103576667D01*
X28138666Y102137333D01*
G37*
X28138666Y102137333D02*
X30255333Y102137333D01*
X30255333Y103576667D01*
X28138666Y103576667D01*
X28138666Y102137333D01*
G36*
X40161333Y105016000D02*
G01*
X39399333Y105016000D01*
X39399333Y103576667D01*
X41516000Y103576667D01*
X41516000Y105016000D01*
X40838666Y105016000D01*
X40838666Y105778000D01*
X40161333Y105778000D01*
X40161333Y105016000D01*
G37*
X40161333Y105016000D02*
X39399333Y105016000D01*
X39399333Y103576667D01*
X41516000Y103576667D01*
X41516000Y105016000D01*
X40838666Y105016000D01*
X40838666Y105778000D01*
X40161333Y105778000D01*
X40161333Y105016000D01*
G36*
X50660000Y103576667D02*
G01*
X52776666Y103576667D01*
X52776666Y105778000D01*
X50660000Y105778000D01*
X50660000Y103576667D01*
G37*
X50660000Y103576667D02*
X52776666Y103576667D01*
X52776666Y105778000D01*
X50660000Y105778000D01*
X50660000Y103576667D01*
G36*
X20603333Y100952000D02*
G01*
X60396666Y100952000D01*
X60396666Y106455333D01*
X59888666Y106455333D01*
X59888666Y101460000D01*
X58449333Y101460000D01*
X58449333Y103576667D01*
X55655333Y103576667D01*
X55655333Y104254000D01*
X58449333Y104254000D01*
X58449333Y105778000D01*
X54978000Y105778000D01*
X54978000Y106455333D01*
X54216000Y106455333D01*
X54216000Y101460000D01*
X52776666Y101460000D01*
X52776666Y102899333D01*
X49982666Y102899333D01*
X49982666Y103576667D01*
X49305333Y103576667D01*
X49305333Y105016000D01*
X48628000Y105016000D01*
X48628000Y102899333D01*
X47950666Y102899333D01*
X47950666Y102137333D01*
X47188666Y102137333D01*
X47188666Y101460000D01*
X43717333Y101460000D01*
X43717333Y104254000D01*
X45834000Y104254000D01*
X45834000Y103576667D01*
X45072000Y103576667D01*
X45072000Y102137333D01*
X46511333Y102137333D01*
X46511333Y102899333D01*
X47188666Y102899333D01*
X47188666Y105016000D01*
X46511333Y105016000D01*
X42955333Y105016000D01*
X42955333Y101460000D01*
X41516000Y101460000D01*
X41516000Y102899333D01*
X39399333Y102899333D01*
X39399333Y101460000D01*
X38044666Y101460000D01*
X38044666Y105016000D01*
X38722000Y105016000D01*
X38722000Y105778000D01*
X39399333Y105778000D01*
X39399333Y106455333D01*
X37282666Y106455333D01*
X37282666Y101460000D01*
X35843333Y101460000D01*
X35843333Y104254000D01*
X35166000Y104254000D01*
X35166000Y102899333D01*
X34488666Y102899333D01*
X34488666Y104254000D01*
X33726666Y104254000D01*
X33726666Y101460000D01*
X32372000Y101460000D01*
X32372000Y106455333D01*
X31694666Y106455333D01*
X31694666Y101460000D01*
X27461333Y101460000D01*
X27461333Y102137333D01*
X26784000Y102137333D01*
X26784000Y103576667D01*
X27461333Y103576667D01*
X27461333Y104254000D01*
X26784000Y104254000D01*
X26784000Y105016000D01*
X26022000Y105016000D01*
X26022000Y102899333D01*
X25344666Y102899333D01*
X25344666Y102137333D01*
X24582666Y102137333D01*
X24582666Y101460000D01*
X22466000Y101460000D01*
X22466000Y102137333D01*
X21788666Y102137333D01*
X21788666Y102899333D01*
X21111333Y102899333D01*
X21111333Y105016000D01*
X21788666Y105016000D01*
X21788666Y105693333D01*
X22466000Y105693333D01*
X22466000Y106455333D01*
X24582666Y106455333D01*
X24582666Y105778000D01*
X25344666Y105778000D01*
X25344666Y105016000D01*
X26022000Y105016000D01*
X26784000Y105016000D01*
X26784000Y105693333D01*
X27461333Y105693333D01*
X27461333Y106455333D01*
X31694666Y106455333D01*
X32372000Y106455333D01*
X33726666Y106455333D01*
X33726666Y105693333D01*
X34488666Y105693333D01*
X34488666Y105016000D01*
X35166000Y105016000D01*
X35166000Y105693333D01*
X35843333Y105693333D01*
X35843333Y106455333D01*
X37282666Y106455333D01*
X39399333Y106455333D01*
X41516000Y106455333D01*
X41516000Y105778000D01*
X42278000Y105778000D01*
X42278000Y105016000D01*
X42955333Y105016000D01*
X46511333Y105016000D01*
X46511333Y105778000D01*
X43717333Y105778000D01*
X43717333Y106455333D01*
X47188666Y106455333D01*
X47188666Y105693333D01*
X47950666Y105693333D01*
X47950666Y105016000D01*
X48628000Y105016000D01*
X49305333Y105016000D01*
X49305333Y105693333D01*
X49982666Y105693333D01*
X49982666Y106455333D01*
X54216000Y106455333D01*
X54978000Y106455333D01*
X59888666Y106455333D01*
X60396666Y106455333D01*
X60396666Y106963333D01*
X20603333Y106963333D01*
X20603333Y100952000D01*
G37*
X20603333Y100952000D02*
X60396666Y100952000D01*
X60396666Y106455333D01*
X59888666Y106455333D01*
X59888666Y101460000D01*
X58449333Y101460000D01*
X58449333Y103576667D01*
X55655333Y103576667D01*
X55655333Y104254000D01*
X58449333Y104254000D01*
X58449333Y105778000D01*
X54978000Y105778000D01*
X54978000Y106455333D01*
X54216000Y106455333D01*
X54216000Y101460000D01*
X52776666Y101460000D01*
X52776666Y102899333D01*
X49982666Y102899333D01*
X49982666Y103576667D01*
X49305333Y103576667D01*
X49305333Y105016000D01*
X48628000Y105016000D01*
X48628000Y102899333D01*
X47950666Y102899333D01*
X47950666Y102137333D01*
X47188666Y102137333D01*
X47188666Y101460000D01*
X43717333Y101460000D01*
X43717333Y104254000D01*
X45834000Y104254000D01*
X45834000Y103576667D01*
X45072000Y103576667D01*
X45072000Y102137333D01*
X46511333Y102137333D01*
X46511333Y102899333D01*
X47188666Y102899333D01*
X47188666Y105016000D01*
X46511333Y105016000D01*
X42955333Y105016000D01*
X42955333Y101460000D01*
X41516000Y101460000D01*
X41516000Y102899333D01*
X39399333Y102899333D01*
X39399333Y101460000D01*
X38044666Y101460000D01*
X38044666Y105016000D01*
X38722000Y105016000D01*
X38722000Y105778000D01*
X39399333Y105778000D01*
X39399333Y106455333D01*
X37282666Y106455333D01*
X37282666Y101460000D01*
X35843333Y101460000D01*
X35843333Y104254000D01*
X35166000Y104254000D01*
X35166000Y102899333D01*
X34488666Y102899333D01*
X34488666Y104254000D01*
X33726666Y104254000D01*
X33726666Y101460000D01*
X32372000Y101460000D01*
X32372000Y106455333D01*
X31694666Y106455333D01*
X31694666Y101460000D01*
X27461333Y101460000D01*
X27461333Y102137333D01*
X26784000Y102137333D01*
X26784000Y103576667D01*
X27461333Y103576667D01*
X27461333Y104254000D01*
X26784000Y104254000D01*
X26784000Y105016000D01*
X26022000Y105016000D01*
X26022000Y102899333D01*
X25344666Y102899333D01*
X25344666Y102137333D01*
X24582666Y102137333D01*
X24582666Y101460000D01*
X22466000Y101460000D01*
X22466000Y102137333D01*
X21788666Y102137333D01*
X21788666Y102899333D01*
X21111333Y102899333D01*
X21111333Y105016000D01*
X21788666Y105016000D01*
X21788666Y105693333D01*
X22466000Y105693333D01*
X22466000Y106455333D01*
X24582666Y106455333D01*
X24582666Y105778000D01*
X25344666Y105778000D01*
X25344666Y105016000D01*
X26022000Y105016000D01*
X26784000Y105016000D01*
X26784000Y105693333D01*
X27461333Y105693333D01*
X27461333Y106455333D01*
X31694666Y106455333D01*
X32372000Y106455333D01*
X33726666Y106455333D01*
X33726666Y105693333D01*
X34488666Y105693333D01*
X34488666Y105016000D01*
X35166000Y105016000D01*
X35166000Y105693333D01*
X35843333Y105693333D01*
X35843333Y106455333D01*
X37282666Y106455333D01*
X39399333Y106455333D01*
X41516000Y106455333D01*
X41516000Y105778000D01*
X42278000Y105778000D01*
X42278000Y105016000D01*
X42955333Y105016000D01*
X46511333Y105016000D01*
X46511333Y105778000D01*
X43717333Y105778000D01*
X43717333Y106455333D01*
X47188666Y106455333D01*
X47188666Y105693333D01*
X47950666Y105693333D01*
X47950666Y105016000D01*
X48628000Y105016000D01*
X49305333Y105016000D01*
X49305333Y105693333D01*
X49982666Y105693333D01*
X49982666Y106455333D01*
X54216000Y106455333D01*
X54978000Y106455333D01*
X59888666Y106455333D01*
X60396666Y106455333D01*
X60396666Y106963333D01*
X20603333Y106963333D01*
X20603333Y100952000D01*
D12*
X75239420Y33830000D02*
X75520580Y33830000D01*
X75239420Y32810000D02*
X75520580Y32810000D01*
X62620580Y27730000D02*
X62339420Y27730000D01*
X62620580Y26710000D02*
X62339420Y26710000D01*
X67040000Y79579420D02*
X67040000Y79860580D01*
X68060000Y79579420D02*
X68060000Y79860580D01*
X67040000Y76630580D02*
X67040000Y76349420D01*
X68060000Y76630580D02*
X68060000Y76349420D01*
X7350580Y56790000D02*
X7069420Y56790000D01*
X7350580Y57810000D02*
X7069420Y57810000D01*
X8310580Y62700000D02*
X8029420Y62700000D01*
X8310580Y63720000D02*
X8029420Y63720000D01*
X53210000Y61919420D02*
X53210000Y62200580D01*
X54230000Y61919420D02*
X54230000Y62200580D01*
X44820000Y61929420D02*
X44820000Y62210580D01*
X43800000Y61929420D02*
X43800000Y62210580D01*
X34430000Y61919420D02*
X34430000Y62200580D01*
X35450000Y61919420D02*
X35450000Y62200580D01*
X26110000Y61949420D02*
X26110000Y62230580D01*
X25090000Y61949420D02*
X25090000Y62230580D01*
X23580000Y79290580D02*
X23580000Y79009420D01*
X22560000Y79290580D02*
X22560000Y79009420D01*
X24370000Y79310580D02*
X24370000Y79029420D01*
X25390000Y79310580D02*
X25390000Y79029420D01*
X54220000Y57470580D02*
X54220000Y57189420D01*
X53200000Y57470580D02*
X53200000Y57189420D01*
X43820000Y57470580D02*
X43820000Y57189420D01*
X44840000Y57470580D02*
X44840000Y57189420D01*
X34440000Y57470580D02*
X34440000Y57189420D01*
X35460000Y57470580D02*
X35460000Y57189420D01*
X25030000Y57480580D02*
X25030000Y57199420D01*
X26050000Y57480580D02*
X26050000Y57199420D01*
X53160000Y47300000D02*
X54650000Y47300000D01*
X54650000Y47300000D02*
X54650000Y45960000D01*
X27840000Y47300000D02*
X26350000Y47300000D01*
X26350000Y47300000D02*
X26350000Y45960000D01*
X54650000Y43240000D02*
X54650000Y41500000D01*
X54650000Y41500000D02*
X26350000Y41500000D01*
X26350000Y41500000D02*
X26350000Y43240000D01*
X53160000Y47300000D02*
X53160000Y48500000D01*
X73600000Y15670000D02*
X73600000Y14340000D01*
X74930000Y15670000D02*
X73600000Y15670000D01*
X76200000Y15670000D02*
X76200000Y13010000D01*
X76200000Y13010000D02*
X78800000Y13010000D01*
X76200000Y15670000D02*
X78800000Y15670000D01*
X78800000Y15670000D02*
X78800000Y13010000D01*
X70487221Y81070000D02*
X70812779Y81070000D01*
X70487221Y80050000D02*
X70812779Y80050000D01*
X73467500Y35792742D02*
X73467500Y36267258D01*
X74512500Y35792742D02*
X74512500Y36267258D01*
X75607500Y35782742D02*
X75607500Y36257258D01*
X76652500Y35782742D02*
X76652500Y36257258D01*
X73512742Y30112500D02*
X73987258Y30112500D01*
X73512742Y29067500D02*
X73987258Y29067500D01*
X75172742Y32022500D02*
X75647258Y32022500D01*
X75172742Y30977500D02*
X75647258Y30977500D01*
X62232742Y24927500D02*
X62707258Y24927500D01*
X62232742Y25972500D02*
X62707258Y25972500D01*
X18917258Y85067500D02*
X18442742Y85067500D01*
X18917258Y86112500D02*
X18442742Y86112500D01*
X70792742Y75302500D02*
X71267258Y75302500D01*
X70792742Y74257500D02*
X71267258Y74257500D01*
X71267258Y73462500D02*
X70792742Y73462500D01*
X71267258Y72417500D02*
X70792742Y72417500D01*
X21707258Y37882500D02*
X21232742Y37882500D01*
X21707258Y36837500D02*
X21232742Y36837500D01*
X68002742Y36197500D02*
X68477258Y36197500D01*
X68002742Y37242500D02*
X68477258Y37242500D01*
X22557258Y21322500D02*
X22082742Y21322500D01*
X22557258Y20277500D02*
X22082742Y20277500D01*
X58632742Y31512500D02*
X59107258Y31512500D01*
X58632742Y30467500D02*
X59107258Y30467500D01*
X13687258Y28042500D02*
X13212742Y28042500D01*
X13687258Y26997500D02*
X13212742Y26997500D01*
X47887258Y13462500D02*
X47412742Y13462500D01*
X47887258Y12417500D02*
X47412742Y12417500D01*
X29902258Y29662500D02*
X29427742Y29662500D01*
X29902258Y28617500D02*
X29427742Y28617500D01*
X36327258Y13487500D02*
X35852742Y13487500D01*
X36327258Y14532500D02*
X35852742Y14532500D01*
X17357500Y82612742D02*
X17357500Y83087258D01*
X18402500Y82612742D02*
X18402500Y83087258D01*
X7100000Y72500000D02*
G75*
G03*
X7100000Y88500000I0J8000000D01*
G01*
X68050000Y31550000D02*
X71050000Y31550000D01*
X67050000Y28310000D02*
X69050000Y28310000D01*
D13*
X24850000Y81450000D02*
G75*
G03*
X24850000Y81450000I-100000J0D01*
G01*
D14*
X23050000Y82550000D02*
X25250000Y82550000D01*
X23050000Y86200000D02*
X23050000Y82550000D01*
X57950000Y82550000D02*
X55750000Y82550000D01*
X57950000Y86200000D02*
X57950000Y82550000D01*
X23050000Y89050000D02*
X57950000Y89050000D01*
D12*
X69684999Y79254999D02*
X72134999Y79254999D01*
X71484999Y76034999D02*
X69684999Y76034999D01*
X9550000Y59450000D02*
X9550000Y60910000D01*
X6390000Y59450000D02*
X6390000Y61610000D01*
X6390000Y59450000D02*
X7320000Y59450000D01*
X9550000Y59450000D02*
X8620000Y59450000D01*
X52525000Y59700000D02*
X52525000Y56100000D01*
X52525000Y59700000D02*
X52525000Y61900000D01*
X45755000Y59700000D02*
X45755000Y57500000D01*
X45755000Y59700000D02*
X45755000Y61900000D01*
X36435000Y59700000D02*
X36435000Y61900000D01*
X36435000Y59700000D02*
X36435000Y57500000D01*
X43205000Y59700000D02*
X43205000Y61900000D01*
X43205000Y59700000D02*
X43205000Y56100000D01*
X33825000Y59700000D02*
X33825000Y56100000D01*
X33825000Y59700000D02*
X33825000Y61900000D01*
X27055000Y59700000D02*
X27055000Y57500000D01*
X27055000Y59700000D02*
X27055000Y61900000D01*
X17685000Y59720000D02*
X17685000Y61920000D01*
X17685000Y59720000D02*
X17685000Y57520000D01*
X24455000Y59720000D02*
X24455000Y61920000D01*
X24455000Y59720000D02*
X24455000Y56120000D01*
X68290000Y23138748D02*
X68290000Y24561252D01*
X71010000Y23138748D02*
X71010000Y24561252D01*
X67190000Y23158748D02*
X67190000Y24581252D01*
X64470000Y23158748D02*
X64470000Y24581252D01*
X71990000Y23138748D02*
X71990000Y24561252D01*
X74710000Y23138748D02*
X74710000Y24561252D01*
X54441252Y52530000D02*
X53018748Y52530000D01*
X54441252Y49810000D02*
X53018748Y49810000D01*
X16430000Y92950000D02*
X18330000Y92950000D01*
X18330000Y92950000D02*
X18330000Y94850000D01*
X18330000Y94850000D02*
X16430000Y94850000D01*
X16430000Y94850000D02*
X16430000Y92950000D01*
X5510000Y48490000D02*
X7410000Y48490000D01*
X7410000Y48490000D02*
X7410000Y50390000D01*
X7410000Y50390000D02*
X5510000Y50390000D01*
X5510000Y50390000D02*
X5510000Y48490000D01*
X53720000Y72460000D02*
X53720000Y70560000D01*
X55620000Y72460000D02*
X53720000Y72460000D01*
X55620000Y70560000D02*
X55620000Y72460000D01*
X53720000Y70560000D02*
X55620000Y70560000D01*
X13850000Y44080000D02*
X15250000Y44080000D01*
X15250000Y44080000D02*
X15250000Y45480000D01*
X15250000Y45480000D02*
X13850000Y45480000D01*
X13850000Y45480000D02*
X13850000Y44080000D01*
X13540000Y62520000D02*
X14940000Y62520000D01*
X14940000Y62520000D02*
X14940000Y63920000D01*
X14940000Y63920000D02*
X13540000Y63920000D01*
X13540000Y63920000D02*
X13540000Y62520000D01*
X13630000Y58280000D02*
X13630000Y56880000D01*
X15030000Y58280000D02*
X13630000Y58280000D01*
X15030000Y56880000D02*
X15030000Y58280000D01*
X13630000Y56880000D02*
X15030000Y56880000D01*
X71770000Y60640000D02*
X71770000Y59240000D01*
X73170000Y60640000D02*
X71770000Y60640000D01*
X73170000Y59240000D02*
X73170000Y60640000D01*
X71770000Y59240000D02*
X73170000Y59240000D01*
D10*
X78116666Y32872857D02*
X78164285Y32825238D01*
X78307142Y32777619D01*
X78402380Y32777619D01*
X78545238Y32825238D01*
X78640476Y32920476D01*
X78688095Y33015714D01*
X78735714Y33206190D01*
X78735714Y33349047D01*
X78688095Y33539523D01*
X78640476Y33634761D01*
X78545238Y33730000D01*
X78402380Y33777619D01*
X78307142Y33777619D01*
X78164285Y33730000D01*
X78116666Y33682380D01*
X77735714Y33682380D02*
X77688095Y33730000D01*
X77592857Y33777619D01*
X77354761Y33777619D01*
X77259523Y33730000D01*
X77211904Y33682380D01*
X77164285Y33587142D01*
X77164285Y33491904D01*
X77211904Y33349047D01*
X77783333Y32777619D01*
X77164285Y32777619D01*
X62646666Y28292857D02*
X62694285Y28245238D01*
X62837142Y28197619D01*
X62932380Y28197619D01*
X63075238Y28245238D01*
X63170476Y28340476D01*
X63218095Y28435714D01*
X63265714Y28626190D01*
X63265714Y28769047D01*
X63218095Y28959523D01*
X63170476Y29054761D01*
X63075238Y29150000D01*
X62932380Y29197619D01*
X62837142Y29197619D01*
X62694285Y29150000D01*
X62646666Y29102380D01*
X62313333Y29197619D02*
X61694285Y29197619D01*
X62027619Y28816666D01*
X61884761Y28816666D01*
X61789523Y28769047D01*
X61741904Y28721428D01*
X61694285Y28626190D01*
X61694285Y28388095D01*
X61741904Y28292857D01*
X61789523Y28245238D01*
X61884761Y28197619D01*
X62170476Y28197619D01*
X62265714Y28245238D01*
X62313333Y28292857D01*
X66547142Y79946666D02*
X66594761Y79994285D01*
X66642380Y80137142D01*
X66642380Y80232380D01*
X66594761Y80375238D01*
X66499523Y80470476D01*
X66404285Y80518095D01*
X66213809Y80565714D01*
X66070952Y80565714D01*
X65880476Y80518095D01*
X65785238Y80470476D01*
X65690000Y80375238D01*
X65642380Y80232380D01*
X65642380Y80137142D01*
X65690000Y79994285D01*
X65737619Y79946666D01*
X65975714Y79089523D02*
X66642380Y79089523D01*
X65594761Y79327619D02*
X66309047Y79565714D01*
X66309047Y78946666D01*
X66477142Y76656666D02*
X66524761Y76704285D01*
X66572380Y76847142D01*
X66572380Y76942380D01*
X66524761Y77085238D01*
X66429523Y77180476D01*
X66334285Y77228095D01*
X66143809Y77275714D01*
X66000952Y77275714D01*
X65810476Y77228095D01*
X65715238Y77180476D01*
X65620000Y77085238D01*
X65572380Y76942380D01*
X65572380Y76847142D01*
X65620000Y76704285D01*
X65667619Y76656666D01*
X65572380Y75751904D02*
X65572380Y76228095D01*
X66048571Y76275714D01*
X66000952Y76228095D01*
X65953333Y76132857D01*
X65953333Y75894761D01*
X66000952Y75799523D01*
X66048571Y75751904D01*
X66143809Y75704285D01*
X66381904Y75704285D01*
X66477142Y75751904D01*
X66524761Y75799523D01*
X66572380Y75894761D01*
X66572380Y76132857D01*
X66524761Y76228095D01*
X66477142Y76275714D01*
X7496666Y55352857D02*
X7544285Y55305238D01*
X7687142Y55257619D01*
X7782380Y55257619D01*
X7925238Y55305238D01*
X8020476Y55400476D01*
X8068095Y55495714D01*
X8115714Y55686190D01*
X8115714Y55829047D01*
X8068095Y56019523D01*
X8020476Y56114761D01*
X7925238Y56210000D01*
X7782380Y56257619D01*
X7687142Y56257619D01*
X7544285Y56210000D01*
X7496666Y56162380D01*
X6639523Y56257619D02*
X6830000Y56257619D01*
X6925238Y56210000D01*
X6972857Y56162380D01*
X7068095Y56019523D01*
X7115714Y55829047D01*
X7115714Y55448095D01*
X7068095Y55352857D01*
X7020476Y55305238D01*
X6925238Y55257619D01*
X6734761Y55257619D01*
X6639523Y55305238D01*
X6591904Y55352857D01*
X6544285Y55448095D01*
X6544285Y55686190D01*
X6591904Y55781428D01*
X6639523Y55829047D01*
X6734761Y55876666D01*
X6925238Y55876666D01*
X7020476Y55829047D01*
X7068095Y55781428D01*
X7115714Y55686190D01*
X8336666Y64282857D02*
X8384285Y64235238D01*
X8527142Y64187619D01*
X8622380Y64187619D01*
X8765238Y64235238D01*
X8860476Y64330476D01*
X8908095Y64425714D01*
X8955714Y64616190D01*
X8955714Y64759047D01*
X8908095Y64949523D01*
X8860476Y65044761D01*
X8765238Y65140000D01*
X8622380Y65187619D01*
X8527142Y65187619D01*
X8384285Y65140000D01*
X8336666Y65092380D01*
X8003333Y65187619D02*
X7336666Y65187619D01*
X7765238Y64187619D01*
X53956666Y63842857D02*
X54004285Y63795238D01*
X54147142Y63747619D01*
X54242380Y63747619D01*
X54385238Y63795238D01*
X54480476Y63890476D01*
X54528095Y63985714D01*
X54575714Y64176190D01*
X54575714Y64319047D01*
X54528095Y64509523D01*
X54480476Y64604761D01*
X54385238Y64700000D01*
X54242380Y64747619D01*
X54147142Y64747619D01*
X54004285Y64700000D01*
X53956666Y64652380D01*
X53385238Y64319047D02*
X53480476Y64366666D01*
X53528095Y64414285D01*
X53575714Y64509523D01*
X53575714Y64557142D01*
X53528095Y64652380D01*
X53480476Y64700000D01*
X53385238Y64747619D01*
X53194761Y64747619D01*
X53099523Y64700000D01*
X53051904Y64652380D01*
X53004285Y64557142D01*
X53004285Y64509523D01*
X53051904Y64414285D01*
X53099523Y64366666D01*
X53194761Y64319047D01*
X53385238Y64319047D01*
X53480476Y64271428D01*
X53528095Y64223809D01*
X53575714Y64128571D01*
X53575714Y63938095D01*
X53528095Y63842857D01*
X53480476Y63795238D01*
X53385238Y63747619D01*
X53194761Y63747619D01*
X53099523Y63795238D01*
X53051904Y63842857D01*
X53004285Y63938095D01*
X53004285Y64128571D01*
X53051904Y64223809D01*
X53099523Y64271428D01*
X53194761Y64319047D01*
X44506666Y63922857D02*
X44554285Y63875238D01*
X44697142Y63827619D01*
X44792380Y63827619D01*
X44935238Y63875238D01*
X45030476Y63970476D01*
X45078095Y64065714D01*
X45125714Y64256190D01*
X45125714Y64399047D01*
X45078095Y64589523D01*
X45030476Y64684761D01*
X44935238Y64780000D01*
X44792380Y64827619D01*
X44697142Y64827619D01*
X44554285Y64780000D01*
X44506666Y64732380D01*
X44030476Y63827619D02*
X43840000Y63827619D01*
X43744761Y63875238D01*
X43697142Y63922857D01*
X43601904Y64065714D01*
X43554285Y64256190D01*
X43554285Y64637142D01*
X43601904Y64732380D01*
X43649523Y64780000D01*
X43744761Y64827619D01*
X43935238Y64827619D01*
X44030476Y64780000D01*
X44078095Y64732380D01*
X44125714Y64637142D01*
X44125714Y64399047D01*
X44078095Y64303809D01*
X44030476Y64256190D01*
X43935238Y64208571D01*
X43744761Y64208571D01*
X43649523Y64256190D01*
X43601904Y64303809D01*
X43554285Y64399047D01*
X35632857Y63962857D02*
X35680476Y63915238D01*
X35823333Y63867619D01*
X35918571Y63867619D01*
X36061428Y63915238D01*
X36156666Y64010476D01*
X36204285Y64105714D01*
X36251904Y64296190D01*
X36251904Y64439047D01*
X36204285Y64629523D01*
X36156666Y64724761D01*
X36061428Y64820000D01*
X35918571Y64867619D01*
X35823333Y64867619D01*
X35680476Y64820000D01*
X35632857Y64772380D01*
X34680476Y63867619D02*
X35251904Y63867619D01*
X34966190Y63867619D02*
X34966190Y64867619D01*
X35061428Y64724761D01*
X35156666Y64629523D01*
X35251904Y64581904D01*
X34061428Y64867619D02*
X33966190Y64867619D01*
X33870952Y64820000D01*
X33823333Y64772380D01*
X33775714Y64677142D01*
X33728095Y64486666D01*
X33728095Y64248571D01*
X33775714Y64058095D01*
X33823333Y63962857D01*
X33870952Y63915238D01*
X33966190Y63867619D01*
X34061428Y63867619D01*
X34156666Y63915238D01*
X34204285Y63962857D01*
X34251904Y64058095D01*
X34299523Y64248571D01*
X34299523Y64486666D01*
X34251904Y64677142D01*
X34204285Y64772380D01*
X34156666Y64820000D01*
X34061428Y64867619D01*
X26242857Y63932857D02*
X26290476Y63885238D01*
X26433333Y63837619D01*
X26528571Y63837619D01*
X26671428Y63885238D01*
X26766666Y63980476D01*
X26814285Y64075714D01*
X26861904Y64266190D01*
X26861904Y64409047D01*
X26814285Y64599523D01*
X26766666Y64694761D01*
X26671428Y64790000D01*
X26528571Y64837619D01*
X26433333Y64837619D01*
X26290476Y64790000D01*
X26242857Y64742380D01*
X25290476Y63837619D02*
X25861904Y63837619D01*
X25576190Y63837619D02*
X25576190Y64837619D01*
X25671428Y64694761D01*
X25766666Y64599523D01*
X25861904Y64551904D01*
X24338095Y63837619D02*
X24909523Y63837619D01*
X24623809Y63837619D02*
X24623809Y64837619D01*
X24719047Y64694761D01*
X24814285Y64599523D01*
X24909523Y64551904D01*
X21402857Y77962857D02*
X21450476Y77915238D01*
X21593333Y77867619D01*
X21688571Y77867619D01*
X21831428Y77915238D01*
X21926666Y78010476D01*
X21974285Y78105714D01*
X22021904Y78296190D01*
X22021904Y78439047D01*
X21974285Y78629523D01*
X21926666Y78724761D01*
X21831428Y78820000D01*
X21688571Y78867619D01*
X21593333Y78867619D01*
X21450476Y78820000D01*
X21402857Y78772380D01*
X20450476Y77867619D02*
X21021904Y77867619D01*
X20736190Y77867619D02*
X20736190Y78867619D01*
X20831428Y78724761D01*
X20926666Y78629523D01*
X21021904Y78581904D01*
X20069523Y78772380D02*
X20021904Y78820000D01*
X19926666Y78867619D01*
X19688571Y78867619D01*
X19593333Y78820000D01*
X19545714Y78772380D01*
X19498095Y78677142D01*
X19498095Y78581904D01*
X19545714Y78439047D01*
X20117142Y77867619D01*
X19498095Y77867619D01*
X25542857Y76502857D02*
X25590476Y76455238D01*
X25733333Y76407619D01*
X25828571Y76407619D01*
X25971428Y76455238D01*
X26066666Y76550476D01*
X26114285Y76645714D01*
X26161904Y76836190D01*
X26161904Y76979047D01*
X26114285Y77169523D01*
X26066666Y77264761D01*
X25971428Y77360000D01*
X25828571Y77407619D01*
X25733333Y77407619D01*
X25590476Y77360000D01*
X25542857Y77312380D01*
X24590476Y76407619D02*
X25161904Y76407619D01*
X24876190Y76407619D02*
X24876190Y77407619D01*
X24971428Y77264761D01*
X25066666Y77169523D01*
X25161904Y77121904D01*
X24257142Y77407619D02*
X23638095Y77407619D01*
X23971428Y77026666D01*
X23828571Y77026666D01*
X23733333Y76979047D01*
X23685714Y76931428D01*
X23638095Y76836190D01*
X23638095Y76598095D01*
X23685714Y76502857D01*
X23733333Y76455238D01*
X23828571Y76407619D01*
X24114285Y76407619D01*
X24209523Y76455238D01*
X24257142Y76502857D01*
X54432857Y54642857D02*
X54480476Y54595238D01*
X54623333Y54547619D01*
X54718571Y54547619D01*
X54861428Y54595238D01*
X54956666Y54690476D01*
X55004285Y54785714D01*
X55051904Y54976190D01*
X55051904Y55119047D01*
X55004285Y55309523D01*
X54956666Y55404761D01*
X54861428Y55500000D01*
X54718571Y55547619D01*
X54623333Y55547619D01*
X54480476Y55500000D01*
X54432857Y55452380D01*
X53480476Y54547619D02*
X54051904Y54547619D01*
X53766190Y54547619D02*
X53766190Y55547619D01*
X53861428Y55404761D01*
X53956666Y55309523D01*
X54051904Y55261904D01*
X52623333Y55214285D02*
X52623333Y54547619D01*
X52861428Y55595238D02*
X53099523Y54880952D01*
X52480476Y54880952D01*
X45092857Y54672857D02*
X45140476Y54625238D01*
X45283333Y54577619D01*
X45378571Y54577619D01*
X45521428Y54625238D01*
X45616666Y54720476D01*
X45664285Y54815714D01*
X45711904Y55006190D01*
X45711904Y55149047D01*
X45664285Y55339523D01*
X45616666Y55434761D01*
X45521428Y55530000D01*
X45378571Y55577619D01*
X45283333Y55577619D01*
X45140476Y55530000D01*
X45092857Y55482380D01*
X44140476Y54577619D02*
X44711904Y54577619D01*
X44426190Y54577619D02*
X44426190Y55577619D01*
X44521428Y55434761D01*
X44616666Y55339523D01*
X44711904Y55291904D01*
X43235714Y55577619D02*
X43711904Y55577619D01*
X43759523Y55101428D01*
X43711904Y55149047D01*
X43616666Y55196666D01*
X43378571Y55196666D01*
X43283333Y55149047D01*
X43235714Y55101428D01*
X43188095Y55006190D01*
X43188095Y54768095D01*
X43235714Y54672857D01*
X43283333Y54625238D01*
X43378571Y54577619D01*
X43616666Y54577619D01*
X43711904Y54625238D01*
X43759523Y54672857D01*
X35632857Y54632857D02*
X35680476Y54585238D01*
X35823333Y54537619D01*
X35918571Y54537619D01*
X36061428Y54585238D01*
X36156666Y54680476D01*
X36204285Y54775714D01*
X36251904Y54966190D01*
X36251904Y55109047D01*
X36204285Y55299523D01*
X36156666Y55394761D01*
X36061428Y55490000D01*
X35918571Y55537619D01*
X35823333Y55537619D01*
X35680476Y55490000D01*
X35632857Y55442380D01*
X34680476Y54537619D02*
X35251904Y54537619D01*
X34966190Y54537619D02*
X34966190Y55537619D01*
X35061428Y55394761D01*
X35156666Y55299523D01*
X35251904Y55251904D01*
X33823333Y55537619D02*
X34013809Y55537619D01*
X34109047Y55490000D01*
X34156666Y55442380D01*
X34251904Y55299523D01*
X34299523Y55109047D01*
X34299523Y54728095D01*
X34251904Y54632857D01*
X34204285Y54585238D01*
X34109047Y54537619D01*
X33918571Y54537619D01*
X33823333Y54585238D01*
X33775714Y54632857D01*
X33728095Y54728095D01*
X33728095Y54966190D01*
X33775714Y55061428D01*
X33823333Y55109047D01*
X33918571Y55156666D01*
X34109047Y55156666D01*
X34204285Y55109047D01*
X34251904Y55061428D01*
X34299523Y54966190D01*
X26212857Y54662857D02*
X26260476Y54615238D01*
X26403333Y54567619D01*
X26498571Y54567619D01*
X26641428Y54615238D01*
X26736666Y54710476D01*
X26784285Y54805714D01*
X26831904Y54996190D01*
X26831904Y55139047D01*
X26784285Y55329523D01*
X26736666Y55424761D01*
X26641428Y55520000D01*
X26498571Y55567619D01*
X26403333Y55567619D01*
X26260476Y55520000D01*
X26212857Y55472380D01*
X25260476Y54567619D02*
X25831904Y54567619D01*
X25546190Y54567619D02*
X25546190Y55567619D01*
X25641428Y55424761D01*
X25736666Y55329523D01*
X25831904Y55281904D01*
X24927142Y55567619D02*
X24260476Y55567619D01*
X24689047Y54567619D01*
X44833333Y39941428D02*
X44690476Y39893809D01*
X44642857Y39846190D01*
X44595238Y39750952D01*
X44595238Y39608095D01*
X44642857Y39512857D01*
X44690476Y39465238D01*
X44785714Y39417619D01*
X45166666Y39417619D01*
X45166666Y40417619D01*
X44833333Y40417619D01*
X44738095Y40370000D01*
X44690476Y40322380D01*
X44642857Y40227142D01*
X44642857Y40131904D01*
X44690476Y40036666D01*
X44738095Y39989047D01*
X44833333Y39941428D01*
X45166666Y39941428D01*
X43976190Y40417619D02*
X43785714Y40417619D01*
X43690476Y40370000D01*
X43595238Y40274761D01*
X43547619Y40084285D01*
X43547619Y39750952D01*
X43595238Y39560476D01*
X43690476Y39465238D01*
X43785714Y39417619D01*
X43976190Y39417619D01*
X44071428Y39465238D01*
X44166666Y39560476D01*
X44214285Y39750952D01*
X44214285Y40084285D01*
X44166666Y40274761D01*
X44071428Y40370000D01*
X43976190Y40417619D01*
X43166666Y39703333D02*
X42690476Y39703333D01*
X43261904Y39417619D02*
X42928571Y40417619D01*
X42595238Y39417619D01*
X41690476Y39417619D02*
X42023809Y39893809D01*
X42261904Y39417619D02*
X42261904Y40417619D01*
X41880952Y40417619D01*
X41785714Y40370000D01*
X41738095Y40322380D01*
X41690476Y40227142D01*
X41690476Y40084285D01*
X41738095Y39989047D01*
X41785714Y39941428D01*
X41880952Y39893809D01*
X42261904Y39893809D01*
X41261904Y39417619D02*
X41261904Y40417619D01*
X41023809Y40417619D01*
X40880952Y40370000D01*
X40785714Y40274761D01*
X40738095Y40179523D01*
X40690476Y39989047D01*
X40690476Y39846190D01*
X40738095Y39655714D01*
X40785714Y39560476D01*
X40880952Y39465238D01*
X41023809Y39417619D01*
X41261904Y39417619D01*
X38928571Y39512857D02*
X38976190Y39465238D01*
X39119047Y39417619D01*
X39214285Y39417619D01*
X39357142Y39465238D01*
X39452380Y39560476D01*
X39500000Y39655714D01*
X39547619Y39846190D01*
X39547619Y39989047D01*
X39500000Y40179523D01*
X39452380Y40274761D01*
X39357142Y40370000D01*
X39214285Y40417619D01*
X39119047Y40417619D01*
X38976190Y40370000D01*
X38928571Y40322380D01*
X38309523Y40417619D02*
X38119047Y40417619D01*
X38023809Y40370000D01*
X37928571Y40274761D01*
X37880952Y40084285D01*
X37880952Y39750952D01*
X37928571Y39560476D01*
X38023809Y39465238D01*
X38119047Y39417619D01*
X38309523Y39417619D01*
X38404761Y39465238D01*
X38500000Y39560476D01*
X38547619Y39750952D01*
X38547619Y40084285D01*
X38500000Y40274761D01*
X38404761Y40370000D01*
X38309523Y40417619D01*
X37452380Y39417619D02*
X37452380Y40417619D01*
X36880952Y39417619D01*
X36880952Y40417619D01*
X36404761Y39417619D02*
X36404761Y40417619D01*
X35833333Y39417619D01*
X35833333Y40417619D01*
X78701904Y16495238D02*
X78559047Y16447619D01*
X78320952Y16447619D01*
X78225714Y16495238D01*
X78178095Y16542857D01*
X78130476Y16638095D01*
X78130476Y16733333D01*
X78178095Y16828571D01*
X78225714Y16876190D01*
X78320952Y16923809D01*
X78511428Y16971428D01*
X78606666Y17019047D01*
X78654285Y17066666D01*
X78701904Y17161904D01*
X78701904Y17257142D01*
X78654285Y17352380D01*
X78606666Y17400000D01*
X78511428Y17447619D01*
X78273333Y17447619D01*
X78130476Y17400000D01*
X77701904Y17114285D02*
X77701904Y16114285D01*
X77701904Y17066666D02*
X77606666Y17114285D01*
X77416190Y17114285D01*
X77320952Y17066666D01*
X77273333Y17019047D01*
X77225714Y16923809D01*
X77225714Y16638095D01*
X77273333Y16542857D01*
X77320952Y16495238D01*
X77416190Y16447619D01*
X77606666Y16447619D01*
X77701904Y16495238D01*
X76416190Y16495238D02*
X76511428Y16447619D01*
X76701904Y16447619D01*
X76797142Y16495238D01*
X76844761Y16590476D01*
X76844761Y16971428D01*
X76797142Y17066666D01*
X76701904Y17114285D01*
X76511428Y17114285D01*
X76416190Y17066666D01*
X76368571Y16971428D01*
X76368571Y16876190D01*
X76844761Y16780952D01*
X75511428Y16447619D02*
X75511428Y16971428D01*
X75559047Y17066666D01*
X75654285Y17114285D01*
X75844761Y17114285D01*
X75940000Y17066666D01*
X75511428Y16495238D02*
X75606666Y16447619D01*
X75844761Y16447619D01*
X75940000Y16495238D01*
X75987619Y16590476D01*
X75987619Y16685714D01*
X75940000Y16780952D01*
X75844761Y16828571D01*
X75606666Y16828571D01*
X75511428Y16876190D01*
X75035238Y16447619D02*
X75035238Y17447619D01*
X74940000Y16828571D02*
X74654285Y16447619D01*
X74654285Y17114285D02*
X75035238Y16733333D01*
X73844761Y16495238D02*
X73940000Y16447619D01*
X74130476Y16447619D01*
X74225714Y16495238D01*
X74273333Y16590476D01*
X74273333Y16971428D01*
X74225714Y17066666D01*
X74130476Y17114285D01*
X73940000Y17114285D01*
X73844761Y17066666D01*
X73797142Y16971428D01*
X73797142Y16876190D01*
X74273333Y16780952D01*
X73368571Y16447619D02*
X73368571Y17114285D01*
X73368571Y16923809D02*
X73320952Y17019047D01*
X73273333Y17066666D01*
X73178095Y17114285D01*
X73082857Y17114285D01*
X70716666Y81577619D02*
X71192857Y81577619D01*
X71192857Y82577619D01*
X69859523Y81577619D02*
X70430952Y81577619D01*
X70145238Y81577619D02*
X70145238Y82577619D01*
X70240476Y82434761D01*
X70335714Y82339523D01*
X70430952Y82291904D01*
X72912380Y36176666D02*
X72436190Y36510000D01*
X72912380Y36748095D02*
X71912380Y36748095D01*
X71912380Y36367142D01*
X71960000Y36271904D01*
X72007619Y36224285D01*
X72102857Y36176666D01*
X72245714Y36176666D01*
X72340952Y36224285D01*
X72388571Y36271904D01*
X72436190Y36367142D01*
X72436190Y36748095D01*
X72912380Y35224285D02*
X72912380Y35795714D01*
X72912380Y35510000D02*
X71912380Y35510000D01*
X72055238Y35605238D01*
X72150476Y35700476D01*
X72198095Y35795714D01*
X78142380Y36196666D02*
X77666190Y36530000D01*
X78142380Y36768095D02*
X77142380Y36768095D01*
X77142380Y36387142D01*
X77190000Y36291904D01*
X77237619Y36244285D01*
X77332857Y36196666D01*
X77475714Y36196666D01*
X77570952Y36244285D01*
X77618571Y36291904D01*
X77666190Y36387142D01*
X77666190Y36768095D01*
X77237619Y35815714D02*
X77190000Y35768095D01*
X77142380Y35672857D01*
X77142380Y35434761D01*
X77190000Y35339523D01*
X77237619Y35291904D01*
X77332857Y35244285D01*
X77428095Y35244285D01*
X77570952Y35291904D01*
X78142380Y35863333D01*
X78142380Y35244285D01*
X73916666Y27707619D02*
X74250000Y28183809D01*
X74488095Y27707619D02*
X74488095Y28707619D01*
X74107142Y28707619D01*
X74011904Y28660000D01*
X73964285Y28612380D01*
X73916666Y28517142D01*
X73916666Y28374285D01*
X73964285Y28279047D01*
X74011904Y28231428D01*
X74107142Y28183809D01*
X74488095Y28183809D01*
X73583333Y28707619D02*
X72964285Y28707619D01*
X73297619Y28326666D01*
X73154761Y28326666D01*
X73059523Y28279047D01*
X73011904Y28231428D01*
X72964285Y28136190D01*
X72964285Y27898095D01*
X73011904Y27802857D01*
X73059523Y27755238D01*
X73154761Y27707619D01*
X73440476Y27707619D01*
X73535714Y27755238D01*
X73583333Y27802857D01*
X78106666Y31007619D02*
X78440000Y31483809D01*
X78678095Y31007619D02*
X78678095Y32007619D01*
X78297142Y32007619D01*
X78201904Y31960000D01*
X78154285Y31912380D01*
X78106666Y31817142D01*
X78106666Y31674285D01*
X78154285Y31579047D01*
X78201904Y31531428D01*
X78297142Y31483809D01*
X78678095Y31483809D01*
X77249523Y31674285D02*
X77249523Y31007619D01*
X77487619Y32055238D02*
X77725714Y31340952D01*
X77106666Y31340952D01*
X62636666Y23567619D02*
X62970000Y24043809D01*
X63208095Y23567619D02*
X63208095Y24567619D01*
X62827142Y24567619D01*
X62731904Y24520000D01*
X62684285Y24472380D01*
X62636666Y24377142D01*
X62636666Y24234285D01*
X62684285Y24139047D01*
X62731904Y24091428D01*
X62827142Y24043809D01*
X63208095Y24043809D01*
X61731904Y24567619D02*
X62208095Y24567619D01*
X62255714Y24091428D01*
X62208095Y24139047D01*
X62112857Y24186666D01*
X61874761Y24186666D01*
X61779523Y24139047D01*
X61731904Y24091428D01*
X61684285Y23996190D01*
X61684285Y23758095D01*
X61731904Y23662857D01*
X61779523Y23615238D01*
X61874761Y23567619D01*
X62112857Y23567619D01*
X62208095Y23615238D01*
X62255714Y23662857D01*
X18846666Y86567619D02*
X19180000Y87043809D01*
X19418095Y86567619D02*
X19418095Y87567619D01*
X19037142Y87567619D01*
X18941904Y87520000D01*
X18894285Y87472380D01*
X18846666Y87377142D01*
X18846666Y87234285D01*
X18894285Y87139047D01*
X18941904Y87091428D01*
X19037142Y87043809D01*
X19418095Y87043809D01*
X17989523Y87567619D02*
X18180000Y87567619D01*
X18275238Y87520000D01*
X18322857Y87472380D01*
X18418095Y87329523D01*
X18465714Y87139047D01*
X18465714Y86758095D01*
X18418095Y86662857D01*
X18370476Y86615238D01*
X18275238Y86567619D01*
X18084761Y86567619D01*
X17989523Y86615238D01*
X17941904Y86662857D01*
X17894285Y86758095D01*
X17894285Y86996190D01*
X17941904Y87091428D01*
X17989523Y87139047D01*
X18084761Y87186666D01*
X18275238Y87186666D01*
X18370476Y87139047D01*
X18418095Y87091428D01*
X18465714Y86996190D01*
X73746666Y74297619D02*
X74080000Y74773809D01*
X74318095Y74297619D02*
X74318095Y75297619D01*
X73937142Y75297619D01*
X73841904Y75250000D01*
X73794285Y75202380D01*
X73746666Y75107142D01*
X73746666Y74964285D01*
X73794285Y74869047D01*
X73841904Y74821428D01*
X73937142Y74773809D01*
X74318095Y74773809D01*
X73413333Y75297619D02*
X72746666Y75297619D01*
X73175238Y74297619D01*
X73716666Y72487619D02*
X74050000Y72963809D01*
X74288095Y72487619D02*
X74288095Y73487619D01*
X73907142Y73487619D01*
X73811904Y73440000D01*
X73764285Y73392380D01*
X73716666Y73297142D01*
X73716666Y73154285D01*
X73764285Y73059047D01*
X73811904Y73011428D01*
X73907142Y72963809D01*
X74288095Y72963809D01*
X73145238Y73059047D02*
X73240476Y73106666D01*
X73288095Y73154285D01*
X73335714Y73249523D01*
X73335714Y73297142D01*
X73288095Y73392380D01*
X73240476Y73440000D01*
X73145238Y73487619D01*
X72954761Y73487619D01*
X72859523Y73440000D01*
X72811904Y73392380D01*
X72764285Y73297142D01*
X72764285Y73249523D01*
X72811904Y73154285D01*
X72859523Y73106666D01*
X72954761Y73059047D01*
X73145238Y73059047D01*
X73240476Y73011428D01*
X73288095Y72963809D01*
X73335714Y72868571D01*
X73335714Y72678095D01*
X73288095Y72582857D01*
X73240476Y72535238D01*
X73145238Y72487619D01*
X72954761Y72487619D01*
X72859523Y72535238D01*
X72811904Y72582857D01*
X72764285Y72678095D01*
X72764285Y72868571D01*
X72811904Y72963809D01*
X72859523Y73011428D01*
X72954761Y73059047D01*
X21636666Y38337619D02*
X21970000Y38813809D01*
X22208095Y38337619D02*
X22208095Y39337619D01*
X21827142Y39337619D01*
X21731904Y39290000D01*
X21684285Y39242380D01*
X21636666Y39147142D01*
X21636666Y39004285D01*
X21684285Y38909047D01*
X21731904Y38861428D01*
X21827142Y38813809D01*
X22208095Y38813809D01*
X21160476Y38337619D02*
X20970000Y38337619D01*
X20874761Y38385238D01*
X20827142Y38432857D01*
X20731904Y38575714D01*
X20684285Y38766190D01*
X20684285Y39147142D01*
X20731904Y39242380D01*
X20779523Y39290000D01*
X20874761Y39337619D01*
X21065238Y39337619D01*
X21160476Y39290000D01*
X21208095Y39242380D01*
X21255714Y39147142D01*
X21255714Y38909047D01*
X21208095Y38813809D01*
X21160476Y38766190D01*
X21065238Y38718571D01*
X20874761Y38718571D01*
X20779523Y38766190D01*
X20731904Y38813809D01*
X20684285Y38909047D01*
X68882857Y34837619D02*
X69216190Y35313809D01*
X69454285Y34837619D02*
X69454285Y35837619D01*
X69073333Y35837619D01*
X68978095Y35790000D01*
X68930476Y35742380D01*
X68882857Y35647142D01*
X68882857Y35504285D01*
X68930476Y35409047D01*
X68978095Y35361428D01*
X69073333Y35313809D01*
X69454285Y35313809D01*
X67930476Y34837619D02*
X68501904Y34837619D01*
X68216190Y34837619D02*
X68216190Y35837619D01*
X68311428Y35694761D01*
X68406666Y35599523D01*
X68501904Y35551904D01*
X67311428Y35837619D02*
X67216190Y35837619D01*
X67120952Y35790000D01*
X67073333Y35742380D01*
X67025714Y35647142D01*
X66978095Y35456666D01*
X66978095Y35218571D01*
X67025714Y35028095D01*
X67073333Y34932857D01*
X67120952Y34885238D01*
X67216190Y34837619D01*
X67311428Y34837619D01*
X67406666Y34885238D01*
X67454285Y34932857D01*
X67501904Y35028095D01*
X67549523Y35218571D01*
X67549523Y35456666D01*
X67501904Y35647142D01*
X67454285Y35742380D01*
X67406666Y35790000D01*
X67311428Y35837619D01*
X22962857Y21777619D02*
X23296190Y22253809D01*
X23534285Y21777619D02*
X23534285Y22777619D01*
X23153333Y22777619D01*
X23058095Y22730000D01*
X23010476Y22682380D01*
X22962857Y22587142D01*
X22962857Y22444285D01*
X23010476Y22349047D01*
X23058095Y22301428D01*
X23153333Y22253809D01*
X23534285Y22253809D01*
X22010476Y21777619D02*
X22581904Y21777619D01*
X22296190Y21777619D02*
X22296190Y22777619D01*
X22391428Y22634761D01*
X22486666Y22539523D01*
X22581904Y22491904D01*
X21058095Y21777619D02*
X21629523Y21777619D01*
X21343809Y21777619D02*
X21343809Y22777619D01*
X21439047Y22634761D01*
X21534285Y22539523D01*
X21629523Y22491904D01*
X59512857Y29107619D02*
X59846190Y29583809D01*
X60084285Y29107619D02*
X60084285Y30107619D01*
X59703333Y30107619D01*
X59608095Y30060000D01*
X59560476Y30012380D01*
X59512857Y29917142D01*
X59512857Y29774285D01*
X59560476Y29679047D01*
X59608095Y29631428D01*
X59703333Y29583809D01*
X60084285Y29583809D01*
X58560476Y29107619D02*
X59131904Y29107619D01*
X58846190Y29107619D02*
X58846190Y30107619D01*
X58941428Y29964761D01*
X59036666Y29869523D01*
X59131904Y29821904D01*
X58179523Y30012380D02*
X58131904Y30060000D01*
X58036666Y30107619D01*
X57798571Y30107619D01*
X57703333Y30060000D01*
X57655714Y30012380D01*
X57608095Y29917142D01*
X57608095Y29821904D01*
X57655714Y29679047D01*
X58227142Y29107619D01*
X57608095Y29107619D01*
X14092857Y28497619D02*
X14426190Y28973809D01*
X14664285Y28497619D02*
X14664285Y29497619D01*
X14283333Y29497619D01*
X14188095Y29450000D01*
X14140476Y29402380D01*
X14092857Y29307142D01*
X14092857Y29164285D01*
X14140476Y29069047D01*
X14188095Y29021428D01*
X14283333Y28973809D01*
X14664285Y28973809D01*
X13140476Y28497619D02*
X13711904Y28497619D01*
X13426190Y28497619D02*
X13426190Y29497619D01*
X13521428Y29354761D01*
X13616666Y29259523D01*
X13711904Y29211904D01*
X12807142Y29497619D02*
X12188095Y29497619D01*
X12521428Y29116666D01*
X12378571Y29116666D01*
X12283333Y29069047D01*
X12235714Y29021428D01*
X12188095Y28926190D01*
X12188095Y28688095D01*
X12235714Y28592857D01*
X12283333Y28545238D01*
X12378571Y28497619D01*
X12664285Y28497619D01*
X12759523Y28545238D01*
X12807142Y28592857D01*
X48292857Y13917619D02*
X48626190Y14393809D01*
X48864285Y13917619D02*
X48864285Y14917619D01*
X48483333Y14917619D01*
X48388095Y14870000D01*
X48340476Y14822380D01*
X48292857Y14727142D01*
X48292857Y14584285D01*
X48340476Y14489047D01*
X48388095Y14441428D01*
X48483333Y14393809D01*
X48864285Y14393809D01*
X47340476Y13917619D02*
X47911904Y13917619D01*
X47626190Y13917619D02*
X47626190Y14917619D01*
X47721428Y14774761D01*
X47816666Y14679523D01*
X47911904Y14631904D01*
X46483333Y14584285D02*
X46483333Y13917619D01*
X46721428Y14965238D02*
X46959523Y14250952D01*
X46340476Y14250952D01*
X30307857Y30117619D02*
X30641190Y30593809D01*
X30879285Y30117619D02*
X30879285Y31117619D01*
X30498333Y31117619D01*
X30403095Y31070000D01*
X30355476Y31022380D01*
X30307857Y30927142D01*
X30307857Y30784285D01*
X30355476Y30689047D01*
X30403095Y30641428D01*
X30498333Y30593809D01*
X30879285Y30593809D01*
X29355476Y30117619D02*
X29926904Y30117619D01*
X29641190Y30117619D02*
X29641190Y31117619D01*
X29736428Y30974761D01*
X29831666Y30879523D01*
X29926904Y30831904D01*
X28450714Y31117619D02*
X28926904Y31117619D01*
X28974523Y30641428D01*
X28926904Y30689047D01*
X28831666Y30736666D01*
X28593571Y30736666D01*
X28498333Y30689047D01*
X28450714Y30641428D01*
X28403095Y30546190D01*
X28403095Y30308095D01*
X28450714Y30212857D01*
X28498333Y30165238D01*
X28593571Y30117619D01*
X28831666Y30117619D01*
X28926904Y30165238D01*
X28974523Y30212857D01*
X36732857Y14987619D02*
X37066190Y15463809D01*
X37304285Y14987619D02*
X37304285Y15987619D01*
X36923333Y15987619D01*
X36828095Y15940000D01*
X36780476Y15892380D01*
X36732857Y15797142D01*
X36732857Y15654285D01*
X36780476Y15559047D01*
X36828095Y15511428D01*
X36923333Y15463809D01*
X37304285Y15463809D01*
X35780476Y14987619D02*
X36351904Y14987619D01*
X36066190Y14987619D02*
X36066190Y15987619D01*
X36161428Y15844761D01*
X36256666Y15749523D01*
X36351904Y15701904D01*
X34923333Y15987619D02*
X35113809Y15987619D01*
X35209047Y15940000D01*
X35256666Y15892380D01*
X35351904Y15749523D01*
X35399523Y15559047D01*
X35399523Y15178095D01*
X35351904Y15082857D01*
X35304285Y15035238D01*
X35209047Y14987619D01*
X35018571Y14987619D01*
X34923333Y15035238D01*
X34875714Y15082857D01*
X34828095Y15178095D01*
X34828095Y15416190D01*
X34875714Y15511428D01*
X34923333Y15559047D01*
X35018571Y15606666D01*
X35209047Y15606666D01*
X35304285Y15559047D01*
X35351904Y15511428D01*
X35399523Y15416190D01*
X19762380Y83492857D02*
X19286190Y83826190D01*
X19762380Y84064285D02*
X18762380Y84064285D01*
X18762380Y83683333D01*
X18810000Y83588095D01*
X18857619Y83540476D01*
X18952857Y83492857D01*
X19095714Y83492857D01*
X19190952Y83540476D01*
X19238571Y83588095D01*
X19286190Y83683333D01*
X19286190Y84064285D01*
X19762380Y82540476D02*
X19762380Y83111904D01*
X19762380Y82826190D02*
X18762380Y82826190D01*
X18905238Y82921428D01*
X19000476Y83016666D01*
X19048095Y83111904D01*
X18762380Y82207142D02*
X18762380Y81540476D01*
X19762380Y81969047D01*
X14512380Y81105238D02*
X14036190Y81438571D01*
X14512380Y81676666D02*
X13512380Y81676666D01*
X13512380Y81295714D01*
X13560000Y81200476D01*
X13607619Y81152857D01*
X13702857Y81105238D01*
X13845714Y81105238D01*
X13940952Y81152857D01*
X13988571Y81200476D01*
X14036190Y81295714D01*
X14036190Y81676666D01*
X13512380Y80819523D02*
X14512380Y80486190D01*
X13512380Y80152857D01*
X14512380Y79295714D02*
X14512380Y79867142D01*
X14512380Y79581428D02*
X13512380Y79581428D01*
X13655238Y79676666D01*
X13750476Y79771904D01*
X13798095Y79867142D01*
X68811904Y32977619D02*
X68811904Y32168095D01*
X68764285Y32072857D01*
X68716666Y32025238D01*
X68621428Y31977619D01*
X68430952Y31977619D01*
X68335714Y32025238D01*
X68288095Y32072857D01*
X68240476Y32168095D01*
X68240476Y32977619D01*
X67240476Y31977619D02*
X67811904Y31977619D01*
X67526190Y31977619D02*
X67526190Y32977619D01*
X67621428Y32834761D01*
X67716666Y32739523D01*
X67811904Y32691904D01*
X43238095Y89707619D02*
X43238095Y90707619D01*
X43000000Y90707619D01*
X42857142Y90660000D01*
X42761904Y90564761D01*
X42714285Y90469523D01*
X42666666Y90279047D01*
X42666666Y90136190D01*
X42714285Y89945714D01*
X42761904Y89850476D01*
X42857142Y89755238D01*
X43000000Y89707619D01*
X43238095Y89707619D01*
X42238095Y89707619D02*
X42238095Y90707619D01*
X41809523Y89755238D02*
X41666666Y89707619D01*
X41428571Y89707619D01*
X41333333Y89755238D01*
X41285714Y89802857D01*
X41238095Y89898095D01*
X41238095Y89993333D01*
X41285714Y90088571D01*
X41333333Y90136190D01*
X41428571Y90183809D01*
X41619047Y90231428D01*
X41714285Y90279047D01*
X41761904Y90326666D01*
X41809523Y90421904D01*
X41809523Y90517142D01*
X41761904Y90612380D01*
X41714285Y90660000D01*
X41619047Y90707619D01*
X41380952Y90707619D01*
X41238095Y90660000D01*
X40809523Y89707619D02*
X40809523Y90707619D01*
X40428571Y90707619D01*
X40333333Y90660000D01*
X40285714Y90612380D01*
X40238095Y90517142D01*
X40238095Y90374285D01*
X40285714Y90279047D01*
X40333333Y90231428D01*
X40428571Y90183809D01*
X40809523Y90183809D01*
X39333333Y89707619D02*
X39809523Y89707619D01*
X39809523Y90707619D01*
X39047619Y89993333D02*
X38571428Y89993333D01*
X39142857Y89707619D02*
X38809523Y90707619D01*
X38476190Y89707619D01*
X37952380Y90183809D02*
X37952380Y89707619D01*
X38285714Y90707619D02*
X37952380Y90183809D01*
X37619047Y90707619D01*
X74161904Y80557619D02*
X74161904Y79748095D01*
X74114285Y79652857D01*
X74066666Y79605238D01*
X73971428Y79557619D01*
X73780952Y79557619D01*
X73685714Y79605238D01*
X73638095Y79652857D01*
X73590476Y79748095D01*
X73590476Y80557619D01*
X73209523Y80557619D02*
X72590476Y80557619D01*
X72923809Y80176666D01*
X72780952Y80176666D01*
X72685714Y80129047D01*
X72638095Y80081428D01*
X72590476Y79986190D01*
X72590476Y79748095D01*
X72638095Y79652857D01*
X72685714Y79605238D01*
X72780952Y79557619D01*
X73066666Y79557619D01*
X73161904Y79605238D01*
X73209523Y79652857D01*
X4922380Y60971904D02*
X5731904Y60971904D01*
X5827142Y60924285D01*
X5874761Y60876666D01*
X5922380Y60781428D01*
X5922380Y60590952D01*
X5874761Y60495714D01*
X5827142Y60448095D01*
X5731904Y60400476D01*
X4922380Y60400476D01*
X5255714Y59495714D02*
X5922380Y59495714D01*
X4874761Y59733809D02*
X5589047Y59971904D01*
X5589047Y59352857D01*
X53887619Y58938095D02*
X53078095Y58938095D01*
X52982857Y58985714D01*
X52935238Y59033333D01*
X52887619Y59128571D01*
X52887619Y59319047D01*
X52935238Y59414285D01*
X52982857Y59461904D01*
X53078095Y59509523D01*
X53887619Y59509523D01*
X53887619Y60461904D02*
X53887619Y59985714D01*
X53411428Y59938095D01*
X53459047Y59985714D01*
X53506666Y60080952D01*
X53506666Y60319047D01*
X53459047Y60414285D01*
X53411428Y60461904D01*
X53316190Y60509523D01*
X53078095Y60509523D01*
X52982857Y60461904D01*
X52935238Y60414285D01*
X52887619Y60319047D01*
X52887619Y60080952D01*
X52935238Y59985714D01*
X52982857Y59938095D01*
X43472380Y60461904D02*
X44281904Y60461904D01*
X44377142Y60414285D01*
X44424761Y60366666D01*
X44472380Y60271428D01*
X44472380Y60080952D01*
X44424761Y59985714D01*
X44377142Y59938095D01*
X44281904Y59890476D01*
X43472380Y59890476D01*
X43472380Y58985714D02*
X43472380Y59176190D01*
X43520000Y59271428D01*
X43567619Y59319047D01*
X43710476Y59414285D01*
X43900952Y59461904D01*
X44281904Y59461904D01*
X44377142Y59414285D01*
X44424761Y59366666D01*
X44472380Y59271428D01*
X44472380Y59080952D01*
X44424761Y58985714D01*
X44377142Y58938095D01*
X44281904Y58890476D01*
X44043809Y58890476D01*
X43948571Y58938095D01*
X43900952Y58985714D01*
X43853333Y59080952D01*
X43853333Y59271428D01*
X43900952Y59366666D01*
X43948571Y59414285D01*
X44043809Y59461904D01*
X34092380Y60461904D02*
X34901904Y60461904D01*
X34997142Y60414285D01*
X35044761Y60366666D01*
X35092380Y60271428D01*
X35092380Y60080952D01*
X35044761Y59985714D01*
X34997142Y59938095D01*
X34901904Y59890476D01*
X34092380Y59890476D01*
X34092380Y59509523D02*
X34092380Y58842857D01*
X35092380Y59271428D01*
X24722380Y60481904D02*
X25531904Y60481904D01*
X25627142Y60434285D01*
X25674761Y60386666D01*
X25722380Y60291428D01*
X25722380Y60100952D01*
X25674761Y60005714D01*
X25627142Y59958095D01*
X25531904Y59910476D01*
X24722380Y59910476D01*
X25150952Y59291428D02*
X25103333Y59386666D01*
X25055714Y59434285D01*
X24960476Y59481904D01*
X24912857Y59481904D01*
X24817619Y59434285D01*
X24770000Y59386666D01*
X24722380Y59291428D01*
X24722380Y59100952D01*
X24770000Y59005714D01*
X24817619Y58958095D01*
X24912857Y58910476D01*
X24960476Y58910476D01*
X25055714Y58958095D01*
X25103333Y59005714D01*
X25150952Y59100952D01*
X25150952Y59291428D01*
X25198571Y59386666D01*
X25246190Y59434285D01*
X25341428Y59481904D01*
X25531904Y59481904D01*
X25627142Y59434285D01*
X25674761Y59386666D01*
X25722380Y59291428D01*
X25722380Y59100952D01*
X25674761Y59005714D01*
X25627142Y58958095D01*
X25531904Y58910476D01*
X25341428Y58910476D01*
X25246190Y58958095D01*
X25198571Y59005714D01*
X25150952Y59100952D01*
X69866666Y26492857D02*
X69914285Y26445238D01*
X70057142Y26397619D01*
X70152380Y26397619D01*
X70295238Y26445238D01*
X70390476Y26540476D01*
X70438095Y26635714D01*
X70485714Y26826190D01*
X70485714Y26969047D01*
X70438095Y27159523D01*
X70390476Y27254761D01*
X70295238Y27350000D01*
X70152380Y27397619D01*
X70057142Y27397619D01*
X69914285Y27350000D01*
X69866666Y27302380D01*
X68914285Y26397619D02*
X69485714Y26397619D01*
X69200000Y26397619D02*
X69200000Y27397619D01*
X69295238Y27254761D01*
X69390476Y27159523D01*
X69485714Y27111904D01*
X66422857Y26522857D02*
X66470476Y26475238D01*
X66613333Y26427619D01*
X66708571Y26427619D01*
X66851428Y26475238D01*
X66946666Y26570476D01*
X66994285Y26665714D01*
X67041904Y26856190D01*
X67041904Y26999047D01*
X66994285Y27189523D01*
X66946666Y27284761D01*
X66851428Y27380000D01*
X66708571Y27427619D01*
X66613333Y27427619D01*
X66470476Y27380000D01*
X66422857Y27332380D01*
X65470476Y26427619D02*
X66041904Y26427619D01*
X65756190Y26427619D02*
X65756190Y27427619D01*
X65851428Y27284761D01*
X65946666Y27189523D01*
X66041904Y27141904D01*
X64899047Y26999047D02*
X64994285Y27046666D01*
X65041904Y27094285D01*
X65089523Y27189523D01*
X65089523Y27237142D01*
X65041904Y27332380D01*
X64994285Y27380000D01*
X64899047Y27427619D01*
X64708571Y27427619D01*
X64613333Y27380000D01*
X64565714Y27332380D01*
X64518095Y27237142D01*
X64518095Y27189523D01*
X64565714Y27094285D01*
X64613333Y27046666D01*
X64708571Y26999047D01*
X64899047Y26999047D01*
X64994285Y26951428D01*
X65041904Y26903809D01*
X65089523Y26808571D01*
X65089523Y26618095D01*
X65041904Y26522857D01*
X64994285Y26475238D01*
X64899047Y26427619D01*
X64708571Y26427619D01*
X64613333Y26475238D01*
X64565714Y26522857D01*
X64518095Y26618095D01*
X64518095Y26808571D01*
X64565714Y26903809D01*
X64613333Y26951428D01*
X64708571Y26999047D01*
X73972857Y26492857D02*
X74020476Y26445238D01*
X74163333Y26397619D01*
X74258571Y26397619D01*
X74401428Y26445238D01*
X74496666Y26540476D01*
X74544285Y26635714D01*
X74591904Y26826190D01*
X74591904Y26969047D01*
X74544285Y27159523D01*
X74496666Y27254761D01*
X74401428Y27350000D01*
X74258571Y27397619D01*
X74163333Y27397619D01*
X74020476Y27350000D01*
X73972857Y27302380D01*
X73020476Y26397619D02*
X73591904Y26397619D01*
X73306190Y26397619D02*
X73306190Y27397619D01*
X73401428Y27254761D01*
X73496666Y27159523D01*
X73591904Y27111904D01*
X72544285Y26397619D02*
X72353809Y26397619D01*
X72258571Y26445238D01*
X72210952Y26492857D01*
X72115714Y26635714D01*
X72068095Y26826190D01*
X72068095Y27207142D01*
X72115714Y27302380D01*
X72163333Y27350000D01*
X72258571Y27397619D01*
X72449047Y27397619D01*
X72544285Y27350000D01*
X72591904Y27302380D01*
X72639523Y27207142D01*
X72639523Y26969047D01*
X72591904Y26873809D01*
X72544285Y26826190D01*
X72449047Y26778571D01*
X72258571Y26778571D01*
X72163333Y26826190D01*
X72115714Y26873809D01*
X72068095Y26969047D01*
X54372857Y53112857D02*
X54420476Y53065238D01*
X54563333Y53017619D01*
X54658571Y53017619D01*
X54801428Y53065238D01*
X54896666Y53160476D01*
X54944285Y53255714D01*
X54991904Y53446190D01*
X54991904Y53589047D01*
X54944285Y53779523D01*
X54896666Y53874761D01*
X54801428Y53970000D01*
X54658571Y54017619D01*
X54563333Y54017619D01*
X54420476Y53970000D01*
X54372857Y53922380D01*
X53991904Y53922380D02*
X53944285Y53970000D01*
X53849047Y54017619D01*
X53610952Y54017619D01*
X53515714Y53970000D01*
X53468095Y53922380D01*
X53420476Y53827142D01*
X53420476Y53731904D01*
X53468095Y53589047D01*
X54039523Y53017619D01*
X53420476Y53017619D01*
X52801428Y54017619D02*
X52706190Y54017619D01*
X52610952Y53970000D01*
X52563333Y53922380D01*
X52515714Y53827142D01*
X52468095Y53636666D01*
X52468095Y53398571D01*
X52515714Y53208095D01*
X52563333Y53112857D01*
X52610952Y53065238D01*
X52706190Y53017619D01*
X52801428Y53017619D01*
X52896666Y53065238D01*
X52944285Y53112857D01*
X52991904Y53208095D01*
X53039523Y53398571D01*
X53039523Y53636666D01*
X52991904Y53827142D01*
X52944285Y53922380D01*
X52896666Y53970000D01*
X52801428Y54017619D01*
X18141904Y96150000D02*
X18237142Y96197619D01*
X18380000Y96197619D01*
X18522857Y96150000D01*
X18618095Y96054761D01*
X18665714Y95959523D01*
X18713333Y95769047D01*
X18713333Y95626190D01*
X18665714Y95435714D01*
X18618095Y95340476D01*
X18522857Y95245238D01*
X18380000Y95197619D01*
X18284761Y95197619D01*
X18141904Y95245238D01*
X18094285Y95292857D01*
X18094285Y95626190D01*
X18284761Y95626190D01*
X17665714Y95197619D02*
X17665714Y96197619D01*
X17094285Y95197619D01*
X17094285Y96197619D01*
X16618095Y95197619D02*
X16618095Y96197619D01*
X16380000Y96197619D01*
X16237142Y96150000D01*
X16141904Y96054761D01*
X16094285Y95959523D01*
X16046666Y95769047D01*
X16046666Y95626190D01*
X16094285Y95435714D01*
X16141904Y95340476D01*
X16237142Y95245238D01*
X16380000Y95197619D01*
X16618095Y95197619D01*
X7221904Y51690000D02*
X7317142Y51737619D01*
X7460000Y51737619D01*
X7602857Y51690000D01*
X7698095Y51594761D01*
X7745714Y51499523D01*
X7793333Y51309047D01*
X7793333Y51166190D01*
X7745714Y50975714D01*
X7698095Y50880476D01*
X7602857Y50785238D01*
X7460000Y50737619D01*
X7364761Y50737619D01*
X7221904Y50785238D01*
X7174285Y50832857D01*
X7174285Y51166190D01*
X7364761Y51166190D01*
X6745714Y50737619D02*
X6745714Y51737619D01*
X6174285Y50737619D01*
X6174285Y51737619D01*
X5698095Y50737619D02*
X5698095Y51737619D01*
X5460000Y51737619D01*
X5317142Y51690000D01*
X5221904Y51594761D01*
X5174285Y51499523D01*
X5126666Y51309047D01*
X5126666Y51166190D01*
X5174285Y50975714D01*
X5221904Y50880476D01*
X5317142Y50785238D01*
X5460000Y50737619D01*
X5698095Y50737619D01*
X55431904Y73760000D02*
X55527142Y73807619D01*
X55670000Y73807619D01*
X55812857Y73760000D01*
X55908095Y73664761D01*
X55955714Y73569523D01*
X56003333Y73379047D01*
X56003333Y73236190D01*
X55955714Y73045714D01*
X55908095Y72950476D01*
X55812857Y72855238D01*
X55670000Y72807619D01*
X55574761Y72807619D01*
X55431904Y72855238D01*
X55384285Y72902857D01*
X55384285Y73236190D01*
X55574761Y73236190D01*
X54955714Y72807619D02*
X54955714Y73807619D01*
X54384285Y72807619D01*
X54384285Y73807619D01*
X53908095Y72807619D02*
X53908095Y73807619D01*
X53670000Y73807619D01*
X53527142Y73760000D01*
X53431904Y73664761D01*
X53384285Y73569523D01*
X53336666Y73379047D01*
X53336666Y73236190D01*
X53384285Y73045714D01*
X53431904Y72950476D01*
X53527142Y72855238D01*
X53670000Y72807619D01*
X53908095Y72807619D01*
X16311904Y46877619D02*
X15978571Y45877619D01*
X15645238Y46877619D01*
X15121428Y46877619D02*
X14930952Y46877619D01*
X14835714Y46830000D01*
X14740476Y46734761D01*
X14692857Y46544285D01*
X14692857Y46210952D01*
X14740476Y46020476D01*
X14835714Y45925238D01*
X14930952Y45877619D01*
X15121428Y45877619D01*
X15216666Y45925238D01*
X15311904Y46020476D01*
X15359523Y46210952D01*
X15359523Y46544285D01*
X15311904Y46734761D01*
X15216666Y46830000D01*
X15121428Y46877619D01*
X14264285Y46877619D02*
X14264285Y46068095D01*
X14216666Y45972857D01*
X14169047Y45925238D01*
X14073809Y45877619D01*
X13883333Y45877619D01*
X13788095Y45925238D01*
X13740476Y45972857D01*
X13692857Y46068095D01*
X13692857Y46877619D01*
X13359523Y46877619D02*
X12788095Y46877619D01*
X13073809Y45877619D02*
X13073809Y46877619D01*
X15478095Y65317619D02*
X14859047Y65317619D01*
X15192380Y64936666D01*
X15049523Y64936666D01*
X14954285Y64889047D01*
X14906666Y64841428D01*
X14859047Y64746190D01*
X14859047Y64508095D01*
X14906666Y64412857D01*
X14954285Y64365238D01*
X15049523Y64317619D01*
X15335238Y64317619D01*
X15430476Y64365238D01*
X15478095Y64412857D01*
X14573333Y65317619D02*
X14240000Y64317619D01*
X13906666Y65317619D01*
X13382857Y65317619D02*
X13287619Y65317619D01*
X13192380Y65270000D01*
X13144761Y65222380D01*
X13097142Y65127142D01*
X13049523Y64936666D01*
X13049523Y64698571D01*
X13097142Y64508095D01*
X13144761Y64412857D01*
X13192380Y64365238D01*
X13287619Y64317619D01*
X13382857Y64317619D01*
X13478095Y64365238D01*
X13525714Y64412857D01*
X13573333Y64508095D01*
X13620952Y64698571D01*
X13620952Y64936666D01*
X13573333Y65127142D01*
X13525714Y65222380D01*
X13478095Y65270000D01*
X13382857Y65317619D01*
X15568095Y59677619D02*
X14949047Y59677619D01*
X15282380Y59296666D01*
X15139523Y59296666D01*
X15044285Y59249047D01*
X14996666Y59201428D01*
X14949047Y59106190D01*
X14949047Y58868095D01*
X14996666Y58772857D01*
X15044285Y58725238D01*
X15139523Y58677619D01*
X15425238Y58677619D01*
X15520476Y58725238D01*
X15568095Y58772857D01*
X14663333Y59677619D02*
X14330000Y58677619D01*
X13996666Y59677619D01*
X13758571Y59677619D02*
X13139523Y59677619D01*
X13472857Y59296666D01*
X13330000Y59296666D01*
X13234761Y59249047D01*
X13187142Y59201428D01*
X13139523Y59106190D01*
X13139523Y58868095D01*
X13187142Y58772857D01*
X13234761Y58725238D01*
X13330000Y58677619D01*
X13615714Y58677619D01*
X13710952Y58725238D01*
X13758571Y58772857D01*
X73089047Y61037619D02*
X73660476Y61037619D01*
X73374761Y61037619D02*
X73374761Y62037619D01*
X73470000Y61894761D01*
X73565238Y61799523D01*
X73660476Y61751904D01*
X72708095Y61942380D02*
X72660476Y61990000D01*
X72565238Y62037619D01*
X72327142Y62037619D01*
X72231904Y61990000D01*
X72184285Y61942380D01*
X72136666Y61847142D01*
X72136666Y61751904D01*
X72184285Y61609047D01*
X72755714Y61037619D01*
X72136666Y61037619D01*
X71850952Y62037619D02*
X71517619Y61037619D01*
X71184285Y62037619D01*
M02*
