G04 #@! TF.GenerationSoftware,KiCad,Pcbnew,(5.1.10-1-10_14)*
G04 #@! TF.CreationDate,2021-10-14T11:19:08+02:00*
G04 #@! TF.ProjectId,hi-board,68692d62-6f61-4726-942e-6b696361645f,rev?*
G04 #@! TF.SameCoordinates,Original*
G04 #@! TF.FileFunction,Paste,Bot*
G04 #@! TF.FilePolarity,Positive*
%FSLAX46Y46*%
G04 Gerber Fmt 4.6, Leading zero omitted, Abs format (unit mm)*
G04 Created by KiCad (PCBNEW (5.1.10-1-10_14)) date 2021-10-14 11:19:08*
%MOMM*%
%LPD*%
G01*
G04 APERTURE LIST*
%ADD10C,0.010000*%
%ADD11R,0.300000X1.300000*%
%ADD12R,1.800000X2.200000*%
%ADD13R,1.450000X0.450000*%
%ADD14R,1.060000X0.650000*%
%ADD15R,0.800000X0.900000*%
G04 APERTURE END LIST*
D10*
G36*
X55125000Y81350000D02*
G01*
X55375000Y81350000D01*
X55375000Y82650000D01*
X55125000Y82650000D01*
X55125000Y81350000D01*
G37*
X55125000Y81350000D02*
X55375000Y81350000D01*
X55375000Y82650000D01*
X55125000Y82650000D01*
X55125000Y81350000D01*
G36*
X54625000Y81350000D02*
G01*
X54875000Y81350000D01*
X54875000Y82650000D01*
X54625000Y82650000D01*
X54625000Y81350000D01*
G37*
X54625000Y81350000D02*
X54875000Y81350000D01*
X54875000Y82650000D01*
X54625000Y82650000D01*
X54625000Y81350000D01*
G36*
X54125000Y81350000D02*
G01*
X54375000Y81350000D01*
X54375000Y82650000D01*
X54125000Y82650000D01*
X54125000Y81350000D01*
G37*
X54125000Y81350000D02*
X54375000Y81350000D01*
X54375000Y82650000D01*
X54125000Y82650000D01*
X54125000Y81350000D01*
G36*
X53625000Y81350000D02*
G01*
X53875000Y81350000D01*
X53875000Y82650000D01*
X53625000Y82650000D01*
X53625000Y81350000D01*
G37*
X53625000Y81350000D02*
X53875000Y81350000D01*
X53875000Y82650000D01*
X53625000Y82650000D01*
X53625000Y81350000D01*
G36*
X53125000Y81350000D02*
G01*
X53375000Y81350000D01*
X53375000Y82650000D01*
X53125000Y82650000D01*
X53125000Y81350000D01*
G37*
X53125000Y81350000D02*
X53375000Y81350000D01*
X53375000Y82650000D01*
X53125000Y82650000D01*
X53125000Y81350000D01*
G36*
X52625000Y81350000D02*
G01*
X52875000Y81350000D01*
X52875000Y82650000D01*
X52625000Y82650000D01*
X52625000Y81350000D01*
G37*
X52625000Y81350000D02*
X52875000Y81350000D01*
X52875000Y82650000D01*
X52625000Y82650000D01*
X52625000Y81350000D01*
G36*
X52125000Y81350000D02*
G01*
X52375000Y81350000D01*
X52375000Y82650000D01*
X52125000Y82650000D01*
X52125000Y81350000D01*
G37*
X52125000Y81350000D02*
X52375000Y81350000D01*
X52375000Y82650000D01*
X52125000Y82650000D01*
X52125000Y81350000D01*
G36*
X51625000Y81350000D02*
G01*
X51875000Y81350000D01*
X51875000Y82650000D01*
X51625000Y82650000D01*
X51625000Y81350000D01*
G37*
X51625000Y81350000D02*
X51875000Y81350000D01*
X51875000Y82650000D01*
X51625000Y82650000D01*
X51625000Y81350000D01*
G36*
X51125000Y81350000D02*
G01*
X51375000Y81350000D01*
X51375000Y82650000D01*
X51125000Y82650000D01*
X51125000Y81350000D01*
G37*
X51125000Y81350000D02*
X51375000Y81350000D01*
X51375000Y82650000D01*
X51125000Y82650000D01*
X51125000Y81350000D01*
G36*
X50625000Y81350000D02*
G01*
X50875000Y81350000D01*
X50875000Y82650000D01*
X50625000Y82650000D01*
X50625000Y81350000D01*
G37*
X50625000Y81350000D02*
X50875000Y81350000D01*
X50875000Y82650000D01*
X50625000Y82650000D01*
X50625000Y81350000D01*
G36*
X50125000Y81350000D02*
G01*
X50375000Y81350000D01*
X50375000Y82650000D01*
X50125000Y82650000D01*
X50125000Y81350000D01*
G37*
X50125000Y81350000D02*
X50375000Y81350000D01*
X50375000Y82650000D01*
X50125000Y82650000D01*
X50125000Y81350000D01*
G36*
X49625000Y81350000D02*
G01*
X49875000Y81350000D01*
X49875000Y82650000D01*
X49625000Y82650000D01*
X49625000Y81350000D01*
G37*
X49625000Y81350000D02*
X49875000Y81350000D01*
X49875000Y82650000D01*
X49625000Y82650000D01*
X49625000Y81350000D01*
G36*
X49125000Y81350000D02*
G01*
X49375000Y81350000D01*
X49375000Y82650000D01*
X49125000Y82650000D01*
X49125000Y81350000D01*
G37*
X49125000Y81350000D02*
X49375000Y81350000D01*
X49375000Y82650000D01*
X49125000Y82650000D01*
X49125000Y81350000D01*
G36*
X48625000Y81350000D02*
G01*
X48875000Y81350000D01*
X48875000Y82650000D01*
X48625000Y82650000D01*
X48625000Y81350000D01*
G37*
X48625000Y81350000D02*
X48875000Y81350000D01*
X48875000Y82650000D01*
X48625000Y82650000D01*
X48625000Y81350000D01*
G36*
X48125000Y81350000D02*
G01*
X48375000Y81350000D01*
X48375000Y82650000D01*
X48125000Y82650000D01*
X48125000Y81350000D01*
G37*
X48125000Y81350000D02*
X48375000Y81350000D01*
X48375000Y82650000D01*
X48125000Y82650000D01*
X48125000Y81350000D01*
G36*
X47625000Y81350000D02*
G01*
X47875000Y81350000D01*
X47875000Y82650000D01*
X47625000Y82650000D01*
X47625000Y81350000D01*
G37*
X47625000Y81350000D02*
X47875000Y81350000D01*
X47875000Y82650000D01*
X47625000Y82650000D01*
X47625000Y81350000D01*
G36*
X47125000Y81350000D02*
G01*
X47375000Y81350000D01*
X47375000Y82650000D01*
X47125000Y82650000D01*
X47125000Y81350000D01*
G37*
X47125000Y81350000D02*
X47375000Y81350000D01*
X47375000Y82650000D01*
X47125000Y82650000D01*
X47125000Y81350000D01*
G36*
X46625000Y81350000D02*
G01*
X46875000Y81350000D01*
X46875000Y82650000D01*
X46625000Y82650000D01*
X46625000Y81350000D01*
G37*
X46625000Y81350000D02*
X46875000Y81350000D01*
X46875000Y82650000D01*
X46625000Y82650000D01*
X46625000Y81350000D01*
G36*
X46125000Y81350000D02*
G01*
X46375000Y81350000D01*
X46375000Y82650000D01*
X46125000Y82650000D01*
X46125000Y81350000D01*
G37*
X46125000Y81350000D02*
X46375000Y81350000D01*
X46375000Y82650000D01*
X46125000Y82650000D01*
X46125000Y81350000D01*
G36*
X45625000Y81350000D02*
G01*
X45875000Y81350000D01*
X45875000Y82650000D01*
X45625000Y82650000D01*
X45625000Y81350000D01*
G37*
X45625000Y81350000D02*
X45875000Y81350000D01*
X45875000Y82650000D01*
X45625000Y82650000D01*
X45625000Y81350000D01*
G36*
X45125000Y81350000D02*
G01*
X45375000Y81350000D01*
X45375000Y82650000D01*
X45125000Y82650000D01*
X45125000Y81350000D01*
G37*
X45125000Y81350000D02*
X45375000Y81350000D01*
X45375000Y82650000D01*
X45125000Y82650000D01*
X45125000Y81350000D01*
G36*
X44625000Y81350000D02*
G01*
X44875000Y81350000D01*
X44875000Y82650000D01*
X44625000Y82650000D01*
X44625000Y81350000D01*
G37*
X44625000Y81350000D02*
X44875000Y81350000D01*
X44875000Y82650000D01*
X44625000Y82650000D01*
X44625000Y81350000D01*
G36*
X44125000Y81350000D02*
G01*
X44375000Y81350000D01*
X44375000Y82650000D01*
X44125000Y82650000D01*
X44125000Y81350000D01*
G37*
X44125000Y81350000D02*
X44375000Y81350000D01*
X44375000Y82650000D01*
X44125000Y82650000D01*
X44125000Y81350000D01*
G36*
X43625000Y81350000D02*
G01*
X43875000Y81350000D01*
X43875000Y82650000D01*
X43625000Y82650000D01*
X43625000Y81350000D01*
G37*
X43625000Y81350000D02*
X43875000Y81350000D01*
X43875000Y82650000D01*
X43625000Y82650000D01*
X43625000Y81350000D01*
G36*
X43125000Y81350000D02*
G01*
X43375000Y81350000D01*
X43375000Y82650000D01*
X43125000Y82650000D01*
X43125000Y81350000D01*
G37*
X43125000Y81350000D02*
X43375000Y81350000D01*
X43375000Y82650000D01*
X43125000Y82650000D01*
X43125000Y81350000D01*
G36*
X42625000Y81350000D02*
G01*
X42875000Y81350000D01*
X42875000Y82650000D01*
X42625000Y82650000D01*
X42625000Y81350000D01*
G37*
X42625000Y81350000D02*
X42875000Y81350000D01*
X42875000Y82650000D01*
X42625000Y82650000D01*
X42625000Y81350000D01*
G36*
X42125000Y81350000D02*
G01*
X42375000Y81350000D01*
X42375000Y82650000D01*
X42125000Y82650000D01*
X42125000Y81350000D01*
G37*
X42125000Y81350000D02*
X42375000Y81350000D01*
X42375000Y82650000D01*
X42125000Y82650000D01*
X42125000Y81350000D01*
G36*
X41625000Y81350000D02*
G01*
X41875000Y81350000D01*
X41875000Y82650000D01*
X41625000Y82650000D01*
X41625000Y81350000D01*
G37*
X41625000Y81350000D02*
X41875000Y81350000D01*
X41875000Y82650000D01*
X41625000Y82650000D01*
X41625000Y81350000D01*
G36*
X41125000Y81350000D02*
G01*
X41375000Y81350000D01*
X41375000Y82650000D01*
X41125000Y82650000D01*
X41125000Y81350000D01*
G37*
X41125000Y81350000D02*
X41375000Y81350000D01*
X41375000Y82650000D01*
X41125000Y82650000D01*
X41125000Y81350000D01*
G36*
X40625000Y81350000D02*
G01*
X40875000Y81350000D01*
X40875000Y82650000D01*
X40625000Y82650000D01*
X40625000Y81350000D01*
G37*
X40625000Y81350000D02*
X40875000Y81350000D01*
X40875000Y82650000D01*
X40625000Y82650000D01*
X40625000Y81350000D01*
G36*
X40125000Y81350000D02*
G01*
X40375000Y81350000D01*
X40375000Y82650000D01*
X40125000Y82650000D01*
X40125000Y81350000D01*
G37*
X40125000Y81350000D02*
X40375000Y81350000D01*
X40375000Y82650000D01*
X40125000Y82650000D01*
X40125000Y81350000D01*
G36*
X39625000Y81350000D02*
G01*
X39875000Y81350000D01*
X39875000Y82650000D01*
X39625000Y82650000D01*
X39625000Y81350000D01*
G37*
X39625000Y81350000D02*
X39875000Y81350000D01*
X39875000Y82650000D01*
X39625000Y82650000D01*
X39625000Y81350000D01*
G36*
X39125000Y81350000D02*
G01*
X39375000Y81350000D01*
X39375000Y82650000D01*
X39125000Y82650000D01*
X39125000Y81350000D01*
G37*
X39125000Y81350000D02*
X39375000Y81350000D01*
X39375000Y82650000D01*
X39125000Y82650000D01*
X39125000Y81350000D01*
G36*
X38625000Y81350000D02*
G01*
X38875000Y81350000D01*
X38875000Y82650000D01*
X38625000Y82650000D01*
X38625000Y81350000D01*
G37*
X38625000Y81350000D02*
X38875000Y81350000D01*
X38875000Y82650000D01*
X38625000Y82650000D01*
X38625000Y81350000D01*
G36*
X38125000Y81350000D02*
G01*
X38375000Y81350000D01*
X38375000Y82650000D01*
X38125000Y82650000D01*
X38125000Y81350000D01*
G37*
X38125000Y81350000D02*
X38375000Y81350000D01*
X38375000Y82650000D01*
X38125000Y82650000D01*
X38125000Y81350000D01*
G36*
X37625000Y81350000D02*
G01*
X37875000Y81350000D01*
X37875000Y82650000D01*
X37625000Y82650000D01*
X37625000Y81350000D01*
G37*
X37625000Y81350000D02*
X37875000Y81350000D01*
X37875000Y82650000D01*
X37625000Y82650000D01*
X37625000Y81350000D01*
G36*
X37125000Y81350000D02*
G01*
X37375000Y81350000D01*
X37375000Y82650000D01*
X37125000Y82650000D01*
X37125000Y81350000D01*
G37*
X37125000Y81350000D02*
X37375000Y81350000D01*
X37375000Y82650000D01*
X37125000Y82650000D01*
X37125000Y81350000D01*
G36*
X36625000Y81350000D02*
G01*
X36875000Y81350000D01*
X36875000Y82650000D01*
X36625000Y82650000D01*
X36625000Y81350000D01*
G37*
X36625000Y81350000D02*
X36875000Y81350000D01*
X36875000Y82650000D01*
X36625000Y82650000D01*
X36625000Y81350000D01*
G36*
X36125000Y81350000D02*
G01*
X36375000Y81350000D01*
X36375000Y82650000D01*
X36125000Y82650000D01*
X36125000Y81350000D01*
G37*
X36125000Y81350000D02*
X36375000Y81350000D01*
X36375000Y82650000D01*
X36125000Y82650000D01*
X36125000Y81350000D01*
G36*
X35625000Y81350000D02*
G01*
X35875000Y81350000D01*
X35875000Y82650000D01*
X35625000Y82650000D01*
X35625000Y81350000D01*
G37*
X35625000Y81350000D02*
X35875000Y81350000D01*
X35875000Y82650000D01*
X35625000Y82650000D01*
X35625000Y81350000D01*
G36*
X35125000Y81350000D02*
G01*
X35375000Y81350000D01*
X35375000Y82650000D01*
X35125000Y82650000D01*
X35125000Y81350000D01*
G37*
X35125000Y81350000D02*
X35375000Y81350000D01*
X35375000Y82650000D01*
X35125000Y82650000D01*
X35125000Y81350000D01*
G36*
X34625000Y81350000D02*
G01*
X34875000Y81350000D01*
X34875000Y82650000D01*
X34625000Y82650000D01*
X34625000Y81350000D01*
G37*
X34625000Y81350000D02*
X34875000Y81350000D01*
X34875000Y82650000D01*
X34625000Y82650000D01*
X34625000Y81350000D01*
G36*
X34125000Y81350000D02*
G01*
X34375000Y81350000D01*
X34375000Y82650000D01*
X34125000Y82650000D01*
X34125000Y81350000D01*
G37*
X34125000Y81350000D02*
X34375000Y81350000D01*
X34375000Y82650000D01*
X34125000Y82650000D01*
X34125000Y81350000D01*
G36*
X33625000Y81350000D02*
G01*
X33875000Y81350000D01*
X33875000Y82650000D01*
X33625000Y82650000D01*
X33625000Y81350000D01*
G37*
X33625000Y81350000D02*
X33875000Y81350000D01*
X33875000Y82650000D01*
X33625000Y82650000D01*
X33625000Y81350000D01*
G36*
X33125000Y81350000D02*
G01*
X33375000Y81350000D01*
X33375000Y82650000D01*
X33125000Y82650000D01*
X33125000Y81350000D01*
G37*
X33125000Y81350000D02*
X33375000Y81350000D01*
X33375000Y82650000D01*
X33125000Y82650000D01*
X33125000Y81350000D01*
G36*
X32625000Y81350000D02*
G01*
X32875000Y81350000D01*
X32875000Y82650000D01*
X32625000Y82650000D01*
X32625000Y81350000D01*
G37*
X32625000Y81350000D02*
X32875000Y81350000D01*
X32875000Y82650000D01*
X32625000Y82650000D01*
X32625000Y81350000D01*
G36*
X32125000Y81350000D02*
G01*
X32375000Y81350000D01*
X32375000Y82650000D01*
X32125000Y82650000D01*
X32125000Y81350000D01*
G37*
X32125000Y81350000D02*
X32375000Y81350000D01*
X32375000Y82650000D01*
X32125000Y82650000D01*
X32125000Y81350000D01*
G36*
X31625000Y81350000D02*
G01*
X31875000Y81350000D01*
X31875000Y82650000D01*
X31625000Y82650000D01*
X31625000Y81350000D01*
G37*
X31625000Y81350000D02*
X31875000Y81350000D01*
X31875000Y82650000D01*
X31625000Y82650000D01*
X31625000Y81350000D01*
G36*
X31125000Y81350000D02*
G01*
X31375000Y81350000D01*
X31375000Y82650000D01*
X31125000Y82650000D01*
X31125000Y81350000D01*
G37*
X31125000Y81350000D02*
X31375000Y81350000D01*
X31375000Y82650000D01*
X31125000Y82650000D01*
X31125000Y81350000D01*
G36*
X30625000Y81350000D02*
G01*
X30875000Y81350000D01*
X30875000Y82650000D01*
X30625000Y82650000D01*
X30625000Y81350000D01*
G37*
X30625000Y81350000D02*
X30875000Y81350000D01*
X30875000Y82650000D01*
X30625000Y82650000D01*
X30625000Y81350000D01*
G36*
X30125000Y81350000D02*
G01*
X30375000Y81350000D01*
X30375000Y82650000D01*
X30125000Y82650000D01*
X30125000Y81350000D01*
G37*
X30125000Y81350000D02*
X30375000Y81350000D01*
X30375000Y82650000D01*
X30125000Y82650000D01*
X30125000Y81350000D01*
G36*
X29625000Y81350000D02*
G01*
X29875000Y81350000D01*
X29875000Y82650000D01*
X29625000Y82650000D01*
X29625000Y81350000D01*
G37*
X29625000Y81350000D02*
X29875000Y81350000D01*
X29875000Y82650000D01*
X29625000Y82650000D01*
X29625000Y81350000D01*
G36*
X29125000Y81350000D02*
G01*
X29375000Y81350000D01*
X29375000Y82650000D01*
X29125000Y82650000D01*
X29125000Y81350000D01*
G37*
X29125000Y81350000D02*
X29375000Y81350000D01*
X29375000Y82650000D01*
X29125000Y82650000D01*
X29125000Y81350000D01*
G36*
X28625000Y81350000D02*
G01*
X28875000Y81350000D01*
X28875000Y82650000D01*
X28625000Y82650000D01*
X28625000Y81350000D01*
G37*
X28625000Y81350000D02*
X28875000Y81350000D01*
X28875000Y82650000D01*
X28625000Y82650000D01*
X28625000Y81350000D01*
G36*
X28125000Y81350000D02*
G01*
X28375000Y81350000D01*
X28375000Y82650000D01*
X28125000Y82650000D01*
X28125000Y81350000D01*
G37*
X28125000Y81350000D02*
X28375000Y81350000D01*
X28375000Y82650000D01*
X28125000Y82650000D01*
X28125000Y81350000D01*
G36*
X27625000Y81350000D02*
G01*
X27875000Y81350000D01*
X27875000Y82650000D01*
X27625000Y82650000D01*
X27625000Y81350000D01*
G37*
X27625000Y81350000D02*
X27875000Y81350000D01*
X27875000Y82650000D01*
X27625000Y82650000D01*
X27625000Y81350000D01*
G36*
X27125000Y81350000D02*
G01*
X27375000Y81350000D01*
X27375000Y82650000D01*
X27125000Y82650000D01*
X27125000Y81350000D01*
G37*
X27125000Y81350000D02*
X27375000Y81350000D01*
X27375000Y82650000D01*
X27125000Y82650000D01*
X27125000Y81350000D01*
G36*
X26625000Y81350000D02*
G01*
X26875000Y81350000D01*
X26875000Y82650000D01*
X26625000Y82650000D01*
X26625000Y81350000D01*
G37*
X26625000Y81350000D02*
X26875000Y81350000D01*
X26875000Y82650000D01*
X26625000Y82650000D01*
X26625000Y81350000D01*
G36*
X26125000Y81350000D02*
G01*
X26375000Y81350000D01*
X26375000Y82650000D01*
X26125000Y82650000D01*
X26125000Y81350000D01*
G37*
X26125000Y81350000D02*
X26375000Y81350000D01*
X26375000Y82650000D01*
X26125000Y82650000D01*
X26125000Y81350000D01*
G36*
X25625000Y81350000D02*
G01*
X25875000Y81350000D01*
X25875000Y82650000D01*
X25625000Y82650000D01*
X25625000Y81350000D01*
G37*
X25625000Y81350000D02*
X25875000Y81350000D01*
X25875000Y82650000D01*
X25625000Y82650000D01*
X25625000Y81350000D01*
G36*
G01*
X74155000Y33070000D02*
X74155000Y33570000D01*
G75*
G02*
X74380000Y33795000I225000J0D01*
G01*
X74830000Y33795000D01*
G75*
G02*
X75055000Y33570000I0J-225000D01*
G01*
X75055000Y33070000D01*
G75*
G02*
X74830000Y32845000I-225000J0D01*
G01*
X74380000Y32845000D01*
G75*
G02*
X74155000Y33070000I0J225000D01*
G01*
G37*
G36*
G01*
X75705000Y33070000D02*
X75705000Y33570000D01*
G75*
G02*
X75930000Y33795000I225000J0D01*
G01*
X76380000Y33795000D01*
G75*
G02*
X76605000Y33570000I0J-225000D01*
G01*
X76605000Y33070000D01*
G75*
G02*
X76380000Y32845000I-225000J0D01*
G01*
X75930000Y32845000D01*
G75*
G02*
X75705000Y33070000I0J225000D01*
G01*
G37*
G36*
G01*
X62155000Y27470000D02*
X62155000Y26970000D01*
G75*
G02*
X61930000Y26745000I-225000J0D01*
G01*
X61480000Y26745000D01*
G75*
G02*
X61255000Y26970000I0J225000D01*
G01*
X61255000Y27470000D01*
G75*
G02*
X61480000Y27695000I225000J0D01*
G01*
X61930000Y27695000D01*
G75*
G02*
X62155000Y27470000I0J-225000D01*
G01*
G37*
G36*
G01*
X63705000Y27470000D02*
X63705000Y26970000D01*
G75*
G02*
X63480000Y26745000I-225000J0D01*
G01*
X63030000Y26745000D01*
G75*
G02*
X62805000Y26970000I0J225000D01*
G01*
X62805000Y27470000D01*
G75*
G02*
X63030000Y27695000I225000J0D01*
G01*
X63480000Y27695000D01*
G75*
G02*
X63705000Y27470000I0J-225000D01*
G01*
G37*
G36*
G01*
X67800000Y78495000D02*
X67300000Y78495000D01*
G75*
G02*
X67075000Y78720000I0J225000D01*
G01*
X67075000Y79170000D01*
G75*
G02*
X67300000Y79395000I225000J0D01*
G01*
X67800000Y79395000D01*
G75*
G02*
X68025000Y79170000I0J-225000D01*
G01*
X68025000Y78720000D01*
G75*
G02*
X67800000Y78495000I-225000J0D01*
G01*
G37*
G36*
G01*
X67800000Y80045000D02*
X67300000Y80045000D01*
G75*
G02*
X67075000Y80270000I0J225000D01*
G01*
X67075000Y80720000D01*
G75*
G02*
X67300000Y80945000I225000J0D01*
G01*
X67800000Y80945000D01*
G75*
G02*
X68025000Y80720000I0J-225000D01*
G01*
X68025000Y80270000D01*
G75*
G02*
X67800000Y80045000I-225000J0D01*
G01*
G37*
G36*
G01*
X67300000Y76165000D02*
X67800000Y76165000D01*
G75*
G02*
X68025000Y75940000I0J-225000D01*
G01*
X68025000Y75490000D01*
G75*
G02*
X67800000Y75265000I-225000J0D01*
G01*
X67300000Y75265000D01*
G75*
G02*
X67075000Y75490000I0J225000D01*
G01*
X67075000Y75940000D01*
G75*
G02*
X67300000Y76165000I225000J0D01*
G01*
G37*
G36*
G01*
X67300000Y77715000D02*
X67800000Y77715000D01*
G75*
G02*
X68025000Y77490000I0J-225000D01*
G01*
X68025000Y77040000D01*
G75*
G02*
X67800000Y76815000I-225000J0D01*
G01*
X67300000Y76815000D01*
G75*
G02*
X67075000Y77040000I0J225000D01*
G01*
X67075000Y77490000D01*
G75*
G02*
X67300000Y77715000I225000J0D01*
G01*
G37*
G36*
G01*
X8435000Y57550000D02*
X8435000Y57050000D01*
G75*
G02*
X8210000Y56825000I-225000J0D01*
G01*
X7760000Y56825000D01*
G75*
G02*
X7535000Y57050000I0J225000D01*
G01*
X7535000Y57550000D01*
G75*
G02*
X7760000Y57775000I225000J0D01*
G01*
X8210000Y57775000D01*
G75*
G02*
X8435000Y57550000I0J-225000D01*
G01*
G37*
G36*
G01*
X6885000Y57550000D02*
X6885000Y57050000D01*
G75*
G02*
X6660000Y56825000I-225000J0D01*
G01*
X6210000Y56825000D01*
G75*
G02*
X5985000Y57050000I0J225000D01*
G01*
X5985000Y57550000D01*
G75*
G02*
X6210000Y57775000I225000J0D01*
G01*
X6660000Y57775000D01*
G75*
G02*
X6885000Y57550000I0J-225000D01*
G01*
G37*
G36*
G01*
X9395000Y63460000D02*
X9395000Y62960000D01*
G75*
G02*
X9170000Y62735000I-225000J0D01*
G01*
X8720000Y62735000D01*
G75*
G02*
X8495000Y62960000I0J225000D01*
G01*
X8495000Y63460000D01*
G75*
G02*
X8720000Y63685000I225000J0D01*
G01*
X9170000Y63685000D01*
G75*
G02*
X9395000Y63460000I0J-225000D01*
G01*
G37*
G36*
G01*
X7845000Y63460000D02*
X7845000Y62960000D01*
G75*
G02*
X7620000Y62735000I-225000J0D01*
G01*
X7170000Y62735000D01*
G75*
G02*
X6945000Y62960000I0J225000D01*
G01*
X6945000Y63460000D01*
G75*
G02*
X7170000Y63685000I225000J0D01*
G01*
X7620000Y63685000D01*
G75*
G02*
X7845000Y63460000I0J-225000D01*
G01*
G37*
G36*
G01*
X53970000Y60835000D02*
X53470000Y60835000D01*
G75*
G02*
X53245000Y61060000I0J225000D01*
G01*
X53245000Y61510000D01*
G75*
G02*
X53470000Y61735000I225000J0D01*
G01*
X53970000Y61735000D01*
G75*
G02*
X54195000Y61510000I0J-225000D01*
G01*
X54195000Y61060000D01*
G75*
G02*
X53970000Y60835000I-225000J0D01*
G01*
G37*
G36*
G01*
X53970000Y62385000D02*
X53470000Y62385000D01*
G75*
G02*
X53245000Y62610000I0J225000D01*
G01*
X53245000Y63060000D01*
G75*
G02*
X53470000Y63285000I225000J0D01*
G01*
X53970000Y63285000D01*
G75*
G02*
X54195000Y63060000I0J-225000D01*
G01*
X54195000Y62610000D01*
G75*
G02*
X53970000Y62385000I-225000J0D01*
G01*
G37*
G36*
G01*
X44560000Y62395000D02*
X44060000Y62395000D01*
G75*
G02*
X43835000Y62620000I0J225000D01*
G01*
X43835000Y63070000D01*
G75*
G02*
X44060000Y63295000I225000J0D01*
G01*
X44560000Y63295000D01*
G75*
G02*
X44785000Y63070000I0J-225000D01*
G01*
X44785000Y62620000D01*
G75*
G02*
X44560000Y62395000I-225000J0D01*
G01*
G37*
G36*
G01*
X44560000Y60845000D02*
X44060000Y60845000D01*
G75*
G02*
X43835000Y61070000I0J225000D01*
G01*
X43835000Y61520000D01*
G75*
G02*
X44060000Y61745000I225000J0D01*
G01*
X44560000Y61745000D01*
G75*
G02*
X44785000Y61520000I0J-225000D01*
G01*
X44785000Y61070000D01*
G75*
G02*
X44560000Y60845000I-225000J0D01*
G01*
G37*
G36*
G01*
X35190000Y60835000D02*
X34690000Y60835000D01*
G75*
G02*
X34465000Y61060000I0J225000D01*
G01*
X34465000Y61510000D01*
G75*
G02*
X34690000Y61735000I225000J0D01*
G01*
X35190000Y61735000D01*
G75*
G02*
X35415000Y61510000I0J-225000D01*
G01*
X35415000Y61060000D01*
G75*
G02*
X35190000Y60835000I-225000J0D01*
G01*
G37*
G36*
G01*
X35190000Y62385000D02*
X34690000Y62385000D01*
G75*
G02*
X34465000Y62610000I0J225000D01*
G01*
X34465000Y63060000D01*
G75*
G02*
X34690000Y63285000I225000J0D01*
G01*
X35190000Y63285000D01*
G75*
G02*
X35415000Y63060000I0J-225000D01*
G01*
X35415000Y62610000D01*
G75*
G02*
X35190000Y62385000I-225000J0D01*
G01*
G37*
G36*
G01*
X25850000Y62415000D02*
X25350000Y62415000D01*
G75*
G02*
X25125000Y62640000I0J225000D01*
G01*
X25125000Y63090000D01*
G75*
G02*
X25350000Y63315000I225000J0D01*
G01*
X25850000Y63315000D01*
G75*
G02*
X26075000Y63090000I0J-225000D01*
G01*
X26075000Y62640000D01*
G75*
G02*
X25850000Y62415000I-225000J0D01*
G01*
G37*
G36*
G01*
X25850000Y60865000D02*
X25350000Y60865000D01*
G75*
G02*
X25125000Y61090000I0J225000D01*
G01*
X25125000Y61540000D01*
G75*
G02*
X25350000Y61765000I225000J0D01*
G01*
X25850000Y61765000D01*
G75*
G02*
X26075000Y61540000I0J-225000D01*
G01*
X26075000Y61090000D01*
G75*
G02*
X25850000Y60865000I-225000J0D01*
G01*
G37*
G36*
G01*
X22820000Y80375000D02*
X23320000Y80375000D01*
G75*
G02*
X23545000Y80150000I0J-225000D01*
G01*
X23545000Y79700000D01*
G75*
G02*
X23320000Y79475000I-225000J0D01*
G01*
X22820000Y79475000D01*
G75*
G02*
X22595000Y79700000I0J225000D01*
G01*
X22595000Y80150000D01*
G75*
G02*
X22820000Y80375000I225000J0D01*
G01*
G37*
G36*
G01*
X22820000Y78825000D02*
X23320000Y78825000D01*
G75*
G02*
X23545000Y78600000I0J-225000D01*
G01*
X23545000Y78150000D01*
G75*
G02*
X23320000Y77925000I-225000J0D01*
G01*
X22820000Y77925000D01*
G75*
G02*
X22595000Y78150000I0J225000D01*
G01*
X22595000Y78600000D01*
G75*
G02*
X22820000Y78825000I225000J0D01*
G01*
G37*
G36*
G01*
X24630000Y78845000D02*
X25130000Y78845000D01*
G75*
G02*
X25355000Y78620000I0J-225000D01*
G01*
X25355000Y78170000D01*
G75*
G02*
X25130000Y77945000I-225000J0D01*
G01*
X24630000Y77945000D01*
G75*
G02*
X24405000Y78170000I0J225000D01*
G01*
X24405000Y78620000D01*
G75*
G02*
X24630000Y78845000I225000J0D01*
G01*
G37*
G36*
G01*
X24630000Y80395000D02*
X25130000Y80395000D01*
G75*
G02*
X25355000Y80170000I0J-225000D01*
G01*
X25355000Y79720000D01*
G75*
G02*
X25130000Y79495000I-225000J0D01*
G01*
X24630000Y79495000D01*
G75*
G02*
X24405000Y79720000I0J225000D01*
G01*
X24405000Y80170000D01*
G75*
G02*
X24630000Y80395000I225000J0D01*
G01*
G37*
G36*
G01*
X53460000Y58555000D02*
X53960000Y58555000D01*
G75*
G02*
X54185000Y58330000I0J-225000D01*
G01*
X54185000Y57880000D01*
G75*
G02*
X53960000Y57655000I-225000J0D01*
G01*
X53460000Y57655000D01*
G75*
G02*
X53235000Y57880000I0J225000D01*
G01*
X53235000Y58330000D01*
G75*
G02*
X53460000Y58555000I225000J0D01*
G01*
G37*
G36*
G01*
X53460000Y57005000D02*
X53960000Y57005000D01*
G75*
G02*
X54185000Y56780000I0J-225000D01*
G01*
X54185000Y56330000D01*
G75*
G02*
X53960000Y56105000I-225000J0D01*
G01*
X53460000Y56105000D01*
G75*
G02*
X53235000Y56330000I0J225000D01*
G01*
X53235000Y56780000D01*
G75*
G02*
X53460000Y57005000I225000J0D01*
G01*
G37*
G36*
G01*
X44080000Y57005000D02*
X44580000Y57005000D01*
G75*
G02*
X44805000Y56780000I0J-225000D01*
G01*
X44805000Y56330000D01*
G75*
G02*
X44580000Y56105000I-225000J0D01*
G01*
X44080000Y56105000D01*
G75*
G02*
X43855000Y56330000I0J225000D01*
G01*
X43855000Y56780000D01*
G75*
G02*
X44080000Y57005000I225000J0D01*
G01*
G37*
G36*
G01*
X44080000Y58555000D02*
X44580000Y58555000D01*
G75*
G02*
X44805000Y58330000I0J-225000D01*
G01*
X44805000Y57880000D01*
G75*
G02*
X44580000Y57655000I-225000J0D01*
G01*
X44080000Y57655000D01*
G75*
G02*
X43855000Y57880000I0J225000D01*
G01*
X43855000Y58330000D01*
G75*
G02*
X44080000Y58555000I225000J0D01*
G01*
G37*
G36*
G01*
X34700000Y57005000D02*
X35200000Y57005000D01*
G75*
G02*
X35425000Y56780000I0J-225000D01*
G01*
X35425000Y56330000D01*
G75*
G02*
X35200000Y56105000I-225000J0D01*
G01*
X34700000Y56105000D01*
G75*
G02*
X34475000Y56330000I0J225000D01*
G01*
X34475000Y56780000D01*
G75*
G02*
X34700000Y57005000I225000J0D01*
G01*
G37*
G36*
G01*
X34700000Y58555000D02*
X35200000Y58555000D01*
G75*
G02*
X35425000Y58330000I0J-225000D01*
G01*
X35425000Y57880000D01*
G75*
G02*
X35200000Y57655000I-225000J0D01*
G01*
X34700000Y57655000D01*
G75*
G02*
X34475000Y57880000I0J225000D01*
G01*
X34475000Y58330000D01*
G75*
G02*
X34700000Y58555000I225000J0D01*
G01*
G37*
G36*
G01*
X25290000Y57015000D02*
X25790000Y57015000D01*
G75*
G02*
X26015000Y56790000I0J-225000D01*
G01*
X26015000Y56340000D01*
G75*
G02*
X25790000Y56115000I-225000J0D01*
G01*
X25290000Y56115000D01*
G75*
G02*
X25065000Y56340000I0J225000D01*
G01*
X25065000Y56790000D01*
G75*
G02*
X25290000Y57015000I225000J0D01*
G01*
G37*
G36*
G01*
X25290000Y58565000D02*
X25790000Y58565000D01*
G75*
G02*
X26015000Y58340000I0J-225000D01*
G01*
X26015000Y57890000D01*
G75*
G02*
X25790000Y57665000I-225000J0D01*
G01*
X25290000Y57665000D01*
G75*
G02*
X25065000Y57890000I0J225000D01*
G01*
X25065000Y58340000D01*
G75*
G02*
X25290000Y58565000I225000J0D01*
G01*
G37*
D11*
X28250000Y47850000D03*
X28750000Y47850000D03*
X29250000Y47850000D03*
X29750000Y47850000D03*
X30250000Y47850000D03*
X30750000Y47850000D03*
X31250000Y47850000D03*
X31750000Y47850000D03*
X32250000Y47850000D03*
X32750000Y47850000D03*
X33250000Y47850000D03*
X33750000Y47850000D03*
X34250000Y47850000D03*
X34750000Y47850000D03*
X35250000Y47850000D03*
X35750000Y47850000D03*
X36250000Y47850000D03*
X36750000Y47850000D03*
X37250000Y47850000D03*
X37750000Y47850000D03*
X38250000Y47850000D03*
X38750000Y47850000D03*
X39250000Y47850000D03*
X39750000Y47850000D03*
X40250000Y47850000D03*
X40750000Y47850000D03*
X41250000Y47850000D03*
X41750000Y47850000D03*
X42250000Y47850000D03*
X42750000Y47850000D03*
X43250000Y47850000D03*
X43750000Y47850000D03*
X44250000Y47850000D03*
X44750000Y47850000D03*
X45250000Y47850000D03*
X45750000Y47850000D03*
X46250000Y47850000D03*
X46750000Y47850000D03*
X47250000Y47850000D03*
X47750000Y47850000D03*
X48250000Y47850000D03*
X48750000Y47850000D03*
X49250000Y47850000D03*
X49750000Y47850000D03*
X50250000Y47850000D03*
X50750000Y47850000D03*
X51250000Y47850000D03*
X51750000Y47850000D03*
X52250000Y47850000D03*
X52750000Y47850000D03*
D12*
X54650000Y44600000D03*
X26350000Y44600000D03*
G36*
G01*
X69425000Y80303750D02*
X69425000Y80816250D01*
G75*
G02*
X69643750Y81035000I218750J0D01*
G01*
X70081250Y81035000D01*
G75*
G02*
X70300000Y80816250I0J-218750D01*
G01*
X70300000Y80303750D01*
G75*
G02*
X70081250Y80085000I-218750J0D01*
G01*
X69643750Y80085000D01*
G75*
G02*
X69425000Y80303750I0J218750D01*
G01*
G37*
G36*
G01*
X71000000Y80303750D02*
X71000000Y80816250D01*
G75*
G02*
X71218750Y81035000I218750J0D01*
G01*
X71656250Y81035000D01*
G75*
G02*
X71875000Y80816250I0J-218750D01*
G01*
X71875000Y80303750D01*
G75*
G02*
X71656250Y80085000I-218750J0D01*
G01*
X71218750Y80085000D01*
G75*
G02*
X71000000Y80303750I0J218750D01*
G01*
G37*
G36*
G01*
X74265000Y34805000D02*
X73715000Y34805000D01*
G75*
G02*
X73515000Y35005000I0J200000D01*
G01*
X73515000Y35405000D01*
G75*
G02*
X73715000Y35605000I200000J0D01*
G01*
X74265000Y35605000D01*
G75*
G02*
X74465000Y35405000I0J-200000D01*
G01*
X74465000Y35005000D01*
G75*
G02*
X74265000Y34805000I-200000J0D01*
G01*
G37*
G36*
G01*
X74265000Y36455000D02*
X73715000Y36455000D01*
G75*
G02*
X73515000Y36655000I0J200000D01*
G01*
X73515000Y37055000D01*
G75*
G02*
X73715000Y37255000I200000J0D01*
G01*
X74265000Y37255000D01*
G75*
G02*
X74465000Y37055000I0J-200000D01*
G01*
X74465000Y36655000D01*
G75*
G02*
X74265000Y36455000I-200000J0D01*
G01*
G37*
G36*
G01*
X76405000Y34795000D02*
X75855000Y34795000D01*
G75*
G02*
X75655000Y34995000I0J200000D01*
G01*
X75655000Y35395000D01*
G75*
G02*
X75855000Y35595000I200000J0D01*
G01*
X76405000Y35595000D01*
G75*
G02*
X76605000Y35395000I0J-200000D01*
G01*
X76605000Y34995000D01*
G75*
G02*
X76405000Y34795000I-200000J0D01*
G01*
G37*
G36*
G01*
X76405000Y36445000D02*
X75855000Y36445000D01*
G75*
G02*
X75655000Y36645000I0J200000D01*
G01*
X75655000Y37045000D01*
G75*
G02*
X75855000Y37245000I200000J0D01*
G01*
X76405000Y37245000D01*
G75*
G02*
X76605000Y37045000I0J-200000D01*
G01*
X76605000Y36645000D01*
G75*
G02*
X76405000Y36445000I-200000J0D01*
G01*
G37*
G36*
G01*
X72525000Y29315000D02*
X72525000Y29865000D01*
G75*
G02*
X72725000Y30065000I200000J0D01*
G01*
X73125000Y30065000D01*
G75*
G02*
X73325000Y29865000I0J-200000D01*
G01*
X73325000Y29315000D01*
G75*
G02*
X73125000Y29115000I-200000J0D01*
G01*
X72725000Y29115000D01*
G75*
G02*
X72525000Y29315000I0J200000D01*
G01*
G37*
G36*
G01*
X74175000Y29315000D02*
X74175000Y29865000D01*
G75*
G02*
X74375000Y30065000I200000J0D01*
G01*
X74775000Y30065000D01*
G75*
G02*
X74975000Y29865000I0J-200000D01*
G01*
X74975000Y29315000D01*
G75*
G02*
X74775000Y29115000I-200000J0D01*
G01*
X74375000Y29115000D01*
G75*
G02*
X74175000Y29315000I0J200000D01*
G01*
G37*
G36*
G01*
X74185000Y31225000D02*
X74185000Y31775000D01*
G75*
G02*
X74385000Y31975000I200000J0D01*
G01*
X74785000Y31975000D01*
G75*
G02*
X74985000Y31775000I0J-200000D01*
G01*
X74985000Y31225000D01*
G75*
G02*
X74785000Y31025000I-200000J0D01*
G01*
X74385000Y31025000D01*
G75*
G02*
X74185000Y31225000I0J200000D01*
G01*
G37*
G36*
G01*
X75835000Y31225000D02*
X75835000Y31775000D01*
G75*
G02*
X76035000Y31975000I200000J0D01*
G01*
X76435000Y31975000D01*
G75*
G02*
X76635000Y31775000I0J-200000D01*
G01*
X76635000Y31225000D01*
G75*
G02*
X76435000Y31025000I-200000J0D01*
G01*
X76035000Y31025000D01*
G75*
G02*
X75835000Y31225000I0J200000D01*
G01*
G37*
G36*
G01*
X62895000Y25175000D02*
X62895000Y25725000D01*
G75*
G02*
X63095000Y25925000I200000J0D01*
G01*
X63495000Y25925000D01*
G75*
G02*
X63695000Y25725000I0J-200000D01*
G01*
X63695000Y25175000D01*
G75*
G02*
X63495000Y24975000I-200000J0D01*
G01*
X63095000Y24975000D01*
G75*
G02*
X62895000Y25175000I0J200000D01*
G01*
G37*
G36*
G01*
X61245000Y25175000D02*
X61245000Y25725000D01*
G75*
G02*
X61445000Y25925000I200000J0D01*
G01*
X61845000Y25925000D01*
G75*
G02*
X62045000Y25725000I0J-200000D01*
G01*
X62045000Y25175000D01*
G75*
G02*
X61845000Y24975000I-200000J0D01*
G01*
X61445000Y24975000D01*
G75*
G02*
X61245000Y25175000I0J200000D01*
G01*
G37*
G36*
G01*
X19905000Y85865000D02*
X19905000Y85315000D01*
G75*
G02*
X19705000Y85115000I-200000J0D01*
G01*
X19305000Y85115000D01*
G75*
G02*
X19105000Y85315000I0J200000D01*
G01*
X19105000Y85865000D01*
G75*
G02*
X19305000Y86065000I200000J0D01*
G01*
X19705000Y86065000D01*
G75*
G02*
X19905000Y85865000I0J-200000D01*
G01*
G37*
G36*
G01*
X18255000Y85865000D02*
X18255000Y85315000D01*
G75*
G02*
X18055000Y85115000I-200000J0D01*
G01*
X17655000Y85115000D01*
G75*
G02*
X17455000Y85315000I0J200000D01*
G01*
X17455000Y85865000D01*
G75*
G02*
X17655000Y86065000I200000J0D01*
G01*
X18055000Y86065000D01*
G75*
G02*
X18255000Y85865000I0J-200000D01*
G01*
G37*
G36*
G01*
X69805000Y74505000D02*
X69805000Y75055000D01*
G75*
G02*
X70005000Y75255000I200000J0D01*
G01*
X70405000Y75255000D01*
G75*
G02*
X70605000Y75055000I0J-200000D01*
G01*
X70605000Y74505000D01*
G75*
G02*
X70405000Y74305000I-200000J0D01*
G01*
X70005000Y74305000D01*
G75*
G02*
X69805000Y74505000I0J200000D01*
G01*
G37*
G36*
G01*
X71455000Y74505000D02*
X71455000Y75055000D01*
G75*
G02*
X71655000Y75255000I200000J0D01*
G01*
X72055000Y75255000D01*
G75*
G02*
X72255000Y75055000I0J-200000D01*
G01*
X72255000Y74505000D01*
G75*
G02*
X72055000Y74305000I-200000J0D01*
G01*
X71655000Y74305000D01*
G75*
G02*
X71455000Y74505000I0J200000D01*
G01*
G37*
G36*
G01*
X70605000Y73215000D02*
X70605000Y72665000D01*
G75*
G02*
X70405000Y72465000I-200000J0D01*
G01*
X70005000Y72465000D01*
G75*
G02*
X69805000Y72665000I0J200000D01*
G01*
X69805000Y73215000D01*
G75*
G02*
X70005000Y73415000I200000J0D01*
G01*
X70405000Y73415000D01*
G75*
G02*
X70605000Y73215000I0J-200000D01*
G01*
G37*
G36*
G01*
X72255000Y73215000D02*
X72255000Y72665000D01*
G75*
G02*
X72055000Y72465000I-200000J0D01*
G01*
X71655000Y72465000D01*
G75*
G02*
X71455000Y72665000I0J200000D01*
G01*
X71455000Y73215000D01*
G75*
G02*
X71655000Y73415000I200000J0D01*
G01*
X72055000Y73415000D01*
G75*
G02*
X72255000Y73215000I0J-200000D01*
G01*
G37*
G36*
G01*
X21045000Y37635000D02*
X21045000Y37085000D01*
G75*
G02*
X20845000Y36885000I-200000J0D01*
G01*
X20445000Y36885000D01*
G75*
G02*
X20245000Y37085000I0J200000D01*
G01*
X20245000Y37635000D01*
G75*
G02*
X20445000Y37835000I200000J0D01*
G01*
X20845000Y37835000D01*
G75*
G02*
X21045000Y37635000I0J-200000D01*
G01*
G37*
G36*
G01*
X22695000Y37635000D02*
X22695000Y37085000D01*
G75*
G02*
X22495000Y36885000I-200000J0D01*
G01*
X22095000Y36885000D01*
G75*
G02*
X21895000Y37085000I0J200000D01*
G01*
X21895000Y37635000D01*
G75*
G02*
X22095000Y37835000I200000J0D01*
G01*
X22495000Y37835000D01*
G75*
G02*
X22695000Y37635000I0J-200000D01*
G01*
G37*
G36*
G01*
X68665000Y36445000D02*
X68665000Y36995000D01*
G75*
G02*
X68865000Y37195000I200000J0D01*
G01*
X69265000Y37195000D01*
G75*
G02*
X69465000Y36995000I0J-200000D01*
G01*
X69465000Y36445000D01*
G75*
G02*
X69265000Y36245000I-200000J0D01*
G01*
X68865000Y36245000D01*
G75*
G02*
X68665000Y36445000I0J200000D01*
G01*
G37*
G36*
G01*
X67015000Y36445000D02*
X67015000Y36995000D01*
G75*
G02*
X67215000Y37195000I200000J0D01*
G01*
X67615000Y37195000D01*
G75*
G02*
X67815000Y36995000I0J-200000D01*
G01*
X67815000Y36445000D01*
G75*
G02*
X67615000Y36245000I-200000J0D01*
G01*
X67215000Y36245000D01*
G75*
G02*
X67015000Y36445000I0J200000D01*
G01*
G37*
G36*
G01*
X21895000Y21075000D02*
X21895000Y20525000D01*
G75*
G02*
X21695000Y20325000I-200000J0D01*
G01*
X21295000Y20325000D01*
G75*
G02*
X21095000Y20525000I0J200000D01*
G01*
X21095000Y21075000D01*
G75*
G02*
X21295000Y21275000I200000J0D01*
G01*
X21695000Y21275000D01*
G75*
G02*
X21895000Y21075000I0J-200000D01*
G01*
G37*
G36*
G01*
X23545000Y21075000D02*
X23545000Y20525000D01*
G75*
G02*
X23345000Y20325000I-200000J0D01*
G01*
X22945000Y20325000D01*
G75*
G02*
X22745000Y20525000I0J200000D01*
G01*
X22745000Y21075000D01*
G75*
G02*
X22945000Y21275000I200000J0D01*
G01*
X23345000Y21275000D01*
G75*
G02*
X23545000Y21075000I0J-200000D01*
G01*
G37*
G36*
G01*
X57645000Y30715000D02*
X57645000Y31265000D01*
G75*
G02*
X57845000Y31465000I200000J0D01*
G01*
X58245000Y31465000D01*
G75*
G02*
X58445000Y31265000I0J-200000D01*
G01*
X58445000Y30715000D01*
G75*
G02*
X58245000Y30515000I-200000J0D01*
G01*
X57845000Y30515000D01*
G75*
G02*
X57645000Y30715000I0J200000D01*
G01*
G37*
G36*
G01*
X59295000Y30715000D02*
X59295000Y31265000D01*
G75*
G02*
X59495000Y31465000I200000J0D01*
G01*
X59895000Y31465000D01*
G75*
G02*
X60095000Y31265000I0J-200000D01*
G01*
X60095000Y30715000D01*
G75*
G02*
X59895000Y30515000I-200000J0D01*
G01*
X59495000Y30515000D01*
G75*
G02*
X59295000Y30715000I0J200000D01*
G01*
G37*
G36*
G01*
X13025000Y27795000D02*
X13025000Y27245000D01*
G75*
G02*
X12825000Y27045000I-200000J0D01*
G01*
X12425000Y27045000D01*
G75*
G02*
X12225000Y27245000I0J200000D01*
G01*
X12225000Y27795000D01*
G75*
G02*
X12425000Y27995000I200000J0D01*
G01*
X12825000Y27995000D01*
G75*
G02*
X13025000Y27795000I0J-200000D01*
G01*
G37*
G36*
G01*
X14675000Y27795000D02*
X14675000Y27245000D01*
G75*
G02*
X14475000Y27045000I-200000J0D01*
G01*
X14075000Y27045000D01*
G75*
G02*
X13875000Y27245000I0J200000D01*
G01*
X13875000Y27795000D01*
G75*
G02*
X14075000Y27995000I200000J0D01*
G01*
X14475000Y27995000D01*
G75*
G02*
X14675000Y27795000I0J-200000D01*
G01*
G37*
G36*
G01*
X47225000Y13215000D02*
X47225000Y12665000D01*
G75*
G02*
X47025000Y12465000I-200000J0D01*
G01*
X46625000Y12465000D01*
G75*
G02*
X46425000Y12665000I0J200000D01*
G01*
X46425000Y13215000D01*
G75*
G02*
X46625000Y13415000I200000J0D01*
G01*
X47025000Y13415000D01*
G75*
G02*
X47225000Y13215000I0J-200000D01*
G01*
G37*
G36*
G01*
X48875000Y13215000D02*
X48875000Y12665000D01*
G75*
G02*
X48675000Y12465000I-200000J0D01*
G01*
X48275000Y12465000D01*
G75*
G02*
X48075000Y12665000I0J200000D01*
G01*
X48075000Y13215000D01*
G75*
G02*
X48275000Y13415000I200000J0D01*
G01*
X48675000Y13415000D01*
G75*
G02*
X48875000Y13215000I0J-200000D01*
G01*
G37*
G36*
G01*
X29240000Y29415000D02*
X29240000Y28865000D01*
G75*
G02*
X29040000Y28665000I-200000J0D01*
G01*
X28640000Y28665000D01*
G75*
G02*
X28440000Y28865000I0J200000D01*
G01*
X28440000Y29415000D01*
G75*
G02*
X28640000Y29615000I200000J0D01*
G01*
X29040000Y29615000D01*
G75*
G02*
X29240000Y29415000I0J-200000D01*
G01*
G37*
G36*
G01*
X30890000Y29415000D02*
X30890000Y28865000D01*
G75*
G02*
X30690000Y28665000I-200000J0D01*
G01*
X30290000Y28665000D01*
G75*
G02*
X30090000Y28865000I0J200000D01*
G01*
X30090000Y29415000D01*
G75*
G02*
X30290000Y29615000I200000J0D01*
G01*
X30690000Y29615000D01*
G75*
G02*
X30890000Y29415000I0J-200000D01*
G01*
G37*
G36*
G01*
X37315000Y14285000D02*
X37315000Y13735000D01*
G75*
G02*
X37115000Y13535000I-200000J0D01*
G01*
X36715000Y13535000D01*
G75*
G02*
X36515000Y13735000I0J200000D01*
G01*
X36515000Y14285000D01*
G75*
G02*
X36715000Y14485000I200000J0D01*
G01*
X37115000Y14485000D01*
G75*
G02*
X37315000Y14285000I0J-200000D01*
G01*
G37*
G36*
G01*
X35665000Y14285000D02*
X35665000Y13735000D01*
G75*
G02*
X35465000Y13535000I-200000J0D01*
G01*
X35065000Y13535000D01*
G75*
G02*
X34865000Y13735000I0J200000D01*
G01*
X34865000Y14285000D01*
G75*
G02*
X35065000Y14485000I200000J0D01*
G01*
X35465000Y14485000D01*
G75*
G02*
X35665000Y14285000I0J-200000D01*
G01*
G37*
G36*
G01*
X18155000Y81625000D02*
X17605000Y81625000D01*
G75*
G02*
X17405000Y81825000I0J200000D01*
G01*
X17405000Y82225000D01*
G75*
G02*
X17605000Y82425000I200000J0D01*
G01*
X18155000Y82425000D01*
G75*
G02*
X18355000Y82225000I0J-200000D01*
G01*
X18355000Y81825000D01*
G75*
G02*
X18155000Y81625000I-200000J0D01*
G01*
G37*
G36*
G01*
X18155000Y83275000D02*
X17605000Y83275000D01*
G75*
G02*
X17405000Y83475000I0J200000D01*
G01*
X17405000Y83875000D01*
G75*
G02*
X17605000Y84075000I200000J0D01*
G01*
X18155000Y84075000D01*
G75*
G02*
X18355000Y83875000I0J-200000D01*
G01*
X18355000Y83475000D01*
G75*
G02*
X18155000Y83275000I-200000J0D01*
G01*
G37*
D13*
X70250000Y30905000D03*
X70250000Y30255000D03*
X70250000Y29605000D03*
X70250000Y28955000D03*
X65850000Y28955000D03*
X65850000Y29605000D03*
X65850000Y30255000D03*
X65850000Y30905000D03*
D12*
X23600000Y87650000D03*
X57400000Y87650000D03*
D14*
X71684999Y78594999D03*
X71684999Y77644999D03*
X71684999Y76694999D03*
X69484999Y76694999D03*
X69484999Y78594999D03*
X69484999Y77644999D03*
D15*
X7020000Y61210000D03*
X8920000Y61210000D03*
X7970000Y59210000D03*
G36*
G01*
X52165000Y56100000D02*
X51965000Y56100000D01*
G75*
G02*
X51865000Y56200000I0J100000D01*
G01*
X51865000Y57475000D01*
G75*
G02*
X51965000Y57575000I100000J0D01*
G01*
X52165000Y57575000D01*
G75*
G02*
X52265000Y57475000I0J-100000D01*
G01*
X52265000Y56200000D01*
G75*
G02*
X52165000Y56100000I-100000J0D01*
G01*
G37*
G36*
G01*
X51515000Y56100000D02*
X51315000Y56100000D01*
G75*
G02*
X51215000Y56200000I0J100000D01*
G01*
X51215000Y57475000D01*
G75*
G02*
X51315000Y57575000I100000J0D01*
G01*
X51515000Y57575000D01*
G75*
G02*
X51615000Y57475000I0J-100000D01*
G01*
X51615000Y56200000D01*
G75*
G02*
X51515000Y56100000I-100000J0D01*
G01*
G37*
G36*
G01*
X50865000Y56100000D02*
X50665000Y56100000D01*
G75*
G02*
X50565000Y56200000I0J100000D01*
G01*
X50565000Y57475000D01*
G75*
G02*
X50665000Y57575000I100000J0D01*
G01*
X50865000Y57575000D01*
G75*
G02*
X50965000Y57475000I0J-100000D01*
G01*
X50965000Y56200000D01*
G75*
G02*
X50865000Y56100000I-100000J0D01*
G01*
G37*
G36*
G01*
X50215000Y56100000D02*
X50015000Y56100000D01*
G75*
G02*
X49915000Y56200000I0J100000D01*
G01*
X49915000Y57475000D01*
G75*
G02*
X50015000Y57575000I100000J0D01*
G01*
X50215000Y57575000D01*
G75*
G02*
X50315000Y57475000I0J-100000D01*
G01*
X50315000Y56200000D01*
G75*
G02*
X50215000Y56100000I-100000J0D01*
G01*
G37*
G36*
G01*
X49565000Y56100000D02*
X49365000Y56100000D01*
G75*
G02*
X49265000Y56200000I0J100000D01*
G01*
X49265000Y57475000D01*
G75*
G02*
X49365000Y57575000I100000J0D01*
G01*
X49565000Y57575000D01*
G75*
G02*
X49665000Y57475000I0J-100000D01*
G01*
X49665000Y56200000D01*
G75*
G02*
X49565000Y56100000I-100000J0D01*
G01*
G37*
G36*
G01*
X48915000Y56100000D02*
X48715000Y56100000D01*
G75*
G02*
X48615000Y56200000I0J100000D01*
G01*
X48615000Y57475000D01*
G75*
G02*
X48715000Y57575000I100000J0D01*
G01*
X48915000Y57575000D01*
G75*
G02*
X49015000Y57475000I0J-100000D01*
G01*
X49015000Y56200000D01*
G75*
G02*
X48915000Y56100000I-100000J0D01*
G01*
G37*
G36*
G01*
X48265000Y56100000D02*
X48065000Y56100000D01*
G75*
G02*
X47965000Y56200000I0J100000D01*
G01*
X47965000Y57475000D01*
G75*
G02*
X48065000Y57575000I100000J0D01*
G01*
X48265000Y57575000D01*
G75*
G02*
X48365000Y57475000I0J-100000D01*
G01*
X48365000Y56200000D01*
G75*
G02*
X48265000Y56100000I-100000J0D01*
G01*
G37*
G36*
G01*
X47615000Y56100000D02*
X47415000Y56100000D01*
G75*
G02*
X47315000Y56200000I0J100000D01*
G01*
X47315000Y57475000D01*
G75*
G02*
X47415000Y57575000I100000J0D01*
G01*
X47615000Y57575000D01*
G75*
G02*
X47715000Y57475000I0J-100000D01*
G01*
X47715000Y56200000D01*
G75*
G02*
X47615000Y56100000I-100000J0D01*
G01*
G37*
G36*
G01*
X46965000Y56100000D02*
X46765000Y56100000D01*
G75*
G02*
X46665000Y56200000I0J100000D01*
G01*
X46665000Y57475000D01*
G75*
G02*
X46765000Y57575000I100000J0D01*
G01*
X46965000Y57575000D01*
G75*
G02*
X47065000Y57475000I0J-100000D01*
G01*
X47065000Y56200000D01*
G75*
G02*
X46965000Y56100000I-100000J0D01*
G01*
G37*
G36*
G01*
X46315000Y56100000D02*
X46115000Y56100000D01*
G75*
G02*
X46015000Y56200000I0J100000D01*
G01*
X46015000Y57475000D01*
G75*
G02*
X46115000Y57575000I100000J0D01*
G01*
X46315000Y57575000D01*
G75*
G02*
X46415000Y57475000I0J-100000D01*
G01*
X46415000Y56200000D01*
G75*
G02*
X46315000Y56100000I-100000J0D01*
G01*
G37*
G36*
G01*
X46315000Y61825000D02*
X46115000Y61825000D01*
G75*
G02*
X46015000Y61925000I0J100000D01*
G01*
X46015000Y63200000D01*
G75*
G02*
X46115000Y63300000I100000J0D01*
G01*
X46315000Y63300000D01*
G75*
G02*
X46415000Y63200000I0J-100000D01*
G01*
X46415000Y61925000D01*
G75*
G02*
X46315000Y61825000I-100000J0D01*
G01*
G37*
G36*
G01*
X46965000Y61825000D02*
X46765000Y61825000D01*
G75*
G02*
X46665000Y61925000I0J100000D01*
G01*
X46665000Y63200000D01*
G75*
G02*
X46765000Y63300000I100000J0D01*
G01*
X46965000Y63300000D01*
G75*
G02*
X47065000Y63200000I0J-100000D01*
G01*
X47065000Y61925000D01*
G75*
G02*
X46965000Y61825000I-100000J0D01*
G01*
G37*
G36*
G01*
X47615000Y61825000D02*
X47415000Y61825000D01*
G75*
G02*
X47315000Y61925000I0J100000D01*
G01*
X47315000Y63200000D01*
G75*
G02*
X47415000Y63300000I100000J0D01*
G01*
X47615000Y63300000D01*
G75*
G02*
X47715000Y63200000I0J-100000D01*
G01*
X47715000Y61925000D01*
G75*
G02*
X47615000Y61825000I-100000J0D01*
G01*
G37*
G36*
G01*
X48265000Y61825000D02*
X48065000Y61825000D01*
G75*
G02*
X47965000Y61925000I0J100000D01*
G01*
X47965000Y63200000D01*
G75*
G02*
X48065000Y63300000I100000J0D01*
G01*
X48265000Y63300000D01*
G75*
G02*
X48365000Y63200000I0J-100000D01*
G01*
X48365000Y61925000D01*
G75*
G02*
X48265000Y61825000I-100000J0D01*
G01*
G37*
G36*
G01*
X48915000Y61825000D02*
X48715000Y61825000D01*
G75*
G02*
X48615000Y61925000I0J100000D01*
G01*
X48615000Y63200000D01*
G75*
G02*
X48715000Y63300000I100000J0D01*
G01*
X48915000Y63300000D01*
G75*
G02*
X49015000Y63200000I0J-100000D01*
G01*
X49015000Y61925000D01*
G75*
G02*
X48915000Y61825000I-100000J0D01*
G01*
G37*
G36*
G01*
X49565000Y61825000D02*
X49365000Y61825000D01*
G75*
G02*
X49265000Y61925000I0J100000D01*
G01*
X49265000Y63200000D01*
G75*
G02*
X49365000Y63300000I100000J0D01*
G01*
X49565000Y63300000D01*
G75*
G02*
X49665000Y63200000I0J-100000D01*
G01*
X49665000Y61925000D01*
G75*
G02*
X49565000Y61825000I-100000J0D01*
G01*
G37*
G36*
G01*
X50215000Y61825000D02*
X50015000Y61825000D01*
G75*
G02*
X49915000Y61925000I0J100000D01*
G01*
X49915000Y63200000D01*
G75*
G02*
X50015000Y63300000I100000J0D01*
G01*
X50215000Y63300000D01*
G75*
G02*
X50315000Y63200000I0J-100000D01*
G01*
X50315000Y61925000D01*
G75*
G02*
X50215000Y61825000I-100000J0D01*
G01*
G37*
G36*
G01*
X50865000Y61825000D02*
X50665000Y61825000D01*
G75*
G02*
X50565000Y61925000I0J100000D01*
G01*
X50565000Y63200000D01*
G75*
G02*
X50665000Y63300000I100000J0D01*
G01*
X50865000Y63300000D01*
G75*
G02*
X50965000Y63200000I0J-100000D01*
G01*
X50965000Y61925000D01*
G75*
G02*
X50865000Y61825000I-100000J0D01*
G01*
G37*
G36*
G01*
X51515000Y61825000D02*
X51315000Y61825000D01*
G75*
G02*
X51215000Y61925000I0J100000D01*
G01*
X51215000Y63200000D01*
G75*
G02*
X51315000Y63300000I100000J0D01*
G01*
X51515000Y63300000D01*
G75*
G02*
X51615000Y63200000I0J-100000D01*
G01*
X51615000Y61925000D01*
G75*
G02*
X51515000Y61825000I-100000J0D01*
G01*
G37*
G36*
G01*
X52165000Y61825000D02*
X51965000Y61825000D01*
G75*
G02*
X51865000Y61925000I0J100000D01*
G01*
X51865000Y63200000D01*
G75*
G02*
X51965000Y63300000I100000J0D01*
G01*
X52165000Y63300000D01*
G75*
G02*
X52265000Y63200000I0J-100000D01*
G01*
X52265000Y61925000D01*
G75*
G02*
X52165000Y61825000I-100000J0D01*
G01*
G37*
G36*
G01*
X42845000Y61825000D02*
X42645000Y61825000D01*
G75*
G02*
X42545000Y61925000I0J100000D01*
G01*
X42545000Y63200000D01*
G75*
G02*
X42645000Y63300000I100000J0D01*
G01*
X42845000Y63300000D01*
G75*
G02*
X42945000Y63200000I0J-100000D01*
G01*
X42945000Y61925000D01*
G75*
G02*
X42845000Y61825000I-100000J0D01*
G01*
G37*
G36*
G01*
X42195000Y61825000D02*
X41995000Y61825000D01*
G75*
G02*
X41895000Y61925000I0J100000D01*
G01*
X41895000Y63200000D01*
G75*
G02*
X41995000Y63300000I100000J0D01*
G01*
X42195000Y63300000D01*
G75*
G02*
X42295000Y63200000I0J-100000D01*
G01*
X42295000Y61925000D01*
G75*
G02*
X42195000Y61825000I-100000J0D01*
G01*
G37*
G36*
G01*
X41545000Y61825000D02*
X41345000Y61825000D01*
G75*
G02*
X41245000Y61925000I0J100000D01*
G01*
X41245000Y63200000D01*
G75*
G02*
X41345000Y63300000I100000J0D01*
G01*
X41545000Y63300000D01*
G75*
G02*
X41645000Y63200000I0J-100000D01*
G01*
X41645000Y61925000D01*
G75*
G02*
X41545000Y61825000I-100000J0D01*
G01*
G37*
G36*
G01*
X40895000Y61825000D02*
X40695000Y61825000D01*
G75*
G02*
X40595000Y61925000I0J100000D01*
G01*
X40595000Y63200000D01*
G75*
G02*
X40695000Y63300000I100000J0D01*
G01*
X40895000Y63300000D01*
G75*
G02*
X40995000Y63200000I0J-100000D01*
G01*
X40995000Y61925000D01*
G75*
G02*
X40895000Y61825000I-100000J0D01*
G01*
G37*
G36*
G01*
X40245000Y61825000D02*
X40045000Y61825000D01*
G75*
G02*
X39945000Y61925000I0J100000D01*
G01*
X39945000Y63200000D01*
G75*
G02*
X40045000Y63300000I100000J0D01*
G01*
X40245000Y63300000D01*
G75*
G02*
X40345000Y63200000I0J-100000D01*
G01*
X40345000Y61925000D01*
G75*
G02*
X40245000Y61825000I-100000J0D01*
G01*
G37*
G36*
G01*
X39595000Y61825000D02*
X39395000Y61825000D01*
G75*
G02*
X39295000Y61925000I0J100000D01*
G01*
X39295000Y63200000D01*
G75*
G02*
X39395000Y63300000I100000J0D01*
G01*
X39595000Y63300000D01*
G75*
G02*
X39695000Y63200000I0J-100000D01*
G01*
X39695000Y61925000D01*
G75*
G02*
X39595000Y61825000I-100000J0D01*
G01*
G37*
G36*
G01*
X38945000Y61825000D02*
X38745000Y61825000D01*
G75*
G02*
X38645000Y61925000I0J100000D01*
G01*
X38645000Y63200000D01*
G75*
G02*
X38745000Y63300000I100000J0D01*
G01*
X38945000Y63300000D01*
G75*
G02*
X39045000Y63200000I0J-100000D01*
G01*
X39045000Y61925000D01*
G75*
G02*
X38945000Y61825000I-100000J0D01*
G01*
G37*
G36*
G01*
X38295000Y61825000D02*
X38095000Y61825000D01*
G75*
G02*
X37995000Y61925000I0J100000D01*
G01*
X37995000Y63200000D01*
G75*
G02*
X38095000Y63300000I100000J0D01*
G01*
X38295000Y63300000D01*
G75*
G02*
X38395000Y63200000I0J-100000D01*
G01*
X38395000Y61925000D01*
G75*
G02*
X38295000Y61825000I-100000J0D01*
G01*
G37*
G36*
G01*
X37645000Y61825000D02*
X37445000Y61825000D01*
G75*
G02*
X37345000Y61925000I0J100000D01*
G01*
X37345000Y63200000D01*
G75*
G02*
X37445000Y63300000I100000J0D01*
G01*
X37645000Y63300000D01*
G75*
G02*
X37745000Y63200000I0J-100000D01*
G01*
X37745000Y61925000D01*
G75*
G02*
X37645000Y61825000I-100000J0D01*
G01*
G37*
G36*
G01*
X36995000Y61825000D02*
X36795000Y61825000D01*
G75*
G02*
X36695000Y61925000I0J100000D01*
G01*
X36695000Y63200000D01*
G75*
G02*
X36795000Y63300000I100000J0D01*
G01*
X36995000Y63300000D01*
G75*
G02*
X37095000Y63200000I0J-100000D01*
G01*
X37095000Y61925000D01*
G75*
G02*
X36995000Y61825000I-100000J0D01*
G01*
G37*
G36*
G01*
X36995000Y56100000D02*
X36795000Y56100000D01*
G75*
G02*
X36695000Y56200000I0J100000D01*
G01*
X36695000Y57475000D01*
G75*
G02*
X36795000Y57575000I100000J0D01*
G01*
X36995000Y57575000D01*
G75*
G02*
X37095000Y57475000I0J-100000D01*
G01*
X37095000Y56200000D01*
G75*
G02*
X36995000Y56100000I-100000J0D01*
G01*
G37*
G36*
G01*
X37645000Y56100000D02*
X37445000Y56100000D01*
G75*
G02*
X37345000Y56200000I0J100000D01*
G01*
X37345000Y57475000D01*
G75*
G02*
X37445000Y57575000I100000J0D01*
G01*
X37645000Y57575000D01*
G75*
G02*
X37745000Y57475000I0J-100000D01*
G01*
X37745000Y56200000D01*
G75*
G02*
X37645000Y56100000I-100000J0D01*
G01*
G37*
G36*
G01*
X38295000Y56100000D02*
X38095000Y56100000D01*
G75*
G02*
X37995000Y56200000I0J100000D01*
G01*
X37995000Y57475000D01*
G75*
G02*
X38095000Y57575000I100000J0D01*
G01*
X38295000Y57575000D01*
G75*
G02*
X38395000Y57475000I0J-100000D01*
G01*
X38395000Y56200000D01*
G75*
G02*
X38295000Y56100000I-100000J0D01*
G01*
G37*
G36*
G01*
X38945000Y56100000D02*
X38745000Y56100000D01*
G75*
G02*
X38645000Y56200000I0J100000D01*
G01*
X38645000Y57475000D01*
G75*
G02*
X38745000Y57575000I100000J0D01*
G01*
X38945000Y57575000D01*
G75*
G02*
X39045000Y57475000I0J-100000D01*
G01*
X39045000Y56200000D01*
G75*
G02*
X38945000Y56100000I-100000J0D01*
G01*
G37*
G36*
G01*
X39595000Y56100000D02*
X39395000Y56100000D01*
G75*
G02*
X39295000Y56200000I0J100000D01*
G01*
X39295000Y57475000D01*
G75*
G02*
X39395000Y57575000I100000J0D01*
G01*
X39595000Y57575000D01*
G75*
G02*
X39695000Y57475000I0J-100000D01*
G01*
X39695000Y56200000D01*
G75*
G02*
X39595000Y56100000I-100000J0D01*
G01*
G37*
G36*
G01*
X40245000Y56100000D02*
X40045000Y56100000D01*
G75*
G02*
X39945000Y56200000I0J100000D01*
G01*
X39945000Y57475000D01*
G75*
G02*
X40045000Y57575000I100000J0D01*
G01*
X40245000Y57575000D01*
G75*
G02*
X40345000Y57475000I0J-100000D01*
G01*
X40345000Y56200000D01*
G75*
G02*
X40245000Y56100000I-100000J0D01*
G01*
G37*
G36*
G01*
X40895000Y56100000D02*
X40695000Y56100000D01*
G75*
G02*
X40595000Y56200000I0J100000D01*
G01*
X40595000Y57475000D01*
G75*
G02*
X40695000Y57575000I100000J0D01*
G01*
X40895000Y57575000D01*
G75*
G02*
X40995000Y57475000I0J-100000D01*
G01*
X40995000Y56200000D01*
G75*
G02*
X40895000Y56100000I-100000J0D01*
G01*
G37*
G36*
G01*
X41545000Y56100000D02*
X41345000Y56100000D01*
G75*
G02*
X41245000Y56200000I0J100000D01*
G01*
X41245000Y57475000D01*
G75*
G02*
X41345000Y57575000I100000J0D01*
G01*
X41545000Y57575000D01*
G75*
G02*
X41645000Y57475000I0J-100000D01*
G01*
X41645000Y56200000D01*
G75*
G02*
X41545000Y56100000I-100000J0D01*
G01*
G37*
G36*
G01*
X42195000Y56100000D02*
X41995000Y56100000D01*
G75*
G02*
X41895000Y56200000I0J100000D01*
G01*
X41895000Y57475000D01*
G75*
G02*
X41995000Y57575000I100000J0D01*
G01*
X42195000Y57575000D01*
G75*
G02*
X42295000Y57475000I0J-100000D01*
G01*
X42295000Y56200000D01*
G75*
G02*
X42195000Y56100000I-100000J0D01*
G01*
G37*
G36*
G01*
X42845000Y56100000D02*
X42645000Y56100000D01*
G75*
G02*
X42545000Y56200000I0J100000D01*
G01*
X42545000Y57475000D01*
G75*
G02*
X42645000Y57575000I100000J0D01*
G01*
X42845000Y57575000D01*
G75*
G02*
X42945000Y57475000I0J-100000D01*
G01*
X42945000Y56200000D01*
G75*
G02*
X42845000Y56100000I-100000J0D01*
G01*
G37*
G36*
G01*
X33465000Y56100000D02*
X33265000Y56100000D01*
G75*
G02*
X33165000Y56200000I0J100000D01*
G01*
X33165000Y57475000D01*
G75*
G02*
X33265000Y57575000I100000J0D01*
G01*
X33465000Y57575000D01*
G75*
G02*
X33565000Y57475000I0J-100000D01*
G01*
X33565000Y56200000D01*
G75*
G02*
X33465000Y56100000I-100000J0D01*
G01*
G37*
G36*
G01*
X32815000Y56100000D02*
X32615000Y56100000D01*
G75*
G02*
X32515000Y56200000I0J100000D01*
G01*
X32515000Y57475000D01*
G75*
G02*
X32615000Y57575000I100000J0D01*
G01*
X32815000Y57575000D01*
G75*
G02*
X32915000Y57475000I0J-100000D01*
G01*
X32915000Y56200000D01*
G75*
G02*
X32815000Y56100000I-100000J0D01*
G01*
G37*
G36*
G01*
X32165000Y56100000D02*
X31965000Y56100000D01*
G75*
G02*
X31865000Y56200000I0J100000D01*
G01*
X31865000Y57475000D01*
G75*
G02*
X31965000Y57575000I100000J0D01*
G01*
X32165000Y57575000D01*
G75*
G02*
X32265000Y57475000I0J-100000D01*
G01*
X32265000Y56200000D01*
G75*
G02*
X32165000Y56100000I-100000J0D01*
G01*
G37*
G36*
G01*
X31515000Y56100000D02*
X31315000Y56100000D01*
G75*
G02*
X31215000Y56200000I0J100000D01*
G01*
X31215000Y57475000D01*
G75*
G02*
X31315000Y57575000I100000J0D01*
G01*
X31515000Y57575000D01*
G75*
G02*
X31615000Y57475000I0J-100000D01*
G01*
X31615000Y56200000D01*
G75*
G02*
X31515000Y56100000I-100000J0D01*
G01*
G37*
G36*
G01*
X30865000Y56100000D02*
X30665000Y56100000D01*
G75*
G02*
X30565000Y56200000I0J100000D01*
G01*
X30565000Y57475000D01*
G75*
G02*
X30665000Y57575000I100000J0D01*
G01*
X30865000Y57575000D01*
G75*
G02*
X30965000Y57475000I0J-100000D01*
G01*
X30965000Y56200000D01*
G75*
G02*
X30865000Y56100000I-100000J0D01*
G01*
G37*
G36*
G01*
X30215000Y56100000D02*
X30015000Y56100000D01*
G75*
G02*
X29915000Y56200000I0J100000D01*
G01*
X29915000Y57475000D01*
G75*
G02*
X30015000Y57575000I100000J0D01*
G01*
X30215000Y57575000D01*
G75*
G02*
X30315000Y57475000I0J-100000D01*
G01*
X30315000Y56200000D01*
G75*
G02*
X30215000Y56100000I-100000J0D01*
G01*
G37*
G36*
G01*
X29565000Y56100000D02*
X29365000Y56100000D01*
G75*
G02*
X29265000Y56200000I0J100000D01*
G01*
X29265000Y57475000D01*
G75*
G02*
X29365000Y57575000I100000J0D01*
G01*
X29565000Y57575000D01*
G75*
G02*
X29665000Y57475000I0J-100000D01*
G01*
X29665000Y56200000D01*
G75*
G02*
X29565000Y56100000I-100000J0D01*
G01*
G37*
G36*
G01*
X28915000Y56100000D02*
X28715000Y56100000D01*
G75*
G02*
X28615000Y56200000I0J100000D01*
G01*
X28615000Y57475000D01*
G75*
G02*
X28715000Y57575000I100000J0D01*
G01*
X28915000Y57575000D01*
G75*
G02*
X29015000Y57475000I0J-100000D01*
G01*
X29015000Y56200000D01*
G75*
G02*
X28915000Y56100000I-100000J0D01*
G01*
G37*
G36*
G01*
X28265000Y56100000D02*
X28065000Y56100000D01*
G75*
G02*
X27965000Y56200000I0J100000D01*
G01*
X27965000Y57475000D01*
G75*
G02*
X28065000Y57575000I100000J0D01*
G01*
X28265000Y57575000D01*
G75*
G02*
X28365000Y57475000I0J-100000D01*
G01*
X28365000Y56200000D01*
G75*
G02*
X28265000Y56100000I-100000J0D01*
G01*
G37*
G36*
G01*
X27615000Y56100000D02*
X27415000Y56100000D01*
G75*
G02*
X27315000Y56200000I0J100000D01*
G01*
X27315000Y57475000D01*
G75*
G02*
X27415000Y57575000I100000J0D01*
G01*
X27615000Y57575000D01*
G75*
G02*
X27715000Y57475000I0J-100000D01*
G01*
X27715000Y56200000D01*
G75*
G02*
X27615000Y56100000I-100000J0D01*
G01*
G37*
G36*
G01*
X27615000Y61825000D02*
X27415000Y61825000D01*
G75*
G02*
X27315000Y61925000I0J100000D01*
G01*
X27315000Y63200000D01*
G75*
G02*
X27415000Y63300000I100000J0D01*
G01*
X27615000Y63300000D01*
G75*
G02*
X27715000Y63200000I0J-100000D01*
G01*
X27715000Y61925000D01*
G75*
G02*
X27615000Y61825000I-100000J0D01*
G01*
G37*
G36*
G01*
X28265000Y61825000D02*
X28065000Y61825000D01*
G75*
G02*
X27965000Y61925000I0J100000D01*
G01*
X27965000Y63200000D01*
G75*
G02*
X28065000Y63300000I100000J0D01*
G01*
X28265000Y63300000D01*
G75*
G02*
X28365000Y63200000I0J-100000D01*
G01*
X28365000Y61925000D01*
G75*
G02*
X28265000Y61825000I-100000J0D01*
G01*
G37*
G36*
G01*
X28915000Y61825000D02*
X28715000Y61825000D01*
G75*
G02*
X28615000Y61925000I0J100000D01*
G01*
X28615000Y63200000D01*
G75*
G02*
X28715000Y63300000I100000J0D01*
G01*
X28915000Y63300000D01*
G75*
G02*
X29015000Y63200000I0J-100000D01*
G01*
X29015000Y61925000D01*
G75*
G02*
X28915000Y61825000I-100000J0D01*
G01*
G37*
G36*
G01*
X29565000Y61825000D02*
X29365000Y61825000D01*
G75*
G02*
X29265000Y61925000I0J100000D01*
G01*
X29265000Y63200000D01*
G75*
G02*
X29365000Y63300000I100000J0D01*
G01*
X29565000Y63300000D01*
G75*
G02*
X29665000Y63200000I0J-100000D01*
G01*
X29665000Y61925000D01*
G75*
G02*
X29565000Y61825000I-100000J0D01*
G01*
G37*
G36*
G01*
X30215000Y61825000D02*
X30015000Y61825000D01*
G75*
G02*
X29915000Y61925000I0J100000D01*
G01*
X29915000Y63200000D01*
G75*
G02*
X30015000Y63300000I100000J0D01*
G01*
X30215000Y63300000D01*
G75*
G02*
X30315000Y63200000I0J-100000D01*
G01*
X30315000Y61925000D01*
G75*
G02*
X30215000Y61825000I-100000J0D01*
G01*
G37*
G36*
G01*
X30865000Y61825000D02*
X30665000Y61825000D01*
G75*
G02*
X30565000Y61925000I0J100000D01*
G01*
X30565000Y63200000D01*
G75*
G02*
X30665000Y63300000I100000J0D01*
G01*
X30865000Y63300000D01*
G75*
G02*
X30965000Y63200000I0J-100000D01*
G01*
X30965000Y61925000D01*
G75*
G02*
X30865000Y61825000I-100000J0D01*
G01*
G37*
G36*
G01*
X31515000Y61825000D02*
X31315000Y61825000D01*
G75*
G02*
X31215000Y61925000I0J100000D01*
G01*
X31215000Y63200000D01*
G75*
G02*
X31315000Y63300000I100000J0D01*
G01*
X31515000Y63300000D01*
G75*
G02*
X31615000Y63200000I0J-100000D01*
G01*
X31615000Y61925000D01*
G75*
G02*
X31515000Y61825000I-100000J0D01*
G01*
G37*
G36*
G01*
X32165000Y61825000D02*
X31965000Y61825000D01*
G75*
G02*
X31865000Y61925000I0J100000D01*
G01*
X31865000Y63200000D01*
G75*
G02*
X31965000Y63300000I100000J0D01*
G01*
X32165000Y63300000D01*
G75*
G02*
X32265000Y63200000I0J-100000D01*
G01*
X32265000Y61925000D01*
G75*
G02*
X32165000Y61825000I-100000J0D01*
G01*
G37*
G36*
G01*
X32815000Y61825000D02*
X32615000Y61825000D01*
G75*
G02*
X32515000Y61925000I0J100000D01*
G01*
X32515000Y63200000D01*
G75*
G02*
X32615000Y63300000I100000J0D01*
G01*
X32815000Y63300000D01*
G75*
G02*
X32915000Y63200000I0J-100000D01*
G01*
X32915000Y61925000D01*
G75*
G02*
X32815000Y61825000I-100000J0D01*
G01*
G37*
G36*
G01*
X33465000Y61825000D02*
X33265000Y61825000D01*
G75*
G02*
X33165000Y61925000I0J100000D01*
G01*
X33165000Y63200000D01*
G75*
G02*
X33265000Y63300000I100000J0D01*
G01*
X33465000Y63300000D01*
G75*
G02*
X33565000Y63200000I0J-100000D01*
G01*
X33565000Y61925000D01*
G75*
G02*
X33465000Y61825000I-100000J0D01*
G01*
G37*
G36*
G01*
X24095000Y61845000D02*
X23895000Y61845000D01*
G75*
G02*
X23795000Y61945000I0J100000D01*
G01*
X23795000Y63220000D01*
G75*
G02*
X23895000Y63320000I100000J0D01*
G01*
X24095000Y63320000D01*
G75*
G02*
X24195000Y63220000I0J-100000D01*
G01*
X24195000Y61945000D01*
G75*
G02*
X24095000Y61845000I-100000J0D01*
G01*
G37*
G36*
G01*
X23445000Y61845000D02*
X23245000Y61845000D01*
G75*
G02*
X23145000Y61945000I0J100000D01*
G01*
X23145000Y63220000D01*
G75*
G02*
X23245000Y63320000I100000J0D01*
G01*
X23445000Y63320000D01*
G75*
G02*
X23545000Y63220000I0J-100000D01*
G01*
X23545000Y61945000D01*
G75*
G02*
X23445000Y61845000I-100000J0D01*
G01*
G37*
G36*
G01*
X22795000Y61845000D02*
X22595000Y61845000D01*
G75*
G02*
X22495000Y61945000I0J100000D01*
G01*
X22495000Y63220000D01*
G75*
G02*
X22595000Y63320000I100000J0D01*
G01*
X22795000Y63320000D01*
G75*
G02*
X22895000Y63220000I0J-100000D01*
G01*
X22895000Y61945000D01*
G75*
G02*
X22795000Y61845000I-100000J0D01*
G01*
G37*
G36*
G01*
X22145000Y61845000D02*
X21945000Y61845000D01*
G75*
G02*
X21845000Y61945000I0J100000D01*
G01*
X21845000Y63220000D01*
G75*
G02*
X21945000Y63320000I100000J0D01*
G01*
X22145000Y63320000D01*
G75*
G02*
X22245000Y63220000I0J-100000D01*
G01*
X22245000Y61945000D01*
G75*
G02*
X22145000Y61845000I-100000J0D01*
G01*
G37*
G36*
G01*
X21495000Y61845000D02*
X21295000Y61845000D01*
G75*
G02*
X21195000Y61945000I0J100000D01*
G01*
X21195000Y63220000D01*
G75*
G02*
X21295000Y63320000I100000J0D01*
G01*
X21495000Y63320000D01*
G75*
G02*
X21595000Y63220000I0J-100000D01*
G01*
X21595000Y61945000D01*
G75*
G02*
X21495000Y61845000I-100000J0D01*
G01*
G37*
G36*
G01*
X20845000Y61845000D02*
X20645000Y61845000D01*
G75*
G02*
X20545000Y61945000I0J100000D01*
G01*
X20545000Y63220000D01*
G75*
G02*
X20645000Y63320000I100000J0D01*
G01*
X20845000Y63320000D01*
G75*
G02*
X20945000Y63220000I0J-100000D01*
G01*
X20945000Y61945000D01*
G75*
G02*
X20845000Y61845000I-100000J0D01*
G01*
G37*
G36*
G01*
X20195000Y61845000D02*
X19995000Y61845000D01*
G75*
G02*
X19895000Y61945000I0J100000D01*
G01*
X19895000Y63220000D01*
G75*
G02*
X19995000Y63320000I100000J0D01*
G01*
X20195000Y63320000D01*
G75*
G02*
X20295000Y63220000I0J-100000D01*
G01*
X20295000Y61945000D01*
G75*
G02*
X20195000Y61845000I-100000J0D01*
G01*
G37*
G36*
G01*
X19545000Y61845000D02*
X19345000Y61845000D01*
G75*
G02*
X19245000Y61945000I0J100000D01*
G01*
X19245000Y63220000D01*
G75*
G02*
X19345000Y63320000I100000J0D01*
G01*
X19545000Y63320000D01*
G75*
G02*
X19645000Y63220000I0J-100000D01*
G01*
X19645000Y61945000D01*
G75*
G02*
X19545000Y61845000I-100000J0D01*
G01*
G37*
G36*
G01*
X18895000Y61845000D02*
X18695000Y61845000D01*
G75*
G02*
X18595000Y61945000I0J100000D01*
G01*
X18595000Y63220000D01*
G75*
G02*
X18695000Y63320000I100000J0D01*
G01*
X18895000Y63320000D01*
G75*
G02*
X18995000Y63220000I0J-100000D01*
G01*
X18995000Y61945000D01*
G75*
G02*
X18895000Y61845000I-100000J0D01*
G01*
G37*
G36*
G01*
X18245000Y61845000D02*
X18045000Y61845000D01*
G75*
G02*
X17945000Y61945000I0J100000D01*
G01*
X17945000Y63220000D01*
G75*
G02*
X18045000Y63320000I100000J0D01*
G01*
X18245000Y63320000D01*
G75*
G02*
X18345000Y63220000I0J-100000D01*
G01*
X18345000Y61945000D01*
G75*
G02*
X18245000Y61845000I-100000J0D01*
G01*
G37*
G36*
G01*
X18245000Y56120000D02*
X18045000Y56120000D01*
G75*
G02*
X17945000Y56220000I0J100000D01*
G01*
X17945000Y57495000D01*
G75*
G02*
X18045000Y57595000I100000J0D01*
G01*
X18245000Y57595000D01*
G75*
G02*
X18345000Y57495000I0J-100000D01*
G01*
X18345000Y56220000D01*
G75*
G02*
X18245000Y56120000I-100000J0D01*
G01*
G37*
G36*
G01*
X18895000Y56120000D02*
X18695000Y56120000D01*
G75*
G02*
X18595000Y56220000I0J100000D01*
G01*
X18595000Y57495000D01*
G75*
G02*
X18695000Y57595000I100000J0D01*
G01*
X18895000Y57595000D01*
G75*
G02*
X18995000Y57495000I0J-100000D01*
G01*
X18995000Y56220000D01*
G75*
G02*
X18895000Y56120000I-100000J0D01*
G01*
G37*
G36*
G01*
X19545000Y56120000D02*
X19345000Y56120000D01*
G75*
G02*
X19245000Y56220000I0J100000D01*
G01*
X19245000Y57495000D01*
G75*
G02*
X19345000Y57595000I100000J0D01*
G01*
X19545000Y57595000D01*
G75*
G02*
X19645000Y57495000I0J-100000D01*
G01*
X19645000Y56220000D01*
G75*
G02*
X19545000Y56120000I-100000J0D01*
G01*
G37*
G36*
G01*
X20195000Y56120000D02*
X19995000Y56120000D01*
G75*
G02*
X19895000Y56220000I0J100000D01*
G01*
X19895000Y57495000D01*
G75*
G02*
X19995000Y57595000I100000J0D01*
G01*
X20195000Y57595000D01*
G75*
G02*
X20295000Y57495000I0J-100000D01*
G01*
X20295000Y56220000D01*
G75*
G02*
X20195000Y56120000I-100000J0D01*
G01*
G37*
G36*
G01*
X20845000Y56120000D02*
X20645000Y56120000D01*
G75*
G02*
X20545000Y56220000I0J100000D01*
G01*
X20545000Y57495000D01*
G75*
G02*
X20645000Y57595000I100000J0D01*
G01*
X20845000Y57595000D01*
G75*
G02*
X20945000Y57495000I0J-100000D01*
G01*
X20945000Y56220000D01*
G75*
G02*
X20845000Y56120000I-100000J0D01*
G01*
G37*
G36*
G01*
X21495000Y56120000D02*
X21295000Y56120000D01*
G75*
G02*
X21195000Y56220000I0J100000D01*
G01*
X21195000Y57495000D01*
G75*
G02*
X21295000Y57595000I100000J0D01*
G01*
X21495000Y57595000D01*
G75*
G02*
X21595000Y57495000I0J-100000D01*
G01*
X21595000Y56220000D01*
G75*
G02*
X21495000Y56120000I-100000J0D01*
G01*
G37*
G36*
G01*
X22145000Y56120000D02*
X21945000Y56120000D01*
G75*
G02*
X21845000Y56220000I0J100000D01*
G01*
X21845000Y57495000D01*
G75*
G02*
X21945000Y57595000I100000J0D01*
G01*
X22145000Y57595000D01*
G75*
G02*
X22245000Y57495000I0J-100000D01*
G01*
X22245000Y56220000D01*
G75*
G02*
X22145000Y56120000I-100000J0D01*
G01*
G37*
G36*
G01*
X22795000Y56120000D02*
X22595000Y56120000D01*
G75*
G02*
X22495000Y56220000I0J100000D01*
G01*
X22495000Y57495000D01*
G75*
G02*
X22595000Y57595000I100000J0D01*
G01*
X22795000Y57595000D01*
G75*
G02*
X22895000Y57495000I0J-100000D01*
G01*
X22895000Y56220000D01*
G75*
G02*
X22795000Y56120000I-100000J0D01*
G01*
G37*
G36*
G01*
X23445000Y56120000D02*
X23245000Y56120000D01*
G75*
G02*
X23145000Y56220000I0J100000D01*
G01*
X23145000Y57495000D01*
G75*
G02*
X23245000Y57595000I100000J0D01*
G01*
X23445000Y57595000D01*
G75*
G02*
X23545000Y57495000I0J-100000D01*
G01*
X23545000Y56220000D01*
G75*
G02*
X23445000Y56120000I-100000J0D01*
G01*
G37*
G36*
G01*
X24095000Y56120000D02*
X23895000Y56120000D01*
G75*
G02*
X23795000Y56220000I0J100000D01*
G01*
X23795000Y57495000D01*
G75*
G02*
X23895000Y57595000I100000J0D01*
G01*
X24095000Y57595000D01*
G75*
G02*
X24195000Y57495000I0J-100000D01*
G01*
X24195000Y56220000D01*
G75*
G02*
X24095000Y56120000I-100000J0D01*
G01*
G37*
G36*
G01*
X70750001Y21800000D02*
X68549999Y21800000D01*
G75*
G02*
X68300000Y22049999I0J249999D01*
G01*
X68300000Y22700001D01*
G75*
G02*
X68549999Y22950000I249999J0D01*
G01*
X70750001Y22950000D01*
G75*
G02*
X71000000Y22700001I0J-249999D01*
G01*
X71000000Y22049999D01*
G75*
G02*
X70750001Y21800000I-249999J0D01*
G01*
G37*
G36*
G01*
X70750001Y24750000D02*
X68549999Y24750000D01*
G75*
G02*
X68300000Y24999999I0J249999D01*
G01*
X68300000Y25650001D01*
G75*
G02*
X68549999Y25900000I249999J0D01*
G01*
X70750001Y25900000D01*
G75*
G02*
X71000000Y25650001I0J-249999D01*
G01*
X71000000Y24999999D01*
G75*
G02*
X70750001Y24750000I-249999J0D01*
G01*
G37*
G36*
G01*
X66930001Y24770000D02*
X64729999Y24770000D01*
G75*
G02*
X64480000Y25019999I0J249999D01*
G01*
X64480000Y25670001D01*
G75*
G02*
X64729999Y25920000I249999J0D01*
G01*
X66930001Y25920000D01*
G75*
G02*
X67180000Y25670001I0J-249999D01*
G01*
X67180000Y25019999D01*
G75*
G02*
X66930001Y24770000I-249999J0D01*
G01*
G37*
G36*
G01*
X66930001Y21820000D02*
X64729999Y21820000D01*
G75*
G02*
X64480000Y22069999I0J249999D01*
G01*
X64480000Y22720001D01*
G75*
G02*
X64729999Y22970000I249999J0D01*
G01*
X66930001Y22970000D01*
G75*
G02*
X67180000Y22720001I0J-249999D01*
G01*
X67180000Y22069999D01*
G75*
G02*
X66930001Y21820000I-249999J0D01*
G01*
G37*
G36*
G01*
X74450001Y21800000D02*
X72249999Y21800000D01*
G75*
G02*
X72000000Y22049999I0J249999D01*
G01*
X72000000Y22700001D01*
G75*
G02*
X72249999Y22950000I249999J0D01*
G01*
X74450001Y22950000D01*
G75*
G02*
X74700000Y22700001I0J-249999D01*
G01*
X74700000Y22049999D01*
G75*
G02*
X74450001Y21800000I-249999J0D01*
G01*
G37*
G36*
G01*
X74450001Y24750000D02*
X72249999Y24750000D01*
G75*
G02*
X72000000Y24999999I0J249999D01*
G01*
X72000000Y25650001D01*
G75*
G02*
X72249999Y25900000I249999J0D01*
G01*
X74450001Y25900000D01*
G75*
G02*
X74700000Y25650001I0J-249999D01*
G01*
X74700000Y24999999D01*
G75*
G02*
X74450001Y24750000I-249999J0D01*
G01*
G37*
G36*
G01*
X52830000Y52270001D02*
X52830000Y50069999D01*
G75*
G02*
X52580001Y49820000I-249999J0D01*
G01*
X51929999Y49820000D01*
G75*
G02*
X51680000Y50069999I0J249999D01*
G01*
X51680000Y52270001D01*
G75*
G02*
X51929999Y52520000I249999J0D01*
G01*
X52580001Y52520000D01*
G75*
G02*
X52830000Y52270001I0J-249999D01*
G01*
G37*
G36*
G01*
X55780000Y52270001D02*
X55780000Y50069999D01*
G75*
G02*
X55530001Y49820000I-249999J0D01*
G01*
X54879999Y49820000D01*
G75*
G02*
X54630000Y50069999I0J249999D01*
G01*
X54630000Y52270001D01*
G75*
G02*
X54879999Y52520000I249999J0D01*
G01*
X55530001Y52520000D01*
G75*
G02*
X55780000Y52270001I0J-249999D01*
G01*
G37*
M02*
