M48
METRIC,TZ
T1C0.400
T2C0.762
T3C1.000
T4C1.200
%
G90
G05
T1
X1930Y27530
X4740Y57300
X5350Y61190
X5540Y63200
X8760Y55720
X9650Y57300
X9700Y64840
X10220Y35950
X10260Y18470
X10550Y63210
X10770Y27520
X12640Y72480
X13650Y73490
X14300Y30270
X18680Y27440
X18850Y37360
X19770Y20790
X21530Y79920
X21540Y81850
X21590Y3950
X21610Y78380
X22300Y40070
X23750Y64360
X24000Y54940
X24170Y81300
X25550Y54950
X25610Y64320
X25690Y20820
X25990Y79080
X26750Y83720
X26910Y58540
X27060Y60650
X27250Y80210
X27420Y49505
X27480Y9540
X27660Y27520
X28540Y83570
X28640Y1970
X29250Y45840
X30030Y31640
X31870Y30620
X32250Y83630
X32250Y45870
X32750Y80000
X33040Y64350
X33130Y10020
X33250Y83620
X33370Y54860
X33460Y29110
X34040Y4250
X34940Y64370
X34960Y54860
X36260Y83600
X36400Y58520
X36460Y60570
X36525Y79980
X36650Y5000
X39560Y14000
X40010Y24320
X40260Y83530
X40750Y80060
X40750Y45800
X41260Y83530
X42380Y22900
X42530Y64230
X42580Y9250
X42750Y54890
X42820Y24320
X43250Y45920
X44220Y1940
X44230Y83550
X44310Y64220
X44340Y55010
X44500Y49435
X45550Y25920
X45800Y60550
X45840Y37480
X45880Y58420
X46750Y83590
X46820Y11080
X47260Y80060
X47750Y83600
X48246Y49435
X48250Y79540
X48540Y15400
X48750Y83630
X49030Y3690
X49260Y80080
X49750Y83620
X49760Y49450
X49780Y41420
X49981Y40195
X50120Y39030
X50150Y34890
X50250Y79520
X50250Y45860
X50750Y51160
X50800Y37280
X52060Y54890
X52070Y64310
X52250Y53460
X52450Y32600
X53720Y64260
X53720Y55010
X53730Y51180
X53750Y83600
X53860Y24960
X54100Y33810
X54190Y39540
X54250Y79910
X54520Y47850
X54760Y83610
X55380Y61280
X55440Y58130
X55470Y30090
X55560Y47840
X57200Y50190
X57230Y52090
X61560Y30950
X63300Y23590
X65320Y77800
X65330Y76410
X65510Y79360
X66060Y80160
X67540Y74280
X67560Y82000
X67600Y31790
X67600Y30280
X67920Y33210
X68380Y29340
X68730Y72940
X68900Y75310
X70260Y27310
X71320Y36760
X73290Y77640
X78090Y33320
X78090Y31520
T2
X12100Y84500
X12100Y82500
X12100Y80500
X12100Y78500
X12100Y76500
T3
X74930Y14340
X77470Y14340
T4
X2100Y85500
X2100Y75500
T0
M30
