M48
METRIC,TZ
T1C0.200
T2C0.300
T3C0.500
T4C0.600
T5C0.700
T6C0.762
T7C0.800
T8C1.000
T9C1.200
%
G90
G05
T1
X26130Y65110
X41720Y50890
X42740Y49840
X42770Y51370
X42825Y45350
X42850Y57575
X43825Y57725
X44075Y56350
X44075Y55350
X44075Y53350
X44075Y52350
X44075Y51375
X44075Y49350
X44075Y48350
X44075Y45350
X44075Y44350
X44075Y43350
X45050Y55375
X45075Y52350
X45075Y51350
X45075Y50350
X45075Y48350
X45075Y47350
X45075Y46350
X45075Y45350
X46075Y55350
X46075Y54350
X46075Y52350
X46075Y51350
X46075Y49350
X46075Y48350
X46075Y47350
X46075Y46350
X47075Y57350
X47075Y56350
X47075Y53350
X47075Y52350
X47075Y51350
X47075Y49350
X47075Y48350
X47075Y47350
X47075Y44350
X47075Y43350
X47580Y57720
X48075Y53350
X48075Y52350
X48075Y51350
X48075Y49350
X48075Y48350
X48075Y47350
X49075Y55350
X49075Y53350
X49075Y52350
X49075Y51350
X49075Y49350
X49075Y48325
X49075Y47350
X50575Y57675
X51075Y56350
X51075Y55350
X51075Y53350
X51075Y52350
X51075Y51350
X51075Y49350
X51075Y48350
X51075Y47350
X51075Y45350
X51075Y44350
X51525Y58600
X51575Y57675
X52075Y55350
X52075Y53350
X52075Y52350
X52075Y51350
X52075Y49350
X52075Y48350
X52075Y47350
X52575Y57575
X52575Y43000
X53075Y55350
X53075Y53350
X53075Y52350
X53075Y51350
X53075Y49350
X53075Y48350
X53075Y47350
X54050Y48350
X54075Y53350
X54075Y52350
X54075Y51350
X54075Y49350
X54075Y47350
X54075Y46350
X54075Y45350
X54100Y55375
X55075Y57575
X55075Y56350
X55075Y54350
X55075Y52350
X55075Y51350
X55075Y49350
X55075Y48350
X55075Y47350
X55075Y46350
X55075Y45350
X55075Y44350
X55100Y55375
X55100Y42050
X56075Y54350
X56075Y51350
X56075Y49350
X56075Y48350
X56075Y45350
X57200Y57475
X57250Y43175
X57300Y56350
X57350Y46875
X57390Y50860
X57400Y54300
X57400Y51850
X57400Y48850
X57440Y44350
X58375Y47850
X58375Y47350
X59800Y45350
X60300Y46000
X68610Y52225
T2
X7830Y68910
X8310Y57020
X8310Y52670
X8430Y58540
X8580Y51880
X9500Y59630
X9530Y71910
X9580Y69500
X10170Y68290
X11440Y67170
X11540Y56460
X11550Y53460
X11770Y64730
X11770Y61790
X12810Y67130
X13420Y52240
X13530Y48660
X14110Y65090
X14170Y66390
X14580Y51130
X14720Y58500
X15070Y71410
X15760Y69990
X15980Y51220
X16090Y48770
X16110Y58520
X16240Y49860
X16300Y67390
X16580Y51480
X16680Y55460
X17060Y75030
X17210Y67910
X17350Y58520
X17860Y67890
X17866Y75066
X17870Y71640
X17890Y72830
X17920Y70330
X18050Y39530
X18120Y60290
X18200Y43690
X18204Y51256
X18240Y55945
X18270Y53060
X18280Y58510
X18370Y68250
X18880Y75570
X19300Y70370
X19380Y71640
X19420Y72860
X19420Y68070
X19450Y41510
X20310Y36600
X20430Y64950
X20660Y50960
X20740Y74660
X20750Y64090
X20790Y52460
X20950Y57450
X21290Y41510
X21390Y60300
X21690Y64100
X21730Y69210
X21750Y71410
X22200Y43630
X22370Y55740
X22400Y52680
X22950Y60270
X23120Y48230
X23120Y47300
X23140Y41500
X23170Y54940
X23210Y53490
X23420Y64960
X23660Y66180
X24180Y48400
X24635Y53485
X24660Y54930
X24770Y68410
X24790Y67480
X25000Y41500
X25120Y61380
X25430Y52690
X25470Y55740
X25560Y67125
X26050Y47330
X26070Y48300
X26610Y32880
X26630Y30310
X26690Y60080
X27010Y71520
X27110Y52440
X27650Y68430
X28250Y73360
X28270Y69640
X28750Y70250
X28950Y66390
X28960Y65540
X29250Y70590
X29510Y51450
X29590Y75850
X29670Y41580
X29750Y70240
X29800Y57450
X30030Y56070
X30088Y48968
X30250Y70630
X30450Y40970
X30730Y59600
X30750Y73260
X31250Y73660
X31730Y69980
X31810Y32880
X31820Y27190
X32000Y52300
X32070Y54950
X32410Y69350
X32750Y73260
X32920Y52210
X33270Y56540
X33310Y62820
X33830Y28510
X33840Y34240
X34030Y66230
X34280Y62840
X34910Y30950
X34930Y32180
X35370Y56540
X36320Y49980
X36470Y56470
X36640Y32960
X36640Y30230
X37050Y59600
X37250Y73270
X37300Y54560
X37300Y53430
X37320Y52260
X37510Y69100
X37750Y73650
X37790Y60380
X38400Y50620
X38780Y57800
X38990Y55600
X39250Y57340
X39320Y51300
X39680Y59520
X40050Y48850
X40250Y73270
X40280Y54563
X40390Y60261
X40390Y53360
X40890Y60680
X41390Y60291
X41830Y33120
X41830Y27100
X41890Y60710
X42390Y60320
X43830Y60340
X43850Y28580
X44560Y60340
X44990Y30930
X45000Y33120
X45020Y32200
X45070Y60820
X45590Y60330
X46090Y60770
X46590Y60320
X46630Y32980
X46650Y30330
X47570Y60250
X48070Y60600
X48570Y60245
X48750Y73250
X49070Y60630
X49570Y60210
X51520Y60140
X51750Y73270
X51820Y27110
X51830Y32960
X52070Y60490
X52250Y73690
X52490Y17870
X53070Y60090
X53570Y60490
X53860Y28600
X54075Y60076
X54575Y60455
X55020Y32160
X55020Y30930
X55040Y33140
X55075Y60055
X55590Y60450
X56090Y60080
X56620Y33010
X56650Y30380
X56820Y42130
X56820Y39640
X57640Y60060
X57760Y39640
X57770Y42120
X58150Y60430
X58460Y52310
X58470Y51470
X58490Y50630
X58650Y60030
X58690Y42070
X58690Y39650
X59160Y60410
X59540Y46400
X59620Y42090
X59630Y39620
X59660Y59990
X60160Y60390
X60660Y59980
X60950Y51480
X60980Y53150
X61160Y60390
X61341Y50589
X61820Y33030
X61850Y27170
X61870Y49660
X62320Y47020
X62430Y53160
X63510Y50600
X63510Y49950
X63830Y28630
X64460Y48625
X65030Y32170
X65030Y30950
X65070Y33130
X65735Y46500
X67220Y39960
X67220Y38180
X67240Y37240
X69470Y41600
X69690Y38000
X69910Y53050
X70940Y36310
X71510Y52950
X71510Y46850
X72620Y41420
X73680Y41150
X76480Y38430
T3
X14230Y62490
X16950Y27930
X70000Y56000
X76000Y56000
T5
X3610Y74490
X70000Y66000
T6
X11500Y38600
X11500Y36600
X11500Y34600
X11500Y32600
X11500Y30600
X17525Y6500
X19025Y7700
X20525Y6500
X22025Y7700
X23525Y6500
X25025Y7700
X26525Y6500
X28025Y7700
X29525Y6500
X31025Y7700
X32525Y6500
X34025Y7700
X35525Y6500
X37025Y7700
X38525Y6500
X40025Y7700
X41525Y6500
X43025Y7700
X44525Y6500
X46025Y7700
X47525Y6500
X49025Y7700
X50525Y6500
X52025Y7700
X53525Y6500
X55025Y7700
X56525Y6500
X58025Y7700
X59525Y6500
X61025Y7700
X62525Y6500
X64025Y7700
T7
X67100Y75150
X67100Y72650
X71100Y75150
X71100Y72650
X75100Y75150
X75100Y72650
T8
X12000Y3000
X18000Y3000
T9
X1500Y39600
X1500Y29600
X65000Y73900
X77200Y73900
T4
G00X2325Y59520
M15
G01X1725Y59520
M16
G05
G00X2325Y50880
M15
G01X1725Y50880
M16
G05
G00X6755Y59520
M15
G01X5655Y59520
M16
G05
G00X6755Y50880
M15
G01X5655Y50880
M16
G05
T0
M30
