G04 #@! TF.GenerationSoftware,KiCad,Pcbnew,(5.1.10-1-10_14)*
G04 #@! TF.CreationDate,2021-07-07T11:21:34+02:00*
G04 #@! TF.ProjectId,gb-fpga,67622d66-7067-4612-9e6b-696361645f70,rev?*
G04 #@! TF.SameCoordinates,Original*
G04 #@! TF.FileFunction,Soldermask,Top*
G04 #@! TF.FilePolarity,Negative*
%FSLAX46Y46*%
G04 Gerber Fmt 4.6, Leading zero omitted, Abs format (unit mm)*
G04 Created by KiCad (PCBNEW (5.1.10-1-10_14)) date 2021-07-07 11:21:34*
%MOMM*%
%LPD*%
G01*
G04 APERTURE LIST*
%ADD10C,2.000000*%
%ADD11C,1.524000*%
%ADD12C,1.800000*%
%ADD13C,1.700000*%
%ADD14R,0.200000X0.800000*%
%ADD15R,0.800000X0.300000*%
%ADD16C,4.300000*%
%ADD17C,3.000000*%
%ADD18O,5.300000X4.300000*%
%ADD19C,2.200000*%
%ADD20C,0.500000*%
%ADD21R,4.350000X4.350000*%
%ADD22O,2.100000X1.000000*%
%ADD23O,1.600000X1.000000*%
%ADD24C,0.650000*%
%ADD25R,1.150000X0.300000*%
%ADD26R,1.300000X1.100000*%
%ADD27R,2.650000X3.650000*%
%ADD28R,0.500000X0.500000*%
%ADD29R,1.700000X1.700000*%
%ADD30R,0.650000X0.400000*%
%ADD31R,1.060000X0.650000*%
%ADD32R,1.000000X1.000000*%
%ADD33R,1.500000X1.500000*%
%ADD34C,1.000000*%
G04 APERTURE END LIST*
D10*
X1500000Y39600000D03*
X1500000Y29600000D03*
D11*
X11500000Y38600000D03*
X11500000Y36600000D03*
X11500000Y34600000D03*
X11500000Y32600000D03*
X11500000Y30600000D03*
D12*
X75100000Y72650000D03*
X75100000Y75150000D03*
X71100000Y72650000D03*
X71100000Y75150000D03*
X67100000Y72650000D03*
X67100000Y75150000D03*
D13*
X77200000Y73900000D03*
X65000000Y73900000D03*
D14*
X68610000Y51000000D03*
X68610000Y49400000D03*
D15*
X67310000Y49000000D03*
X67310000Y49800000D03*
X67310000Y50600000D03*
X67310000Y51400000D03*
X69910000Y51400000D03*
X69910000Y50600000D03*
X69910000Y49800000D03*
X69910000Y49000000D03*
D16*
X71025000Y9400000D03*
X9025000Y9400000D03*
D17*
X68025000Y15900000D03*
X12025000Y15900000D03*
D11*
X64025000Y7700000D03*
X61025000Y7700000D03*
X58025000Y7700000D03*
X55025000Y7700000D03*
X52025000Y7700000D03*
X49025000Y7700000D03*
X46025000Y7700000D03*
X43025000Y7700000D03*
X40025000Y7700000D03*
X37025000Y7700000D03*
X34025000Y7700000D03*
X31025000Y7700000D03*
X28025000Y7700000D03*
X25025000Y7700000D03*
X22025000Y7700000D03*
X19025000Y7700000D03*
X62525000Y6500000D03*
X59525000Y6500000D03*
X56525000Y6500000D03*
X53525000Y6500000D03*
X50525000Y6500000D03*
X47525000Y6500000D03*
X44525000Y6500000D03*
X41525000Y6500000D03*
X38525000Y6500000D03*
X35525000Y6500000D03*
X32525000Y6500000D03*
X29525000Y6500000D03*
X26525000Y6500000D03*
X23525000Y6500000D03*
X20525000Y6500000D03*
X17525000Y6500000D03*
D16*
X5000000Y5000000D03*
D18*
X75100000Y5000000D03*
D19*
X77600000Y66100000D03*
X3500000Y66100000D03*
D20*
X56575000Y56850000D03*
X56575000Y55850000D03*
X56575000Y54850000D03*
X56575000Y53850000D03*
X56575000Y52850000D03*
X56575000Y51850000D03*
X56575000Y50850000D03*
X56575000Y49850000D03*
X56575000Y48850000D03*
X56575000Y47850000D03*
X56575000Y46850000D03*
X56575000Y45850000D03*
X56575000Y44850000D03*
X56575000Y43850000D03*
X55575000Y56850000D03*
X55575000Y55850000D03*
X55575000Y54850000D03*
X55575000Y53850000D03*
X55575000Y52850000D03*
X55575000Y51850000D03*
X55575000Y50850000D03*
X55575000Y49850000D03*
X55575000Y48850000D03*
X55575000Y47850000D03*
X55575000Y46850000D03*
X55575000Y45850000D03*
X55575000Y44850000D03*
X55575000Y43850000D03*
X54575000Y56850000D03*
X54575000Y55850000D03*
X54575000Y54850000D03*
X54575000Y53850000D03*
X54575000Y52850000D03*
X54575000Y51850000D03*
X54575000Y50850000D03*
X54575000Y49850000D03*
X54575000Y48850000D03*
X54575000Y47850000D03*
X54575000Y46850000D03*
X54575000Y45850000D03*
X54575000Y44850000D03*
X54575000Y43850000D03*
X53575000Y56850000D03*
X53575000Y55850000D03*
X53575000Y54850000D03*
X53575000Y53850000D03*
X53575000Y52850000D03*
X53575000Y51850000D03*
X53575000Y50850000D03*
X53575000Y49850000D03*
X53575000Y48850000D03*
X53575000Y47850000D03*
X53575000Y46850000D03*
X53575000Y45850000D03*
X53575000Y44850000D03*
X53575000Y43850000D03*
X52575000Y56850000D03*
X52575000Y55850000D03*
X52575000Y54850000D03*
X52575000Y53850000D03*
X52575000Y52850000D03*
X52575000Y51850000D03*
X52575000Y50850000D03*
X52575000Y49850000D03*
X52575000Y48850000D03*
X52575000Y47850000D03*
X52575000Y46850000D03*
X52575000Y45850000D03*
X52575000Y44850000D03*
X52575000Y43850000D03*
X51575000Y56850000D03*
X51575000Y55850000D03*
X51575000Y54850000D03*
X51575000Y53850000D03*
X51575000Y52850000D03*
X51575000Y51850000D03*
X51575000Y50850000D03*
X51575000Y49850000D03*
X51575000Y48850000D03*
X51575000Y47850000D03*
X51575000Y46850000D03*
X51575000Y45850000D03*
X51575000Y44850000D03*
X51575000Y43850000D03*
X50575000Y56850000D03*
X50575000Y55850000D03*
X50575000Y54850000D03*
X50575000Y53850000D03*
X50575000Y52850000D03*
X50575000Y51850000D03*
X50575000Y50850000D03*
X50575000Y49850000D03*
X50575000Y48850000D03*
X50575000Y47850000D03*
X50575000Y46850000D03*
X50575000Y45850000D03*
X50575000Y44850000D03*
X50575000Y43850000D03*
X49575000Y56850000D03*
X49575000Y55850000D03*
X49575000Y54850000D03*
X49575000Y53850000D03*
X49575000Y52850000D03*
X49575000Y51850000D03*
X49575000Y50850000D03*
X49575000Y49850000D03*
X49575000Y48850000D03*
X49575000Y47850000D03*
X49575000Y46850000D03*
X49575000Y45850000D03*
X49575000Y44850000D03*
X49575000Y43850000D03*
X48575000Y56850000D03*
X48575000Y55850000D03*
X48575000Y54850000D03*
X48575000Y53850000D03*
X48575000Y52850000D03*
X48575000Y51850000D03*
X48575000Y50850000D03*
X48575000Y49850000D03*
X48575000Y48850000D03*
X48575000Y47850000D03*
X48575000Y46850000D03*
X48575000Y45850000D03*
X48575000Y44850000D03*
X48575000Y43850000D03*
X47575000Y56850000D03*
X47575000Y55850000D03*
X47575000Y54850000D03*
X47575000Y53850000D03*
X47575000Y52850000D03*
X47575000Y51850000D03*
X47575000Y50850000D03*
X47575000Y49850000D03*
X47575000Y48850000D03*
X47575000Y47850000D03*
X47575000Y46850000D03*
X47575000Y45850000D03*
X47575000Y44850000D03*
X47575000Y43850000D03*
X46575000Y56850000D03*
X46575000Y55850000D03*
X46575000Y54850000D03*
X46575000Y53850000D03*
X46575000Y52850000D03*
X46575000Y51850000D03*
X46575000Y50850000D03*
X46575000Y49850000D03*
X46575000Y48850000D03*
X46575000Y47850000D03*
X46575000Y46850000D03*
X46575000Y45850000D03*
X46575000Y44850000D03*
X46575000Y43850000D03*
X45575000Y56850000D03*
X45575000Y55850000D03*
X45575000Y54850000D03*
X45575000Y53850000D03*
X45575000Y52850000D03*
X45575000Y51850000D03*
X45575000Y50850000D03*
X45575000Y49850000D03*
X45575000Y48850000D03*
X45575000Y47850000D03*
X45575000Y46850000D03*
X45575000Y45850000D03*
X45575000Y44850000D03*
X45575000Y43850000D03*
X44575000Y56850000D03*
X44575000Y55850000D03*
X44575000Y54850000D03*
X44575000Y53850000D03*
X44575000Y52850000D03*
X44575000Y51850000D03*
X44575000Y50850000D03*
X44575000Y49850000D03*
X44575000Y48850000D03*
X44575000Y47850000D03*
X44575000Y46850000D03*
X44575000Y45850000D03*
X44575000Y44850000D03*
X44575000Y43850000D03*
X43575000Y56850000D03*
X43575000Y55850000D03*
X43575000Y54850000D03*
X43575000Y53850000D03*
X43575000Y52850000D03*
X43575000Y51850000D03*
X43575000Y50850000D03*
X43575000Y49850000D03*
X43575000Y48850000D03*
X43575000Y47850000D03*
X43575000Y46850000D03*
X43575000Y45850000D03*
X43575000Y44850000D03*
X43575000Y43850000D03*
G36*
G01*
X19075000Y57882500D02*
X19075000Y58007500D01*
G75*
G02*
X19137500Y58070000I62500J0D01*
G01*
X19812500Y58070000D01*
G75*
G02*
X19875000Y58007500I0J-62500D01*
G01*
X19875000Y57882500D01*
G75*
G02*
X19812500Y57820000I-62500J0D01*
G01*
X19137500Y57820000D01*
G75*
G02*
X19075000Y57882500I0J62500D01*
G01*
G37*
G36*
G01*
X19075000Y57382500D02*
X19075000Y57507500D01*
G75*
G02*
X19137500Y57570000I62500J0D01*
G01*
X19812500Y57570000D01*
G75*
G02*
X19875000Y57507500I0J-62500D01*
G01*
X19875000Y57382500D01*
G75*
G02*
X19812500Y57320000I-62500J0D01*
G01*
X19137500Y57320000D01*
G75*
G02*
X19075000Y57382500I0J62500D01*
G01*
G37*
G36*
G01*
X19075000Y56882500D02*
X19075000Y57007500D01*
G75*
G02*
X19137500Y57070000I62500J0D01*
G01*
X19812500Y57070000D01*
G75*
G02*
X19875000Y57007500I0J-62500D01*
G01*
X19875000Y56882500D01*
G75*
G02*
X19812500Y56820000I-62500J0D01*
G01*
X19137500Y56820000D01*
G75*
G02*
X19075000Y56882500I0J62500D01*
G01*
G37*
G36*
G01*
X19075000Y56382500D02*
X19075000Y56507500D01*
G75*
G02*
X19137500Y56570000I62500J0D01*
G01*
X19812500Y56570000D01*
G75*
G02*
X19875000Y56507500I0J-62500D01*
G01*
X19875000Y56382500D01*
G75*
G02*
X19812500Y56320000I-62500J0D01*
G01*
X19137500Y56320000D01*
G75*
G02*
X19075000Y56382500I0J62500D01*
G01*
G37*
G36*
G01*
X19075000Y55882500D02*
X19075000Y56007500D01*
G75*
G02*
X19137500Y56070000I62500J0D01*
G01*
X19812500Y56070000D01*
G75*
G02*
X19875000Y56007500I0J-62500D01*
G01*
X19875000Y55882500D01*
G75*
G02*
X19812500Y55820000I-62500J0D01*
G01*
X19137500Y55820000D01*
G75*
G02*
X19075000Y55882500I0J62500D01*
G01*
G37*
G36*
G01*
X19075000Y55382500D02*
X19075000Y55507500D01*
G75*
G02*
X19137500Y55570000I62500J0D01*
G01*
X19812500Y55570000D01*
G75*
G02*
X19875000Y55507500I0J-62500D01*
G01*
X19875000Y55382500D01*
G75*
G02*
X19812500Y55320000I-62500J0D01*
G01*
X19137500Y55320000D01*
G75*
G02*
X19075000Y55382500I0J62500D01*
G01*
G37*
G36*
G01*
X19075000Y54882500D02*
X19075000Y55007500D01*
G75*
G02*
X19137500Y55070000I62500J0D01*
G01*
X19812500Y55070000D01*
G75*
G02*
X19875000Y55007500I0J-62500D01*
G01*
X19875000Y54882500D01*
G75*
G02*
X19812500Y54820000I-62500J0D01*
G01*
X19137500Y54820000D01*
G75*
G02*
X19075000Y54882500I0J62500D01*
G01*
G37*
G36*
G01*
X19075000Y54382500D02*
X19075000Y54507500D01*
G75*
G02*
X19137500Y54570000I62500J0D01*
G01*
X19812500Y54570000D01*
G75*
G02*
X19875000Y54507500I0J-62500D01*
G01*
X19875000Y54382500D01*
G75*
G02*
X19812500Y54320000I-62500J0D01*
G01*
X19137500Y54320000D01*
G75*
G02*
X19075000Y54382500I0J62500D01*
G01*
G37*
G36*
G01*
X19075000Y53882500D02*
X19075000Y54007500D01*
G75*
G02*
X19137500Y54070000I62500J0D01*
G01*
X19812500Y54070000D01*
G75*
G02*
X19875000Y54007500I0J-62500D01*
G01*
X19875000Y53882500D01*
G75*
G02*
X19812500Y53820000I-62500J0D01*
G01*
X19137500Y53820000D01*
G75*
G02*
X19075000Y53882500I0J62500D01*
G01*
G37*
G36*
G01*
X19075000Y53382500D02*
X19075000Y53507500D01*
G75*
G02*
X19137500Y53570000I62500J0D01*
G01*
X19812500Y53570000D01*
G75*
G02*
X19875000Y53507500I0J-62500D01*
G01*
X19875000Y53382500D01*
G75*
G02*
X19812500Y53320000I-62500J0D01*
G01*
X19137500Y53320000D01*
G75*
G02*
X19075000Y53382500I0J62500D01*
G01*
G37*
G36*
G01*
X19075000Y52882500D02*
X19075000Y53007500D01*
G75*
G02*
X19137500Y53070000I62500J0D01*
G01*
X19812500Y53070000D01*
G75*
G02*
X19875000Y53007500I0J-62500D01*
G01*
X19875000Y52882500D01*
G75*
G02*
X19812500Y52820000I-62500J0D01*
G01*
X19137500Y52820000D01*
G75*
G02*
X19075000Y52882500I0J62500D01*
G01*
G37*
G36*
G01*
X19075000Y52382500D02*
X19075000Y52507500D01*
G75*
G02*
X19137500Y52570000I62500J0D01*
G01*
X19812500Y52570000D01*
G75*
G02*
X19875000Y52507500I0J-62500D01*
G01*
X19875000Y52382500D01*
G75*
G02*
X19812500Y52320000I-62500J0D01*
G01*
X19137500Y52320000D01*
G75*
G02*
X19075000Y52382500I0J62500D01*
G01*
G37*
G36*
G01*
X19075000Y51882500D02*
X19075000Y52007500D01*
G75*
G02*
X19137500Y52070000I62500J0D01*
G01*
X19812500Y52070000D01*
G75*
G02*
X19875000Y52007500I0J-62500D01*
G01*
X19875000Y51882500D01*
G75*
G02*
X19812500Y51820000I-62500J0D01*
G01*
X19137500Y51820000D01*
G75*
G02*
X19075000Y51882500I0J62500D01*
G01*
G37*
G36*
G01*
X19075000Y51382500D02*
X19075000Y51507500D01*
G75*
G02*
X19137500Y51570000I62500J0D01*
G01*
X19812500Y51570000D01*
G75*
G02*
X19875000Y51507500I0J-62500D01*
G01*
X19875000Y51382500D01*
G75*
G02*
X19812500Y51320000I-62500J0D01*
G01*
X19137500Y51320000D01*
G75*
G02*
X19075000Y51382500I0J62500D01*
G01*
G37*
G36*
G01*
X19075000Y50882500D02*
X19075000Y51007500D01*
G75*
G02*
X19137500Y51070000I62500J0D01*
G01*
X19812500Y51070000D01*
G75*
G02*
X19875000Y51007500I0J-62500D01*
G01*
X19875000Y50882500D01*
G75*
G02*
X19812500Y50820000I-62500J0D01*
G01*
X19137500Y50820000D01*
G75*
G02*
X19075000Y50882500I0J62500D01*
G01*
G37*
G36*
G01*
X19075000Y50382500D02*
X19075000Y50507500D01*
G75*
G02*
X19137500Y50570000I62500J0D01*
G01*
X19812500Y50570000D01*
G75*
G02*
X19875000Y50507500I0J-62500D01*
G01*
X19875000Y50382500D01*
G75*
G02*
X19812500Y50320000I-62500J0D01*
G01*
X19137500Y50320000D01*
G75*
G02*
X19075000Y50382500I0J62500D01*
G01*
G37*
G36*
G01*
X20050000Y49407500D02*
X20050000Y50082500D01*
G75*
G02*
X20112500Y50145000I62500J0D01*
G01*
X20237500Y50145000D01*
G75*
G02*
X20300000Y50082500I0J-62500D01*
G01*
X20300000Y49407500D01*
G75*
G02*
X20237500Y49345000I-62500J0D01*
G01*
X20112500Y49345000D01*
G75*
G02*
X20050000Y49407500I0J62500D01*
G01*
G37*
G36*
G01*
X20550000Y49407500D02*
X20550000Y50082500D01*
G75*
G02*
X20612500Y50145000I62500J0D01*
G01*
X20737500Y50145000D01*
G75*
G02*
X20800000Y50082500I0J-62500D01*
G01*
X20800000Y49407500D01*
G75*
G02*
X20737500Y49345000I-62500J0D01*
G01*
X20612500Y49345000D01*
G75*
G02*
X20550000Y49407500I0J62500D01*
G01*
G37*
G36*
G01*
X21050000Y49407500D02*
X21050000Y50082500D01*
G75*
G02*
X21112500Y50145000I62500J0D01*
G01*
X21237500Y50145000D01*
G75*
G02*
X21300000Y50082500I0J-62500D01*
G01*
X21300000Y49407500D01*
G75*
G02*
X21237500Y49345000I-62500J0D01*
G01*
X21112500Y49345000D01*
G75*
G02*
X21050000Y49407500I0J62500D01*
G01*
G37*
G36*
G01*
X21550000Y49407500D02*
X21550000Y50082500D01*
G75*
G02*
X21612500Y50145000I62500J0D01*
G01*
X21737500Y50145000D01*
G75*
G02*
X21800000Y50082500I0J-62500D01*
G01*
X21800000Y49407500D01*
G75*
G02*
X21737500Y49345000I-62500J0D01*
G01*
X21612500Y49345000D01*
G75*
G02*
X21550000Y49407500I0J62500D01*
G01*
G37*
G36*
G01*
X22050000Y49407500D02*
X22050000Y50082500D01*
G75*
G02*
X22112500Y50145000I62500J0D01*
G01*
X22237500Y50145000D01*
G75*
G02*
X22300000Y50082500I0J-62500D01*
G01*
X22300000Y49407500D01*
G75*
G02*
X22237500Y49345000I-62500J0D01*
G01*
X22112500Y49345000D01*
G75*
G02*
X22050000Y49407500I0J62500D01*
G01*
G37*
G36*
G01*
X22550000Y49407500D02*
X22550000Y50082500D01*
G75*
G02*
X22612500Y50145000I62500J0D01*
G01*
X22737500Y50145000D01*
G75*
G02*
X22800000Y50082500I0J-62500D01*
G01*
X22800000Y49407500D01*
G75*
G02*
X22737500Y49345000I-62500J0D01*
G01*
X22612500Y49345000D01*
G75*
G02*
X22550000Y49407500I0J62500D01*
G01*
G37*
G36*
G01*
X23050000Y49407500D02*
X23050000Y50082500D01*
G75*
G02*
X23112500Y50145000I62500J0D01*
G01*
X23237500Y50145000D01*
G75*
G02*
X23300000Y50082500I0J-62500D01*
G01*
X23300000Y49407500D01*
G75*
G02*
X23237500Y49345000I-62500J0D01*
G01*
X23112500Y49345000D01*
G75*
G02*
X23050000Y49407500I0J62500D01*
G01*
G37*
G36*
G01*
X23550000Y49407500D02*
X23550000Y50082500D01*
G75*
G02*
X23612500Y50145000I62500J0D01*
G01*
X23737500Y50145000D01*
G75*
G02*
X23800000Y50082500I0J-62500D01*
G01*
X23800000Y49407500D01*
G75*
G02*
X23737500Y49345000I-62500J0D01*
G01*
X23612500Y49345000D01*
G75*
G02*
X23550000Y49407500I0J62500D01*
G01*
G37*
G36*
G01*
X24050000Y49407500D02*
X24050000Y50082500D01*
G75*
G02*
X24112500Y50145000I62500J0D01*
G01*
X24237500Y50145000D01*
G75*
G02*
X24300000Y50082500I0J-62500D01*
G01*
X24300000Y49407500D01*
G75*
G02*
X24237500Y49345000I-62500J0D01*
G01*
X24112500Y49345000D01*
G75*
G02*
X24050000Y49407500I0J62500D01*
G01*
G37*
G36*
G01*
X24550000Y49407500D02*
X24550000Y50082500D01*
G75*
G02*
X24612500Y50145000I62500J0D01*
G01*
X24737500Y50145000D01*
G75*
G02*
X24800000Y50082500I0J-62500D01*
G01*
X24800000Y49407500D01*
G75*
G02*
X24737500Y49345000I-62500J0D01*
G01*
X24612500Y49345000D01*
G75*
G02*
X24550000Y49407500I0J62500D01*
G01*
G37*
G36*
G01*
X25050000Y49407500D02*
X25050000Y50082500D01*
G75*
G02*
X25112500Y50145000I62500J0D01*
G01*
X25237500Y50145000D01*
G75*
G02*
X25300000Y50082500I0J-62500D01*
G01*
X25300000Y49407500D01*
G75*
G02*
X25237500Y49345000I-62500J0D01*
G01*
X25112500Y49345000D01*
G75*
G02*
X25050000Y49407500I0J62500D01*
G01*
G37*
G36*
G01*
X25550000Y49407500D02*
X25550000Y50082500D01*
G75*
G02*
X25612500Y50145000I62500J0D01*
G01*
X25737500Y50145000D01*
G75*
G02*
X25800000Y50082500I0J-62500D01*
G01*
X25800000Y49407500D01*
G75*
G02*
X25737500Y49345000I-62500J0D01*
G01*
X25612500Y49345000D01*
G75*
G02*
X25550000Y49407500I0J62500D01*
G01*
G37*
G36*
G01*
X26050000Y49407500D02*
X26050000Y50082500D01*
G75*
G02*
X26112500Y50145000I62500J0D01*
G01*
X26237500Y50145000D01*
G75*
G02*
X26300000Y50082500I0J-62500D01*
G01*
X26300000Y49407500D01*
G75*
G02*
X26237500Y49345000I-62500J0D01*
G01*
X26112500Y49345000D01*
G75*
G02*
X26050000Y49407500I0J62500D01*
G01*
G37*
G36*
G01*
X26550000Y49407500D02*
X26550000Y50082500D01*
G75*
G02*
X26612500Y50145000I62500J0D01*
G01*
X26737500Y50145000D01*
G75*
G02*
X26800000Y50082500I0J-62500D01*
G01*
X26800000Y49407500D01*
G75*
G02*
X26737500Y49345000I-62500J0D01*
G01*
X26612500Y49345000D01*
G75*
G02*
X26550000Y49407500I0J62500D01*
G01*
G37*
G36*
G01*
X27050000Y49407500D02*
X27050000Y50082500D01*
G75*
G02*
X27112500Y50145000I62500J0D01*
G01*
X27237500Y50145000D01*
G75*
G02*
X27300000Y50082500I0J-62500D01*
G01*
X27300000Y49407500D01*
G75*
G02*
X27237500Y49345000I-62500J0D01*
G01*
X27112500Y49345000D01*
G75*
G02*
X27050000Y49407500I0J62500D01*
G01*
G37*
G36*
G01*
X27550000Y49407500D02*
X27550000Y50082500D01*
G75*
G02*
X27612500Y50145000I62500J0D01*
G01*
X27737500Y50145000D01*
G75*
G02*
X27800000Y50082500I0J-62500D01*
G01*
X27800000Y49407500D01*
G75*
G02*
X27737500Y49345000I-62500J0D01*
G01*
X27612500Y49345000D01*
G75*
G02*
X27550000Y49407500I0J62500D01*
G01*
G37*
G36*
G01*
X27975000Y50382500D02*
X27975000Y50507500D01*
G75*
G02*
X28037500Y50570000I62500J0D01*
G01*
X28712500Y50570000D01*
G75*
G02*
X28775000Y50507500I0J-62500D01*
G01*
X28775000Y50382500D01*
G75*
G02*
X28712500Y50320000I-62500J0D01*
G01*
X28037500Y50320000D01*
G75*
G02*
X27975000Y50382500I0J62500D01*
G01*
G37*
G36*
G01*
X27975000Y50882500D02*
X27975000Y51007500D01*
G75*
G02*
X28037500Y51070000I62500J0D01*
G01*
X28712500Y51070000D01*
G75*
G02*
X28775000Y51007500I0J-62500D01*
G01*
X28775000Y50882500D01*
G75*
G02*
X28712500Y50820000I-62500J0D01*
G01*
X28037500Y50820000D01*
G75*
G02*
X27975000Y50882500I0J62500D01*
G01*
G37*
G36*
G01*
X27975000Y51382500D02*
X27975000Y51507500D01*
G75*
G02*
X28037500Y51570000I62500J0D01*
G01*
X28712500Y51570000D01*
G75*
G02*
X28775000Y51507500I0J-62500D01*
G01*
X28775000Y51382500D01*
G75*
G02*
X28712500Y51320000I-62500J0D01*
G01*
X28037500Y51320000D01*
G75*
G02*
X27975000Y51382500I0J62500D01*
G01*
G37*
G36*
G01*
X27975000Y51882500D02*
X27975000Y52007500D01*
G75*
G02*
X28037500Y52070000I62500J0D01*
G01*
X28712500Y52070000D01*
G75*
G02*
X28775000Y52007500I0J-62500D01*
G01*
X28775000Y51882500D01*
G75*
G02*
X28712500Y51820000I-62500J0D01*
G01*
X28037500Y51820000D01*
G75*
G02*
X27975000Y51882500I0J62500D01*
G01*
G37*
G36*
G01*
X27975000Y52382500D02*
X27975000Y52507500D01*
G75*
G02*
X28037500Y52570000I62500J0D01*
G01*
X28712500Y52570000D01*
G75*
G02*
X28775000Y52507500I0J-62500D01*
G01*
X28775000Y52382500D01*
G75*
G02*
X28712500Y52320000I-62500J0D01*
G01*
X28037500Y52320000D01*
G75*
G02*
X27975000Y52382500I0J62500D01*
G01*
G37*
G36*
G01*
X27975000Y52882500D02*
X27975000Y53007500D01*
G75*
G02*
X28037500Y53070000I62500J0D01*
G01*
X28712500Y53070000D01*
G75*
G02*
X28775000Y53007500I0J-62500D01*
G01*
X28775000Y52882500D01*
G75*
G02*
X28712500Y52820000I-62500J0D01*
G01*
X28037500Y52820000D01*
G75*
G02*
X27975000Y52882500I0J62500D01*
G01*
G37*
G36*
G01*
X27975000Y53382500D02*
X27975000Y53507500D01*
G75*
G02*
X28037500Y53570000I62500J0D01*
G01*
X28712500Y53570000D01*
G75*
G02*
X28775000Y53507500I0J-62500D01*
G01*
X28775000Y53382500D01*
G75*
G02*
X28712500Y53320000I-62500J0D01*
G01*
X28037500Y53320000D01*
G75*
G02*
X27975000Y53382500I0J62500D01*
G01*
G37*
G36*
G01*
X27975000Y53882500D02*
X27975000Y54007500D01*
G75*
G02*
X28037500Y54070000I62500J0D01*
G01*
X28712500Y54070000D01*
G75*
G02*
X28775000Y54007500I0J-62500D01*
G01*
X28775000Y53882500D01*
G75*
G02*
X28712500Y53820000I-62500J0D01*
G01*
X28037500Y53820000D01*
G75*
G02*
X27975000Y53882500I0J62500D01*
G01*
G37*
G36*
G01*
X27975000Y54382500D02*
X27975000Y54507500D01*
G75*
G02*
X28037500Y54570000I62500J0D01*
G01*
X28712500Y54570000D01*
G75*
G02*
X28775000Y54507500I0J-62500D01*
G01*
X28775000Y54382500D01*
G75*
G02*
X28712500Y54320000I-62500J0D01*
G01*
X28037500Y54320000D01*
G75*
G02*
X27975000Y54382500I0J62500D01*
G01*
G37*
G36*
G01*
X27975000Y54882500D02*
X27975000Y55007500D01*
G75*
G02*
X28037500Y55070000I62500J0D01*
G01*
X28712500Y55070000D01*
G75*
G02*
X28775000Y55007500I0J-62500D01*
G01*
X28775000Y54882500D01*
G75*
G02*
X28712500Y54820000I-62500J0D01*
G01*
X28037500Y54820000D01*
G75*
G02*
X27975000Y54882500I0J62500D01*
G01*
G37*
G36*
G01*
X27975000Y55382500D02*
X27975000Y55507500D01*
G75*
G02*
X28037500Y55570000I62500J0D01*
G01*
X28712500Y55570000D01*
G75*
G02*
X28775000Y55507500I0J-62500D01*
G01*
X28775000Y55382500D01*
G75*
G02*
X28712500Y55320000I-62500J0D01*
G01*
X28037500Y55320000D01*
G75*
G02*
X27975000Y55382500I0J62500D01*
G01*
G37*
G36*
G01*
X27975000Y55882500D02*
X27975000Y56007500D01*
G75*
G02*
X28037500Y56070000I62500J0D01*
G01*
X28712500Y56070000D01*
G75*
G02*
X28775000Y56007500I0J-62500D01*
G01*
X28775000Y55882500D01*
G75*
G02*
X28712500Y55820000I-62500J0D01*
G01*
X28037500Y55820000D01*
G75*
G02*
X27975000Y55882500I0J62500D01*
G01*
G37*
G36*
G01*
X27975000Y56382500D02*
X27975000Y56507500D01*
G75*
G02*
X28037500Y56570000I62500J0D01*
G01*
X28712500Y56570000D01*
G75*
G02*
X28775000Y56507500I0J-62500D01*
G01*
X28775000Y56382500D01*
G75*
G02*
X28712500Y56320000I-62500J0D01*
G01*
X28037500Y56320000D01*
G75*
G02*
X27975000Y56382500I0J62500D01*
G01*
G37*
G36*
G01*
X27975000Y56882500D02*
X27975000Y57007500D01*
G75*
G02*
X28037500Y57070000I62500J0D01*
G01*
X28712500Y57070000D01*
G75*
G02*
X28775000Y57007500I0J-62500D01*
G01*
X28775000Y56882500D01*
G75*
G02*
X28712500Y56820000I-62500J0D01*
G01*
X28037500Y56820000D01*
G75*
G02*
X27975000Y56882500I0J62500D01*
G01*
G37*
G36*
G01*
X27975000Y57382500D02*
X27975000Y57507500D01*
G75*
G02*
X28037500Y57570000I62500J0D01*
G01*
X28712500Y57570000D01*
G75*
G02*
X28775000Y57507500I0J-62500D01*
G01*
X28775000Y57382500D01*
G75*
G02*
X28712500Y57320000I-62500J0D01*
G01*
X28037500Y57320000D01*
G75*
G02*
X27975000Y57382500I0J62500D01*
G01*
G37*
G36*
G01*
X27975000Y57882500D02*
X27975000Y58007500D01*
G75*
G02*
X28037500Y58070000I62500J0D01*
G01*
X28712500Y58070000D01*
G75*
G02*
X28775000Y58007500I0J-62500D01*
G01*
X28775000Y57882500D01*
G75*
G02*
X28712500Y57820000I-62500J0D01*
G01*
X28037500Y57820000D01*
G75*
G02*
X27975000Y57882500I0J62500D01*
G01*
G37*
G36*
G01*
X27550000Y58307500D02*
X27550000Y58982500D01*
G75*
G02*
X27612500Y59045000I62500J0D01*
G01*
X27737500Y59045000D01*
G75*
G02*
X27800000Y58982500I0J-62500D01*
G01*
X27800000Y58307500D01*
G75*
G02*
X27737500Y58245000I-62500J0D01*
G01*
X27612500Y58245000D01*
G75*
G02*
X27550000Y58307500I0J62500D01*
G01*
G37*
G36*
G01*
X27050000Y58307500D02*
X27050000Y58982500D01*
G75*
G02*
X27112500Y59045000I62500J0D01*
G01*
X27237500Y59045000D01*
G75*
G02*
X27300000Y58982500I0J-62500D01*
G01*
X27300000Y58307500D01*
G75*
G02*
X27237500Y58245000I-62500J0D01*
G01*
X27112500Y58245000D01*
G75*
G02*
X27050000Y58307500I0J62500D01*
G01*
G37*
G36*
G01*
X26550000Y58307500D02*
X26550000Y58982500D01*
G75*
G02*
X26612500Y59045000I62500J0D01*
G01*
X26737500Y59045000D01*
G75*
G02*
X26800000Y58982500I0J-62500D01*
G01*
X26800000Y58307500D01*
G75*
G02*
X26737500Y58245000I-62500J0D01*
G01*
X26612500Y58245000D01*
G75*
G02*
X26550000Y58307500I0J62500D01*
G01*
G37*
G36*
G01*
X26050000Y58307500D02*
X26050000Y58982500D01*
G75*
G02*
X26112500Y59045000I62500J0D01*
G01*
X26237500Y59045000D01*
G75*
G02*
X26300000Y58982500I0J-62500D01*
G01*
X26300000Y58307500D01*
G75*
G02*
X26237500Y58245000I-62500J0D01*
G01*
X26112500Y58245000D01*
G75*
G02*
X26050000Y58307500I0J62500D01*
G01*
G37*
G36*
G01*
X25550000Y58307500D02*
X25550000Y58982500D01*
G75*
G02*
X25612500Y59045000I62500J0D01*
G01*
X25737500Y59045000D01*
G75*
G02*
X25800000Y58982500I0J-62500D01*
G01*
X25800000Y58307500D01*
G75*
G02*
X25737500Y58245000I-62500J0D01*
G01*
X25612500Y58245000D01*
G75*
G02*
X25550000Y58307500I0J62500D01*
G01*
G37*
G36*
G01*
X25050000Y58307500D02*
X25050000Y58982500D01*
G75*
G02*
X25112500Y59045000I62500J0D01*
G01*
X25237500Y59045000D01*
G75*
G02*
X25300000Y58982500I0J-62500D01*
G01*
X25300000Y58307500D01*
G75*
G02*
X25237500Y58245000I-62500J0D01*
G01*
X25112500Y58245000D01*
G75*
G02*
X25050000Y58307500I0J62500D01*
G01*
G37*
G36*
G01*
X24550000Y58307500D02*
X24550000Y58982500D01*
G75*
G02*
X24612500Y59045000I62500J0D01*
G01*
X24737500Y59045000D01*
G75*
G02*
X24800000Y58982500I0J-62500D01*
G01*
X24800000Y58307500D01*
G75*
G02*
X24737500Y58245000I-62500J0D01*
G01*
X24612500Y58245000D01*
G75*
G02*
X24550000Y58307500I0J62500D01*
G01*
G37*
G36*
G01*
X24050000Y58307500D02*
X24050000Y58982500D01*
G75*
G02*
X24112500Y59045000I62500J0D01*
G01*
X24237500Y59045000D01*
G75*
G02*
X24300000Y58982500I0J-62500D01*
G01*
X24300000Y58307500D01*
G75*
G02*
X24237500Y58245000I-62500J0D01*
G01*
X24112500Y58245000D01*
G75*
G02*
X24050000Y58307500I0J62500D01*
G01*
G37*
G36*
G01*
X23550000Y58307500D02*
X23550000Y58982500D01*
G75*
G02*
X23612500Y59045000I62500J0D01*
G01*
X23737500Y59045000D01*
G75*
G02*
X23800000Y58982500I0J-62500D01*
G01*
X23800000Y58307500D01*
G75*
G02*
X23737500Y58245000I-62500J0D01*
G01*
X23612500Y58245000D01*
G75*
G02*
X23550000Y58307500I0J62500D01*
G01*
G37*
G36*
G01*
X23050000Y58307500D02*
X23050000Y58982500D01*
G75*
G02*
X23112500Y59045000I62500J0D01*
G01*
X23237500Y59045000D01*
G75*
G02*
X23300000Y58982500I0J-62500D01*
G01*
X23300000Y58307500D01*
G75*
G02*
X23237500Y58245000I-62500J0D01*
G01*
X23112500Y58245000D01*
G75*
G02*
X23050000Y58307500I0J62500D01*
G01*
G37*
G36*
G01*
X22550000Y58307500D02*
X22550000Y58982500D01*
G75*
G02*
X22612500Y59045000I62500J0D01*
G01*
X22737500Y59045000D01*
G75*
G02*
X22800000Y58982500I0J-62500D01*
G01*
X22800000Y58307500D01*
G75*
G02*
X22737500Y58245000I-62500J0D01*
G01*
X22612500Y58245000D01*
G75*
G02*
X22550000Y58307500I0J62500D01*
G01*
G37*
G36*
G01*
X22050000Y58307500D02*
X22050000Y58982500D01*
G75*
G02*
X22112500Y59045000I62500J0D01*
G01*
X22237500Y59045000D01*
G75*
G02*
X22300000Y58982500I0J-62500D01*
G01*
X22300000Y58307500D01*
G75*
G02*
X22237500Y58245000I-62500J0D01*
G01*
X22112500Y58245000D01*
G75*
G02*
X22050000Y58307500I0J62500D01*
G01*
G37*
G36*
G01*
X21550000Y58307500D02*
X21550000Y58982500D01*
G75*
G02*
X21612500Y59045000I62500J0D01*
G01*
X21737500Y59045000D01*
G75*
G02*
X21800000Y58982500I0J-62500D01*
G01*
X21800000Y58307500D01*
G75*
G02*
X21737500Y58245000I-62500J0D01*
G01*
X21612500Y58245000D01*
G75*
G02*
X21550000Y58307500I0J62500D01*
G01*
G37*
G36*
G01*
X21050000Y58307500D02*
X21050000Y58982500D01*
G75*
G02*
X21112500Y59045000I62500J0D01*
G01*
X21237500Y59045000D01*
G75*
G02*
X21300000Y58982500I0J-62500D01*
G01*
X21300000Y58307500D01*
G75*
G02*
X21237500Y58245000I-62500J0D01*
G01*
X21112500Y58245000D01*
G75*
G02*
X21050000Y58307500I0J62500D01*
G01*
G37*
G36*
G01*
X20550000Y58307500D02*
X20550000Y58982500D01*
G75*
G02*
X20612500Y59045000I62500J0D01*
G01*
X20737500Y59045000D01*
G75*
G02*
X20800000Y58982500I0J-62500D01*
G01*
X20800000Y58307500D01*
G75*
G02*
X20737500Y58245000I-62500J0D01*
G01*
X20612500Y58245000D01*
G75*
G02*
X20550000Y58307500I0J62500D01*
G01*
G37*
G36*
G01*
X20050000Y58307500D02*
X20050000Y58982500D01*
G75*
G02*
X20112500Y59045000I62500J0D01*
G01*
X20237500Y59045000D01*
G75*
G02*
X20300000Y58982500I0J-62500D01*
G01*
X20300000Y58307500D01*
G75*
G02*
X20237500Y58245000I-62500J0D01*
G01*
X20112500Y58245000D01*
G75*
G02*
X20050000Y58307500I0J62500D01*
G01*
G37*
D21*
X23925000Y54195000D03*
D22*
X6205000Y59520000D03*
X6205000Y50880000D03*
D23*
X2025000Y59520000D03*
X2025000Y50880000D03*
D24*
X5705000Y52310000D03*
X5705000Y58090000D03*
D25*
X6770000Y52150000D03*
X6770000Y52950000D03*
X6770000Y53450000D03*
X6770000Y53950000D03*
X6770000Y54450000D03*
X6770000Y54950000D03*
X6770000Y55450000D03*
X6770000Y55950000D03*
X6770000Y56450000D03*
X6770000Y56950000D03*
X6770000Y57750000D03*
X6770000Y58550000D03*
X6770000Y58250000D03*
X6770000Y57450000D03*
X6770000Y52650000D03*
X6770000Y51850000D03*
D26*
X33275000Y58030000D03*
X35375000Y58030000D03*
X35375000Y59680000D03*
X33275000Y59680000D03*
G36*
G01*
X16245001Y73342499D02*
X16245001Y73467499D01*
G75*
G02*
X16307501Y73529999I62500J0D01*
G01*
X17032501Y73529999D01*
G75*
G02*
X17095001Y73467499I0J-62500D01*
G01*
X17095001Y73342499D01*
G75*
G02*
X17032501Y73279999I-62500J0D01*
G01*
X16307501Y73279999D01*
G75*
G02*
X16245001Y73342499I0J62500D01*
G01*
G37*
G36*
G01*
X16245001Y72842499D02*
X16245001Y72967499D01*
G75*
G02*
X16307501Y73029999I62500J0D01*
G01*
X17032501Y73029999D01*
G75*
G02*
X17095001Y72967499I0J-62500D01*
G01*
X17095001Y72842499D01*
G75*
G02*
X17032501Y72779999I-62500J0D01*
G01*
X16307501Y72779999D01*
G75*
G02*
X16245001Y72842499I0J62500D01*
G01*
G37*
G36*
G01*
X16245001Y72342499D02*
X16245001Y72467499D01*
G75*
G02*
X16307501Y72529999I62500J0D01*
G01*
X17032501Y72529999D01*
G75*
G02*
X17095001Y72467499I0J-62500D01*
G01*
X17095001Y72342499D01*
G75*
G02*
X17032501Y72279999I-62500J0D01*
G01*
X16307501Y72279999D01*
G75*
G02*
X16245001Y72342499I0J62500D01*
G01*
G37*
G36*
G01*
X16245001Y71842499D02*
X16245001Y71967499D01*
G75*
G02*
X16307501Y72029999I62500J0D01*
G01*
X17032501Y72029999D01*
G75*
G02*
X17095001Y71967499I0J-62500D01*
G01*
X17095001Y71842499D01*
G75*
G02*
X17032501Y71779999I-62500J0D01*
G01*
X16307501Y71779999D01*
G75*
G02*
X16245001Y71842499I0J62500D01*
G01*
G37*
G36*
G01*
X16245001Y71342499D02*
X16245001Y71467499D01*
G75*
G02*
X16307501Y71529999I62500J0D01*
G01*
X17032501Y71529999D01*
G75*
G02*
X17095001Y71467499I0J-62500D01*
G01*
X17095001Y71342499D01*
G75*
G02*
X17032501Y71279999I-62500J0D01*
G01*
X16307501Y71279999D01*
G75*
G02*
X16245001Y71342499I0J62500D01*
G01*
G37*
G36*
G01*
X16245001Y70842499D02*
X16245001Y70967499D01*
G75*
G02*
X16307501Y71029999I62500J0D01*
G01*
X17032501Y71029999D01*
G75*
G02*
X17095001Y70967499I0J-62500D01*
G01*
X17095001Y70842499D01*
G75*
G02*
X17032501Y70779999I-62500J0D01*
G01*
X16307501Y70779999D01*
G75*
G02*
X16245001Y70842499I0J62500D01*
G01*
G37*
G36*
G01*
X16245001Y70342499D02*
X16245001Y70467499D01*
G75*
G02*
X16307501Y70529999I62500J0D01*
G01*
X17032501Y70529999D01*
G75*
G02*
X17095001Y70467499I0J-62500D01*
G01*
X17095001Y70342499D01*
G75*
G02*
X17032501Y70279999I-62500J0D01*
G01*
X16307501Y70279999D01*
G75*
G02*
X16245001Y70342499I0J62500D01*
G01*
G37*
G36*
G01*
X16245001Y69842499D02*
X16245001Y69967499D01*
G75*
G02*
X16307501Y70029999I62500J0D01*
G01*
X17032501Y70029999D01*
G75*
G02*
X17095001Y69967499I0J-62500D01*
G01*
X17095001Y69842499D01*
G75*
G02*
X17032501Y69779999I-62500J0D01*
G01*
X16307501Y69779999D01*
G75*
G02*
X16245001Y69842499I0J62500D01*
G01*
G37*
G36*
G01*
X17245001Y68842499D02*
X17245001Y69567499D01*
G75*
G02*
X17307501Y69629999I62500J0D01*
G01*
X17432501Y69629999D01*
G75*
G02*
X17495001Y69567499I0J-62500D01*
G01*
X17495001Y68842499D01*
G75*
G02*
X17432501Y68779999I-62500J0D01*
G01*
X17307501Y68779999D01*
G75*
G02*
X17245001Y68842499I0J62500D01*
G01*
G37*
G36*
G01*
X17745001Y68842499D02*
X17745001Y69567499D01*
G75*
G02*
X17807501Y69629999I62500J0D01*
G01*
X17932501Y69629999D01*
G75*
G02*
X17995001Y69567499I0J-62500D01*
G01*
X17995001Y68842499D01*
G75*
G02*
X17932501Y68779999I-62500J0D01*
G01*
X17807501Y68779999D01*
G75*
G02*
X17745001Y68842499I0J62500D01*
G01*
G37*
G36*
G01*
X18245001Y68842499D02*
X18245001Y69567499D01*
G75*
G02*
X18307501Y69629999I62500J0D01*
G01*
X18432501Y69629999D01*
G75*
G02*
X18495001Y69567499I0J-62500D01*
G01*
X18495001Y68842499D01*
G75*
G02*
X18432501Y68779999I-62500J0D01*
G01*
X18307501Y68779999D01*
G75*
G02*
X18245001Y68842499I0J62500D01*
G01*
G37*
G36*
G01*
X18745001Y68842499D02*
X18745001Y69567499D01*
G75*
G02*
X18807501Y69629999I62500J0D01*
G01*
X18932501Y69629999D01*
G75*
G02*
X18995001Y69567499I0J-62500D01*
G01*
X18995001Y68842499D01*
G75*
G02*
X18932501Y68779999I-62500J0D01*
G01*
X18807501Y68779999D01*
G75*
G02*
X18745001Y68842499I0J62500D01*
G01*
G37*
G36*
G01*
X19245001Y68842499D02*
X19245001Y69567499D01*
G75*
G02*
X19307501Y69629999I62500J0D01*
G01*
X19432501Y69629999D01*
G75*
G02*
X19495001Y69567499I0J-62500D01*
G01*
X19495001Y68842499D01*
G75*
G02*
X19432501Y68779999I-62500J0D01*
G01*
X19307501Y68779999D01*
G75*
G02*
X19245001Y68842499I0J62500D01*
G01*
G37*
G36*
G01*
X19745001Y68842499D02*
X19745001Y69567499D01*
G75*
G02*
X19807501Y69629999I62500J0D01*
G01*
X19932501Y69629999D01*
G75*
G02*
X19995001Y69567499I0J-62500D01*
G01*
X19995001Y68842499D01*
G75*
G02*
X19932501Y68779999I-62500J0D01*
G01*
X19807501Y68779999D01*
G75*
G02*
X19745001Y68842499I0J62500D01*
G01*
G37*
G36*
G01*
X20145001Y69842499D02*
X20145001Y69967499D01*
G75*
G02*
X20207501Y70029999I62500J0D01*
G01*
X20932501Y70029999D01*
G75*
G02*
X20995001Y69967499I0J-62500D01*
G01*
X20995001Y69842499D01*
G75*
G02*
X20932501Y69779999I-62500J0D01*
G01*
X20207501Y69779999D01*
G75*
G02*
X20145001Y69842499I0J62500D01*
G01*
G37*
G36*
G01*
X20145001Y70342499D02*
X20145001Y70467499D01*
G75*
G02*
X20207501Y70529999I62500J0D01*
G01*
X20932501Y70529999D01*
G75*
G02*
X20995001Y70467499I0J-62500D01*
G01*
X20995001Y70342499D01*
G75*
G02*
X20932501Y70279999I-62500J0D01*
G01*
X20207501Y70279999D01*
G75*
G02*
X20145001Y70342499I0J62500D01*
G01*
G37*
G36*
G01*
X20145001Y70842499D02*
X20145001Y70967499D01*
G75*
G02*
X20207501Y71029999I62500J0D01*
G01*
X20932501Y71029999D01*
G75*
G02*
X20995001Y70967499I0J-62500D01*
G01*
X20995001Y70842499D01*
G75*
G02*
X20932501Y70779999I-62500J0D01*
G01*
X20207501Y70779999D01*
G75*
G02*
X20145001Y70842499I0J62500D01*
G01*
G37*
G36*
G01*
X20145001Y71342499D02*
X20145001Y71467499D01*
G75*
G02*
X20207501Y71529999I62500J0D01*
G01*
X20932501Y71529999D01*
G75*
G02*
X20995001Y71467499I0J-62500D01*
G01*
X20995001Y71342499D01*
G75*
G02*
X20932501Y71279999I-62500J0D01*
G01*
X20207501Y71279999D01*
G75*
G02*
X20145001Y71342499I0J62500D01*
G01*
G37*
G36*
G01*
X20145001Y71842499D02*
X20145001Y71967499D01*
G75*
G02*
X20207501Y72029999I62500J0D01*
G01*
X20932501Y72029999D01*
G75*
G02*
X20995001Y71967499I0J-62500D01*
G01*
X20995001Y71842499D01*
G75*
G02*
X20932501Y71779999I-62500J0D01*
G01*
X20207501Y71779999D01*
G75*
G02*
X20145001Y71842499I0J62500D01*
G01*
G37*
G36*
G01*
X20145001Y72342499D02*
X20145001Y72467499D01*
G75*
G02*
X20207501Y72529999I62500J0D01*
G01*
X20932501Y72529999D01*
G75*
G02*
X20995001Y72467499I0J-62500D01*
G01*
X20995001Y72342499D01*
G75*
G02*
X20932501Y72279999I-62500J0D01*
G01*
X20207501Y72279999D01*
G75*
G02*
X20145001Y72342499I0J62500D01*
G01*
G37*
G36*
G01*
X20145001Y72842499D02*
X20145001Y72967499D01*
G75*
G02*
X20207501Y73029999I62500J0D01*
G01*
X20932501Y73029999D01*
G75*
G02*
X20995001Y72967499I0J-62500D01*
G01*
X20995001Y72842499D01*
G75*
G02*
X20932501Y72779999I-62500J0D01*
G01*
X20207501Y72779999D01*
G75*
G02*
X20145001Y72842499I0J62500D01*
G01*
G37*
G36*
G01*
X20145001Y73342499D02*
X20145001Y73467499D01*
G75*
G02*
X20207501Y73529999I62500J0D01*
G01*
X20932501Y73529999D01*
G75*
G02*
X20995001Y73467499I0J-62500D01*
G01*
X20995001Y73342499D01*
G75*
G02*
X20932501Y73279999I-62500J0D01*
G01*
X20207501Y73279999D01*
G75*
G02*
X20145001Y73342499I0J62500D01*
G01*
G37*
G36*
G01*
X19745001Y73742499D02*
X19745001Y74467499D01*
G75*
G02*
X19807501Y74529999I62500J0D01*
G01*
X19932501Y74529999D01*
G75*
G02*
X19995001Y74467499I0J-62500D01*
G01*
X19995001Y73742499D01*
G75*
G02*
X19932501Y73679999I-62500J0D01*
G01*
X19807501Y73679999D01*
G75*
G02*
X19745001Y73742499I0J62500D01*
G01*
G37*
G36*
G01*
X19245001Y73742499D02*
X19245001Y74467499D01*
G75*
G02*
X19307501Y74529999I62500J0D01*
G01*
X19432501Y74529999D01*
G75*
G02*
X19495001Y74467499I0J-62500D01*
G01*
X19495001Y73742499D01*
G75*
G02*
X19432501Y73679999I-62500J0D01*
G01*
X19307501Y73679999D01*
G75*
G02*
X19245001Y73742499I0J62500D01*
G01*
G37*
G36*
G01*
X18745001Y73742499D02*
X18745001Y74467499D01*
G75*
G02*
X18807501Y74529999I62500J0D01*
G01*
X18932501Y74529999D01*
G75*
G02*
X18995001Y74467499I0J-62500D01*
G01*
X18995001Y73742499D01*
G75*
G02*
X18932501Y73679999I-62500J0D01*
G01*
X18807501Y73679999D01*
G75*
G02*
X18745001Y73742499I0J62500D01*
G01*
G37*
G36*
G01*
X18245001Y73742499D02*
X18245001Y74467499D01*
G75*
G02*
X18307501Y74529999I62500J0D01*
G01*
X18432501Y74529999D01*
G75*
G02*
X18495001Y74467499I0J-62500D01*
G01*
X18495001Y73742499D01*
G75*
G02*
X18432501Y73679999I-62500J0D01*
G01*
X18307501Y73679999D01*
G75*
G02*
X18245001Y73742499I0J62500D01*
G01*
G37*
G36*
G01*
X17745001Y73742499D02*
X17745001Y74467499D01*
G75*
G02*
X17807501Y74529999I62500J0D01*
G01*
X17932501Y74529999D01*
G75*
G02*
X17995001Y74467499I0J-62500D01*
G01*
X17995001Y73742499D01*
G75*
G02*
X17932501Y73679999I-62500J0D01*
G01*
X17807501Y73679999D01*
G75*
G02*
X17745001Y73742499I0J62500D01*
G01*
G37*
G36*
G01*
X17245001Y73742499D02*
X17245001Y74467499D01*
G75*
G02*
X17307501Y74529999I62500J0D01*
G01*
X17432501Y74529999D01*
G75*
G02*
X17495001Y74467499I0J-62500D01*
G01*
X17495001Y73742499D01*
G75*
G02*
X17432501Y73679999I-62500J0D01*
G01*
X17307501Y73679999D01*
G75*
G02*
X17245001Y73742499I0J62500D01*
G01*
G37*
D27*
X18620001Y71654999D03*
D28*
X11770000Y59950000D03*
X11770000Y57750000D03*
D29*
X18000000Y3000000D03*
X12000000Y3000000D03*
D30*
X31725000Y68725000D03*
X31725000Y67425000D03*
X33625000Y68075000D03*
X31725000Y68075000D03*
X33625000Y67425000D03*
X33625000Y68725000D03*
G36*
G01*
X65565000Y48885000D02*
X65905000Y48885000D01*
G75*
G02*
X66045000Y48745000I0J-140000D01*
G01*
X66045000Y48465000D01*
G75*
G02*
X65905000Y48325000I-140000J0D01*
G01*
X65565000Y48325000D01*
G75*
G02*
X65425000Y48465000I0J140000D01*
G01*
X65425000Y48745000D01*
G75*
G02*
X65565000Y48885000I140000J0D01*
G01*
G37*
G36*
G01*
X65565000Y47925000D02*
X65905000Y47925000D01*
G75*
G02*
X66045000Y47785000I0J-140000D01*
G01*
X66045000Y47505000D01*
G75*
G02*
X65905000Y47365000I-140000J0D01*
G01*
X65565000Y47365000D01*
G75*
G02*
X65425000Y47505000I0J140000D01*
G01*
X65425000Y47785000D01*
G75*
G02*
X65565000Y47925000I140000J0D01*
G01*
G37*
G36*
G01*
X33990000Y61430000D02*
X33990000Y61770000D01*
G75*
G02*
X34130000Y61910000I140000J0D01*
G01*
X34410000Y61910000D01*
G75*
G02*
X34550000Y61770000I0J-140000D01*
G01*
X34550000Y61430000D01*
G75*
G02*
X34410000Y61290000I-140000J0D01*
G01*
X34130000Y61290000D01*
G75*
G02*
X33990000Y61430000I0J140000D01*
G01*
G37*
G36*
G01*
X33030000Y61430000D02*
X33030000Y61770000D01*
G75*
G02*
X33170000Y61910000I140000J0D01*
G01*
X33450000Y61910000D01*
G75*
G02*
X33590000Y61770000I0J-140000D01*
G01*
X33590000Y61430000D01*
G75*
G02*
X33450000Y61290000I-140000J0D01*
G01*
X33170000Y61290000D01*
G75*
G02*
X33030000Y61430000I0J140000D01*
G01*
G37*
G36*
G01*
X10725000Y72190000D02*
X11065000Y72190000D01*
G75*
G02*
X11205000Y72050000I0J-140000D01*
G01*
X11205000Y71770000D01*
G75*
G02*
X11065000Y71630000I-140000J0D01*
G01*
X10725000Y71630000D01*
G75*
G02*
X10585000Y71770000I0J140000D01*
G01*
X10585000Y72050000D01*
G75*
G02*
X10725000Y72190000I140000J0D01*
G01*
G37*
G36*
G01*
X10725000Y73150000D02*
X11065000Y73150000D01*
G75*
G02*
X11205000Y73010000I0J-140000D01*
G01*
X11205000Y72730000D01*
G75*
G02*
X11065000Y72590000I-140000J0D01*
G01*
X10725000Y72590000D01*
G75*
G02*
X10585000Y72730000I0J140000D01*
G01*
X10585000Y73010000D01*
G75*
G02*
X10725000Y73150000I140000J0D01*
G01*
G37*
G36*
G01*
X24375000Y69340000D02*
X24035000Y69340000D01*
G75*
G02*
X23895000Y69480000I0J140000D01*
G01*
X23895000Y69760000D01*
G75*
G02*
X24035000Y69900000I140000J0D01*
G01*
X24375000Y69900000D01*
G75*
G02*
X24515000Y69760000I0J-140000D01*
G01*
X24515000Y69480000D01*
G75*
G02*
X24375000Y69340000I-140000J0D01*
G01*
G37*
G36*
G01*
X24375000Y70300000D02*
X24035000Y70300000D01*
G75*
G02*
X23895000Y70440000I0J140000D01*
G01*
X23895000Y70720000D01*
G75*
G02*
X24035000Y70860000I140000J0D01*
G01*
X24375000Y70860000D01*
G75*
G02*
X24515000Y70720000I0J-140000D01*
G01*
X24515000Y70440000D01*
G75*
G02*
X24375000Y70300000I-140000J0D01*
G01*
G37*
G36*
G01*
X26240000Y68255000D02*
X26240000Y68595000D01*
G75*
G02*
X26380000Y68735000I140000J0D01*
G01*
X26660000Y68735000D01*
G75*
G02*
X26800000Y68595000I0J-140000D01*
G01*
X26800000Y68255000D01*
G75*
G02*
X26660000Y68115000I-140000J0D01*
G01*
X26380000Y68115000D01*
G75*
G02*
X26240000Y68255000I0J140000D01*
G01*
G37*
G36*
G01*
X25280000Y68255000D02*
X25280000Y68595000D01*
G75*
G02*
X25420000Y68735000I140000J0D01*
G01*
X25700000Y68735000D01*
G75*
G02*
X25840000Y68595000I0J-140000D01*
G01*
X25840000Y68255000D01*
G75*
G02*
X25700000Y68115000I-140000J0D01*
G01*
X25420000Y68115000D01*
G75*
G02*
X25280000Y68255000I0J140000D01*
G01*
G37*
G36*
G01*
X13895000Y69215000D02*
X13555000Y69215000D01*
G75*
G02*
X13415000Y69355000I0J140000D01*
G01*
X13415000Y69635000D01*
G75*
G02*
X13555000Y69775000I140000J0D01*
G01*
X13895000Y69775000D01*
G75*
G02*
X14035000Y69635000I0J-140000D01*
G01*
X14035000Y69355000D01*
G75*
G02*
X13895000Y69215000I-140000J0D01*
G01*
G37*
G36*
G01*
X13895000Y70175000D02*
X13555000Y70175000D01*
G75*
G02*
X13415000Y70315000I0J140000D01*
G01*
X13415000Y70595000D01*
G75*
G02*
X13555000Y70735000I140000J0D01*
G01*
X13895000Y70735000D01*
G75*
G02*
X14035000Y70595000I0J-140000D01*
G01*
X14035000Y70315000D01*
G75*
G02*
X13895000Y70175000I-140000J0D01*
G01*
G37*
G36*
G01*
X11600000Y68445000D02*
X11600000Y68105000D01*
G75*
G02*
X11460000Y67965000I-140000J0D01*
G01*
X11180000Y67965000D01*
G75*
G02*
X11040000Y68105000I0J140000D01*
G01*
X11040000Y68445000D01*
G75*
G02*
X11180000Y68585000I140000J0D01*
G01*
X11460000Y68585000D01*
G75*
G02*
X11600000Y68445000I0J-140000D01*
G01*
G37*
G36*
G01*
X12560000Y68445000D02*
X12560000Y68105000D01*
G75*
G02*
X12420000Y67965000I-140000J0D01*
G01*
X12140000Y67965000D01*
G75*
G02*
X12000000Y68105000I0J140000D01*
G01*
X12000000Y68445000D01*
G75*
G02*
X12140000Y68585000I140000J0D01*
G01*
X12420000Y68585000D01*
G75*
G02*
X12560000Y68445000I0J-140000D01*
G01*
G37*
G36*
G01*
X20295000Y66885000D02*
X19955000Y66885000D01*
G75*
G02*
X19815000Y67025000I0J140000D01*
G01*
X19815000Y67305000D01*
G75*
G02*
X19955000Y67445000I140000J0D01*
G01*
X20295000Y67445000D01*
G75*
G02*
X20435000Y67305000I0J-140000D01*
G01*
X20435000Y67025000D01*
G75*
G02*
X20295000Y66885000I-140000J0D01*
G01*
G37*
G36*
G01*
X20295000Y65925000D02*
X19955000Y65925000D01*
G75*
G02*
X19815000Y66065000I0J140000D01*
G01*
X19815000Y66345000D01*
G75*
G02*
X19955000Y66485000I140000J0D01*
G01*
X20295000Y66485000D01*
G75*
G02*
X20435000Y66345000I0J-140000D01*
G01*
X20435000Y66065000D01*
G75*
G02*
X20295000Y65925000I-140000J0D01*
G01*
G37*
G36*
G01*
X21040000Y64790000D02*
X21040000Y65130000D01*
G75*
G02*
X21180000Y65270000I140000J0D01*
G01*
X21460000Y65270000D01*
G75*
G02*
X21600000Y65130000I0J-140000D01*
G01*
X21600000Y64790000D01*
G75*
G02*
X21460000Y64650000I-140000J0D01*
G01*
X21180000Y64650000D01*
G75*
G02*
X21040000Y64790000I0J140000D01*
G01*
G37*
G36*
G01*
X22000000Y64790000D02*
X22000000Y65130000D01*
G75*
G02*
X22140000Y65270000I140000J0D01*
G01*
X22420000Y65270000D01*
G75*
G02*
X22560000Y65130000I0J-140000D01*
G01*
X22560000Y64790000D01*
G75*
G02*
X22420000Y64650000I-140000J0D01*
G01*
X22140000Y64650000D01*
G75*
G02*
X22000000Y64790000I0J140000D01*
G01*
G37*
G36*
G01*
X9660000Y57430000D02*
X9320000Y57430000D01*
G75*
G02*
X9180000Y57570000I0J140000D01*
G01*
X9180000Y57850000D01*
G75*
G02*
X9320000Y57990000I140000J0D01*
G01*
X9660000Y57990000D01*
G75*
G02*
X9800000Y57850000I0J-140000D01*
G01*
X9800000Y57570000D01*
G75*
G02*
X9660000Y57430000I-140000J0D01*
G01*
G37*
G36*
G01*
X9660000Y58390000D02*
X9320000Y58390000D01*
G75*
G02*
X9180000Y58530000I0J140000D01*
G01*
X9180000Y58810000D01*
G75*
G02*
X9320000Y58950000I140000J0D01*
G01*
X9660000Y58950000D01*
G75*
G02*
X9800000Y58810000I0J-140000D01*
G01*
X9800000Y58530000D01*
G75*
G02*
X9660000Y58390000I-140000J0D01*
G01*
G37*
G36*
G01*
X30990000Y76000000D02*
X30990000Y75660000D01*
G75*
G02*
X30850000Y75520000I-140000J0D01*
G01*
X30570000Y75520000D01*
G75*
G02*
X30430000Y75660000I0J140000D01*
G01*
X30430000Y76000000D01*
G75*
G02*
X30570000Y76140000I140000J0D01*
G01*
X30850000Y76140000D01*
G75*
G02*
X30990000Y76000000I0J-140000D01*
G01*
G37*
G36*
G01*
X31950000Y76000000D02*
X31950000Y75660000D01*
G75*
G02*
X31810000Y75520000I-140000J0D01*
G01*
X31530000Y75520000D01*
G75*
G02*
X31390000Y75660000I0J140000D01*
G01*
X31390000Y76000000D01*
G75*
G02*
X31530000Y76140000I140000J0D01*
G01*
X31810000Y76140000D01*
G75*
G02*
X31950000Y76000000I0J-140000D01*
G01*
G37*
G36*
G01*
X35235000Y50162500D02*
X35235000Y49817500D01*
G75*
G02*
X35087500Y49670000I-147500J0D01*
G01*
X34792500Y49670000D01*
G75*
G02*
X34645000Y49817500I0J147500D01*
G01*
X34645000Y50162500D01*
G75*
G02*
X34792500Y50310000I147500J0D01*
G01*
X35087500Y50310000D01*
G75*
G02*
X35235000Y50162500I0J-147500D01*
G01*
G37*
G36*
G01*
X34265000Y50162500D02*
X34265000Y49817500D01*
G75*
G02*
X34117500Y49670000I-147500J0D01*
G01*
X33822500Y49670000D01*
G75*
G02*
X33675000Y49817500I0J147500D01*
G01*
X33675000Y50162500D01*
G75*
G02*
X33822500Y50310000I147500J0D01*
G01*
X34117500Y50310000D01*
G75*
G02*
X34265000Y50162500I0J-147500D01*
G01*
G37*
G36*
G01*
X22657500Y70855000D02*
X23002500Y70855000D01*
G75*
G02*
X23150000Y70707500I0J-147500D01*
G01*
X23150000Y70412500D01*
G75*
G02*
X23002500Y70265000I-147500J0D01*
G01*
X22657500Y70265000D01*
G75*
G02*
X22510000Y70412500I0J147500D01*
G01*
X22510000Y70707500D01*
G75*
G02*
X22657500Y70855000I147500J0D01*
G01*
G37*
G36*
G01*
X22657500Y69885000D02*
X23002500Y69885000D01*
G75*
G02*
X23150000Y69737500I0J-147500D01*
G01*
X23150000Y69442500D01*
G75*
G02*
X23002500Y69295000I-147500J0D01*
G01*
X22657500Y69295000D01*
G75*
G02*
X22510000Y69442500I0J147500D01*
G01*
X22510000Y69737500D01*
G75*
G02*
X22657500Y69885000I147500J0D01*
G01*
G37*
G36*
G01*
X14902500Y69785000D02*
X15247500Y69785000D01*
G75*
G02*
X15395000Y69637500I0J-147500D01*
G01*
X15395000Y69342500D01*
G75*
G02*
X15247500Y69195000I-147500J0D01*
G01*
X14902500Y69195000D01*
G75*
G02*
X14755000Y69342500I0J147500D01*
G01*
X14755000Y69637500D01*
G75*
G02*
X14902500Y69785000I147500J0D01*
G01*
G37*
G36*
G01*
X14902500Y70755000D02*
X15247500Y70755000D01*
G75*
G02*
X15395000Y70607500I0J-147500D01*
G01*
X15395000Y70312500D01*
G75*
G02*
X15247500Y70165000I-147500J0D01*
G01*
X14902500Y70165000D01*
G75*
G02*
X14755000Y70312500I0J147500D01*
G01*
X14755000Y70607500D01*
G75*
G02*
X14902500Y70755000I147500J0D01*
G01*
G37*
G36*
G01*
X18702500Y66495000D02*
X19047500Y66495000D01*
G75*
G02*
X19195000Y66347500I0J-147500D01*
G01*
X19195000Y66052500D01*
G75*
G02*
X19047500Y65905000I-147500J0D01*
G01*
X18702500Y65905000D01*
G75*
G02*
X18555000Y66052500I0J147500D01*
G01*
X18555000Y66347500D01*
G75*
G02*
X18702500Y66495000I147500J0D01*
G01*
G37*
G36*
G01*
X18702500Y67465000D02*
X19047500Y67465000D01*
G75*
G02*
X19195000Y67317500I0J-147500D01*
G01*
X19195000Y67022500D01*
G75*
G02*
X19047500Y66875000I-147500J0D01*
G01*
X18702500Y66875000D01*
G75*
G02*
X18555000Y67022500I0J147500D01*
G01*
X18555000Y67317500D01*
G75*
G02*
X18702500Y67465000I147500J0D01*
G01*
G37*
G36*
G01*
X14902500Y75190000D02*
X15247500Y75190000D01*
G75*
G02*
X15395000Y75042500I0J-147500D01*
G01*
X15395000Y74747500D01*
G75*
G02*
X15247500Y74600000I-147500J0D01*
G01*
X14902500Y74600000D01*
G75*
G02*
X14755000Y74747500I0J147500D01*
G01*
X14755000Y75042500D01*
G75*
G02*
X14902500Y75190000I147500J0D01*
G01*
G37*
G36*
G01*
X14902500Y74220000D02*
X15247500Y74220000D01*
G75*
G02*
X15395000Y74072500I0J-147500D01*
G01*
X15395000Y73777500D01*
G75*
G02*
X15247500Y73630000I-147500J0D01*
G01*
X14902500Y73630000D01*
G75*
G02*
X14755000Y73777500I0J147500D01*
G01*
X14755000Y74072500D01*
G75*
G02*
X14902500Y74220000I147500J0D01*
G01*
G37*
G36*
G01*
X71325000Y49280000D02*
X71695000Y49280000D01*
G75*
G02*
X71830000Y49145000I0J-135000D01*
G01*
X71830000Y48875000D01*
G75*
G02*
X71695000Y48740000I-135000J0D01*
G01*
X71325000Y48740000D01*
G75*
G02*
X71190000Y48875000I0J135000D01*
G01*
X71190000Y49145000D01*
G75*
G02*
X71325000Y49280000I135000J0D01*
G01*
G37*
G36*
G01*
X71325000Y48260000D02*
X71695000Y48260000D01*
G75*
G02*
X71830000Y48125000I0J-135000D01*
G01*
X71830000Y47855000D01*
G75*
G02*
X71695000Y47720000I-135000J0D01*
G01*
X71325000Y47720000D01*
G75*
G02*
X71190000Y47855000I0J135000D01*
G01*
X71190000Y48125000D01*
G75*
G02*
X71325000Y48260000I135000J0D01*
G01*
G37*
G36*
G01*
X65045000Y50135000D02*
X65045000Y49765000D01*
G75*
G02*
X64910000Y49630000I-135000J0D01*
G01*
X64640000Y49630000D01*
G75*
G02*
X64505000Y49765000I0J135000D01*
G01*
X64505000Y50135000D01*
G75*
G02*
X64640000Y50270000I135000J0D01*
G01*
X64910000Y50270000D01*
G75*
G02*
X65045000Y50135000I0J-135000D01*
G01*
G37*
G36*
G01*
X66065000Y50135000D02*
X66065000Y49765000D01*
G75*
G02*
X65930000Y49630000I-135000J0D01*
G01*
X65660000Y49630000D01*
G75*
G02*
X65525000Y49765000I0J135000D01*
G01*
X65525000Y50135000D01*
G75*
G02*
X65660000Y50270000I135000J0D01*
G01*
X65930000Y50270000D01*
G75*
G02*
X66065000Y50135000I0J-135000D01*
G01*
G37*
G36*
G01*
X71695000Y50445000D02*
X71325000Y50445000D01*
G75*
G02*
X71190000Y50580000I0J135000D01*
G01*
X71190000Y50850000D01*
G75*
G02*
X71325000Y50985000I135000J0D01*
G01*
X71695000Y50985000D01*
G75*
G02*
X71830000Y50850000I0J-135000D01*
G01*
X71830000Y50580000D01*
G75*
G02*
X71695000Y50445000I-135000J0D01*
G01*
G37*
G36*
G01*
X71695000Y51465000D02*
X71325000Y51465000D01*
G75*
G02*
X71190000Y51600000I0J135000D01*
G01*
X71190000Y51870000D01*
G75*
G02*
X71325000Y52005000I135000J0D01*
G01*
X71695000Y52005000D01*
G75*
G02*
X71830000Y51870000I0J-135000D01*
G01*
X71830000Y51600000D01*
G75*
G02*
X71695000Y51465000I-135000J0D01*
G01*
G37*
G36*
G01*
X61090000Y46815000D02*
X61090000Y47185000D01*
G75*
G02*
X61225000Y47320000I135000J0D01*
G01*
X61495000Y47320000D01*
G75*
G02*
X61630000Y47185000I0J-135000D01*
G01*
X61630000Y46815000D01*
G75*
G02*
X61495000Y46680000I-135000J0D01*
G01*
X61225000Y46680000D01*
G75*
G02*
X61090000Y46815000I0J135000D01*
G01*
G37*
G36*
G01*
X60070000Y46815000D02*
X60070000Y47185000D01*
G75*
G02*
X60205000Y47320000I135000J0D01*
G01*
X60475000Y47320000D01*
G75*
G02*
X60610000Y47185000I0J-135000D01*
G01*
X60610000Y46815000D01*
G75*
G02*
X60475000Y46680000I-135000J0D01*
G01*
X60205000Y46680000D01*
G75*
G02*
X60070000Y46815000I0J135000D01*
G01*
G37*
G36*
G01*
X39600000Y53595000D02*
X39600000Y53225000D01*
G75*
G02*
X39465000Y53090000I-135000J0D01*
G01*
X39195000Y53090000D01*
G75*
G02*
X39060000Y53225000I0J135000D01*
G01*
X39060000Y53595000D01*
G75*
G02*
X39195000Y53730000I135000J0D01*
G01*
X39465000Y53730000D01*
G75*
G02*
X39600000Y53595000I0J-135000D01*
G01*
G37*
G36*
G01*
X38580000Y53595000D02*
X38580000Y53225000D01*
G75*
G02*
X38445000Y53090000I-135000J0D01*
G01*
X38175000Y53090000D01*
G75*
G02*
X38040000Y53225000I0J135000D01*
G01*
X38040000Y53595000D01*
G75*
G02*
X38175000Y53730000I135000J0D01*
G01*
X38445000Y53730000D01*
G75*
G02*
X38580000Y53595000I0J-135000D01*
G01*
G37*
G36*
G01*
X38580000Y52475000D02*
X38580000Y52105000D01*
G75*
G02*
X38445000Y51970000I-135000J0D01*
G01*
X38175000Y51970000D01*
G75*
G02*
X38040000Y52105000I0J135000D01*
G01*
X38040000Y52475000D01*
G75*
G02*
X38175000Y52610000I135000J0D01*
G01*
X38445000Y52610000D01*
G75*
G02*
X38580000Y52475000I0J-135000D01*
G01*
G37*
G36*
G01*
X39600000Y52475000D02*
X39600000Y52105000D01*
G75*
G02*
X39465000Y51970000I-135000J0D01*
G01*
X39195000Y51970000D01*
G75*
G02*
X39060000Y52105000I0J135000D01*
G01*
X39060000Y52475000D01*
G75*
G02*
X39195000Y52610000I135000J0D01*
G01*
X39465000Y52610000D01*
G75*
G02*
X39600000Y52475000I0J-135000D01*
G01*
G37*
G36*
G01*
X39610000Y54765000D02*
X39610000Y54395000D01*
G75*
G02*
X39475000Y54260000I-135000J0D01*
G01*
X39205000Y54260000D01*
G75*
G02*
X39070000Y54395000I0J135000D01*
G01*
X39070000Y54765000D01*
G75*
G02*
X39205000Y54900000I135000J0D01*
G01*
X39475000Y54900000D01*
G75*
G02*
X39610000Y54765000I0J-135000D01*
G01*
G37*
G36*
G01*
X38590000Y54765000D02*
X38590000Y54395000D01*
G75*
G02*
X38455000Y54260000I-135000J0D01*
G01*
X38185000Y54260000D01*
G75*
G02*
X38050000Y54395000I0J135000D01*
G01*
X38050000Y54765000D01*
G75*
G02*
X38185000Y54900000I135000J0D01*
G01*
X38455000Y54900000D01*
G75*
G02*
X38590000Y54765000I0J-135000D01*
G01*
G37*
G36*
G01*
X35210000Y52425000D02*
X35210000Y52055000D01*
G75*
G02*
X35075000Y51920000I-135000J0D01*
G01*
X34805000Y51920000D01*
G75*
G02*
X34670000Y52055000I0J135000D01*
G01*
X34670000Y52425000D01*
G75*
G02*
X34805000Y52560000I135000J0D01*
G01*
X35075000Y52560000D01*
G75*
G02*
X35210000Y52425000I0J-135000D01*
G01*
G37*
G36*
G01*
X34190000Y52425000D02*
X34190000Y52055000D01*
G75*
G02*
X34055000Y51920000I-135000J0D01*
G01*
X33785000Y51920000D01*
G75*
G02*
X33650000Y52055000I0J135000D01*
G01*
X33650000Y52425000D01*
G75*
G02*
X33785000Y52560000I135000J0D01*
G01*
X34055000Y52560000D01*
G75*
G02*
X34190000Y52425000I0J-135000D01*
G01*
G37*
G36*
G01*
X33675000Y50905000D02*
X33675000Y51275000D01*
G75*
G02*
X33810000Y51410000I135000J0D01*
G01*
X34080000Y51410000D01*
G75*
G02*
X34215000Y51275000I0J-135000D01*
G01*
X34215000Y50905000D01*
G75*
G02*
X34080000Y50770000I-135000J0D01*
G01*
X33810000Y50770000D01*
G75*
G02*
X33675000Y50905000I0J135000D01*
G01*
G37*
G36*
G01*
X34695000Y50905000D02*
X34695000Y51275000D01*
G75*
G02*
X34830000Y51410000I135000J0D01*
G01*
X35100000Y51410000D01*
G75*
G02*
X35235000Y51275000I0J-135000D01*
G01*
X35235000Y50905000D01*
G75*
G02*
X35100000Y50770000I-135000J0D01*
G01*
X34830000Y50770000D01*
G75*
G02*
X34695000Y50905000I0J135000D01*
G01*
G37*
G36*
G01*
X25195000Y42390000D02*
X24825000Y42390000D01*
G75*
G02*
X24690000Y42525000I0J135000D01*
G01*
X24690000Y42795000D01*
G75*
G02*
X24825000Y42930000I135000J0D01*
G01*
X25195000Y42930000D01*
G75*
G02*
X25330000Y42795000I0J-135000D01*
G01*
X25330000Y42525000D01*
G75*
G02*
X25195000Y42390000I-135000J0D01*
G01*
G37*
G36*
G01*
X25195000Y43410000D02*
X24825000Y43410000D01*
G75*
G02*
X24690000Y43545000I0J135000D01*
G01*
X24690000Y43815000D01*
G75*
G02*
X24825000Y43950000I135000J0D01*
G01*
X25195000Y43950000D01*
G75*
G02*
X25330000Y43815000I0J-135000D01*
G01*
X25330000Y43545000D01*
G75*
G02*
X25195000Y43410000I-135000J0D01*
G01*
G37*
G36*
G01*
X23325000Y43410000D02*
X22955000Y43410000D01*
G75*
G02*
X22820000Y43545000I0J135000D01*
G01*
X22820000Y43815000D01*
G75*
G02*
X22955000Y43950000I135000J0D01*
G01*
X23325000Y43950000D01*
G75*
G02*
X23460000Y43815000I0J-135000D01*
G01*
X23460000Y43545000D01*
G75*
G02*
X23325000Y43410000I-135000J0D01*
G01*
G37*
G36*
G01*
X23325000Y42390000D02*
X22955000Y42390000D01*
G75*
G02*
X22820000Y42525000I0J135000D01*
G01*
X22820000Y42795000D01*
G75*
G02*
X22955000Y42930000I135000J0D01*
G01*
X23325000Y42930000D01*
G75*
G02*
X23460000Y42795000I0J-135000D01*
G01*
X23460000Y42525000D01*
G75*
G02*
X23325000Y42390000I-135000J0D01*
G01*
G37*
G36*
G01*
X21475000Y42380000D02*
X21105000Y42380000D01*
G75*
G02*
X20970000Y42515000I0J135000D01*
G01*
X20970000Y42785000D01*
G75*
G02*
X21105000Y42920000I135000J0D01*
G01*
X21475000Y42920000D01*
G75*
G02*
X21610000Y42785000I0J-135000D01*
G01*
X21610000Y42515000D01*
G75*
G02*
X21475000Y42380000I-135000J0D01*
G01*
G37*
G36*
G01*
X21475000Y43400000D02*
X21105000Y43400000D01*
G75*
G02*
X20970000Y43535000I0J135000D01*
G01*
X20970000Y43805000D01*
G75*
G02*
X21105000Y43940000I135000J0D01*
G01*
X21475000Y43940000D01*
G75*
G02*
X21610000Y43805000I0J-135000D01*
G01*
X21610000Y43535000D01*
G75*
G02*
X21475000Y43400000I-135000J0D01*
G01*
G37*
G36*
G01*
X19645000Y43420000D02*
X19275000Y43420000D01*
G75*
G02*
X19140000Y43555000I0J135000D01*
G01*
X19140000Y43825000D01*
G75*
G02*
X19275000Y43960000I135000J0D01*
G01*
X19645000Y43960000D01*
G75*
G02*
X19780000Y43825000I0J-135000D01*
G01*
X19780000Y43555000D01*
G75*
G02*
X19645000Y43420000I-135000J0D01*
G01*
G37*
G36*
G01*
X19645000Y42400000D02*
X19275000Y42400000D01*
G75*
G02*
X19140000Y42535000I0J135000D01*
G01*
X19140000Y42805000D01*
G75*
G02*
X19275000Y42940000I135000J0D01*
G01*
X19645000Y42940000D01*
G75*
G02*
X19780000Y42805000I0J-135000D01*
G01*
X19780000Y42535000D01*
G75*
G02*
X19645000Y42400000I-135000J0D01*
G01*
G37*
G36*
G01*
X14415000Y49950000D02*
X14785000Y49950000D01*
G75*
G02*
X14920000Y49815000I0J-135000D01*
G01*
X14920000Y49545000D01*
G75*
G02*
X14785000Y49410000I-135000J0D01*
G01*
X14415000Y49410000D01*
G75*
G02*
X14280000Y49545000I0J135000D01*
G01*
X14280000Y49815000D01*
G75*
G02*
X14415000Y49950000I135000J0D01*
G01*
G37*
G36*
G01*
X14415000Y48930000D02*
X14785000Y48930000D01*
G75*
G02*
X14920000Y48795000I0J-135000D01*
G01*
X14920000Y48525000D01*
G75*
G02*
X14785000Y48390000I-135000J0D01*
G01*
X14415000Y48390000D01*
G75*
G02*
X14280000Y48525000I0J135000D01*
G01*
X14280000Y48795000D01*
G75*
G02*
X14415000Y48930000I135000J0D01*
G01*
G37*
G36*
G01*
X16350000Y47845000D02*
X16350000Y47475000D01*
G75*
G02*
X16215000Y47340000I-135000J0D01*
G01*
X15945000Y47340000D01*
G75*
G02*
X15810000Y47475000I0J135000D01*
G01*
X15810000Y47845000D01*
G75*
G02*
X15945000Y47980000I135000J0D01*
G01*
X16215000Y47980000D01*
G75*
G02*
X16350000Y47845000I0J-135000D01*
G01*
G37*
G36*
G01*
X17370000Y47845000D02*
X17370000Y47475000D01*
G75*
G02*
X17235000Y47340000I-135000J0D01*
G01*
X16965000Y47340000D01*
G75*
G02*
X16830000Y47475000I0J135000D01*
G01*
X16830000Y47845000D01*
G75*
G02*
X16965000Y47980000I135000J0D01*
G01*
X17235000Y47980000D01*
G75*
G02*
X17370000Y47845000I0J-135000D01*
G01*
G37*
G36*
G01*
X10190000Y53255000D02*
X10190000Y53625000D01*
G75*
G02*
X10325000Y53760000I135000J0D01*
G01*
X10595000Y53760000D01*
G75*
G02*
X10730000Y53625000I0J-135000D01*
G01*
X10730000Y53255000D01*
G75*
G02*
X10595000Y53120000I-135000J0D01*
G01*
X10325000Y53120000D01*
G75*
G02*
X10190000Y53255000I0J135000D01*
G01*
G37*
G36*
G01*
X9170000Y53255000D02*
X9170000Y53625000D01*
G75*
G02*
X9305000Y53760000I135000J0D01*
G01*
X9575000Y53760000D01*
G75*
G02*
X9710000Y53625000I0J-135000D01*
G01*
X9710000Y53255000D01*
G75*
G02*
X9575000Y53120000I-135000J0D01*
G01*
X9305000Y53120000D01*
G75*
G02*
X9170000Y53255000I0J135000D01*
G01*
G37*
G36*
G01*
X9180000Y56265000D02*
X9180000Y56635000D01*
G75*
G02*
X9315000Y56770000I135000J0D01*
G01*
X9585000Y56770000D01*
G75*
G02*
X9720000Y56635000I0J-135000D01*
G01*
X9720000Y56265000D01*
G75*
G02*
X9585000Y56130000I-135000J0D01*
G01*
X9315000Y56130000D01*
G75*
G02*
X9180000Y56265000I0J135000D01*
G01*
G37*
G36*
G01*
X10200000Y56265000D02*
X10200000Y56635000D01*
G75*
G02*
X10335000Y56770000I135000J0D01*
G01*
X10605000Y56770000D01*
G75*
G02*
X10740000Y56635000I0J-135000D01*
G01*
X10740000Y56265000D01*
G75*
G02*
X10605000Y56130000I-135000J0D01*
G01*
X10335000Y56130000D01*
G75*
G02*
X10200000Y56265000I0J135000D01*
G01*
G37*
G36*
G01*
X12060000Y73170000D02*
X12430000Y73170000D01*
G75*
G02*
X12565000Y73035000I0J-135000D01*
G01*
X12565000Y72765000D01*
G75*
G02*
X12430000Y72630000I-135000J0D01*
G01*
X12060000Y72630000D01*
G75*
G02*
X11925000Y72765000I0J135000D01*
G01*
X11925000Y73035000D01*
G75*
G02*
X12060000Y73170000I135000J0D01*
G01*
G37*
G36*
G01*
X12060000Y72150000D02*
X12430000Y72150000D01*
G75*
G02*
X12565000Y72015000I0J-135000D01*
G01*
X12565000Y71745000D01*
G75*
G02*
X12430000Y71610000I-135000J0D01*
G01*
X12060000Y71610000D01*
G75*
G02*
X11925000Y71745000I0J135000D01*
G01*
X11925000Y72015000D01*
G75*
G02*
X12060000Y72150000I135000J0D01*
G01*
G37*
G36*
G01*
X25700000Y72205000D02*
X25700000Y72575000D01*
G75*
G02*
X25835000Y72710000I135000J0D01*
G01*
X26105000Y72710000D01*
G75*
G02*
X26240000Y72575000I0J-135000D01*
G01*
X26240000Y72205000D01*
G75*
G02*
X26105000Y72070000I-135000J0D01*
G01*
X25835000Y72070000D01*
G75*
G02*
X25700000Y72205000I0J135000D01*
G01*
G37*
G36*
G01*
X26720000Y72205000D02*
X26720000Y72575000D01*
G75*
G02*
X26855000Y72710000I135000J0D01*
G01*
X27125000Y72710000D01*
G75*
G02*
X27260000Y72575000I0J-135000D01*
G01*
X27260000Y72205000D01*
G75*
G02*
X27125000Y72070000I-135000J0D01*
G01*
X26855000Y72070000D01*
G75*
G02*
X26720000Y72205000I0J135000D01*
G01*
G37*
G36*
G01*
X25740000Y70365000D02*
X25370000Y70365000D01*
G75*
G02*
X25235000Y70500000I0J135000D01*
G01*
X25235000Y70770000D01*
G75*
G02*
X25370000Y70905000I135000J0D01*
G01*
X25740000Y70905000D01*
G75*
G02*
X25875000Y70770000I0J-135000D01*
G01*
X25875000Y70500000D01*
G75*
G02*
X25740000Y70365000I-135000J0D01*
G01*
G37*
G36*
G01*
X25740000Y69345000D02*
X25370000Y69345000D01*
G75*
G02*
X25235000Y69480000I0J135000D01*
G01*
X25235000Y69750000D01*
G75*
G02*
X25370000Y69885000I135000J0D01*
G01*
X25740000Y69885000D01*
G75*
G02*
X25875000Y69750000I0J-135000D01*
G01*
X25875000Y69480000D01*
G75*
G02*
X25740000Y69345000I-135000J0D01*
G01*
G37*
G36*
G01*
X27090000Y69370000D02*
X26720000Y69370000D01*
G75*
G02*
X26585000Y69505000I0J135000D01*
G01*
X26585000Y69775000D01*
G75*
G02*
X26720000Y69910000I135000J0D01*
G01*
X27090000Y69910000D01*
G75*
G02*
X27225000Y69775000I0J-135000D01*
G01*
X27225000Y69505000D01*
G75*
G02*
X27090000Y69370000I-135000J0D01*
G01*
G37*
G36*
G01*
X27090000Y70390000D02*
X26720000Y70390000D01*
G75*
G02*
X26585000Y70525000I0J135000D01*
G01*
X26585000Y70795000D01*
G75*
G02*
X26720000Y70930000I135000J0D01*
G01*
X27090000Y70930000D01*
G75*
G02*
X27225000Y70795000I0J-135000D01*
G01*
X27225000Y70525000D01*
G75*
G02*
X27090000Y70390000I-135000J0D01*
G01*
G37*
G36*
G01*
X12460000Y70215000D02*
X12090000Y70215000D01*
G75*
G02*
X11955000Y70350000I0J135000D01*
G01*
X11955000Y70620000D01*
G75*
G02*
X12090000Y70755000I135000J0D01*
G01*
X12460000Y70755000D01*
G75*
G02*
X12595000Y70620000I0J-135000D01*
G01*
X12595000Y70350000D01*
G75*
G02*
X12460000Y70215000I-135000J0D01*
G01*
G37*
G36*
G01*
X12460000Y69195000D02*
X12090000Y69195000D01*
G75*
G02*
X11955000Y69330000I0J135000D01*
G01*
X11955000Y69600000D01*
G75*
G02*
X12090000Y69735000I135000J0D01*
G01*
X12460000Y69735000D01*
G75*
G02*
X12595000Y69600000I0J-135000D01*
G01*
X12595000Y69330000D01*
G75*
G02*
X12460000Y69195000I-135000J0D01*
G01*
G37*
G36*
G01*
X11060000Y69220000D02*
X10690000Y69220000D01*
G75*
G02*
X10555000Y69355000I0J135000D01*
G01*
X10555000Y69625000D01*
G75*
G02*
X10690000Y69760000I135000J0D01*
G01*
X11060000Y69760000D01*
G75*
G02*
X11195000Y69625000I0J-135000D01*
G01*
X11195000Y69355000D01*
G75*
G02*
X11060000Y69220000I-135000J0D01*
G01*
G37*
G36*
G01*
X11060000Y70240000D02*
X10690000Y70240000D01*
G75*
G02*
X10555000Y70375000I0J135000D01*
G01*
X10555000Y70645000D01*
G75*
G02*
X10690000Y70780000I135000J0D01*
G01*
X11060000Y70780000D01*
G75*
G02*
X11195000Y70645000I0J-135000D01*
G01*
X11195000Y70375000D01*
G75*
G02*
X11060000Y70240000I-135000J0D01*
G01*
G37*
G36*
G01*
X21510000Y66925000D02*
X21140000Y66925000D01*
G75*
G02*
X21005000Y67060000I0J135000D01*
G01*
X21005000Y67330000D01*
G75*
G02*
X21140000Y67465000I135000J0D01*
G01*
X21510000Y67465000D01*
G75*
G02*
X21645000Y67330000I0J-135000D01*
G01*
X21645000Y67060000D01*
G75*
G02*
X21510000Y66925000I-135000J0D01*
G01*
G37*
G36*
G01*
X21510000Y65905000D02*
X21140000Y65905000D01*
G75*
G02*
X21005000Y66040000I0J135000D01*
G01*
X21005000Y66310000D01*
G75*
G02*
X21140000Y66445000I135000J0D01*
G01*
X21510000Y66445000D01*
G75*
G02*
X21645000Y66310000I0J-135000D01*
G01*
X21645000Y66040000D01*
G75*
G02*
X21510000Y65905000I-135000J0D01*
G01*
G37*
G36*
G01*
X22785000Y66925000D02*
X22415000Y66925000D01*
G75*
G02*
X22280000Y67060000I0J135000D01*
G01*
X22280000Y67330000D01*
G75*
G02*
X22415000Y67465000I135000J0D01*
G01*
X22785000Y67465000D01*
G75*
G02*
X22920000Y67330000I0J-135000D01*
G01*
X22920000Y67060000D01*
G75*
G02*
X22785000Y66925000I-135000J0D01*
G01*
G37*
G36*
G01*
X22785000Y65905000D02*
X22415000Y65905000D01*
G75*
G02*
X22280000Y66040000I0J135000D01*
G01*
X22280000Y66310000D01*
G75*
G02*
X22415000Y66445000I135000J0D01*
G01*
X22785000Y66445000D01*
G75*
G02*
X22920000Y66310000I0J-135000D01*
G01*
X22920000Y66040000D01*
G75*
G02*
X22785000Y65905000I-135000J0D01*
G01*
G37*
G36*
G01*
X22500000Y68225000D02*
X22500000Y68595000D01*
G75*
G02*
X22635000Y68730000I135000J0D01*
G01*
X22905000Y68730000D01*
G75*
G02*
X23040000Y68595000I0J-135000D01*
G01*
X23040000Y68225000D01*
G75*
G02*
X22905000Y68090000I-135000J0D01*
G01*
X22635000Y68090000D01*
G75*
G02*
X22500000Y68225000I0J135000D01*
G01*
G37*
G36*
G01*
X23520000Y68225000D02*
X23520000Y68595000D01*
G75*
G02*
X23655000Y68730000I135000J0D01*
G01*
X23925000Y68730000D01*
G75*
G02*
X24060000Y68595000I0J-135000D01*
G01*
X24060000Y68225000D01*
G75*
G02*
X23925000Y68090000I-135000J0D01*
G01*
X23655000Y68090000D01*
G75*
G02*
X23520000Y68225000I0J135000D01*
G01*
G37*
G36*
G01*
X15990000Y64910000D02*
X15990000Y65280000D01*
G75*
G02*
X16125000Y65415000I135000J0D01*
G01*
X16395000Y65415000D01*
G75*
G02*
X16530000Y65280000I0J-135000D01*
G01*
X16530000Y64910000D01*
G75*
G02*
X16395000Y64775000I-135000J0D01*
G01*
X16125000Y64775000D01*
G75*
G02*
X15990000Y64910000I0J135000D01*
G01*
G37*
G36*
G01*
X14970000Y64910000D02*
X14970000Y65280000D01*
G75*
G02*
X15105000Y65415000I135000J0D01*
G01*
X15375000Y65415000D01*
G75*
G02*
X15510000Y65280000I0J-135000D01*
G01*
X15510000Y64910000D01*
G75*
G02*
X15375000Y64775000I-135000J0D01*
G01*
X15105000Y64775000D01*
G75*
G02*
X14970000Y64910000I0J135000D01*
G01*
G37*
G36*
G01*
X15535000Y66580000D02*
X15535000Y66210000D01*
G75*
G02*
X15400000Y66075000I-135000J0D01*
G01*
X15130000Y66075000D01*
G75*
G02*
X14995000Y66210000I0J135000D01*
G01*
X14995000Y66580000D01*
G75*
G02*
X15130000Y66715000I135000J0D01*
G01*
X15400000Y66715000D01*
G75*
G02*
X15535000Y66580000I0J-135000D01*
G01*
G37*
G36*
G01*
X16555000Y66580000D02*
X16555000Y66210000D01*
G75*
G02*
X16420000Y66075000I-135000J0D01*
G01*
X16150000Y66075000D01*
G75*
G02*
X16015000Y66210000I0J135000D01*
G01*
X16015000Y66580000D01*
G75*
G02*
X16150000Y66715000I135000J0D01*
G01*
X16420000Y66715000D01*
G75*
G02*
X16555000Y66580000I0J-135000D01*
G01*
G37*
G36*
G01*
X32290000Y65790000D02*
X32290000Y66160000D01*
G75*
G02*
X32425000Y66295000I135000J0D01*
G01*
X32695000Y66295000D01*
G75*
G02*
X32830000Y66160000I0J-135000D01*
G01*
X32830000Y65790000D01*
G75*
G02*
X32695000Y65655000I-135000J0D01*
G01*
X32425000Y65655000D01*
G75*
G02*
X32290000Y65790000I0J135000D01*
G01*
G37*
G36*
G01*
X31270000Y65790000D02*
X31270000Y66160000D01*
G75*
G02*
X31405000Y66295000I135000J0D01*
G01*
X31675000Y66295000D01*
G75*
G02*
X31810000Y66160000I0J-135000D01*
G01*
X31810000Y65790000D01*
G75*
G02*
X31675000Y65655000I-135000J0D01*
G01*
X31405000Y65655000D01*
G75*
G02*
X31270000Y65790000I0J135000D01*
G01*
G37*
G36*
G01*
X30310000Y66120000D02*
X29940000Y66120000D01*
G75*
G02*
X29805000Y66255000I0J135000D01*
G01*
X29805000Y66525000D01*
G75*
G02*
X29940000Y66660000I135000J0D01*
G01*
X30310000Y66660000D01*
G75*
G02*
X30445000Y66525000I0J-135000D01*
G01*
X30445000Y66255000D01*
G75*
G02*
X30310000Y66120000I-135000J0D01*
G01*
G37*
G36*
G01*
X30310000Y67140000D02*
X29940000Y67140000D01*
G75*
G02*
X29805000Y67275000I0J135000D01*
G01*
X29805000Y67545000D01*
G75*
G02*
X29940000Y67680000I135000J0D01*
G01*
X30310000Y67680000D01*
G75*
G02*
X30445000Y67545000I0J-135000D01*
G01*
X30445000Y67275000D01*
G75*
G02*
X30310000Y67140000I-135000J0D01*
G01*
G37*
G36*
G01*
X34915000Y68350000D02*
X35285000Y68350000D01*
G75*
G02*
X35420000Y68215000I0J-135000D01*
G01*
X35420000Y67945000D01*
G75*
G02*
X35285000Y67810000I-135000J0D01*
G01*
X34915000Y67810000D01*
G75*
G02*
X34780000Y67945000I0J135000D01*
G01*
X34780000Y68215000D01*
G75*
G02*
X34915000Y68350000I135000J0D01*
G01*
G37*
G36*
G01*
X34915000Y69370000D02*
X35285000Y69370000D01*
G75*
G02*
X35420000Y69235000I0J-135000D01*
G01*
X35420000Y68965000D01*
G75*
G02*
X35285000Y68830000I-135000J0D01*
G01*
X34915000Y68830000D01*
G75*
G02*
X34780000Y68965000I0J135000D01*
G01*
X34780000Y69235000D01*
G75*
G02*
X34915000Y69370000I135000J0D01*
G01*
G37*
G36*
G01*
X24412500Y72970000D02*
X24067500Y72970000D01*
G75*
G02*
X23920000Y73117500I0J147500D01*
G01*
X23920000Y73412500D01*
G75*
G02*
X24067500Y73560000I147500J0D01*
G01*
X24412500Y73560000D01*
G75*
G02*
X24560000Y73412500I0J-147500D01*
G01*
X24560000Y73117500D01*
G75*
G02*
X24412500Y72970000I-147500J0D01*
G01*
G37*
G36*
G01*
X24412500Y73940000D02*
X24067500Y73940000D01*
G75*
G02*
X23920000Y74087500I0J147500D01*
G01*
X23920000Y74382500D01*
G75*
G02*
X24067500Y74530000I147500J0D01*
G01*
X24412500Y74530000D01*
G75*
G02*
X24560000Y74382500I0J-147500D01*
G01*
X24560000Y74087500D01*
G75*
G02*
X24412500Y73940000I-147500J0D01*
G01*
G37*
G36*
G01*
X22710000Y75510000D02*
X23080000Y75510000D01*
G75*
G02*
X23215000Y75375000I0J-135000D01*
G01*
X23215000Y75105000D01*
G75*
G02*
X23080000Y74970000I-135000J0D01*
G01*
X22710000Y74970000D01*
G75*
G02*
X22575000Y75105000I0J135000D01*
G01*
X22575000Y75375000D01*
G75*
G02*
X22710000Y75510000I135000J0D01*
G01*
G37*
G36*
G01*
X22710000Y74490000D02*
X23080000Y74490000D01*
G75*
G02*
X23215000Y74355000I0J-135000D01*
G01*
X23215000Y74085000D01*
G75*
G02*
X23080000Y73950000I-135000J0D01*
G01*
X22710000Y73950000D01*
G75*
G02*
X22575000Y74085000I0J135000D01*
G01*
X22575000Y74355000D01*
G75*
G02*
X22710000Y74490000I135000J0D01*
G01*
G37*
G36*
G01*
X70765000Y38800000D02*
X71105000Y38800000D01*
G75*
G02*
X71245000Y38660000I0J-140000D01*
G01*
X71245000Y38380000D01*
G75*
G02*
X71105000Y38240000I-140000J0D01*
G01*
X70765000Y38240000D01*
G75*
G02*
X70625000Y38380000I0J140000D01*
G01*
X70625000Y38660000D01*
G75*
G02*
X70765000Y38800000I140000J0D01*
G01*
G37*
G36*
G01*
X70765000Y37840000D02*
X71105000Y37840000D01*
G75*
G02*
X71245000Y37700000I0J-140000D01*
G01*
X71245000Y37420000D01*
G75*
G02*
X71105000Y37280000I-140000J0D01*
G01*
X70765000Y37280000D01*
G75*
G02*
X70625000Y37420000I0J140000D01*
G01*
X70625000Y37700000D01*
G75*
G02*
X70765000Y37840000I140000J0D01*
G01*
G37*
G36*
G01*
X69640000Y40190000D02*
X69300000Y40190000D01*
G75*
G02*
X69160000Y40330000I0J140000D01*
G01*
X69160000Y40610000D01*
G75*
G02*
X69300000Y40750000I140000J0D01*
G01*
X69640000Y40750000D01*
G75*
G02*
X69780000Y40610000I0J-140000D01*
G01*
X69780000Y40330000D01*
G75*
G02*
X69640000Y40190000I-140000J0D01*
G01*
G37*
G36*
G01*
X69640000Y39230000D02*
X69300000Y39230000D01*
G75*
G02*
X69160000Y39370000I0J140000D01*
G01*
X69160000Y39650000D01*
G75*
G02*
X69300000Y39790000I140000J0D01*
G01*
X69640000Y39790000D01*
G75*
G02*
X69780000Y39650000I0J-140000D01*
G01*
X69780000Y39370000D01*
G75*
G02*
X69640000Y39230000I-140000J0D01*
G01*
G37*
G36*
G01*
X72870000Y36727500D02*
X72870000Y37072500D01*
G75*
G02*
X73017500Y37220000I147500J0D01*
G01*
X73312500Y37220000D01*
G75*
G02*
X73460000Y37072500I0J-147500D01*
G01*
X73460000Y36727500D01*
G75*
G02*
X73312500Y36580000I-147500J0D01*
G01*
X73017500Y36580000D01*
G75*
G02*
X72870000Y36727500I0J147500D01*
G01*
G37*
G36*
G01*
X73840000Y36727500D02*
X73840000Y37072500D01*
G75*
G02*
X73987500Y37220000I147500J0D01*
G01*
X74282500Y37220000D01*
G75*
G02*
X74430000Y37072500I0J-147500D01*
G01*
X74430000Y36727500D01*
G75*
G02*
X74282500Y36580000I-147500J0D01*
G01*
X73987500Y36580000D01*
G75*
G02*
X73840000Y36727500I0J147500D01*
G01*
G37*
G36*
G01*
X71105000Y40250000D02*
X70735000Y40250000D01*
G75*
G02*
X70600000Y40385000I0J135000D01*
G01*
X70600000Y40655000D01*
G75*
G02*
X70735000Y40790000I135000J0D01*
G01*
X71105000Y40790000D01*
G75*
G02*
X71240000Y40655000I0J-135000D01*
G01*
X71240000Y40385000D01*
G75*
G02*
X71105000Y40250000I-135000J0D01*
G01*
G37*
G36*
G01*
X71105000Y39230000D02*
X70735000Y39230000D01*
G75*
G02*
X70600000Y39365000I0J135000D01*
G01*
X70600000Y39635000D01*
G75*
G02*
X70735000Y39770000I135000J0D01*
G01*
X71105000Y39770000D01*
G75*
G02*
X71240000Y39635000I0J-135000D01*
G01*
X71240000Y39365000D01*
G75*
G02*
X71105000Y39230000I-135000J0D01*
G01*
G37*
G36*
G01*
X76290000Y40780000D02*
X76660000Y40780000D01*
G75*
G02*
X76795000Y40645000I0J-135000D01*
G01*
X76795000Y40375000D01*
G75*
G02*
X76660000Y40240000I-135000J0D01*
G01*
X76290000Y40240000D01*
G75*
G02*
X76155000Y40375000I0J135000D01*
G01*
X76155000Y40645000D01*
G75*
G02*
X76290000Y40780000I135000J0D01*
G01*
G37*
G36*
G01*
X76290000Y39760000D02*
X76660000Y39760000D01*
G75*
G02*
X76795000Y39625000I0J-135000D01*
G01*
X76795000Y39355000D01*
G75*
G02*
X76660000Y39220000I-135000J0D01*
G01*
X76290000Y39220000D01*
G75*
G02*
X76155000Y39355000I0J135000D01*
G01*
X76155000Y39625000D01*
G75*
G02*
X76290000Y39760000I135000J0D01*
G01*
G37*
D31*
X74825001Y38549999D03*
X74825001Y39499999D03*
X74825001Y40449999D03*
X72625001Y40449999D03*
X72625001Y38549999D03*
X72625001Y39499999D03*
G36*
G01*
X32375000Y35250000D02*
X32575000Y35250000D01*
G75*
G02*
X32675000Y35150000I0J-100000D01*
G01*
X32675000Y33875000D01*
G75*
G02*
X32575000Y33775000I-100000J0D01*
G01*
X32375000Y33775000D01*
G75*
G02*
X32275000Y33875000I0J100000D01*
G01*
X32275000Y35150000D01*
G75*
G02*
X32375000Y35250000I100000J0D01*
G01*
G37*
G36*
G01*
X31725000Y35250000D02*
X31925000Y35250000D01*
G75*
G02*
X32025000Y35150000I0J-100000D01*
G01*
X32025000Y33875000D01*
G75*
G02*
X31925000Y33775000I-100000J0D01*
G01*
X31725000Y33775000D01*
G75*
G02*
X31625000Y33875000I0J100000D01*
G01*
X31625000Y35150000D01*
G75*
G02*
X31725000Y35250000I100000J0D01*
G01*
G37*
G36*
G01*
X31075000Y35250000D02*
X31275000Y35250000D01*
G75*
G02*
X31375000Y35150000I0J-100000D01*
G01*
X31375000Y33875000D01*
G75*
G02*
X31275000Y33775000I-100000J0D01*
G01*
X31075000Y33775000D01*
G75*
G02*
X30975000Y33875000I0J100000D01*
G01*
X30975000Y35150000D01*
G75*
G02*
X31075000Y35250000I100000J0D01*
G01*
G37*
G36*
G01*
X30425000Y35250000D02*
X30625000Y35250000D01*
G75*
G02*
X30725000Y35150000I0J-100000D01*
G01*
X30725000Y33875000D01*
G75*
G02*
X30625000Y33775000I-100000J0D01*
G01*
X30425000Y33775000D01*
G75*
G02*
X30325000Y33875000I0J100000D01*
G01*
X30325000Y35150000D01*
G75*
G02*
X30425000Y35250000I100000J0D01*
G01*
G37*
G36*
G01*
X29775000Y35250000D02*
X29975000Y35250000D01*
G75*
G02*
X30075000Y35150000I0J-100000D01*
G01*
X30075000Y33875000D01*
G75*
G02*
X29975000Y33775000I-100000J0D01*
G01*
X29775000Y33775000D01*
G75*
G02*
X29675000Y33875000I0J100000D01*
G01*
X29675000Y35150000D01*
G75*
G02*
X29775000Y35250000I100000J0D01*
G01*
G37*
G36*
G01*
X29125000Y35250000D02*
X29325000Y35250000D01*
G75*
G02*
X29425000Y35150000I0J-100000D01*
G01*
X29425000Y33875000D01*
G75*
G02*
X29325000Y33775000I-100000J0D01*
G01*
X29125000Y33775000D01*
G75*
G02*
X29025000Y33875000I0J100000D01*
G01*
X29025000Y35150000D01*
G75*
G02*
X29125000Y35250000I100000J0D01*
G01*
G37*
G36*
G01*
X28475000Y35250000D02*
X28675000Y35250000D01*
G75*
G02*
X28775000Y35150000I0J-100000D01*
G01*
X28775000Y33875000D01*
G75*
G02*
X28675000Y33775000I-100000J0D01*
G01*
X28475000Y33775000D01*
G75*
G02*
X28375000Y33875000I0J100000D01*
G01*
X28375000Y35150000D01*
G75*
G02*
X28475000Y35250000I100000J0D01*
G01*
G37*
G36*
G01*
X27825000Y35250000D02*
X28025000Y35250000D01*
G75*
G02*
X28125000Y35150000I0J-100000D01*
G01*
X28125000Y33875000D01*
G75*
G02*
X28025000Y33775000I-100000J0D01*
G01*
X27825000Y33775000D01*
G75*
G02*
X27725000Y33875000I0J100000D01*
G01*
X27725000Y35150000D01*
G75*
G02*
X27825000Y35250000I100000J0D01*
G01*
G37*
G36*
G01*
X27175000Y35250000D02*
X27375000Y35250000D01*
G75*
G02*
X27475000Y35150000I0J-100000D01*
G01*
X27475000Y33875000D01*
G75*
G02*
X27375000Y33775000I-100000J0D01*
G01*
X27175000Y33775000D01*
G75*
G02*
X27075000Y33875000I0J100000D01*
G01*
X27075000Y35150000D01*
G75*
G02*
X27175000Y35250000I100000J0D01*
G01*
G37*
G36*
G01*
X26525000Y35250000D02*
X26725000Y35250000D01*
G75*
G02*
X26825000Y35150000I0J-100000D01*
G01*
X26825000Y33875000D01*
G75*
G02*
X26725000Y33775000I-100000J0D01*
G01*
X26525000Y33775000D01*
G75*
G02*
X26425000Y33875000I0J100000D01*
G01*
X26425000Y35150000D01*
G75*
G02*
X26525000Y35250000I100000J0D01*
G01*
G37*
G36*
G01*
X26525000Y29525000D02*
X26725000Y29525000D01*
G75*
G02*
X26825000Y29425000I0J-100000D01*
G01*
X26825000Y28150000D01*
G75*
G02*
X26725000Y28050000I-100000J0D01*
G01*
X26525000Y28050000D01*
G75*
G02*
X26425000Y28150000I0J100000D01*
G01*
X26425000Y29425000D01*
G75*
G02*
X26525000Y29525000I100000J0D01*
G01*
G37*
G36*
G01*
X27175000Y29525000D02*
X27375000Y29525000D01*
G75*
G02*
X27475000Y29425000I0J-100000D01*
G01*
X27475000Y28150000D01*
G75*
G02*
X27375000Y28050000I-100000J0D01*
G01*
X27175000Y28050000D01*
G75*
G02*
X27075000Y28150000I0J100000D01*
G01*
X27075000Y29425000D01*
G75*
G02*
X27175000Y29525000I100000J0D01*
G01*
G37*
G36*
G01*
X27825000Y29525000D02*
X28025000Y29525000D01*
G75*
G02*
X28125000Y29425000I0J-100000D01*
G01*
X28125000Y28150000D01*
G75*
G02*
X28025000Y28050000I-100000J0D01*
G01*
X27825000Y28050000D01*
G75*
G02*
X27725000Y28150000I0J100000D01*
G01*
X27725000Y29425000D01*
G75*
G02*
X27825000Y29525000I100000J0D01*
G01*
G37*
G36*
G01*
X28475000Y29525000D02*
X28675000Y29525000D01*
G75*
G02*
X28775000Y29425000I0J-100000D01*
G01*
X28775000Y28150000D01*
G75*
G02*
X28675000Y28050000I-100000J0D01*
G01*
X28475000Y28050000D01*
G75*
G02*
X28375000Y28150000I0J100000D01*
G01*
X28375000Y29425000D01*
G75*
G02*
X28475000Y29525000I100000J0D01*
G01*
G37*
G36*
G01*
X29125000Y29525000D02*
X29325000Y29525000D01*
G75*
G02*
X29425000Y29425000I0J-100000D01*
G01*
X29425000Y28150000D01*
G75*
G02*
X29325000Y28050000I-100000J0D01*
G01*
X29125000Y28050000D01*
G75*
G02*
X29025000Y28150000I0J100000D01*
G01*
X29025000Y29425000D01*
G75*
G02*
X29125000Y29525000I100000J0D01*
G01*
G37*
G36*
G01*
X29775000Y29525000D02*
X29975000Y29525000D01*
G75*
G02*
X30075000Y29425000I0J-100000D01*
G01*
X30075000Y28150000D01*
G75*
G02*
X29975000Y28050000I-100000J0D01*
G01*
X29775000Y28050000D01*
G75*
G02*
X29675000Y28150000I0J100000D01*
G01*
X29675000Y29425000D01*
G75*
G02*
X29775000Y29525000I100000J0D01*
G01*
G37*
G36*
G01*
X30425000Y29525000D02*
X30625000Y29525000D01*
G75*
G02*
X30725000Y29425000I0J-100000D01*
G01*
X30725000Y28150000D01*
G75*
G02*
X30625000Y28050000I-100000J0D01*
G01*
X30425000Y28050000D01*
G75*
G02*
X30325000Y28150000I0J100000D01*
G01*
X30325000Y29425000D01*
G75*
G02*
X30425000Y29525000I100000J0D01*
G01*
G37*
G36*
G01*
X31075000Y29525000D02*
X31275000Y29525000D01*
G75*
G02*
X31375000Y29425000I0J-100000D01*
G01*
X31375000Y28150000D01*
G75*
G02*
X31275000Y28050000I-100000J0D01*
G01*
X31075000Y28050000D01*
G75*
G02*
X30975000Y28150000I0J100000D01*
G01*
X30975000Y29425000D01*
G75*
G02*
X31075000Y29525000I100000J0D01*
G01*
G37*
G36*
G01*
X31725000Y29525000D02*
X31925000Y29525000D01*
G75*
G02*
X32025000Y29425000I0J-100000D01*
G01*
X32025000Y28150000D01*
G75*
G02*
X31925000Y28050000I-100000J0D01*
G01*
X31725000Y28050000D01*
G75*
G02*
X31625000Y28150000I0J100000D01*
G01*
X31625000Y29425000D01*
G75*
G02*
X31725000Y29525000I100000J0D01*
G01*
G37*
G36*
G01*
X32375000Y29525000D02*
X32575000Y29525000D01*
G75*
G02*
X32675000Y29425000I0J-100000D01*
G01*
X32675000Y28150000D01*
G75*
G02*
X32575000Y28050000I-100000J0D01*
G01*
X32375000Y28050000D01*
G75*
G02*
X32275000Y28150000I0J100000D01*
G01*
X32275000Y29425000D01*
G75*
G02*
X32375000Y29525000I100000J0D01*
G01*
G37*
G36*
G01*
X42375000Y29525000D02*
X42575000Y29525000D01*
G75*
G02*
X42675000Y29425000I0J-100000D01*
G01*
X42675000Y28150000D01*
G75*
G02*
X42575000Y28050000I-100000J0D01*
G01*
X42375000Y28050000D01*
G75*
G02*
X42275000Y28150000I0J100000D01*
G01*
X42275000Y29425000D01*
G75*
G02*
X42375000Y29525000I100000J0D01*
G01*
G37*
G36*
G01*
X41725000Y29525000D02*
X41925000Y29525000D01*
G75*
G02*
X42025000Y29425000I0J-100000D01*
G01*
X42025000Y28150000D01*
G75*
G02*
X41925000Y28050000I-100000J0D01*
G01*
X41725000Y28050000D01*
G75*
G02*
X41625000Y28150000I0J100000D01*
G01*
X41625000Y29425000D01*
G75*
G02*
X41725000Y29525000I100000J0D01*
G01*
G37*
G36*
G01*
X41075000Y29525000D02*
X41275000Y29525000D01*
G75*
G02*
X41375000Y29425000I0J-100000D01*
G01*
X41375000Y28150000D01*
G75*
G02*
X41275000Y28050000I-100000J0D01*
G01*
X41075000Y28050000D01*
G75*
G02*
X40975000Y28150000I0J100000D01*
G01*
X40975000Y29425000D01*
G75*
G02*
X41075000Y29525000I100000J0D01*
G01*
G37*
G36*
G01*
X40425000Y29525000D02*
X40625000Y29525000D01*
G75*
G02*
X40725000Y29425000I0J-100000D01*
G01*
X40725000Y28150000D01*
G75*
G02*
X40625000Y28050000I-100000J0D01*
G01*
X40425000Y28050000D01*
G75*
G02*
X40325000Y28150000I0J100000D01*
G01*
X40325000Y29425000D01*
G75*
G02*
X40425000Y29525000I100000J0D01*
G01*
G37*
G36*
G01*
X39775000Y29525000D02*
X39975000Y29525000D01*
G75*
G02*
X40075000Y29425000I0J-100000D01*
G01*
X40075000Y28150000D01*
G75*
G02*
X39975000Y28050000I-100000J0D01*
G01*
X39775000Y28050000D01*
G75*
G02*
X39675000Y28150000I0J100000D01*
G01*
X39675000Y29425000D01*
G75*
G02*
X39775000Y29525000I100000J0D01*
G01*
G37*
G36*
G01*
X39125000Y29525000D02*
X39325000Y29525000D01*
G75*
G02*
X39425000Y29425000I0J-100000D01*
G01*
X39425000Y28150000D01*
G75*
G02*
X39325000Y28050000I-100000J0D01*
G01*
X39125000Y28050000D01*
G75*
G02*
X39025000Y28150000I0J100000D01*
G01*
X39025000Y29425000D01*
G75*
G02*
X39125000Y29525000I100000J0D01*
G01*
G37*
G36*
G01*
X38475000Y29525000D02*
X38675000Y29525000D01*
G75*
G02*
X38775000Y29425000I0J-100000D01*
G01*
X38775000Y28150000D01*
G75*
G02*
X38675000Y28050000I-100000J0D01*
G01*
X38475000Y28050000D01*
G75*
G02*
X38375000Y28150000I0J100000D01*
G01*
X38375000Y29425000D01*
G75*
G02*
X38475000Y29525000I100000J0D01*
G01*
G37*
G36*
G01*
X37825000Y29525000D02*
X38025000Y29525000D01*
G75*
G02*
X38125000Y29425000I0J-100000D01*
G01*
X38125000Y28150000D01*
G75*
G02*
X38025000Y28050000I-100000J0D01*
G01*
X37825000Y28050000D01*
G75*
G02*
X37725000Y28150000I0J100000D01*
G01*
X37725000Y29425000D01*
G75*
G02*
X37825000Y29525000I100000J0D01*
G01*
G37*
G36*
G01*
X37175000Y29525000D02*
X37375000Y29525000D01*
G75*
G02*
X37475000Y29425000I0J-100000D01*
G01*
X37475000Y28150000D01*
G75*
G02*
X37375000Y28050000I-100000J0D01*
G01*
X37175000Y28050000D01*
G75*
G02*
X37075000Y28150000I0J100000D01*
G01*
X37075000Y29425000D01*
G75*
G02*
X37175000Y29525000I100000J0D01*
G01*
G37*
G36*
G01*
X36525000Y29525000D02*
X36725000Y29525000D01*
G75*
G02*
X36825000Y29425000I0J-100000D01*
G01*
X36825000Y28150000D01*
G75*
G02*
X36725000Y28050000I-100000J0D01*
G01*
X36525000Y28050000D01*
G75*
G02*
X36425000Y28150000I0J100000D01*
G01*
X36425000Y29425000D01*
G75*
G02*
X36525000Y29525000I100000J0D01*
G01*
G37*
G36*
G01*
X36525000Y35250000D02*
X36725000Y35250000D01*
G75*
G02*
X36825000Y35150000I0J-100000D01*
G01*
X36825000Y33875000D01*
G75*
G02*
X36725000Y33775000I-100000J0D01*
G01*
X36525000Y33775000D01*
G75*
G02*
X36425000Y33875000I0J100000D01*
G01*
X36425000Y35150000D01*
G75*
G02*
X36525000Y35250000I100000J0D01*
G01*
G37*
G36*
G01*
X37175000Y35250000D02*
X37375000Y35250000D01*
G75*
G02*
X37475000Y35150000I0J-100000D01*
G01*
X37475000Y33875000D01*
G75*
G02*
X37375000Y33775000I-100000J0D01*
G01*
X37175000Y33775000D01*
G75*
G02*
X37075000Y33875000I0J100000D01*
G01*
X37075000Y35150000D01*
G75*
G02*
X37175000Y35250000I100000J0D01*
G01*
G37*
G36*
G01*
X37825000Y35250000D02*
X38025000Y35250000D01*
G75*
G02*
X38125000Y35150000I0J-100000D01*
G01*
X38125000Y33875000D01*
G75*
G02*
X38025000Y33775000I-100000J0D01*
G01*
X37825000Y33775000D01*
G75*
G02*
X37725000Y33875000I0J100000D01*
G01*
X37725000Y35150000D01*
G75*
G02*
X37825000Y35250000I100000J0D01*
G01*
G37*
G36*
G01*
X38475000Y35250000D02*
X38675000Y35250000D01*
G75*
G02*
X38775000Y35150000I0J-100000D01*
G01*
X38775000Y33875000D01*
G75*
G02*
X38675000Y33775000I-100000J0D01*
G01*
X38475000Y33775000D01*
G75*
G02*
X38375000Y33875000I0J100000D01*
G01*
X38375000Y35150000D01*
G75*
G02*
X38475000Y35250000I100000J0D01*
G01*
G37*
G36*
G01*
X39125000Y35250000D02*
X39325000Y35250000D01*
G75*
G02*
X39425000Y35150000I0J-100000D01*
G01*
X39425000Y33875000D01*
G75*
G02*
X39325000Y33775000I-100000J0D01*
G01*
X39125000Y33775000D01*
G75*
G02*
X39025000Y33875000I0J100000D01*
G01*
X39025000Y35150000D01*
G75*
G02*
X39125000Y35250000I100000J0D01*
G01*
G37*
G36*
G01*
X39775000Y35250000D02*
X39975000Y35250000D01*
G75*
G02*
X40075000Y35150000I0J-100000D01*
G01*
X40075000Y33875000D01*
G75*
G02*
X39975000Y33775000I-100000J0D01*
G01*
X39775000Y33775000D01*
G75*
G02*
X39675000Y33875000I0J100000D01*
G01*
X39675000Y35150000D01*
G75*
G02*
X39775000Y35250000I100000J0D01*
G01*
G37*
G36*
G01*
X40425000Y35250000D02*
X40625000Y35250000D01*
G75*
G02*
X40725000Y35150000I0J-100000D01*
G01*
X40725000Y33875000D01*
G75*
G02*
X40625000Y33775000I-100000J0D01*
G01*
X40425000Y33775000D01*
G75*
G02*
X40325000Y33875000I0J100000D01*
G01*
X40325000Y35150000D01*
G75*
G02*
X40425000Y35250000I100000J0D01*
G01*
G37*
G36*
G01*
X41075000Y35250000D02*
X41275000Y35250000D01*
G75*
G02*
X41375000Y35150000I0J-100000D01*
G01*
X41375000Y33875000D01*
G75*
G02*
X41275000Y33775000I-100000J0D01*
G01*
X41075000Y33775000D01*
G75*
G02*
X40975000Y33875000I0J100000D01*
G01*
X40975000Y35150000D01*
G75*
G02*
X41075000Y35250000I100000J0D01*
G01*
G37*
G36*
G01*
X41725000Y35250000D02*
X41925000Y35250000D01*
G75*
G02*
X42025000Y35150000I0J-100000D01*
G01*
X42025000Y33875000D01*
G75*
G02*
X41925000Y33775000I-100000J0D01*
G01*
X41725000Y33775000D01*
G75*
G02*
X41625000Y33875000I0J100000D01*
G01*
X41625000Y35150000D01*
G75*
G02*
X41725000Y35250000I100000J0D01*
G01*
G37*
G36*
G01*
X42375000Y35250000D02*
X42575000Y35250000D01*
G75*
G02*
X42675000Y35150000I0J-100000D01*
G01*
X42675000Y33875000D01*
G75*
G02*
X42575000Y33775000I-100000J0D01*
G01*
X42375000Y33775000D01*
G75*
G02*
X42275000Y33875000I0J100000D01*
G01*
X42275000Y35150000D01*
G75*
G02*
X42375000Y35250000I100000J0D01*
G01*
G37*
G36*
G01*
X52375000Y35250000D02*
X52575000Y35250000D01*
G75*
G02*
X52675000Y35150000I0J-100000D01*
G01*
X52675000Y33875000D01*
G75*
G02*
X52575000Y33775000I-100000J0D01*
G01*
X52375000Y33775000D01*
G75*
G02*
X52275000Y33875000I0J100000D01*
G01*
X52275000Y35150000D01*
G75*
G02*
X52375000Y35250000I100000J0D01*
G01*
G37*
G36*
G01*
X51725000Y35250000D02*
X51925000Y35250000D01*
G75*
G02*
X52025000Y35150000I0J-100000D01*
G01*
X52025000Y33875000D01*
G75*
G02*
X51925000Y33775000I-100000J0D01*
G01*
X51725000Y33775000D01*
G75*
G02*
X51625000Y33875000I0J100000D01*
G01*
X51625000Y35150000D01*
G75*
G02*
X51725000Y35250000I100000J0D01*
G01*
G37*
G36*
G01*
X51075000Y35250000D02*
X51275000Y35250000D01*
G75*
G02*
X51375000Y35150000I0J-100000D01*
G01*
X51375000Y33875000D01*
G75*
G02*
X51275000Y33775000I-100000J0D01*
G01*
X51075000Y33775000D01*
G75*
G02*
X50975000Y33875000I0J100000D01*
G01*
X50975000Y35150000D01*
G75*
G02*
X51075000Y35250000I100000J0D01*
G01*
G37*
G36*
G01*
X50425000Y35250000D02*
X50625000Y35250000D01*
G75*
G02*
X50725000Y35150000I0J-100000D01*
G01*
X50725000Y33875000D01*
G75*
G02*
X50625000Y33775000I-100000J0D01*
G01*
X50425000Y33775000D01*
G75*
G02*
X50325000Y33875000I0J100000D01*
G01*
X50325000Y35150000D01*
G75*
G02*
X50425000Y35250000I100000J0D01*
G01*
G37*
G36*
G01*
X49775000Y35250000D02*
X49975000Y35250000D01*
G75*
G02*
X50075000Y35150000I0J-100000D01*
G01*
X50075000Y33875000D01*
G75*
G02*
X49975000Y33775000I-100000J0D01*
G01*
X49775000Y33775000D01*
G75*
G02*
X49675000Y33875000I0J100000D01*
G01*
X49675000Y35150000D01*
G75*
G02*
X49775000Y35250000I100000J0D01*
G01*
G37*
G36*
G01*
X49125000Y35250000D02*
X49325000Y35250000D01*
G75*
G02*
X49425000Y35150000I0J-100000D01*
G01*
X49425000Y33875000D01*
G75*
G02*
X49325000Y33775000I-100000J0D01*
G01*
X49125000Y33775000D01*
G75*
G02*
X49025000Y33875000I0J100000D01*
G01*
X49025000Y35150000D01*
G75*
G02*
X49125000Y35250000I100000J0D01*
G01*
G37*
G36*
G01*
X48475000Y35250000D02*
X48675000Y35250000D01*
G75*
G02*
X48775000Y35150000I0J-100000D01*
G01*
X48775000Y33875000D01*
G75*
G02*
X48675000Y33775000I-100000J0D01*
G01*
X48475000Y33775000D01*
G75*
G02*
X48375000Y33875000I0J100000D01*
G01*
X48375000Y35150000D01*
G75*
G02*
X48475000Y35250000I100000J0D01*
G01*
G37*
G36*
G01*
X47825000Y35250000D02*
X48025000Y35250000D01*
G75*
G02*
X48125000Y35150000I0J-100000D01*
G01*
X48125000Y33875000D01*
G75*
G02*
X48025000Y33775000I-100000J0D01*
G01*
X47825000Y33775000D01*
G75*
G02*
X47725000Y33875000I0J100000D01*
G01*
X47725000Y35150000D01*
G75*
G02*
X47825000Y35250000I100000J0D01*
G01*
G37*
G36*
G01*
X47175000Y35250000D02*
X47375000Y35250000D01*
G75*
G02*
X47475000Y35150000I0J-100000D01*
G01*
X47475000Y33875000D01*
G75*
G02*
X47375000Y33775000I-100000J0D01*
G01*
X47175000Y33775000D01*
G75*
G02*
X47075000Y33875000I0J100000D01*
G01*
X47075000Y35150000D01*
G75*
G02*
X47175000Y35250000I100000J0D01*
G01*
G37*
G36*
G01*
X46525000Y35250000D02*
X46725000Y35250000D01*
G75*
G02*
X46825000Y35150000I0J-100000D01*
G01*
X46825000Y33875000D01*
G75*
G02*
X46725000Y33775000I-100000J0D01*
G01*
X46525000Y33775000D01*
G75*
G02*
X46425000Y33875000I0J100000D01*
G01*
X46425000Y35150000D01*
G75*
G02*
X46525000Y35250000I100000J0D01*
G01*
G37*
G36*
G01*
X46525000Y29525000D02*
X46725000Y29525000D01*
G75*
G02*
X46825000Y29425000I0J-100000D01*
G01*
X46825000Y28150000D01*
G75*
G02*
X46725000Y28050000I-100000J0D01*
G01*
X46525000Y28050000D01*
G75*
G02*
X46425000Y28150000I0J100000D01*
G01*
X46425000Y29425000D01*
G75*
G02*
X46525000Y29525000I100000J0D01*
G01*
G37*
G36*
G01*
X47175000Y29525000D02*
X47375000Y29525000D01*
G75*
G02*
X47475000Y29425000I0J-100000D01*
G01*
X47475000Y28150000D01*
G75*
G02*
X47375000Y28050000I-100000J0D01*
G01*
X47175000Y28050000D01*
G75*
G02*
X47075000Y28150000I0J100000D01*
G01*
X47075000Y29425000D01*
G75*
G02*
X47175000Y29525000I100000J0D01*
G01*
G37*
G36*
G01*
X47825000Y29525000D02*
X48025000Y29525000D01*
G75*
G02*
X48125000Y29425000I0J-100000D01*
G01*
X48125000Y28150000D01*
G75*
G02*
X48025000Y28050000I-100000J0D01*
G01*
X47825000Y28050000D01*
G75*
G02*
X47725000Y28150000I0J100000D01*
G01*
X47725000Y29425000D01*
G75*
G02*
X47825000Y29525000I100000J0D01*
G01*
G37*
G36*
G01*
X48475000Y29525000D02*
X48675000Y29525000D01*
G75*
G02*
X48775000Y29425000I0J-100000D01*
G01*
X48775000Y28150000D01*
G75*
G02*
X48675000Y28050000I-100000J0D01*
G01*
X48475000Y28050000D01*
G75*
G02*
X48375000Y28150000I0J100000D01*
G01*
X48375000Y29425000D01*
G75*
G02*
X48475000Y29525000I100000J0D01*
G01*
G37*
G36*
G01*
X49125000Y29525000D02*
X49325000Y29525000D01*
G75*
G02*
X49425000Y29425000I0J-100000D01*
G01*
X49425000Y28150000D01*
G75*
G02*
X49325000Y28050000I-100000J0D01*
G01*
X49125000Y28050000D01*
G75*
G02*
X49025000Y28150000I0J100000D01*
G01*
X49025000Y29425000D01*
G75*
G02*
X49125000Y29525000I100000J0D01*
G01*
G37*
G36*
G01*
X49775000Y29525000D02*
X49975000Y29525000D01*
G75*
G02*
X50075000Y29425000I0J-100000D01*
G01*
X50075000Y28150000D01*
G75*
G02*
X49975000Y28050000I-100000J0D01*
G01*
X49775000Y28050000D01*
G75*
G02*
X49675000Y28150000I0J100000D01*
G01*
X49675000Y29425000D01*
G75*
G02*
X49775000Y29525000I100000J0D01*
G01*
G37*
G36*
G01*
X50425000Y29525000D02*
X50625000Y29525000D01*
G75*
G02*
X50725000Y29425000I0J-100000D01*
G01*
X50725000Y28150000D01*
G75*
G02*
X50625000Y28050000I-100000J0D01*
G01*
X50425000Y28050000D01*
G75*
G02*
X50325000Y28150000I0J100000D01*
G01*
X50325000Y29425000D01*
G75*
G02*
X50425000Y29525000I100000J0D01*
G01*
G37*
G36*
G01*
X51075000Y29525000D02*
X51275000Y29525000D01*
G75*
G02*
X51375000Y29425000I0J-100000D01*
G01*
X51375000Y28150000D01*
G75*
G02*
X51275000Y28050000I-100000J0D01*
G01*
X51075000Y28050000D01*
G75*
G02*
X50975000Y28150000I0J100000D01*
G01*
X50975000Y29425000D01*
G75*
G02*
X51075000Y29525000I100000J0D01*
G01*
G37*
G36*
G01*
X51725000Y29525000D02*
X51925000Y29525000D01*
G75*
G02*
X52025000Y29425000I0J-100000D01*
G01*
X52025000Y28150000D01*
G75*
G02*
X51925000Y28050000I-100000J0D01*
G01*
X51725000Y28050000D01*
G75*
G02*
X51625000Y28150000I0J100000D01*
G01*
X51625000Y29425000D01*
G75*
G02*
X51725000Y29525000I100000J0D01*
G01*
G37*
G36*
G01*
X52375000Y29525000D02*
X52575000Y29525000D01*
G75*
G02*
X52675000Y29425000I0J-100000D01*
G01*
X52675000Y28150000D01*
G75*
G02*
X52575000Y28050000I-100000J0D01*
G01*
X52375000Y28050000D01*
G75*
G02*
X52275000Y28150000I0J100000D01*
G01*
X52275000Y29425000D01*
G75*
G02*
X52375000Y29525000I100000J0D01*
G01*
G37*
G36*
G01*
X62375000Y29525000D02*
X62575000Y29525000D01*
G75*
G02*
X62675000Y29425000I0J-100000D01*
G01*
X62675000Y28150000D01*
G75*
G02*
X62575000Y28050000I-100000J0D01*
G01*
X62375000Y28050000D01*
G75*
G02*
X62275000Y28150000I0J100000D01*
G01*
X62275000Y29425000D01*
G75*
G02*
X62375000Y29525000I100000J0D01*
G01*
G37*
G36*
G01*
X61725000Y29525000D02*
X61925000Y29525000D01*
G75*
G02*
X62025000Y29425000I0J-100000D01*
G01*
X62025000Y28150000D01*
G75*
G02*
X61925000Y28050000I-100000J0D01*
G01*
X61725000Y28050000D01*
G75*
G02*
X61625000Y28150000I0J100000D01*
G01*
X61625000Y29425000D01*
G75*
G02*
X61725000Y29525000I100000J0D01*
G01*
G37*
G36*
G01*
X61075000Y29525000D02*
X61275000Y29525000D01*
G75*
G02*
X61375000Y29425000I0J-100000D01*
G01*
X61375000Y28150000D01*
G75*
G02*
X61275000Y28050000I-100000J0D01*
G01*
X61075000Y28050000D01*
G75*
G02*
X60975000Y28150000I0J100000D01*
G01*
X60975000Y29425000D01*
G75*
G02*
X61075000Y29525000I100000J0D01*
G01*
G37*
G36*
G01*
X60425000Y29525000D02*
X60625000Y29525000D01*
G75*
G02*
X60725000Y29425000I0J-100000D01*
G01*
X60725000Y28150000D01*
G75*
G02*
X60625000Y28050000I-100000J0D01*
G01*
X60425000Y28050000D01*
G75*
G02*
X60325000Y28150000I0J100000D01*
G01*
X60325000Y29425000D01*
G75*
G02*
X60425000Y29525000I100000J0D01*
G01*
G37*
G36*
G01*
X59775000Y29525000D02*
X59975000Y29525000D01*
G75*
G02*
X60075000Y29425000I0J-100000D01*
G01*
X60075000Y28150000D01*
G75*
G02*
X59975000Y28050000I-100000J0D01*
G01*
X59775000Y28050000D01*
G75*
G02*
X59675000Y28150000I0J100000D01*
G01*
X59675000Y29425000D01*
G75*
G02*
X59775000Y29525000I100000J0D01*
G01*
G37*
G36*
G01*
X59125000Y29525000D02*
X59325000Y29525000D01*
G75*
G02*
X59425000Y29425000I0J-100000D01*
G01*
X59425000Y28150000D01*
G75*
G02*
X59325000Y28050000I-100000J0D01*
G01*
X59125000Y28050000D01*
G75*
G02*
X59025000Y28150000I0J100000D01*
G01*
X59025000Y29425000D01*
G75*
G02*
X59125000Y29525000I100000J0D01*
G01*
G37*
G36*
G01*
X58475000Y29525000D02*
X58675000Y29525000D01*
G75*
G02*
X58775000Y29425000I0J-100000D01*
G01*
X58775000Y28150000D01*
G75*
G02*
X58675000Y28050000I-100000J0D01*
G01*
X58475000Y28050000D01*
G75*
G02*
X58375000Y28150000I0J100000D01*
G01*
X58375000Y29425000D01*
G75*
G02*
X58475000Y29525000I100000J0D01*
G01*
G37*
G36*
G01*
X57825000Y29525000D02*
X58025000Y29525000D01*
G75*
G02*
X58125000Y29425000I0J-100000D01*
G01*
X58125000Y28150000D01*
G75*
G02*
X58025000Y28050000I-100000J0D01*
G01*
X57825000Y28050000D01*
G75*
G02*
X57725000Y28150000I0J100000D01*
G01*
X57725000Y29425000D01*
G75*
G02*
X57825000Y29525000I100000J0D01*
G01*
G37*
G36*
G01*
X57175000Y29525000D02*
X57375000Y29525000D01*
G75*
G02*
X57475000Y29425000I0J-100000D01*
G01*
X57475000Y28150000D01*
G75*
G02*
X57375000Y28050000I-100000J0D01*
G01*
X57175000Y28050000D01*
G75*
G02*
X57075000Y28150000I0J100000D01*
G01*
X57075000Y29425000D01*
G75*
G02*
X57175000Y29525000I100000J0D01*
G01*
G37*
G36*
G01*
X56525000Y29525000D02*
X56725000Y29525000D01*
G75*
G02*
X56825000Y29425000I0J-100000D01*
G01*
X56825000Y28150000D01*
G75*
G02*
X56725000Y28050000I-100000J0D01*
G01*
X56525000Y28050000D01*
G75*
G02*
X56425000Y28150000I0J100000D01*
G01*
X56425000Y29425000D01*
G75*
G02*
X56525000Y29525000I100000J0D01*
G01*
G37*
G36*
G01*
X56525000Y35250000D02*
X56725000Y35250000D01*
G75*
G02*
X56825000Y35150000I0J-100000D01*
G01*
X56825000Y33875000D01*
G75*
G02*
X56725000Y33775000I-100000J0D01*
G01*
X56525000Y33775000D01*
G75*
G02*
X56425000Y33875000I0J100000D01*
G01*
X56425000Y35150000D01*
G75*
G02*
X56525000Y35250000I100000J0D01*
G01*
G37*
G36*
G01*
X57175000Y35250000D02*
X57375000Y35250000D01*
G75*
G02*
X57475000Y35150000I0J-100000D01*
G01*
X57475000Y33875000D01*
G75*
G02*
X57375000Y33775000I-100000J0D01*
G01*
X57175000Y33775000D01*
G75*
G02*
X57075000Y33875000I0J100000D01*
G01*
X57075000Y35150000D01*
G75*
G02*
X57175000Y35250000I100000J0D01*
G01*
G37*
G36*
G01*
X57825000Y35250000D02*
X58025000Y35250000D01*
G75*
G02*
X58125000Y35150000I0J-100000D01*
G01*
X58125000Y33875000D01*
G75*
G02*
X58025000Y33775000I-100000J0D01*
G01*
X57825000Y33775000D01*
G75*
G02*
X57725000Y33875000I0J100000D01*
G01*
X57725000Y35150000D01*
G75*
G02*
X57825000Y35250000I100000J0D01*
G01*
G37*
G36*
G01*
X58475000Y35250000D02*
X58675000Y35250000D01*
G75*
G02*
X58775000Y35150000I0J-100000D01*
G01*
X58775000Y33875000D01*
G75*
G02*
X58675000Y33775000I-100000J0D01*
G01*
X58475000Y33775000D01*
G75*
G02*
X58375000Y33875000I0J100000D01*
G01*
X58375000Y35150000D01*
G75*
G02*
X58475000Y35250000I100000J0D01*
G01*
G37*
G36*
G01*
X59125000Y35250000D02*
X59325000Y35250000D01*
G75*
G02*
X59425000Y35150000I0J-100000D01*
G01*
X59425000Y33875000D01*
G75*
G02*
X59325000Y33775000I-100000J0D01*
G01*
X59125000Y33775000D01*
G75*
G02*
X59025000Y33875000I0J100000D01*
G01*
X59025000Y35150000D01*
G75*
G02*
X59125000Y35250000I100000J0D01*
G01*
G37*
G36*
G01*
X59775000Y35250000D02*
X59975000Y35250000D01*
G75*
G02*
X60075000Y35150000I0J-100000D01*
G01*
X60075000Y33875000D01*
G75*
G02*
X59975000Y33775000I-100000J0D01*
G01*
X59775000Y33775000D01*
G75*
G02*
X59675000Y33875000I0J100000D01*
G01*
X59675000Y35150000D01*
G75*
G02*
X59775000Y35250000I100000J0D01*
G01*
G37*
G36*
G01*
X60425000Y35250000D02*
X60625000Y35250000D01*
G75*
G02*
X60725000Y35150000I0J-100000D01*
G01*
X60725000Y33875000D01*
G75*
G02*
X60625000Y33775000I-100000J0D01*
G01*
X60425000Y33775000D01*
G75*
G02*
X60325000Y33875000I0J100000D01*
G01*
X60325000Y35150000D01*
G75*
G02*
X60425000Y35250000I100000J0D01*
G01*
G37*
G36*
G01*
X61075000Y35250000D02*
X61275000Y35250000D01*
G75*
G02*
X61375000Y35150000I0J-100000D01*
G01*
X61375000Y33875000D01*
G75*
G02*
X61275000Y33775000I-100000J0D01*
G01*
X61075000Y33775000D01*
G75*
G02*
X60975000Y33875000I0J100000D01*
G01*
X60975000Y35150000D01*
G75*
G02*
X61075000Y35250000I100000J0D01*
G01*
G37*
G36*
G01*
X61725000Y35250000D02*
X61925000Y35250000D01*
G75*
G02*
X62025000Y35150000I0J-100000D01*
G01*
X62025000Y33875000D01*
G75*
G02*
X61925000Y33775000I-100000J0D01*
G01*
X61725000Y33775000D01*
G75*
G02*
X61625000Y33875000I0J100000D01*
G01*
X61625000Y35150000D01*
G75*
G02*
X61725000Y35250000I100000J0D01*
G01*
G37*
G36*
G01*
X62375000Y35250000D02*
X62575000Y35250000D01*
G75*
G02*
X62675000Y35150000I0J-100000D01*
G01*
X62675000Y33875000D01*
G75*
G02*
X62575000Y33775000I-100000J0D01*
G01*
X62375000Y33775000D01*
G75*
G02*
X62275000Y33875000I0J100000D01*
G01*
X62275000Y35150000D01*
G75*
G02*
X62375000Y35250000I100000J0D01*
G01*
G37*
G36*
G01*
X18180000Y36430000D02*
X18180000Y36770000D01*
G75*
G02*
X18320000Y36910000I140000J0D01*
G01*
X18600000Y36910000D01*
G75*
G02*
X18740000Y36770000I0J-140000D01*
G01*
X18740000Y36430000D01*
G75*
G02*
X18600000Y36290000I-140000J0D01*
G01*
X18320000Y36290000D01*
G75*
G02*
X18180000Y36430000I0J140000D01*
G01*
G37*
G36*
G01*
X19140000Y36430000D02*
X19140000Y36770000D01*
G75*
G02*
X19280000Y36910000I140000J0D01*
G01*
X19560000Y36910000D01*
G75*
G02*
X19700000Y36770000I0J-140000D01*
G01*
X19700000Y36430000D01*
G75*
G02*
X19560000Y36290000I-140000J0D01*
G01*
X19280000Y36290000D01*
G75*
G02*
X19140000Y36430000I0J140000D01*
G01*
G37*
G36*
G01*
X17760000Y38430000D02*
X17760000Y38770000D01*
G75*
G02*
X17900000Y38910000I140000J0D01*
G01*
X18180000Y38910000D01*
G75*
G02*
X18320000Y38770000I0J-140000D01*
G01*
X18320000Y38430000D01*
G75*
G02*
X18180000Y38290000I-140000J0D01*
G01*
X17900000Y38290000D01*
G75*
G02*
X17760000Y38430000I0J140000D01*
G01*
G37*
G36*
G01*
X16800000Y38430000D02*
X16800000Y38770000D01*
G75*
G02*
X16940000Y38910000I140000J0D01*
G01*
X17220000Y38910000D01*
G75*
G02*
X17360000Y38770000I0J-140000D01*
G01*
X17360000Y38430000D01*
G75*
G02*
X17220000Y38290000I-140000J0D01*
G01*
X16940000Y38290000D01*
G75*
G02*
X16800000Y38430000I0J140000D01*
G01*
G37*
G36*
G01*
X17425000Y35320000D02*
X17055000Y35320000D01*
G75*
G02*
X16920000Y35455000I0J135000D01*
G01*
X16920000Y35725000D01*
G75*
G02*
X17055000Y35860000I135000J0D01*
G01*
X17425000Y35860000D01*
G75*
G02*
X17560000Y35725000I0J-135000D01*
G01*
X17560000Y35455000D01*
G75*
G02*
X17425000Y35320000I-135000J0D01*
G01*
G37*
G36*
G01*
X17425000Y36340000D02*
X17055000Y36340000D01*
G75*
G02*
X16920000Y36475000I0J135000D01*
G01*
X16920000Y36745000D01*
G75*
G02*
X17055000Y36880000I135000J0D01*
G01*
X17425000Y36880000D01*
G75*
G02*
X17560000Y36745000I0J-135000D01*
G01*
X17560000Y36475000D01*
G75*
G02*
X17425000Y36340000I-135000J0D01*
G01*
G37*
G36*
G01*
X15925000Y38330000D02*
X15555000Y38330000D01*
G75*
G02*
X15420000Y38465000I0J135000D01*
G01*
X15420000Y38735000D01*
G75*
G02*
X15555000Y38870000I135000J0D01*
G01*
X15925000Y38870000D01*
G75*
G02*
X16060000Y38735000I0J-135000D01*
G01*
X16060000Y38465000D01*
G75*
G02*
X15925000Y38330000I-135000J0D01*
G01*
G37*
G36*
G01*
X15925000Y37310000D02*
X15555000Y37310000D01*
G75*
G02*
X15420000Y37445000I0J135000D01*
G01*
X15420000Y37715000D01*
G75*
G02*
X15555000Y37850000I135000J0D01*
G01*
X15925000Y37850000D01*
G75*
G02*
X16060000Y37715000I0J-135000D01*
G01*
X16060000Y37445000D01*
G75*
G02*
X15925000Y37310000I-135000J0D01*
G01*
G37*
G36*
G01*
X33680000Y32450000D02*
X34020000Y32450000D01*
G75*
G02*
X34160000Y32310000I0J-140000D01*
G01*
X34160000Y32030000D01*
G75*
G02*
X34020000Y31890000I-140000J0D01*
G01*
X33680000Y31890000D01*
G75*
G02*
X33540000Y32030000I0J140000D01*
G01*
X33540000Y32310000D01*
G75*
G02*
X33680000Y32450000I140000J0D01*
G01*
G37*
G36*
G01*
X33680000Y33410000D02*
X34020000Y33410000D01*
G75*
G02*
X34160000Y33270000I0J-140000D01*
G01*
X34160000Y32990000D01*
G75*
G02*
X34020000Y32850000I-140000J0D01*
G01*
X33680000Y32850000D01*
G75*
G02*
X33540000Y32990000I0J140000D01*
G01*
X33540000Y33270000D01*
G75*
G02*
X33680000Y33410000I140000J0D01*
G01*
G37*
G36*
G01*
X43680000Y33410000D02*
X44020000Y33410000D01*
G75*
G02*
X44160000Y33270000I0J-140000D01*
G01*
X44160000Y32990000D01*
G75*
G02*
X44020000Y32850000I-140000J0D01*
G01*
X43680000Y32850000D01*
G75*
G02*
X43540000Y32990000I0J140000D01*
G01*
X43540000Y33270000D01*
G75*
G02*
X43680000Y33410000I140000J0D01*
G01*
G37*
G36*
G01*
X43680000Y32450000D02*
X44020000Y32450000D01*
G75*
G02*
X44160000Y32310000I0J-140000D01*
G01*
X44160000Y32030000D01*
G75*
G02*
X44020000Y31890000I-140000J0D01*
G01*
X43680000Y31890000D01*
G75*
G02*
X43540000Y32030000I0J140000D01*
G01*
X43540000Y32310000D01*
G75*
G02*
X43680000Y32450000I140000J0D01*
G01*
G37*
G36*
G01*
X53680000Y32450000D02*
X54020000Y32450000D01*
G75*
G02*
X54160000Y32310000I0J-140000D01*
G01*
X54160000Y32030000D01*
G75*
G02*
X54020000Y31890000I-140000J0D01*
G01*
X53680000Y31890000D01*
G75*
G02*
X53540000Y32030000I0J140000D01*
G01*
X53540000Y32310000D01*
G75*
G02*
X53680000Y32450000I140000J0D01*
G01*
G37*
G36*
G01*
X53680000Y33410000D02*
X54020000Y33410000D01*
G75*
G02*
X54160000Y33270000I0J-140000D01*
G01*
X54160000Y32990000D01*
G75*
G02*
X54020000Y32850000I-140000J0D01*
G01*
X53680000Y32850000D01*
G75*
G02*
X53540000Y32990000I0J140000D01*
G01*
X53540000Y33270000D01*
G75*
G02*
X53680000Y33410000I140000J0D01*
G01*
G37*
G36*
G01*
X63680000Y33410000D02*
X64020000Y33410000D01*
G75*
G02*
X64160000Y33270000I0J-140000D01*
G01*
X64160000Y32990000D01*
G75*
G02*
X64020000Y32850000I-140000J0D01*
G01*
X63680000Y32850000D01*
G75*
G02*
X63540000Y32990000I0J140000D01*
G01*
X63540000Y33270000D01*
G75*
G02*
X63680000Y33410000I140000J0D01*
G01*
G37*
G36*
G01*
X63680000Y32450000D02*
X64020000Y32450000D01*
G75*
G02*
X64160000Y32310000I0J-140000D01*
G01*
X64160000Y32030000D01*
G75*
G02*
X64020000Y31890000I-140000J0D01*
G01*
X63680000Y31890000D01*
G75*
G02*
X63540000Y32030000I0J140000D01*
G01*
X63540000Y32310000D01*
G75*
G02*
X63680000Y32450000I140000J0D01*
G01*
G37*
G36*
G01*
X34020000Y30650000D02*
X33680000Y30650000D01*
G75*
G02*
X33540000Y30790000I0J140000D01*
G01*
X33540000Y31070000D01*
G75*
G02*
X33680000Y31210000I140000J0D01*
G01*
X34020000Y31210000D01*
G75*
G02*
X34160000Y31070000I0J-140000D01*
G01*
X34160000Y30790000D01*
G75*
G02*
X34020000Y30650000I-140000J0D01*
G01*
G37*
G36*
G01*
X34020000Y29690000D02*
X33680000Y29690000D01*
G75*
G02*
X33540000Y29830000I0J140000D01*
G01*
X33540000Y30110000D01*
G75*
G02*
X33680000Y30250000I140000J0D01*
G01*
X34020000Y30250000D01*
G75*
G02*
X34160000Y30110000I0J-140000D01*
G01*
X34160000Y29830000D01*
G75*
G02*
X34020000Y29690000I-140000J0D01*
G01*
G37*
G36*
G01*
X44020000Y29690000D02*
X43680000Y29690000D01*
G75*
G02*
X43540000Y29830000I0J140000D01*
G01*
X43540000Y30110000D01*
G75*
G02*
X43680000Y30250000I140000J0D01*
G01*
X44020000Y30250000D01*
G75*
G02*
X44160000Y30110000I0J-140000D01*
G01*
X44160000Y29830000D01*
G75*
G02*
X44020000Y29690000I-140000J0D01*
G01*
G37*
G36*
G01*
X44020000Y30650000D02*
X43680000Y30650000D01*
G75*
G02*
X43540000Y30790000I0J140000D01*
G01*
X43540000Y31070000D01*
G75*
G02*
X43680000Y31210000I140000J0D01*
G01*
X44020000Y31210000D01*
G75*
G02*
X44160000Y31070000I0J-140000D01*
G01*
X44160000Y30790000D01*
G75*
G02*
X44020000Y30650000I-140000J0D01*
G01*
G37*
G36*
G01*
X54020000Y30650000D02*
X53680000Y30650000D01*
G75*
G02*
X53540000Y30790000I0J140000D01*
G01*
X53540000Y31070000D01*
G75*
G02*
X53680000Y31210000I140000J0D01*
G01*
X54020000Y31210000D01*
G75*
G02*
X54160000Y31070000I0J-140000D01*
G01*
X54160000Y30790000D01*
G75*
G02*
X54020000Y30650000I-140000J0D01*
G01*
G37*
G36*
G01*
X54020000Y29690000D02*
X53680000Y29690000D01*
G75*
G02*
X53540000Y29830000I0J140000D01*
G01*
X53540000Y30110000D01*
G75*
G02*
X53680000Y30250000I140000J0D01*
G01*
X54020000Y30250000D01*
G75*
G02*
X54160000Y30110000I0J-140000D01*
G01*
X54160000Y29830000D01*
G75*
G02*
X54020000Y29690000I-140000J0D01*
G01*
G37*
G36*
G01*
X64020000Y29690000D02*
X63680000Y29690000D01*
G75*
G02*
X63540000Y29830000I0J140000D01*
G01*
X63540000Y30110000D01*
G75*
G02*
X63680000Y30250000I140000J0D01*
G01*
X64020000Y30250000D01*
G75*
G02*
X64160000Y30110000I0J-140000D01*
G01*
X64160000Y29830000D01*
G75*
G02*
X64020000Y29690000I-140000J0D01*
G01*
G37*
G36*
G01*
X64020000Y30650000D02*
X63680000Y30650000D01*
G75*
G02*
X63540000Y30790000I0J140000D01*
G01*
X63540000Y31070000D01*
G75*
G02*
X63680000Y31210000I140000J0D01*
G01*
X64020000Y31210000D01*
G75*
G02*
X64160000Y31070000I0J-140000D01*
G01*
X64160000Y30790000D01*
G75*
G02*
X64020000Y30650000I-140000J0D01*
G01*
G37*
G36*
G01*
X15805000Y53480000D02*
X16145000Y53480000D01*
G75*
G02*
X16285000Y53340000I0J-140000D01*
G01*
X16285000Y53060000D01*
G75*
G02*
X16145000Y52920000I-140000J0D01*
G01*
X15805000Y52920000D01*
G75*
G02*
X15665000Y53060000I0J140000D01*
G01*
X15665000Y53340000D01*
G75*
G02*
X15805000Y53480000I140000J0D01*
G01*
G37*
G36*
G01*
X15805000Y52520000D02*
X16145000Y52520000D01*
G75*
G02*
X16285000Y52380000I0J-140000D01*
G01*
X16285000Y52100000D01*
G75*
G02*
X16145000Y51960000I-140000J0D01*
G01*
X15805000Y51960000D01*
G75*
G02*
X15665000Y52100000I0J140000D01*
G01*
X15665000Y52380000D01*
G75*
G02*
X15805000Y52520000I140000J0D01*
G01*
G37*
G36*
G01*
X17130000Y52520000D02*
X17470000Y52520000D01*
G75*
G02*
X17610000Y52380000I0J-140000D01*
G01*
X17610000Y52100000D01*
G75*
G02*
X17470000Y51960000I-140000J0D01*
G01*
X17130000Y51960000D01*
G75*
G02*
X16990000Y52100000I0J140000D01*
G01*
X16990000Y52380000D01*
G75*
G02*
X17130000Y52520000I140000J0D01*
G01*
G37*
G36*
G01*
X17130000Y53480000D02*
X17470000Y53480000D01*
G75*
G02*
X17610000Y53340000I0J-140000D01*
G01*
X17610000Y53060000D01*
G75*
G02*
X17470000Y52920000I-140000J0D01*
G01*
X17130000Y52920000D01*
G75*
G02*
X16990000Y53060000I0J140000D01*
G01*
X16990000Y53340000D01*
G75*
G02*
X17130000Y53480000I140000J0D01*
G01*
G37*
G36*
G01*
X16280000Y56310000D02*
X15940000Y56310000D01*
G75*
G02*
X15800000Y56450000I0J140000D01*
G01*
X15800000Y56730000D01*
G75*
G02*
X15940000Y56870000I140000J0D01*
G01*
X16280000Y56870000D01*
G75*
G02*
X16420000Y56730000I0J-140000D01*
G01*
X16420000Y56450000D01*
G75*
G02*
X16280000Y56310000I-140000J0D01*
G01*
G37*
G36*
G01*
X16280000Y57270000D02*
X15940000Y57270000D01*
G75*
G02*
X15800000Y57410000I0J140000D01*
G01*
X15800000Y57690000D01*
G75*
G02*
X15940000Y57830000I140000J0D01*
G01*
X16280000Y57830000D01*
G75*
G02*
X16420000Y57690000I0J-140000D01*
G01*
X16420000Y57410000D01*
G75*
G02*
X16280000Y57270000I-140000J0D01*
G01*
G37*
G36*
G01*
X17530000Y57270000D02*
X17190000Y57270000D01*
G75*
G02*
X17050000Y57410000I0J140000D01*
G01*
X17050000Y57690000D01*
G75*
G02*
X17190000Y57830000I140000J0D01*
G01*
X17530000Y57830000D01*
G75*
G02*
X17670000Y57690000I0J-140000D01*
G01*
X17670000Y57410000D01*
G75*
G02*
X17530000Y57270000I-140000J0D01*
G01*
G37*
G36*
G01*
X17530000Y56310000D02*
X17190000Y56310000D01*
G75*
G02*
X17050000Y56450000I0J140000D01*
G01*
X17050000Y56730000D01*
G75*
G02*
X17190000Y56870000I140000J0D01*
G01*
X17530000Y56870000D01*
G75*
G02*
X17670000Y56730000I0J-140000D01*
G01*
X17670000Y56450000D01*
G75*
G02*
X17530000Y56310000I-140000J0D01*
G01*
G37*
G36*
G01*
X17130000Y51105000D02*
X17470000Y51105000D01*
G75*
G02*
X17610000Y50965000I0J-140000D01*
G01*
X17610000Y50685000D01*
G75*
G02*
X17470000Y50545000I-140000J0D01*
G01*
X17130000Y50545000D01*
G75*
G02*
X16990000Y50685000I0J140000D01*
G01*
X16990000Y50965000D01*
G75*
G02*
X17130000Y51105000I140000J0D01*
G01*
G37*
G36*
G01*
X17130000Y50145000D02*
X17470000Y50145000D01*
G75*
G02*
X17610000Y50005000I0J-140000D01*
G01*
X17610000Y49725000D01*
G75*
G02*
X17470000Y49585000I-140000J0D01*
G01*
X17130000Y49585000D01*
G75*
G02*
X16990000Y49725000I0J140000D01*
G01*
X16990000Y50005000D01*
G75*
G02*
X17130000Y50145000I140000J0D01*
G01*
G37*
G36*
G01*
X30710000Y52130000D02*
X30710000Y52470000D01*
G75*
G02*
X30850000Y52610000I140000J0D01*
G01*
X31130000Y52610000D01*
G75*
G02*
X31270000Y52470000I0J-140000D01*
G01*
X31270000Y52130000D01*
G75*
G02*
X31130000Y51990000I-140000J0D01*
G01*
X30850000Y51990000D01*
G75*
G02*
X30710000Y52130000I0J140000D01*
G01*
G37*
G36*
G01*
X29750000Y52130000D02*
X29750000Y52470000D01*
G75*
G02*
X29890000Y52610000I140000J0D01*
G01*
X30170000Y52610000D01*
G75*
G02*
X30310000Y52470000I0J-140000D01*
G01*
X30310000Y52130000D01*
G75*
G02*
X30170000Y51990000I-140000J0D01*
G01*
X29890000Y51990000D01*
G75*
G02*
X29750000Y52130000I0J140000D01*
G01*
G37*
G36*
G01*
X20460000Y60465000D02*
X20460000Y60125000D01*
G75*
G02*
X20320000Y59985000I-140000J0D01*
G01*
X20040000Y59985000D01*
G75*
G02*
X19900000Y60125000I0J140000D01*
G01*
X19900000Y60465000D01*
G75*
G02*
X20040000Y60605000I140000J0D01*
G01*
X20320000Y60605000D01*
G75*
G02*
X20460000Y60465000I0J-140000D01*
G01*
G37*
G36*
G01*
X19500000Y60465000D02*
X19500000Y60125000D01*
G75*
G02*
X19360000Y59985000I-140000J0D01*
G01*
X19080000Y59985000D01*
G75*
G02*
X18940000Y60125000I0J140000D01*
G01*
X18940000Y60465000D01*
G75*
G02*
X19080000Y60605000I140000J0D01*
G01*
X19360000Y60605000D01*
G75*
G02*
X19500000Y60465000I0J-140000D01*
G01*
G37*
G36*
G01*
X21820000Y47580000D02*
X22160000Y47580000D01*
G75*
G02*
X22300000Y47440000I0J-140000D01*
G01*
X22300000Y47160000D01*
G75*
G02*
X22160000Y47020000I-140000J0D01*
G01*
X21820000Y47020000D01*
G75*
G02*
X21680000Y47160000I0J140000D01*
G01*
X21680000Y47440000D01*
G75*
G02*
X21820000Y47580000I140000J0D01*
G01*
G37*
G36*
G01*
X21820000Y48540000D02*
X22160000Y48540000D01*
G75*
G02*
X22300000Y48400000I0J-140000D01*
G01*
X22300000Y48120000D01*
G75*
G02*
X22160000Y47980000I-140000J0D01*
G01*
X21820000Y47980000D01*
G75*
G02*
X21680000Y48120000I0J140000D01*
G01*
X21680000Y48400000D01*
G75*
G02*
X21820000Y48540000I140000J0D01*
G01*
G37*
G36*
G01*
X27055000Y48580000D02*
X27395000Y48580000D01*
G75*
G02*
X27535000Y48440000I0J-140000D01*
G01*
X27535000Y48160000D01*
G75*
G02*
X27395000Y48020000I-140000J0D01*
G01*
X27055000Y48020000D01*
G75*
G02*
X26915000Y48160000I0J140000D01*
G01*
X26915000Y48440000D01*
G75*
G02*
X27055000Y48580000I140000J0D01*
G01*
G37*
G36*
G01*
X27055000Y47620000D02*
X27395000Y47620000D01*
G75*
G02*
X27535000Y47480000I0J-140000D01*
G01*
X27535000Y47200000D01*
G75*
G02*
X27395000Y47060000I-140000J0D01*
G01*
X27055000Y47060000D01*
G75*
G02*
X26915000Y47200000I0J140000D01*
G01*
X26915000Y47480000D01*
G75*
G02*
X27055000Y47620000I140000J0D01*
G01*
G37*
G36*
G01*
X30700000Y54775000D02*
X30700000Y55115000D01*
G75*
G02*
X30840000Y55255000I140000J0D01*
G01*
X31120000Y55255000D01*
G75*
G02*
X31260000Y55115000I0J-140000D01*
G01*
X31260000Y54775000D01*
G75*
G02*
X31120000Y54635000I-140000J0D01*
G01*
X30840000Y54635000D01*
G75*
G02*
X30700000Y54775000I0J140000D01*
G01*
G37*
G36*
G01*
X29740000Y54775000D02*
X29740000Y55115000D01*
G75*
G02*
X29880000Y55255000I140000J0D01*
G01*
X30160000Y55255000D01*
G75*
G02*
X30300000Y55115000I0J-140000D01*
G01*
X30300000Y54775000D01*
G75*
G02*
X30160000Y54635000I-140000J0D01*
G01*
X29880000Y54635000D01*
G75*
G02*
X29740000Y54775000I0J140000D01*
G01*
G37*
G36*
G01*
X23890000Y60100000D02*
X23890000Y60440000D01*
G75*
G02*
X24030000Y60580000I140000J0D01*
G01*
X24310000Y60580000D01*
G75*
G02*
X24450000Y60440000I0J-140000D01*
G01*
X24450000Y60100000D01*
G75*
G02*
X24310000Y59960000I-140000J0D01*
G01*
X24030000Y59960000D01*
G75*
G02*
X23890000Y60100000I0J140000D01*
G01*
G37*
G36*
G01*
X24850000Y60100000D02*
X24850000Y60440000D01*
G75*
G02*
X24990000Y60580000I140000J0D01*
G01*
X25270000Y60580000D01*
G75*
G02*
X25410000Y60440000I0J-140000D01*
G01*
X25410000Y60100000D01*
G75*
G02*
X25270000Y59960000I-140000J0D01*
G01*
X24990000Y59960000D01*
G75*
G02*
X24850000Y60100000I0J140000D01*
G01*
G37*
G36*
G01*
X14822500Y51940000D02*
X14477500Y51940000D01*
G75*
G02*
X14330000Y52087500I0J147500D01*
G01*
X14330000Y52382500D01*
G75*
G02*
X14477500Y52530000I147500J0D01*
G01*
X14822500Y52530000D01*
G75*
G02*
X14970000Y52382500I0J-147500D01*
G01*
X14970000Y52087500D01*
G75*
G02*
X14822500Y51940000I-147500J0D01*
G01*
G37*
G36*
G01*
X14822500Y52910000D02*
X14477500Y52910000D01*
G75*
G02*
X14330000Y53057500I0J147500D01*
G01*
X14330000Y53352500D01*
G75*
G02*
X14477500Y53500000I147500J0D01*
G01*
X14822500Y53500000D01*
G75*
G02*
X14970000Y53352500I0J-147500D01*
G01*
X14970000Y53057500D01*
G75*
G02*
X14822500Y52910000I-147500J0D01*
G01*
G37*
G36*
G01*
X14537500Y56855000D02*
X14882500Y56855000D01*
G75*
G02*
X15030000Y56707500I0J-147500D01*
G01*
X15030000Y56412500D01*
G75*
G02*
X14882500Y56265000I-147500J0D01*
G01*
X14537500Y56265000D01*
G75*
G02*
X14390000Y56412500I0J147500D01*
G01*
X14390000Y56707500D01*
G75*
G02*
X14537500Y56855000I147500J0D01*
G01*
G37*
G36*
G01*
X14537500Y57825000D02*
X14882500Y57825000D01*
G75*
G02*
X15030000Y57677500I0J-147500D01*
G01*
X15030000Y57382500D01*
G75*
G02*
X14882500Y57235000I-147500J0D01*
G01*
X14537500Y57235000D01*
G75*
G02*
X14390000Y57382500I0J147500D01*
G01*
X14390000Y57677500D01*
G75*
G02*
X14537500Y57825000I147500J0D01*
G01*
G37*
D32*
X14230000Y62490000D03*
X70000000Y56000000D03*
X16950000Y27930000D03*
X76000000Y56000000D03*
D33*
X70000000Y66000000D03*
X3610000Y74490000D03*
D34*
X24050000Y37580000D03*
X22140000Y35570000D03*
X30730000Y61150000D03*
X16360000Y43690000D03*
D32*
X28180000Y64260000D03*
X9130000Y64720000D03*
D34*
X63510000Y54250000D03*
M02*
