M48
; DRILL file {KiCad (5.1.10-1-10_14)} date Tuesday, July 06, 2021 at 04:21:40 PM
; FORMAT={-:-/ absolute / metric / decimal}
; #@! TF.CreationDate,2021-07-06T16:21:40+02:00
; #@! TF.GenerationSoftware,Kicad,Pcbnew,(5.1.10-1-10_14)
FMAT,2
METRIC
T1C0.200
T2C0.300
T3C0.600
T4C0.762
T5C0.800
T6C1.000
T7C1.200
T8C0.650
T9C2.200
T10C3.000
T11C4.300
%
G90
G05
T1
X41.72Y50.89
X42.74Y49.84
X42.77Y51.37
X42.825Y45.35
X42.85Y57.575
X43.825Y57.725
X44.075Y56.35
X44.075Y55.35
X44.075Y53.35
X44.075Y52.35
X44.075Y51.375
X44.075Y49.35
X44.075Y48.35
X44.075Y45.35
X44.075Y44.35
X44.075Y43.35
X45.05Y55.375
X45.075Y52.35
X45.075Y51.35
X45.075Y50.35
X45.075Y48.35
X45.075Y47.35
X45.075Y46.35
X45.075Y45.35
X46.075Y55.35
X46.075Y54.35
X46.075Y52.35
X46.075Y51.35
X46.075Y49.35
X46.075Y48.35
X46.075Y47.35
X46.075Y46.35
X47.075Y57.35
X47.075Y56.35
X47.075Y53.35
X47.075Y52.35
X47.075Y51.35
X47.075Y49.35
X47.075Y48.35
X47.075Y47.35
X47.075Y44.35
X47.075Y43.35
X47.58Y57.72
X48.075Y53.35
X48.075Y52.35
X48.075Y51.35
X48.075Y49.35
X48.075Y48.35
X48.075Y47.35
X49.075Y55.35
X49.075Y53.35
X49.075Y52.35
X49.075Y51.35
X49.075Y49.35
X49.075Y48.325
X49.075Y47.35
X50.575Y57.675
X51.075Y56.35
X51.075Y55.35
X51.075Y53.35
X51.075Y52.35
X51.075Y51.35
X51.075Y49.35
X51.075Y48.35
X51.075Y47.35
X51.075Y45.35
X51.075Y44.35
X51.525Y58.6
X51.575Y57.675
X52.075Y55.35
X52.075Y53.35
X52.075Y52.35
X52.075Y51.35
X52.075Y49.35
X52.075Y48.35
X52.075Y47.35
X52.575Y57.575
X52.575Y43.0
X53.075Y55.35
X53.075Y53.35
X53.075Y52.35
X53.075Y51.35
X53.075Y49.35
X53.075Y48.35
X53.075Y47.35
X54.05Y48.35
X54.075Y53.35
X54.075Y52.35
X54.075Y51.35
X54.075Y49.35
X54.075Y47.35
X54.075Y46.35
X54.075Y45.35
X54.1Y55.375
X55.075Y57.575
X55.075Y56.35
X55.075Y54.35
X55.075Y52.35
X55.075Y51.35
X55.075Y49.35
X55.075Y48.35
X55.075Y47.35
X55.075Y46.35
X55.075Y45.35
X55.075Y44.35
X55.1Y55.375
X55.1Y42.05
X56.075Y54.35
X56.075Y51.35
X56.075Y49.35
X56.075Y48.35
X56.075Y45.35
X57.2Y57.475
X57.25Y43.175
X57.3Y56.35
X57.35Y46.875
X57.39Y50.86
X57.4Y54.3
X57.4Y51.85
X57.4Y48.85
X57.44Y44.35
X58.375Y47.85
X58.375Y47.35
X59.8Y45.35
X60.3Y46.0
X68.61Y52.225
T2
X7.83Y68.91
X8.31Y57.02
X8.31Y52.67
X8.43Y58.54
X8.58Y51.88
X9.5Y59.63
X9.53Y71.91
X9.58Y69.5
X10.17Y68.29
X11.44Y67.17
X11.54Y56.46
X11.55Y53.46
X11.77Y64.73
X11.77Y61.79
X12.81Y67.13
X13.42Y52.24
X13.53Y48.66
X14.11Y65.09
X14.17Y66.39
X14.58Y51.13
X14.72Y58.5
X15.07Y71.41
X15.76Y69.99
X15.98Y51.22
X16.09Y48.77
X16.11Y58.52
X16.24Y49.86
X16.3Y67.39
X16.58Y51.48
X16.68Y55.46
X17.06Y75.03
X17.21Y67.91
X17.35Y58.52
X17.86Y67.89
X17.866Y75.066
X17.87Y71.64
X17.89Y72.83
X17.92Y70.33
X18.05Y39.53
X18.12Y60.29
X18.2Y43.69
X18.204Y51.256
X18.24Y55.945
X18.27Y53.06
X18.28Y58.51
X18.37Y68.25
X18.88Y75.57
X19.3Y70.37
X19.38Y71.64
X19.42Y72.86
X19.42Y68.07
X19.45Y41.51
X20.31Y36.6
X20.43Y64.95
X20.66Y50.96
X20.74Y74.66
X20.75Y64.09
X20.79Y52.46
X20.95Y57.45
X21.29Y41.51
X21.39Y60.3
X21.69Y64.1
X21.73Y69.21
X21.75Y71.41
X22.2Y43.63
X22.37Y55.74
X22.4Y52.68
X22.95Y60.27
X23.12Y48.23
X23.12Y47.3
X23.14Y41.5
X23.17Y54.94
X23.21Y53.49
X23.42Y64.96
X23.66Y66.18
X24.18Y48.4
X24.635Y53.485
X24.66Y54.93
X24.77Y68.41
X24.79Y67.48
X25.0Y41.5
X25.12Y61.38
X25.43Y52.69
X25.47Y55.74
X25.56Y67.125
X26.05Y47.33
X26.07Y48.3
X26.61Y32.88
X26.63Y30.31
X26.69Y60.08
X27.01Y71.52
X27.11Y52.44
X27.65Y68.43
X28.25Y73.36
X28.27Y69.64
X28.75Y70.25
X28.95Y66.39
X28.96Y65.54
X29.25Y70.59
X29.51Y51.45
X29.59Y75.85
X29.67Y41.58
X29.75Y70.24
X29.8Y57.45
X30.03Y56.07
X30.088Y48.968
X30.25Y70.63
X30.45Y40.97
X30.75Y73.26
X31.25Y73.66
X31.73Y69.98
X31.81Y32.88
X31.82Y27.19
X32.0Y52.3
X32.07Y54.95
X32.41Y69.35
X32.75Y73.26
X32.92Y52.21
X33.27Y56.54
X33.31Y62.82
X33.83Y28.51
X33.84Y34.24
X34.03Y66.23
X34.28Y62.84
X34.91Y30.95
X34.93Y32.18
X35.37Y56.54
X36.32Y49.98
X36.47Y56.47
X36.64Y32.96
X36.64Y30.23
X37.05Y59.6
X37.25Y73.27
X37.3Y54.56
X37.3Y53.43
X37.32Y52.26
X37.51Y69.1
X37.75Y73.65
X37.79Y60.38
X38.4Y50.62
X38.78Y57.8
X38.99Y55.6
X39.25Y57.34
X39.32Y51.3
X39.68Y59.52
X40.05Y48.85
X40.25Y73.27
X40.28Y54.563
X40.39Y60.261
X40.39Y53.36
X40.89Y60.68
X41.39Y60.291
X41.83Y33.12
X41.83Y27.1
X41.89Y60.71
X42.39Y60.32
X43.83Y60.34
X43.85Y28.58
X44.56Y60.34
X44.99Y30.93
X45.0Y33.12
X45.02Y32.2
X45.07Y60.82
X45.59Y60.33
X46.09Y60.77
X46.59Y60.32
X46.63Y32.98
X46.65Y30.33
X47.57Y60.25
X48.07Y60.6
X48.57Y60.245
X48.75Y73.25
X49.07Y60.63
X49.57Y60.21
X51.52Y60.14
X51.75Y73.27
X51.82Y27.11
X51.83Y32.96
X52.07Y60.49
X52.25Y73.69
X52.49Y17.87
X53.07Y60.09
X53.57Y60.49
X53.86Y28.6
X54.075Y60.076
X54.575Y60.455
X55.02Y32.16
X55.02Y30.93
X55.04Y33.14
X55.075Y60.055
X55.59Y60.45
X56.09Y60.08
X56.62Y33.01
X56.65Y30.38
X56.82Y42.13
X56.82Y39.64
X57.64Y60.06
X57.76Y39.64
X57.77Y42.12
X58.15Y60.43
X58.46Y52.31
X58.47Y51.47
X58.49Y50.63
X58.65Y60.03
X58.69Y42.07
X58.69Y39.65
X59.16Y60.41
X59.54Y46.4
X59.62Y42.09
X59.63Y39.62
X59.66Y59.99
X60.16Y60.39
X60.66Y59.98
X60.95Y51.48
X60.98Y53.15
X61.16Y60.39
X61.341Y50.589
X61.82Y33.03
X61.85Y27.17
X61.87Y49.66
X62.32Y47.02
X63.51Y50.6
X63.51Y49.95
X63.83Y28.63
X64.46Y48.625
X65.03Y32.17
X65.03Y30.95
X65.07Y33.13
X65.735Y46.5
X67.22Y39.96
X67.22Y38.18
X67.24Y37.24
X69.47Y41.6
X69.69Y38.0
X69.91Y53.05
X70.94Y36.31
X71.51Y52.95
X71.51Y46.85
X72.62Y41.42
X73.68Y41.15
X76.48Y38.43
T4
X11.5Y38.6
X11.5Y36.6
X11.5Y34.6
X11.5Y32.6
X11.5Y30.6
X17.525Y6.5
X19.025Y7.7
X20.525Y6.5
X22.025Y7.7
X23.525Y6.5
X25.025Y7.7
X26.525Y6.5
X28.025Y7.7
X29.525Y6.5
X31.025Y7.7
X32.525Y6.5
X34.025Y7.7
X35.525Y6.5
X37.025Y7.7
X38.525Y6.5
X40.025Y7.7
X41.525Y6.5
X43.025Y7.7
X44.525Y6.5
X46.025Y7.7
X47.525Y6.5
X49.025Y7.7
X50.525Y6.5
X52.025Y7.7
X53.525Y6.5
X55.025Y7.7
X56.525Y6.5
X58.025Y7.7
X59.525Y6.5
X61.025Y7.7
X62.525Y6.5
X64.025Y7.7
T5
X67.1Y75.15
X67.1Y72.65
X71.1Y75.15
X71.1Y72.65
X75.1Y75.15
X75.1Y72.65
T6
X12.0Y3.0
X18.0Y3.0
T7
X1.5Y39.6
X1.5Y29.6
X65.0Y73.9
X77.2Y73.9
T8
X5.705Y58.09
X5.705Y52.31
T9
X3.5Y66.1
X77.6Y66.1
T10
X12.025Y15.9
X68.025Y15.9
T11
X5.0Y5.0
X9.025Y9.4
X71.025Y9.4
T3
G00X2.325Y59.52
M15
G01X1.725Y59.52
M16
G05
G00X2.325Y50.88
M15
G01X1.725Y50.88
M16
G05
G00X6.755Y59.52
M15
G01X5.655Y59.52
M16
G05
G00X6.755Y50.88
M15
G01X5.655Y50.88
M16
G05
T11
G00X74.6Y5.0
M15
G01X75.6Y5.0
M16
G05
T0
M30
